<svg xmlns="http://www.w3.org/2000/svg" width="256" height="256" viewBox="0 0 256 256">
  <defs>
    <style>
      .cls-1 {
        fill: #191919;
      }

      .cls-2 {
        fill: #fefffe;
        stroke: #fefffe;
        stroke-miterlimit: 10;
        stroke-width: 2.5px;
      }
    </style>
  </defs>
  <title>logo-sample-1</title>
  <g id="Layer_1" data-name="Layer 1">
    <rect class="cls-1" width="256" height="256"/>
  </g>
  <g id="Layer_2" data-name="Layer 2">
    <g id="Layer_2-2" data-name="Layer 2">
      <g id="Layer_1-2" data-name="Layer 1-2">
        <path class="cls-2" d="M184.93,182.14l-30.06-52-11.94-20.71,13.32-23.13,42,72.48Zm-85.32.9L86.22,159.95H142a.63.63,0,0,0,.72-.83.86.86,0,0,0,0-.41L128.4,134a.86.86,0,0,0-.52-.38h-57L57.67,110.42h83.87l42,72.48Zm40.9-24.82H86.22L99.54,135.1h27.61ZM99.47,36h83.87L170,59.16H113.1a.83.83,0,0,0-.52.38L98.3,84.32a.86.86,0,0,0,0,.41.83.83,0,0,0,.83.83H154.8l-13.32,23.13H57.67Zm85.39,47L171.57,59.92,180.2,45l4.63-8.28,13.36,23.09Zm-28.61.86H128.12L116.35,63.44l-1.59-2.59H170l13.36,23.09ZM113.31,61.65l12.87,22.26H100.47l8.42-14.6Zm86.63,97-42.18-73h27.16a.83.83,0,0,0,.72-.41l14.22-24.82a.83.83,0,0,0,0-.83l-14.5-24.78a.83.83,0,0,0-.72-.41l-85.56.07a.83.83,0,0,0-.72.41L55.43,109.17a.83.83,0,0,0,0,.83l14.32,24.78a.83.83,0,0,0,.72.41H97.64L84,158.67a.83.83,0,0,0,0,.83l14.32,24.75a.83.83,0,0,0,.72.41H184.9a.83.83,0,0,0,.59-.24v-.17l14.29-24.78A.83.83,0,0,0,199.95,158.6Z" transform="translate(0 0)"/>
      </g>
    </g>
  </g>
  <g id="Layer_4" data-name="Layer 4">
    <rect class="cls-2" x="55.5" y="193.5" width="144" height="28"/>
  </g>
  <g id="Layer_3" data-name="Layer 3">
    <g>
      <path class="cls-1" d="M72.67,200.43a14.37,14.37,0,0,1,5.2.73l-.69,3a10.79,10.79,0,0,0-4-.55c-2.3,0-5,1-5.12,3.85C68,210.58,70.18,212,73,212a14.08,14.08,0,0,0,4.36-.59l.79,2.33A11.83,11.83,0,0,1,72,215.16c-6.24,0-9.35-3.09-9.35-7.19S65.87,200.43,72.67,200.43Z" transform="translate(0 0)"/>
      <path class="cls-1" d="M102.43,200.43c4.15,0,7.89,1.45,8,5.62a14,14,0,0,1-.19,2.69H98.34c.23,2.44,2.27,3.51,5.36,3.51a19.52,19.52,0,0,0,5.15-.74l.9,2.23a17.25,17.25,0,0,1-7.44,1.43c-6.12,0-9.46-2.77-9.46-7.42C92.85,203.57,96.28,200.45,102.43,200.43Zm2.87,6.14c.18-2.1-.58-3.34-3-3.34-2,0-3.43.8-3.81,3.34Z" transform="translate(0 0)"/>
      <path class="cls-1" d="M127,194.07h5.48V215H127Z" transform="translate(0 0)"/>
      <path class="cls-1" d="M150.6,194.07h5.48V215H150.6Z" transform="translate(0 0)"/>
      <path class="cls-1" d="M175.79,216.53c5.8,0,9.84-1.82,9.84-4.51,0-1.82-1.35-2.72-5-2.73a24.86,24.86,0,0,0-5.22.83l-.88-.38,1.16-10.52h14.89l-.49,3.36H179.63l-.58,4.21a27.42,27.42,0,0,1,4.43-.44c4.92,0,7.75,2.19,7.75,5.53,0,4.2-5.61,7.49-14.48,7.53a13.9,13.9,0,0,1-2.37-.16l0-2.74Z" transform="translate(0 0)"/>
    </g>
  </g>
</svg>
