<svg width="1920" height="988" viewBox="0 0 1920 988" fill="none" xmlns="http://www.w3.org/2000/svg">
    <path d="M-106 349.614C-106 349.614 -7.40791 332.435 150.937 231.562C245.718 169.128 399.35 142.569 506.826 174.084C643.653 196.594 709.892 224.007 865.278 174.084C1020.66 124.161 1649.56 -28.356 1954.51 4.62468C1954.82 6.17998 1954.51 966.556 1954.51 966.556H-106V349.614Z" fill="#25272E"/>
    <path d="M2161.59 889.934C2161.59 889.934 2057.46 871.805 1890.2 765.358C1790.09 699.474 1627.81 671.447 1514.29 704.704C1369.76 728.458 1299.8 757.385 1135.67 704.704C971.539 652.022 307.256 491.077 -14.8555 525.88C-15.1809 527.521 -14.8555 987.94 -14.8555 987.94H2161.59V889.934Z" fill="white"/>
</svg>
