<svg xmlns="http://www.w3.org/2000/svg" width="1920" height="1500">
   
    <symbol id="curve1" viewBox="0 0 1919 503">
        <path opacity="0.24" d="M1919 44.7982C1919 44.7982 1763.16 52.7591 1640.36 7.62522C1517.55 -37.5086 1148.04 132.136 1124.24 139.739C1100.44 147.342 939.132 188.907 739.352 178.479C539.573 168.051 45.5255 213.578 0 233.518C1.42902 234.053 0 503 0 503H1919V44.7982Z" fill="white"/>
    </symbol>
    <symbol id="curve2" viewBox="0 0 1920 536">
        <path opacity="0.123" d="M1919.78 15.4314C1919.78 15.4314 1709.01 -47.2804 1543.48 80.1391C1377.94 207.559 1215.21 197.515 1088.48 176.806C961.746 156.097 699.889 137.062 399.727 330.057C374.447 347.355 101.652 386.425 0.0795556 369.309C-0.0994444 368.88 0.0795556 535.959 0.0795556 535.959H1919.78V15.4314Z" fill="white"/>
    </symbol>
    <symbol id="curve3" viewBox="0 0 1920 988">
        <path d="M-106 349.614C-106 349.614 -7.40791 332.435 150.937 231.562C245.718 169.128 399.35 142.569 506.826 174.084C643.653 196.594 709.892 224.007 865.278 174.084C1020.66 124.161 1649.56 -28.356 1954.51 4.62468C1954.82 6.17998 1954.51 966.556 1954.51 966.556H-106V349.614Z" fill="#25272E"/>
        <path d="M2161.59 889.934C2161.59 889.934 2057.46 871.805 1890.2 765.358C1790.09 699.474 1627.81 671.447 1514.29 704.704C1369.76 728.458 1299.8 757.385 1135.67 704.704C971.539 652.022 307.256 491.077 -14.8555 525.88C-15.1809 527.521 -14.8555 987.94 -14.8555 987.94H2161.59V889.934Z" fill="white"/>
    </symbol>


    <symbol id="normal" width="100%">
        <use x="0" y="-300" width="100%" href="#curve2"/>
        <use x="0" y="-250" width="100%" href="#curve1"/>
        <use x="0" y="100" width="100%" href="#curve3"/>
    </symbol>

     <!-- <symbol id="normal" width="100%">
        <use x="0" y="100" width="100%" href="#curve2"/>
        <use x="0" y="150" width="100%" href="#curve1"/>
        <use x="0" y="480" width="100%" href="#curve3"/>
    </symbol> -->
    <use href="#normal"/>
</svg>