<svg xmlns="http://www.w3.org/2000/svg" width="646" height="450">
    <symbol id="peopleImg" width="371" height="406" viewBox="0 0 371 406">
        <path d="M64.4552 110.677C64.4552 108.954 64.2982 107.259 64.0027 105.619C63.8181 104.605 64.2982 103.592 65.1939 103.085L69.1643 100.8C70.3462 100.118 70.7432 98.616 70.0692 97.4459L64.4921 87.7989C63.8088 86.6196 62.3038 86.2234 61.1311 86.896L57.1607 89.181C56.265 89.697 55.1477 89.6049 54.3629 88.9415C51.7867 86.767 48.8227 85.044 45.591 83.883C44.6215 83.5329 43.9936 82.6115 43.9936 81.5888V77.0187C43.9936 75.6643 42.8948 74.5586 41.5282 74.5586H30.3464C28.989 74.5586 27.881 75.655 27.881 77.0187V81.5888C27.881 82.6115 27.2439 83.5421 26.2836 83.883C23.0518 85.044 20.0879 86.767 17.5117 88.9415C16.7269 89.6049 15.6096 89.697 14.7139 89.181L10.7435 86.896C9.56161 86.2142 8.05654 86.6196 7.38249 87.7989L1.80541 97.4459C1.12212 98.6253 1.5284 100.127 2.7103 100.8L6.68074 103.085C7.57639 103.601 8.05653 104.614 7.87186 105.619C7.57639 107.259 7.41942 108.945 7.41942 110.677C7.41942 112.4 7.57639 114.095 7.87186 115.735C8.05653 116.749 7.57639 117.763 6.68074 118.269L2.7103 120.554C1.5284 121.236 1.13136 122.738 1.80541 123.908L7.38249 133.555C8.06577 134.734 9.57084 135.131 10.7435 134.458L14.7139 132.173C15.6096 131.657 16.7269 131.749 17.5117 132.413C20.0879 134.587 23.0518 136.31 26.2836 137.471C27.2531 137.821 27.881 138.743 27.881 139.765V144.335C27.881 145.69 28.9798 146.795 30.3464 146.795H41.5005C42.8579 146.795 43.9659 145.699 43.9659 144.335V139.765C43.9659 138.743 44.603 137.812 45.5633 137.471C48.795 136.31 51.759 134.587 54.3352 132.413C55.12 131.749 56.2373 131.657 57.133 132.173L61.1034 134.458C62.2853 135.14 63.7904 134.734 64.4644 133.555L70.0415 123.908C70.7248 122.729 70.3185 121.227 69.1366 120.554L65.1662 118.269C64.2705 117.753 63.7904 116.74 63.975 115.735C64.2982 114.095 64.4552 112.409 64.4552 110.677ZM37.9271 125.898C27.8718 127.161 19.4138 118.721 20.6788 108.687C21.5468 101.85 27.0777 96.331 33.929 95.4649C43.9844 94.2026 52.4423 102.643 51.1773 112.676C50.3186 119.513 44.7784 125.032 37.9271 125.898Z" fill="#DCD1E6" stroke="#BEC8D2" stroke-miterlimit="10"/>
        <path d="M355.828 86.8267C355.828 84.4675 355.615 82.1544 355.206 79.915C354.955 78.5326 355.615 77.1503 356.841 76.4499L362.292 73.3258C363.908 72.395 364.465 70.3399 363.527 68.7364L355.856 55.5488C354.918 53.9452 352.847 53.3923 351.231 54.3231L345.77 57.4564C344.544 58.1568 343.002 58.037 341.925 57.1247C338.387 54.148 334.31 51.7888 329.861 50.2037C328.533 49.7337 327.66 48.4619 327.66 47.0612V40.8129C327.66 38.9606 326.146 37.4492 324.27 37.4492H308.927C307.06 37.4492 305.537 38.9514 305.537 40.8129V47.0612C305.537 48.4619 304.664 49.7245 303.336 50.2037C298.888 51.7888 294.81 54.148 291.272 57.1247C290.195 58.0278 288.653 58.1568 287.427 57.4472L281.966 54.3139C280.35 53.3831 278.279 53.936 277.341 55.5396L269.67 68.7272C268.732 70.3307 269.289 72.3858 270.905 73.3166L276.357 76.4407C277.582 77.1411 278.242 78.5234 277.991 79.9058C277.582 82.1452 277.369 84.4583 277.369 86.8175C277.369 89.1767 277.582 91.4898 277.991 93.7292C278.242 95.1116 277.582 96.4939 276.357 97.1943L270.905 100.318C269.289 101.249 268.732 103.304 269.67 104.908L277.341 118.095C278.279 119.699 280.35 120.252 281.966 119.321L287.427 116.188C288.653 115.487 290.195 115.607 291.272 116.52C294.81 119.496 298.888 121.855 303.336 123.441C304.664 123.911 305.537 125.182 305.537 126.583V132.831C305.537 134.684 307.051 136.195 308.927 136.195H324.27C326.137 136.195 327.66 134.693 327.66 132.831V126.583C327.66 125.182 328.533 123.92 329.861 123.441C334.31 121.855 338.387 119.496 341.925 116.52C343.002 115.616 344.544 115.487 345.77 116.188L351.231 119.321C352.847 120.252 354.918 119.699 355.856 118.095L363.527 104.908C364.465 103.304 363.908 101.249 362.292 100.318L356.841 97.1943C355.615 96.4939 354.955 95.1116 355.206 93.7292C355.605 91.4898 355.828 89.1859 355.828 86.8267ZM319.348 107.626C305.519 109.359 293.891 97.8118 295.637 84.0989C296.826 74.745 304.432 67.1974 313.859 66.0178C327.688 64.2852 339.315 75.8324 337.569 89.5453C336.381 98.8992 328.774 106.447 319.348 107.626Z" fill="#DCD1E6" stroke="#BEC8D2" stroke-miterlimit="10"/>
        <g opacity="0.2">
        <path opacity="0.2" d="M205.826 286.906H103.173V314.239H205.826V286.906Z" fill="black"/>
        <path opacity="0.2" d="M126.639 292.285H110.076V308.843H126.639V292.285Z" fill="black"/>
        <path opacity="0.2" d="M110.076 292.285L126.639 308.843" stroke="black" stroke-width="0.5" stroke-miterlimit="10"/>
        <path opacity="0.2" d="M126.639 292.285L110.076 308.843" stroke="black" stroke-width="0.5" stroke-miterlimit="10"/>
        <path opacity="0.2" d="M194.273 295.945H132.404V297.892H194.273V295.945Z" fill="black"/>
        <path opacity="0.2" d="M194.273 303.23H132.404V305.177H194.273V303.23Z" fill="black"/>
        <path opacity="0.2" d="M187.602 299.594H132.404V301.54H187.602V299.594Z" fill="black"/>
        </g>
        <path d="M179.746 97.0948C181.576 97.0948 183.06 95.9079 183.06 94.4439C183.06 92.9798 181.576 91.793 179.746 91.793C177.916 91.793 176.433 92.9798 176.433 94.4439C176.433 95.9079 177.916 97.0948 179.746 97.0948Z" fill="#5620D8" stroke="#BEC8D2" stroke-miterlimit="10"/>
        <path d="M170.137 82.5137C173.248 82.5137 175.77 80.14 175.77 77.2119C175.77 74.2839 173.248 71.9102 170.137 71.9102C167.026 71.9102 164.504 74.2839 164.504 77.2119C164.504 80.14 167.026 82.5137 170.137 82.5137Z" fill="#5620D8" stroke="#BEC8D2" stroke-miterlimit="10"/>
        <path d="M196.315 84.5049C198.145 84.5049 199.628 83.3181 199.628 81.854C199.628 80.39 198.145 79.2031 196.315 79.2031C194.485 79.2031 193.001 80.39 193.001 81.854C193.001 83.3181 194.485 84.5049 196.315 84.5049Z" fill="#5620D8" stroke="#BEC8D2" stroke-miterlimit="10"/>
        <path d="M316.268 110.348H35.9355V291.271H316.268V110.348Z" fill="#E5E9ED"/>
        <path d="M316.656 117.941H35.7217V133.725H316.656V117.941Z" fill="#BEC8D2"/>
        <path d="M52.4328 123.976L54.0106 125.636V127.868H50.8549V125.636L52.4328 123.976ZM52.4328 122.859C52.2944 122.859 52.1652 122.915 52.0545 123.035L50.1444 125.046C50.0152 125.184 49.9414 125.387 49.9414 125.59V128.062C49.9414 128.459 50.1998 128.782 50.5227 128.782H54.3521C54.675 128.782 54.9334 128.459 54.9334 128.062V125.59C54.9334 125.378 54.8596 125.175 54.7304 125.046L52.8203 123.035C52.7096 122.924 52.5712 122.859 52.4328 122.859Z" fill="#174159"/>
        <path d="M59.8594 127.533L62.0647 126.112C62.3138 125.946 62.3138 125.706 62.0647 125.549L59.8594 124.129" stroke="#174159" stroke-miterlimit="10" stroke-linecap="round"/>
        <path d="M45.0035 127.533L42.7982 126.112C42.549 125.946 42.549 125.706 42.7982 125.549L45.0035 124.129" stroke="#174159" stroke-miterlimit="10" stroke-linecap="round"/>
        <path d="M284.157 130.739H71.6706C70.3418 130.739 69.2715 129.66 69.2715 128.341V123.332C69.2715 122.004 70.3511 120.934 71.6706 120.934H284.157C285.485 120.934 286.556 122.013 286.556 123.332V128.341C286.556 129.669 285.476 130.739 284.157 130.739Z" fill="#F2F2F2"/>
        <path d="M213.707 124.355H142.112V127.317H213.707V124.355Z" fill="#BEC8D2"/>
        <path d="M76.9021 124.358C77.7233 125.179 77.7233 126.498 76.9021 127.319C76.0809 128.14 74.7614 128.14 73.9401 127.319C73.1189 126.498 73.1189 125.179 73.9401 124.358C74.7614 123.537 76.0809 123.537 76.9021 124.358Z" stroke="#BEC8D2" stroke-miterlimit="10"/>
        <path d="M76.9033 127.316L78.1582 128.571" stroke="#BEC8D2" stroke-miterlimit="10" stroke-linecap="round"/>
        <path d="M283.3 125.836C283.3 126.989 282.358 127.93 281.205 127.93C280.052 127.93 279.11 126.989 279.11 125.836C279.11 124.683 280.052 123.742 281.205 123.742" stroke="#BEC8D2" stroke-miterlimit="10" stroke-linecap="round"/>
        <path d="M281.205 123.16L282.322 123.907L281.205 124.664V123.16Z" stroke="#BEC8D2" stroke-miterlimit="10" stroke-linecap="round" stroke-linejoin="round"/>
        <path d="M295.581 122.855L296.319 125.125H298.7L296.771 126.527L297.51 128.796L295.581 127.394L293.643 128.796L294.382 126.527L292.453 125.125H294.843L295.581 122.855Z" stroke="#174159" stroke-miterlimit="10" stroke-linecap="round" stroke-linejoin="round"/>
        <path d="M303.747 123.348H311.544" stroke="#174159" stroke-miterlimit="10" stroke-linecap="round" stroke-linejoin="round"/>
        <path d="M303.747 125.832H311.544" stroke="#174159" stroke-miterlimit="10" stroke-linecap="round" stroke-linejoin="round"/>
        <path d="M303.747 128.32H311.544" stroke="#174159" stroke-miterlimit="10" stroke-linecap="round" stroke-linejoin="round"/>
        <path d="M316.656 110.727H35.7217V117.94H316.656V110.727Z" fill="#174159"/>
        <path d="M41.3507 116.025C42.2833 116.025 43.0393 115.269 43.0393 114.337C43.0393 113.404 42.2833 112.648 41.3507 112.648C40.4181 112.648 39.6621 113.404 39.6621 114.337C39.6621 115.269 40.4181 116.025 41.3507 116.025Z" fill="#FAE54E"/>
        <path d="M45.9806 116.025C46.9132 116.025 47.6692 115.269 47.6692 114.337C47.6692 113.404 46.9132 112.648 45.9806 112.648C45.048 112.648 44.292 113.404 44.292 114.337C44.292 115.269 45.048 116.025 45.9806 116.025Z" fill="#2D80EA"/>
        <path d="M52.3127 114.337C52.3127 115.268 51.5561 116.025 50.6241 116.025C49.6922 116.025 48.9355 115.268 48.9355 114.337C48.9355 113.405 49.6922 112.648 50.6241 112.648C51.5561 112.648 52.3127 113.405 52.3127 114.337Z" fill="#E148BE"/>
        <path d="M232.54 148.785H207.516V153.13H232.54V148.785Z" fill="#BEC8D2"/>
        <path d="M263.773 148.785H238.749V153.13H263.773V148.785Z" fill="#BEC8D2"/>
        <path d="M238.428 11.7734V83.8172" stroke="#BEC8D2" stroke-miterlimit="10" stroke-linecap="round"/>
        <path d="M242.774 99.8134C242.11 99.8318 241.593 100.395 241.611 101.059C241.657 102.572 240.467 104.001 238.954 104.241C238.585 104.296 238.197 104.324 237.8 104.241C237.422 104.186 237.081 104.057 236.749 103.863C236.084 103.485 235.549 102.839 235.309 102.138C235.06 101.418 234.995 100.533 235.337 99.8503C237.044 96.4187 240.458 94.2233 240.458 90.7825C242.931 89.9339 244.712 87.5908 244.712 84.8419C244.712 81.3735 241.888 78.5508 238.419 78.5508C234.949 78.5508 232.126 81.3735 232.126 84.8419C232.126 87.5078 233.796 89.7771 236.14 90.6995C235.918 93.1071 233.113 95.2749 231.932 98.5219C231.369 100.072 231.489 101.769 232.08 103.226C232.67 104.693 233.777 105.892 235.125 106.575C236.472 107.285 238.031 107.424 239.424 107.119C240.827 106.796 242.082 105.975 242.894 104.859C243.724 103.752 244.103 102.378 244.02 101.068L244.01 100.948C243.973 100.293 243.42 99.7857 242.774 99.8134ZM238.428 82.2406C239.858 82.2406 241.03 83.4029 241.03 84.8419C241.03 85.7183 240.587 86.4931 239.923 86.9636C239.48 86.5485 238.871 86.3178 238.225 86.3732C237.727 86.4193 237.284 86.6407 236.942 86.9543C236.278 86.4839 235.835 85.709 235.835 84.8327C235.826 83.4029 236.988 82.2406 238.428 82.2406Z" fill="#BEC8D2"/>
        <path opacity="0.2" d="M285.959 199.156L245.259 252.617L210.053 226.039L173.781 273.678L174.198 276.695L334.16 254.794L331.196 233.327L285.959 199.156Z" fill="black"/>
        <path opacity="0.2" d="M318.022 164.879L329.983 251.626L177.329 272.537L165.369 185.79L318.022 164.879ZM321.191 160.715L161.19 182.632L174.161 276.691L334.161 254.774L321.191 160.715Z" fill="black"/>
        <path opacity="0.2" d="M248.275 209.404C252.909 203.644 251.995 195.218 246.232 190.585C240.47 185.953 232.041 186.867 227.407 192.628C222.773 198.389 223.688 206.814 229.451 211.447C235.213 216.08 243.641 215.165 248.275 209.404Z" fill="black"/>
        <path d="M162.379 165.576L155.889 189.876L163.841 165.355" stroke="#BEC8D2" stroke-miterlimit="10" stroke-linecap="round" stroke-linejoin="round"/>
        <path d="M294.397 146.566L240.998 105.101C239.731 103.303 237.086 103.256 235.755 105.008L163.841 165.356" stroke="#BEC8D2" stroke-miterlimit="10" stroke-linecap="round" stroke-linejoin="round"/>
        <path d="M315.536 232.252C314.062 230.626 314.994 229.295 314.414 228.011C313.834 226.728 314.547 225.273 316.145 228.762L315.479 223.875C315.479 223.875 317.391 224.835 317.743 232.252H315.536Z" fill="#F2F2F2"/>
        <path d="M255.127 249.649L254.564 247.758L255.127 249.649Z" fill="#428DEC"/>
        <path d="M105.257 59.8782C106.32 58.1009 107.206 56.2681 107.916 54.389C108.354 53.2319 109.474 52.4914 110.715 52.5099L116.238 52.584C117.88 52.6025 119.224 51.3066 119.252 49.6774L119.438 36.3293C119.457 34.7002 118.151 33.3672 116.509 33.3395L110.976 33.2654C109.735 33.2469 108.625 32.4693 108.223 31.303C106.899 27.4893 104.902 23.8977 102.262 20.7134C101.478 19.7692 101.385 18.427 102.019 17.3718L104.846 12.6601C105.686 11.2624 105.219 9.45736 103.81 8.62426L92.2503 1.79287C90.8415 0.959771 89.0221 1.4226 88.1824 2.82035L85.3554 7.53198C84.7209 8.58723 83.4894 9.15189 82.2765 8.92047C78.2085 8.13366 74.066 8.09663 70.054 8.76311C68.8318 8.96675 67.6095 8.37433 67.0124 7.30056L64.3067 2.50563C63.5043 1.08936 61.6942 0.580249 60.2667 1.37632L48.5201 7.89298C47.0926 8.68905 46.5795 10.4848 47.3818 11.9011L50.0782 16.6868C50.6847 17.7606 50.5541 19.1028 49.7424 20.0284C48.4175 21.5373 47.2139 23.1757 46.1409 24.9622C45.0773 26.7395 44.191 28.5815 43.4819 30.4514C43.0433 31.6085 41.9237 32.349 40.6828 32.3305L35.1594 32.2564C33.5173 32.2379 32.1738 33.5338 32.1458 35.163L31.9592 48.5111C31.9405 50.1402 33.2467 51.4732 34.8888 51.501L40.4216 51.575C41.6625 51.5935 42.7728 52.3711 43.174 53.5374C44.4988 57.3511 46.4955 60.9427 49.1359 64.127C49.9196 65.0712 50.0129 66.4134 49.3785 67.4686L46.5515 72.1803C45.7118 73.578 46.1783 75.3831 47.5871 76.2162L59.1471 83.0475C60.556 83.8806 62.3753 83.4178 63.215 82.0201L66.0421 77.3084C66.6765 76.2532 67.9081 75.6885 69.121 75.9199C73.1889 76.7068 77.3315 76.7438 81.3434 76.0773C82.5657 75.8737 83.7879 76.4661 84.385 77.5399L87.0908 82.3348C87.8932 83.7511 89.7032 84.2602 91.1307 83.4641L102.877 76.9474C104.305 76.1514 104.818 74.3556 104.016 72.9393L101.319 68.1536C100.713 67.0799 100.843 65.7377 101.655 64.812C102.98 63.3032 104.193 61.6555 105.257 59.8782ZM68.3653 59.3136C57.1598 54.4631 53.6237 40.5874 61.1344 31.0253C66.2567 24.5086 75.4095 22.213 83.0415 25.5176C94.247 30.3681 97.7831 44.2438 90.2723 53.8059C85.1408 60.3225 75.9973 62.6274 68.3653 59.3136Z" fill="#DCD1E6" stroke="#BEC8D2" stroke-miterlimit="10"/>
        <path d="M226.8 4.31641L142.781 57.1113L130.705 68.5751V108.364" stroke="#BEC8D2" stroke-miterlimit="10" stroke-linecap="round"/>
        <path d="M149.266 90.6345C150.325 88.8348 152.787 85.3015 154.018 87.6438C154.799 89.126 154.481 91.7462 153.78 91.9976C153.078 92.2623 151.238 92.4211 151.238 92.4211L149.266 90.6345Z" fill="#BEC8D2"/>
        <path d="M149.266 90.6336C149.663 88.8074 150.311 88.1061 151.595 87.4312C153.449 86.4387 153.065 85.4727 153.687 85.4727C154.309 85.4727 154.958 87.2724 153.396 87.9076C153.396 87.9076 153.462 91.11 150.682 91.9305L149.266 90.6336Z" fill="#F2F2F2"/>
        <path d="M154.017 87.6406C154.097 88.3155 153.355 88.2097 152.627 88.1832C151.648 88.1435 150.655 87.9979 150.814 89.2816C151.078 91.293 150.774 92.4311 151.74 92.4708C152.707 92.5237 153.382 92.7354 154.004 92.4046C154.652 92.0605 154.983 89.1625 154.017 87.6406Z" fill="#F2F2F2"/>
        <path d="M230.022 34.5917C233.187 31.428 233.187 26.2986 230.022 23.1349C226.858 19.9712 221.727 19.9712 218.562 23.1349C215.397 26.2986 215.397 31.428 218.562 34.5917C221.727 37.7554 226.858 37.7554 230.022 34.5917Z" stroke="#BEC8D2" stroke-miterlimit="10" stroke-linecap="round"/>
        <path d="M224.294 31.8576C225.949 31.8576 227.29 30.5166 227.29 28.8624C227.29 27.2082 225.949 25.8672 224.294 25.8672C222.639 25.8672 221.298 27.2082 221.298 28.8624C221.298 30.5166 222.639 31.8576 224.294 31.8576Z" stroke="#BEC8D2" stroke-miterlimit="10" stroke-linecap="round"/>
        <path d="M96.1736 90.4689L104.859 88.0512L101.009 74.6095L91.6045 69.2617L96.1736 90.4689Z" fill="#F2F2F2"/>
        <path d="M35.5704 42.4748C38.1061 46.3721 42.5136 47.3511 44.4039 46.3816C46.2941 45.412 46.3771 41.6003 44.5791 37.8646C42.781 34.1289 39.9871 32.5225 37.894 32.8552C34.9065 33.3305 32.0572 37.0661 35.5704 42.4748Z" fill="#F2F2F2"/>
        <path d="M36.3052 209.076C37.7355 207.499 36.8312 206.207 37.3941 204.962C37.9569 203.717 37.2649 202.305 35.7147 205.691V200.949C35.7147 200.949 34.5059 201.881 34.1553 209.076H36.3052Z" fill="#F2F2F2"/>
        <path d="M110.426 217.891C110.971 217.946 111.303 218.536 109.116 219.625L110.426 217.891Z" fill="#F2F2F2"/>
        <path d="M370.611 397.226C370.611 402.39 261.172 409.991 181.44 401.32C100.741 392.546 55.8174 399.835 55.8174 394.671C55.8174 389.507 129.947 385.379 211.136 385.379C292.325 385.379 370.611 392.062 370.611 397.226Z" fill="#9C71B1"/>
        <path d="M121.427 394.661H139.983L128.115 387.271L129.405 381.406C126.694 381.406 126.039 383.254 123.304 383.254C122.533 387.569 121.427 394.661 121.427 394.661Z" fill="#442D47"/>
        <path d="M192.164 141.823L206.558 134.277L206.122 139.232L203.388 152.907L192.971 150.043L192.164 141.823Z" fill="#F6957E"/>
        <path d="M221.882 138.43C218.097 139.966 204.863 139.579 204.863 139.579C204.863 139.579 194.719 147.586 195.145 149.419C195.576 151.253 196.215 150.767 197.423 152.333C198.632 153.898 201.505 155.415 201.505 155.415C201.505 155.415 203.694 157.595 206.324 156.975C208.954 156.361 215.304 149.741 218.177 149.072C218.766 148.934 221.322 148.354 225.027 147.492L221.882 138.43Z" fill="#F1A975"/>
        <path d="M206.557 134.277C206.557 134.277 214.497 140.52 213.764 141.7C213.031 142.879 205.062 139.584 205.062 139.584L206.557 134.277Z" fill="#F6957E"/>
        <path d="M218.331 149.712C218.331 149.712 210.525 146.045 209.713 147.358C208.9 148.671 213.031 150.95 213.031 150.95C213.031 150.95 208.603 148.919 207.85 149.474C207.098 150.029 210.956 152.868 210.956 152.868C210.956 152.868 206.657 150.485 205.557 151.158C204.458 151.832 208.301 155.984 208.301 155.984C208.301 155.984 218.787 153.641 218.331 149.712Z" fill="#F15F5C"/>
        <path d="M283.708 168.219L270.503 170.162L277.928 135.895L285.105 139.586L283.708 168.219Z" fill="#240D45"/>
        <path d="M284.014 77.7773C284.014 77.7773 260.209 112.188 255.271 117.128C250.333 122.068 218.321 138.057 218.321 138.057L223.775 149.517L262.181 129.891L285.559 108.442L284.014 77.7773Z" fill="#4B4B9F"/>
        <path d="M312.9 382.764L312.697 395.424L314.104 395.463L315.922 381.035L312.9 382.764Z" fill="#1D1D22"/>
        <path d="M303.162 271.444C303.162 271.444 304.668 291.238 307.095 297.154C309.517 303.065 305.188 381.246 303.128 387.553C302.672 388.951 302.053 390.199 301.414 391.294C299.17 395.134 298.66 395.922 301.667 395.932C305.535 395.947 308.923 395.209 309.671 393.623C310.969 390.888 312.113 381.464 314.763 381.474C314.763 381.474 316.57 377.961 316.12 376.113C315.441 373.328 313.549 374.76 313.564 370.891C313.579 367.021 326.392 308.213 324.386 299.656C322.38 291.095 320.959 290.074 320.994 279.892C321.028 269.71 303.162 271.444 303.162 271.444Z" fill="#F6957E"/>
        <path d="M294.415 250.715C294.415 250.715 279.982 278.229 280.903 286.379C281.824 294.53 284.871 301.11 282.255 312.233C279.64 323.356 258.941 363.698 258.446 371.071C258.238 374.177 259.184 374.469 259.184 374.469C259.144 379.826 257.47 385.568 256.356 386.673C254.924 388.095 253.315 395.156 251.957 395.151C250.6 395.146 239.134 396.374 239.134 396.374C238.837 393.758 242.348 395.859 244.399 390.439C246.455 385.013 247.703 376.873 250.318 365.888C252.933 354.898 263.662 304.761 263.696 293.222C263.736 281.682 262.676 281.628 264.464 274.027C266.252 266.431 272.949 252.196 272.949 252.196L294.415 250.715Z" fill="#F6957E"/>
        <path d="M280.907 286.379C279.986 278.229 294.419 250.715 294.419 250.715L272.962 252.196C272.962 252.196 266.266 266.426 264.478 274.027C263.165 279.601 263.383 281.117 263.581 286.082C267.682 286.964 274.062 288.252 281.348 289.431C281.174 288.43 281.021 287.415 280.907 286.379Z" fill="#E85654"/>
        <path d="M320.993 279.892C321.028 269.71 303.162 271.444 303.162 271.444C303.162 271.444 304.123 284.069 305.743 292.165C311.785 292.457 317.501 292.338 322.217 291.56C321.439 288.582 320.973 285.753 320.993 279.892Z" fill="#F6957E"/>
        <path d="M279.347 156.396C279.347 156.396 276.831 195.152 274.934 204.383C273.032 213.614 262.18 279.046 262.18 279.046C262.18 279.046 310.546 283.119 322.216 279.046C322.216 279.046 323.519 195.083 320.77 184.291C318.021 173.5 306.009 153.859 306.009 153.859L279.347 156.396Z" fill="#4B4B9F"/>
        <path opacity="0.53" d="M279.348 156.396C279.348 156.396 279.219 158.383 278.996 161.564C282.627 165.171 287.674 171.023 289.68 177.33C291.968 184.514 309.601 183.454 320.141 182.141C316.545 171.092 306.01 153.859 306.01 153.859L279.348 156.396Z" fill="#1E0E32"/>
        <path d="M304.356 74.5095L289.685 73.4492L284.484 83.6213L305.362 85.7964L304.356 74.5095Z" fill="#240D45"/>
        <path d="M284.013 77.7811C284.013 77.7811 290.695 72.6827 313.335 77.796C313.95 77.9347 314.519 102.461 314.519 102.461C314.519 102.461 304.014 143.595 306.015 153.861C306.015 153.861 294.009 163.999 276.093 155.174C276.093 155.174 278.421 122.874 276.792 115.68C275.162 108.486 271.913 101.96 276.524 94.4935C281.136 87.0267 284.013 77.7811 284.013 77.7811Z" fill="#D5EBD8"/>
        <path d="M288.165 111.242V158.728C299.191 159.665 306.006 153.912 306.006 153.912C304.01 143.646 314.51 102.512 314.51 102.512C314.51 102.512 313.946 77.9362 313.332 77.7974C309.741 76.9848 306.546 76.4349 303.723 76.0781L288.165 111.242Z" fill="#A5C1AD"/>
        <path d="M304.356 74.5078L291.547 111.193V172.077L319.849 173.444L309.982 160.532L306.639 144.34L314.514 102.462L313.326 77.7879L304.356 74.5078Z" fill="#4B4B9F"/>
        <path d="M289.686 73.4492L279.141 108.459L276.407 170.161H270.503L276.843 137.559L273.128 100.799L283.738 77.0563L289.686 73.4492Z" fill="#4B4B9F"/>
        <path d="M304.356 74.5078L291.547 111.193L307.912 89.8576L310.636 75.4839L304.356 74.5078Z" fill="#24272E"/>
        <path d="M289.685 73.4492L279.14 108.459L280.091 83.4132L284.484 74.5095L289.685 73.4492Z" fill="#24272E"/>
        <path d="M314.382 163.888C314.748 163.522 317.958 158.79 318.646 159.479C319.335 160.162 315.803 164.527 315.803 164.527C315.803 164.527 319.894 160.385 320.702 161.193C321.509 162.001 315.233 167.594 314.575 167.594C313.911 167.589 314.382 163.888 314.382 163.888Z" fill="#E85654"/>
        <path d="M308.838 159.211C308.838 159.211 307.11 161.852 308.383 163.126C309.656 164.399 308.972 165.722 309.839 166.589C310.706 167.456 314.574 167.59 314.574 167.59C314.574 167.59 314.847 163.854 316.758 159.573C317.115 158.78 318.244 157.224 319.849 155.178C318.135 154.048 316.332 153.038 314.505 152.121C311.305 156.278 308.893 159.107 308.838 159.211Z" fill="#F6957E"/>
        <path d="M313.325 77.7889C313.325 77.7889 311.081 95.6409 313.325 100.556C315.51 105.342 328.288 110.867 330.478 120.563C332.117 127.807 318.967 142.503 312.018 151.525C313.756 153.265 319.056 156.733 320.77 157.863C327.843 148.86 345.684 127.658 346.124 122.684C346.674 116.58 322.825 77.1498 313.325 77.7889Z" fill="#4B4B9F"/>
        <path d="M313.327 77.7891C312.99 81.951 312.722 85.9396 312.643 90.1858C312.574 97.6824 313.024 100.051 314.679 101.929C318.522 106.383 328.8 111.823 330.479 120.563C328.087 111.898 318.146 107.072 314.129 102.394C312.613 100.65 312.321 98.7823 312.133 96.4139C311.727 90.8745 312.48 83.3582 313.327 77.7891Z" fill="#54597E"/>
        <path d="M313.832 372.867C312.643 379.943 308.671 392.146 305.936 393.286C301.409 394.237 301.385 393.766 301.414 391.289C299.171 395.129 296.625 397.096 299.636 397.106C303.505 397.121 309.537 397.373 310.285 395.788C311.583 393.053 312.321 382.692 314.966 382.697L314.099 395.451L315.506 395.491C315.506 395.491 317.646 377.931 317.195 376.172C316.581 373.779 314.58 373.303 313.832 372.867Z" fill="#3B3846"/>
        <path d="M243.006 392.93C239.856 394.877 235.953 394.922 236.191 397.018C236.191 397.018 251.04 396.428 252.397 396.433C253.755 396.438 254.933 388.094 256.365 386.672C257.796 385.25 256.875 396.448 256.875 396.448L258.336 396.453C258.336 396.453 259.357 384.918 260.729 380.444C261.823 376.882 260.288 375.375 259.193 374.469C254.706 382.976 254.23 394.962 243.006 392.93Z" fill="#3B3846"/>
        <path d="M175.4 213.73C175.4 213.73 181.789 232.676 182.927 234.624C184.066 236.572 184.096 245.464 182.275 246.676C180.455 247.883 181.779 243.069 181.298 240.522C180.816 237.976 178.439 234.59 178.439 234.59C178.439 234.59 180.41 237.225 181.052 240.414C181.543 242.863 180.911 245.974 180.054 246.455C178.088 247.564 179.698 244.59 179.021 241.038C178.344 237.49 176.363 235.822 176.363 235.822C176.363 235.822 178.008 242.441 176.263 243.383C174.523 244.325 168.48 217.612 168.48 217.612L175.4 213.73Z" fill="#F6957E"/>
        <path d="M153.071 82.5156C153.071 82.5156 163.348 97.6137 164.779 115.652C165.374 123.162 164.849 160.387 168.484 175.881C173.194 195.939 179.747 215.121 179.747 215.121L164.507 224.338L152.521 176.539L149.262 142.492L153.071 82.5156Z" fill="#4B4B9F"/>
        <path d="M140.78 239.509L120.101 386.706L129.912 385.039L146.769 305.246C146.769 305.246 157.876 231.194 157.876 204.457L140.78 239.509Z" fill="#4B4B9F"/>
        <path d="M86.3018 395.321H106.183L93.7313 387.931L95.0849 382.066C92.2403 382.066 91.5533 383.914 88.6833 383.914C87.8691 388.234 86.3018 395.321 86.3018 395.321Z" fill="#442D47"/>
        <path d="M126.798 71.25L126.065 82.5163L153.237 79.4836L146.888 71.8392L126.798 71.25Z" fill="#395967"/>
        <path d="M162.131 159.594C162.062 120.231 156.048 81.0768 147.476 76.0987C147.476 76.0987 137.51 75.4124 132.383 75.2383C124.733 74.9797 118.779 78.8538 112.427 100.567C108.421 114.253 107.866 144.788 108.292 173.578C108.481 186.344 109.661 199.13 109.933 208.172C131.54 208.172 140.862 209.097 161.829 209.097C163.158 170.147 162.151 171.295 162.131 159.594Z" fill="#D5EBD8"/>
        <path d="M147.273 76.5508C147.273 76.5508 159.004 81.7309 162.595 116.522C166.186 151.313 171.131 222.35 171.131 222.35H154.791C154.791 222.35 153.021 120.871 153.021 113.915C153.021 106.953 147.273 76.5508 147.273 76.5508Z" fill="#4B4B9F"/>
        <path d="M153.991 183.25L113.302 184.275L109.937 206.378L108.622 300.413C108.622 300.413 88.9322 366.686 84.9766 388.694C84.9766 388.694 96.2278 388.006 95.5825 388.006L128.691 309.384L143.642 237.556L155.888 209.635L153.991 183.25Z" fill="#4B4B9F"/>
        <path d="M146.611 226.99C146.357 213.867 145.742 198.288 145.027 183.25L113.142 184.055L109.751 206.38L109.498 224.339L146.611 226.99Z" fill="#24272E"/>
        <path d="M113.818 184.305L112.811 191.203H154.562L154.017 183.25L113.818 184.305Z" fill="#3B1C36"/>
        <path d="M153.237 183.914H142.634V189.879H153.237V183.914Z" fill="#A180BA"/>
        <path d="M153.237 183.914H142.634V184.474C144.681 184.415 149.997 184.499 150.987 186.896C151.481 188.095 151.768 189.102 151.937 189.879H153.237V183.914Z" fill="#9C71B1"/>
        <path d="M143.959 237.594L125.933 308.392L95.5801 388.032L128.909 309.417L143.959 237.594Z" fill="#9C71B1"/>
        <path d="M137.505 122.711C137.564 123.182 124.673 76.5508 124.673 76.5508C124.673 76.5508 120.351 77.7257 114.607 80.7747L106.297 106.936C106.297 106.936 102.868 154.683 102.868 158.471C102.868 160.508 98.7359 191.008 94.918 218.771L141.971 222.35C141.268 183.631 137.505 122.711 137.505 122.711Z" fill="#4B4B9F"/>
        <path d="M137.515 137.997C137.515 137.997 108.94 104.483 105.924 108.732C105.65 112.586 104.905 123.217 104.195 133.68C111.408 152.014 134.753 181.959 139.982 188.549C139.214 169.633 138.22 150.649 137.515 137.997Z" fill="#4B4B9F"/>
        <path d="M137.332 122.941L141.971 222.35C141.971 222.35 140.18 124.163 137.332 122.941Z" fill="#714A7B"/>
        <path d="M132.734 61.4695C132.259 61.1673 126.379 46.5359 126.379 46.5359C126.379 46.5359 122.456 35.5513 124.987 33.6883C127.523 31.8303 133.541 25.3792 138.821 25.2603C144.096 25.1413 147.638 26.7269 148.113 27.0242C148.589 27.3264 152.006 33.0987 152.006 33.0987C152.006 33.0987 150.412 31.1515 149.594 38.3705C148.777 45.5945 132.734 61.4695 132.734 61.4695Z" fill="#4B4B9F"/>
        <path d="M146.047 60.8075C145.418 62.6754 145.691 76.0186 145.195 79.3779C144.705 82.6926 129.568 87.8356 129.271 75.7708C128.974 63.706 130.168 49.5156 130.168 49.5156L146.047 60.8075Z" fill="#F6957E"/>
        <path d="M146.047 60.8064L140.777 57.0607L130.167 49.5195C130.167 49.5195 130.167 49.5245 130.167 49.5394C130.167 49.5443 130.167 49.5493 130.167 49.5542C130.167 49.5592 130.167 49.5592 130.167 49.5592C130.162 49.6087 130.157 49.7029 130.142 49.8366C130.108 50.2776 130.038 51.1546 129.954 52.3636V52.3685C129.939 52.6113 129.92 52.8739 129.9 53.1464C129.9 53.1662 129.9 53.1811 129.895 53.2009C129.835 54.0779 129.771 55.0837 129.712 56.1936C129.707 56.258 129.707 56.3174 129.702 56.3819C129.687 56.6445 129.672 56.912 129.657 57.1895C129.657 57.1944 129.657 57.1944 129.657 57.1994C129.647 57.3431 129.642 57.4868 129.632 57.6304C129.632 57.6453 129.632 57.6602 129.627 57.675C129.622 57.7295 129.622 57.784 129.617 57.8385C129.617 57.8584 129.617 57.8831 129.613 57.903C129.608 57.9971 129.603 58.0912 129.598 58.1903C131.569 64.6563 139.018 71.6821 145.467 72.5145C145.482 72.0686 145.507 71.6177 145.537 71.1668C145.621 66.6283 145.69 61.8717 146.047 60.8064Z" fill="#F27172"/>
        <path d="M129.568 38.4673C127.631 43.2932 127.527 52.1176 132.148 58.7867C136.77 65.4608 143.149 68.8993 147.721 65.5351C152.292 62.1708 153.6 41.0537 150.296 35.6183C146.993 30.1879 132.525 31.1145 129.568 38.4673Z" fill="#F6957E"/>
        <path d="M129.578 58.7382C129.578 58.7382 128.548 51.8313 125.903 50.1516C123.253 48.467 122.059 47.4414 121.579 45.0036C121.099 42.5659 112.262 40.9358 113.704 36.9224C115.145 32.9141 122.064 31.0362 125.586 24.0649C129.103 17.0936 132.902 13.2338 141.104 15.7706C149.306 18.3124 150.446 23.3167 150.446 23.3167C150.446 23.3167 154.066 22.6875 156.275 27.0179C158.489 31.3484 156.899 33.8109 155.478 35.8423C155.478 35.8423 155.785 30.1245 153.824 30.5209C151.862 30.9173 153.838 37.2098 153.838 37.2098C153.838 37.2098 150.891 34.8018 147.756 31.0709C144.621 27.3449 145.393 31.7051 146.32 36.4319C147.246 41.1588 140.287 36.7044 137.191 33.2857C134.095 29.8669 129.672 33.0627 128.058 37.9084C126.433 42.7492 133.402 50.3597 129.578 58.7382Z" fill="#24272E"/>
        <path d="M131.094 46.0454C131.094 46.0454 128.201 41.1055 126.701 43.2509C125.195 45.3963 126.438 51.8127 129.628 51.8771C132.813 51.9416 131.094 46.0454 131.094 46.0454Z" fill="#F6957E"/>
        <path d="M129.466 46.403C129.466 46.403 129.575 43.5392 128.024 44.4905C126.469 45.4368 128.034 50.0348 129.466 49.9456C130.892 49.8515 129.466 46.403 129.466 46.403Z" fill="#F27172"/>
        <path d="M145.86 45.0781C146.415 46.3862 146.786 47.7537 147.019 49.1559C147.48 52.1882 146.989 53.4814 146.974 53.6746C146.623 53.6102 145.687 53.4715 144.443 53.1444C145.241 53.1197 146.033 53.1395 146.821 53.1841L146.553 53.3823C146.692 50.6373 146.157 47.8875 145.86 45.0781Z" fill="#252C64"/>
        <path d="M141.947 45.8092C142.115 46.6664 141.739 47.4641 141.11 47.5929C140.48 47.7217 139.832 47.1272 139.663 46.27C139.495 45.4128 139.871 44.6151 140.5 44.4863C141.134 44.3575 141.778 44.952 141.947 45.8092Z" fill="#304B9E"/>
        <path d="M150.609 44.5787C150.777 45.4359 150.401 46.2336 149.772 46.3625C149.143 46.4913 148.494 45.8967 148.325 45.0395C148.157 44.1824 148.533 43.3847 149.162 43.2558C149.791 43.127 150.44 43.7216 150.609 44.5787Z" fill="#304B9E"/>
        <path d="M137.022 43.6359C137.022 43.6359 138.354 41.3022 140.568 40.8513C142.787 40.4005 142.114 42.2684 141.598 42.3724C141.083 42.4815 136.938 43.1999 137.022 43.6359Z" fill="#252C64"/>
        <path d="M147.593 39.7773C147.593 39.7773 150.218 40.5552 150.714 41.7592C150.714 41.7592 147.935 41.5313 147.435 40.8773C146.934 40.2282 147.593 39.7773 147.593 39.7773Z" fill="#252C64"/>
        <path d="M138.865 56.832C138.865 56.832 145.641 59.3788 149.316 56.9311C149.316 56.9311 148.286 60.3449 147.35 60.9593C145.379 62.2525 140.534 61.2665 138.865 56.832Z" fill="white"/>
        <path d="M298.392 22.1875C299.303 23.0298 308.011 21.7564 315.391 29.6989C325.148 40.198 323.994 64.7339 323.994 64.7339C323.994 64.7339 313.637 67.0923 309.541 67.2559C305.445 67.4144 297.119 66.2302 292.676 65.5712C288.139 64.9023 285.692 39.3656 288.748 32.6024C291.799 25.8342 298.392 22.1875 298.392 22.1875Z" fill="#2E182B"/>
        <path d="M298.393 22.1925C298.393 22.1925 288.67 21.6326 286.263 27.9152C283.856 34.1978 284.871 54.2844 281.503 56.3703C281.503 56.3703 284.039 57.9658 286.184 57.8815C286.184 57.8815 287.59 60.3589 284.212 64.0155C284.212 64.0155 288.378 65.5713 292.672 65.5713C292.969 65.5713 296.119 66.4582 296.412 63.7876C296.753 60.6314 294.232 53.6353 294.559 50.5782C295.941 37.6414 298.393 22.1925 298.393 22.1925Z" fill="#24272E"/>
        <path d="M298.215 23.3444C297.289 23.3345 296.417 23.4336 295.664 23.6417C295.664 23.6417 287.328 27.1348 286.952 33.2688C286.57 39.4077 287.422 41.7909 286.753 45.7597C285.698 52.0027 289.646 63.6116 296.442 63.463C296.6 60.173 294.247 53.5337 294.564 50.5757C295.714 39.7496 297.62 27.1695 298.215 23.3444Z" fill="#341A30"/>
        <path d="M294.143 60.9077C294.143 60.9077 292.583 72.7545 290.954 75.876C289.329 79.0024 286.734 92.6379 289.012 92.6379C291.29 92.6379 301.885 82.0248 302.569 77.7291C303.252 73.4333 306.571 55.6953 306.571 55.6953L294.143 60.9077Z" fill="#F6957E"/>
        <path d="M294.357 59.5788C294.268 59.6184 294.005 62.076 293.995 62.1701C293.619 64.811 293.51 64.6475 293.624 64.9993C294.506 67.7591 298.067 69.4932 303.322 64.7961C303.491 64.6475 305.219 63.0223 305.249 62.8786C305.987 58.8851 306.581 55.6992 306.581 55.6992C306.581 55.6992 294.461 59.5342 294.357 59.5788Z" fill="#F15F5C"/>
        <path d="M296.495 23.5996C296.495 23.5996 288.615 26.9391 288.263 32.8154C287.906 38.6917 288.714 40.9709 288.08 44.7761C287.446 48.5814 289.085 58.7436 295.044 61.3101C301.007 63.8767 308.937 54.0415 310.329 49.6219C311.716 45.2022 312.201 38.88 310.695 31.9731C309.185 25.0562 300.878 22.3856 296.495 23.5996Z" fill="#F6957E"/>
        <path d="M305.931 56.5288C308.1 54.1307 309.76 51.4205 310.329 49.6169C311.716 45.1973 312.201 38.875 310.696 31.9681C309.185 25.0563 300.879 22.3857 296.495 23.5996C296.495 23.5996 288.615 26.9391 288.263 32.8154C288.144 34.7824 288.154 36.3481 288.199 37.7008L295.619 37.4481C295.619 37.4481 295.158 31.1506 296.634 29.5502L296.882 37.1211L301.963 37.1607C301.963 37.1607 303.821 33.8262 303.707 30.9425C303.707 30.9425 303.88 34.9856 302.84 37.1756C302.84 37.1756 306.981 36.9625 307.065 39.1079C307.134 40.8619 306.52 51.8614 306.208 54.7748C306.144 55.3942 306.05 55.9788 305.931 56.5288Z" fill="#F15F5C"/>
        <path d="M321.117 33.7884C315.169 21.5303 304.381 19.7218 298.393 22.1844C294.579 22.3825 290.24 23.978 288.328 27.1936C285.356 32.1979 287.739 36.9792 287.739 36.9792L294.817 36.9049C294.817 36.9049 295.094 29.6412 296.57 28.0409L296.917 36.8207L301.939 36.6225C301.939 36.6225 303.569 32.1682 303.46 29.2796C303.46 29.2796 304.44 34.373 303.405 36.563C303.405 36.563 306.986 36.9594 307.07 39.1048C307.14 40.8588 306.526 51.8583 306.214 54.7717C305.624 60.2616 302.598 63.2394 302.548 63.3186C302.548 63.3186 314.351 65.3947 316.788 62.7588L315.555 66.4401C315.555 66.4401 322.177 65.6721 323.995 64.7208C325.813 63.7794 324.545 40.8489 321.117 33.7884Z" fill="#24272E"/>
        <path d="M288.328 27.1952C285.356 32.1995 287.739 36.9808 287.739 36.9808L294.817 36.9065C294.817 36.9065 295.094 29.6429 296.57 28.0425L296.917 36.8223L301.939 36.6241C301.939 36.6241 303.569 32.1698 303.46 29.2812C303.46 29.2812 304.44 34.3746 303.405 36.5646C303.405 36.5646 306.986 36.961 307.07 39.1064C307.14 40.8604 306.526 51.8599 306.214 54.7733C306.179 55.0855 306.139 55.3927 306.09 55.69C312.697 49.0803 311.558 33.24 309.795 27.6411C308.031 22.0423 298.403 22.1761 298.403 22.1761C294.584 22.3842 290.24 23.9796 288.328 27.1952Z" fill="#24272E"/>
        <path d="M298.412 22.6796C307.338 22.199 313.643 24.2106 316.788 32.6238C319.849 40.7099 322.865 53.2702 320.032 61.4456L317.115 60.3307C319.824 53.8152 318.195 42.9544 316.362 36.0971C314.084 27.5105 311.117 22.7738 298.412 22.6796Z" fill="#653870"/>
        <path d="M296.866 23.1445C293.825 24.0562 290.467 25.5872 289.11 28.4461C287.851 31.087 288.436 34.1342 289.001 36.9683L289.753 36.9584C288.317 30.978 287.589 26.2809 296.866 23.1445Z" fill="#363A68"/>
        <path d="M297.192 23.375C290.907 26.0555 291.15 30.9211 292.685 36.9312L293.433 36.9213C291.462 31.0202 290.986 26.2339 297.192 23.375Z" fill="#653870"/>
        <path d="M298.332 23.0898C300.328 27.9356 299.907 31.9093 298.699 36.755L299.422 36.7253C300.328 31.8696 300.511 27.7523 298.332 23.0898Z" fill="#363A68"/>
        <path d="M293.812 49.4518C294.797 48.2429 295.015 45.7407 294.827 44.1602C294.495 45.6515 294.049 48.337 293.282 49.2834L293.123 49.4816C293.202 49.5261 294.237 50.636 295.535 50.5468C295.149 50.4279 294.297 49.9423 293.812 49.4518Z" fill="#452241"/>
        <path d="M299.888 52.1016C296.926 53.5186 292.479 53.7119 292.479 53.7119C292.479 53.7119 292.815 54.3114 293.385 54.9505C294.683 54.8316 297.224 54.5096 299.294 53.6821C299.7 52.825 299.888 52.1016 299.888 52.1016Z" fill="white"/>
        <path d="M299.294 53.6797C297.223 54.5071 294.682 54.8292 293.385 54.9481C295.599 57.4106 297.833 56.717 299.294 53.6797Z" fill="#2E182B"/>
        <path d="M296.882 43.078C297.551 42.3348 299.031 42.0474 299.918 42.2209C301.191 42.4735 301.909 43.5091 302.702 43.6726C301.508 43.9649 301.102 42.6271 298.358 42.7708C297.868 42.8154 297.367 42.8699 296.882 43.078Z" fill="#2E182B"/>
        <path d="M293.044 43.5053C292.44 42.7125 290.983 42.3062 290.087 42.4053C288.799 42.554 287.997 43.53 287.194 43.6242C288.358 44.0156 288.873 42.7125 291.598 43.0792C292.083 43.1634 292.578 43.2575 293.044 43.5053Z" fill="#2E182B"/>
        <path d="M146.611 71.25L153.575 120.954L155.889 96.4183L153.485 93.6899V79.1316L146.611 71.25Z" fill="#24272E"/>
        <path d="M129.236 69.2617L137.332 81.1743L133.43 88.4807L121.427 74.2983L126.338 70.5375L129.236 69.2617Z" fill="#E6F3E8"/>
        <path d="M146.872 71.25L143.296 80.5406L146.872 85.8299L148.598 76.8791L146.872 71.25Z" fill="#F5FAF5"/>
        <path d="M137.331 122.942L126.575 71.25L115.461 79.7183L125.185 97.4193L124.461 102.958L137.331 122.942Z" fill="#24272E"/>
        <path d="M143.318 80.5273L140.735 82.6039L136.806 81.1269L134.682 85.1192C134.682 85.1192 143.318 85.5775 145.285 83.6374L143.318 80.5273Z" fill="#A5C1AD"/>
        <path d="M137.332 80.9928L143.297 80.5273L143.114 86.2537L138.36 86.4919L137.332 80.9928Z" fill="#6DA3C2"/>
        <path d="M137.995 86.0469L142.969 85.8281L152.575 173.679L148.392 179.935L140.591 174.887L137.995 86.0469Z" fill="#4B4B9F"/>
        <path d="M185.711 142.823L192.797 141.496L193.664 151.556L185.711 156.076V142.823Z" fill="#D5EBD8"/>
        <path d="M189.797 142.16L185.711 142.919V156.077L191.675 152.723L189.797 142.16Z" fill="#9EBFA7"/>
        <path d="M114.473 80.5273C114.473 80.5273 104.399 87.9222 105.624 108.928C106.473 123.548 141.549 168.007 141.549 168.007L190.349 159.123L189.04 142.155L153.574 143.809L114.473 80.5273Z" fill="#4B4B9F"/>
        <path d="M154.026 142.969C140.631 121.122 128.903 102.041 114.8 80.5273C128.062 103.365 139.776 122.187 153.416 144.149C170.046 143.188 175.281 142.944 189.025 141.914C183.131 142.019 159.635 142.716 154.026 142.969Z" fill="#714A7B"/>
        <path d="M202.918 169.16C202.581 169.16 202.294 168.902 202.264 168.56C202.234 168.198 202.502 167.881 202.863 167.851C229.882 165.572 233.746 151.506 233.78 151.367C233.87 151.015 234.226 150.802 234.578 150.891C234.929 150.981 235.142 151.332 235.053 151.684C234.9 152.299 231.007 166.796 202.972 169.16C202.957 169.16 202.938 169.16 202.918 169.16Z" fill="#59317D"/>
        <path d="M225.027 169.163C224.77 169.163 224.527 169.009 224.423 168.757C224.285 168.42 224.443 168.038 224.78 167.899C241.65 160.889 242.289 149.607 242.294 149.493C242.309 149.131 242.631 148.858 242.972 148.863C243.334 148.878 243.616 149.18 243.602 149.542C243.587 150.038 242.977 161.761 225.28 169.113C225.196 169.148 225.112 169.163 225.027 169.163Z" fill="#59317D"/>
        <path d="M337.881 48.2683C337.519 48.2683 337.227 47.976 337.227 47.6143C337.227 28.8111 330 16.8949 329.926 16.776C329.738 16.4688 329.832 16.0625 330.139 15.8742C330.446 15.6859 330.852 15.7801 331.04 16.0873C331.115 16.2111 338.539 28.4444 338.539 47.6143C338.539 47.976 338.247 48.2683 337.881 48.2683Z" fill="#59317D"/>
        <path d="M108.186 53.7323C107.958 53.7323 107.74 53.6134 107.616 53.4053C98.339 37.3569 108.666 15.6154 109.112 14.6988C109.27 14.3718 109.662 14.238 109.989 14.3916C110.315 14.5502 110.449 14.9416 110.296 15.2686C110.192 15.4866 99.8298 37.3073 108.755 52.7463C108.939 53.0584 108.83 53.4598 108.518 53.6431C108.414 53.7026 108.3 53.7323 108.186 53.7323Z" fill="#59317D"/>
    </symbol>
    <symbol id="vector" viewBox="0 0 646 385">
        <path opacity="0.1" d="M596.488 303.79C595.768 305.523 595.051 307.232 594.335 308.919C593.219 311.539 592.116 314.108 591.029 316.626C590.545 317.742 590.061 318.837 589.589 319.932C584.254 332.11 579.272 342.881 575.041 351.739C571.202 359.765 565.501 366.49 558.536 371.209C551.572 375.928 543.599 378.468 535.454 378.562L441.371 379.706H440.379L432.314 379.803L425.415 379.886L404.26 380.142H403.403L392.633 380.274H392.305L325.923 381.078L266.669 381.771L259.776 381.854L216.969 382.374H216.92L189.157 382.707H188.859L101.074 383.767L74.8126 384.086C69.2084 384.157 63.6279 383.264 58.2668 381.438C48.9374 378.29 40.553 372.359 34.0156 364.284C22.7369 350.401 14.5167 334.203 8.99522 316.626C8.19698 314.09 7.45251 311.52 6.76181 308.919C-12.3525 236.732 10.9495 143.6 52.888 81.2764C54.6458 78.6704 56.4325 76.129 58.2482 73.6523L58.2916 73.5969C71.1895 55.9089 85.6509 41.132 101.055 30.6245C128.352 11.9731 158.597 6.71943 188.344 22.3766C213.514 35.6287 237.014 41.8597 259.795 43.5509C262.097 43.7172 264.398 43.842 266.688 43.9182C318.943 45.7549 367.917 24.7193 425.427 11.1414C427.717 10.6008 430.012 10.0671 432.326 9.56115C473.353 0.439922 518.865 -4.3702 572.988 5.74216C578.611 6.76841 584.159 8.25095 589.589 10.178C591.976 11.0375 594.275 11.9616 596.488 12.9504C622.321 24.6916 636.41 46.3857 642.397 73.5691C642.964 76.092 643.454 78.6588 643.867 81.2695C654.482 146.657 623.394 239.408 596.488 303.79Z" fill="#4B4AA1"/>
    </symbol>

    <symbol id="people" width="100%">
        <use x="-20" y="0" width="100%" href="#peopleImg"/> 
        <use x="0" y="23" width="100%" href="#vector"/>
    </symbol>

    <use href="#people"/>
</svg>