<svg xmlns="http://www.w3.org/2000/svg" width="651" height="387">
    <!-- Individual shapes and images -->
    <symbol id="woman-sitting" width="66" height="201" viewBox="0 0 66 201">
        <path d="M18.5101 34.5117C18.5101 34.5117 4.58873 52.8928 0.649414 56.6153C2.00107 59.2102 7.00292 61.2051 8.0799 63.9446C14.4479 61.6533 17.7728 54.96 18.8281 52.5314C20.1653 49.4594 18.5101 34.5117 18.5101 34.5117Z" fill="#24272E"/>
        <path d="M21.9004 32.9479C21.9004 32.9479 40.9898 32.4709 42.5077 35.0368C44.0256 37.6028 48.03 30.9963 44.7629 27.7292C41.4958 24.4621 28.0226 5.19922 28.0226 5.19922L21.9004 32.9479Z" fill="#3C1448"/>
        <path d="M29.5189 32.9453C29.5189 32.9453 21.2933 33.7404 18.4961 34.456C18.0479 34.5716 18.7346 49.6856 18.8358 52.5335C19.1538 61.4024 27.1698 79.6678 21.7198 94.4059C19.7465 99.7475 47.965 98.3886 46.3893 94.2975C45.652 92.3748 42.8258 87.1561 42.6524 80.2894C42.45 72.4975 44.9871 62.8335 45.6231 58.1859C46.8736 49.0134 45.9773 36.8991 45.3412 34.2102C45.334 34.203 35.8724 32.9453 29.5189 32.9453Z" fill="#24272E"/>
        <path d="M18.4884 34.457C18.2932 34.7534 18.5028 38.2807 18.5028 38.2229C18.5245 38.5987 19.5509 57.081 19.6304 55.1728C21.1844 65.4584 27.2416 80.7603 21.7121 94.3997C26.3598 77.2257 18.5028 63.5718 18.3149 51.4937C18.2715 49.5349 18.1775 46.5713 18.1631 42.0176C18.1775 40.9985 18.1486 34.8907 18.4884 34.457Z" fill="#24272E"/>
        <path d="M52.0043 62.0739C54.7727 66.1795 57.2375 70.4729 56.3701 71.6294C54.7293 73.7979 44.8413 75.2001 43.1065 75.4314L41.6898 74.9977C41.2128 74.9977 34.8014 72.7136 32.886 73.3714C30.9994 74.0219 25.0724 81.8138 26.5108 81.8138C27.9492 81.8138 30.732 78.6479 30.732 78.6479C30.732 78.6479 30.1032 80.6501 31.5416 80.6501C31.5416 80.6501 32.3511 82.4716 33.2474 82.4716C34.1437 82.4716 35.9435 82.0813 35.9435 82.0813C35.9435 82.0813 39.8033 80.1297 42.3187 80.1297C42.8246 80.1297 58.7554 82.5945 64.415 78.3805C67.1689 76.3349 65.333 66.7938 61.531 57.2383C58.1265 58.0767 55.1413 60.1657 52.0043 62.0739Z" fill="#F6957E"/>
        <path d="M61.5243 57.2383C58.1271 58.0767 55.1419 60.1657 52.0049 62.0739C52.6337 63.0063 53.2409 63.946 53.8047 64.8567C56.2116 63.1942 60.216 60.5271 62.4423 59.6597C62.1531 58.8574 61.8423 58.0478 61.5243 57.2383Z" fill="#F15F5C"/>
        <path d="M45.3338 34.2031C45.3338 34.2031 43.6641 51.753 45.8181 53.5961C45.8181 53.5961 48.4564 58.9305 51.3837 63.2673C54.5207 61.3519 60.2526 58.7281 63.6426 57.8896C59.6238 47.8064 50.6826 35.5114 45.3338 34.2031Z" fill="#24272E"/>
        <path d="M22.0729 92.9375C22.0729 92.9375 10.5802 103.136 9.35147 107.712C8.12992 112.251 7.74683 119.775 13.898 119.775C16.782 119.775 23.121 118.655 29.8215 119.139C37.411 119.681 45.3619 121.734 47.4508 119.775C51.3757 116.096 54.8379 110.842 54.8379 105.926C54.8379 101.004 46.0124 92.9447 46.0124 92.9447H22.0729V92.9375Z" fill="#24272E"/>
        <path d="M45.9983 92.9375H22.0732C22.0732 92.9375 18.2568 95.9588 14.8018 99.4645C19.8397 97.7803 26.8076 96.7322 36.3343 97.5129C42.9335 98.055 48.1884 98.9874 52.3518 100.086C49.7352 96.3492 45.9983 92.9375 45.9983 92.9375Z" fill="#24272E"/>
        <path d="M11.067 186.565C10.9079 190.165 9.36112 194.292 9.36112 194.292C9.23824 194.581 11.1465 198.665 12.4981 198.586C14.363 198.477 16.9362 194.148 16.9362 194.148C16.9362 194.148 15.5484 188.098 17.9337 177.841C18.2011 176.685 18.5553 175.109 18.9745 173.215C16.488 172.059 14.0811 170.75 11.4789 170.367C11.2332 179.077 11.1103 185.503 11.067 186.565Z" fill="#F37575"/>
        <path d="M26.3029 104.839C26.3029 104.839 18.6266 103.061 15.4607 110.355C13.2272 115.501 9.72883 150.268 9.16504 171.128C11.7672 171.512 16.7256 172.263 19.2049 173.42C22.4864 158.552 29.4616 123.864 29.7362 117.481C30.0543 110.282 29.5627 104.97 26.3029 104.839Z" fill="#24272E"/>
        <path d="M16.9293 194.152C16.9293 194.152 16.6546 199.682 12.4768 199.841C9.53493 199.949 8.98559 195.649 9.35422 194.297C9.35422 194.297 12.8237 199.226 16.9293 194.152Z" fill="#8C2E60"/>
        <path d="M27.8562 188.489C26.8804 191.973 27.0683 196.346 27.0683 196.346C27.0972 196.656 23.9964 200.032 22.7242 199.584C20.9823 198.969 19.8691 194.119 19.8691 194.119C19.8691 194.119 23.0856 188.713 24.0181 178.254C24.1265 177.075 24.2783 175.464 24.4734 173.541C27.2129 173.122 29.9234 172.536 32.5328 172.89C30.0318 181.289 28.1453 187.462 27.8562 188.489Z" fill="#F37575"/>
        <path d="M38.8732 106.166C38.8732 106.166 46.7663 106.585 47.5108 114.427C48.0312 119.964 40.4995 154.16 34.5147 174.254C31.9053 173.9 27.0842 173.127 24.3447 173.546C25.8554 158.432 29.9104 123.477 31.6379 117.297C33.5822 110.336 35.7145 105.392 38.8732 106.166Z" fill="#24272E"/>
        <path d="M19.8697 194.117C19.8697 194.117 18.3952 199.48 22.349 200.782C25.1245 201.699 27.0039 197.738 27.0689 196.343C27.0689 196.343 22.2116 200.109 19.8697 194.117Z" fill="#8C2E60"/>
        <path d="M20.5265 11.7305C20.5265 11.7305 21.7264 25.1531 18.0328 28.8466C14.3392 32.5402 13.8116 32.439 12.5322 32.0848C12.5322 32.0848 13.3851 34.3617 15.7343 34.5062C15.8933 34.5135 16.0595 34.5135 16.233 34.5062C18.9652 34.34 16.0162 36.5662 14.5922 37.065C13.1683 37.5637 17.4401 38.1347 20.4253 37.4192C23.4177 36.7036 33.5082 36.5518 32.5179 25.7024C31.5421 14.8602 20.5265 11.7305 20.5265 11.7305Z" fill="#24272E"/>
        <path d="M28.477 26.1805L27.4072 38.4249C27.4072 38.4249 31.8597 40.6294 37.4037 38.049L35.1919 17.9766L28.477 26.1805Z" fill="#F6957E"/>
        <path d="M28.4788 26.1801L28.0234 31.4422C28.5222 31.4205 29.0354 31.2831 29.563 31.0012C33.8204 28.7099 34.4492 22.3926 34.5215 18.793L28.4788 26.1801Z" fill="#F15F5C"/>
        <path d="M20.8022 5.10124C20.8022 5.10124 18.8434 6.63359 18.4097 9.40918C17.9688 12.1848 19.8192 15.2856 19.8192 17.6275C19.8192 19.9622 24.1561 31.0863 29.5555 28.4625C34.9548 25.8387 34.5212 17.3673 34.5212 15.4736C34.5212 13.5798 31.8974 7.00946 28.6809 5.47711C25.4716 3.93752 20.8022 5.10124 20.8022 5.10124Z" fill="#F6957E"/>
        <path d="M20.5258 19.1864C20.6993 19.5911 21.0607 19.8152 21.3354 19.6923C21.61 19.5622 21.6968 19.1358 21.5305 18.731C21.3571 18.3262 20.9957 18.1022 20.721 18.225C20.4391 18.3479 20.3524 18.7816 20.5258 19.1864Z" fill="#501F5E"/>
        <path d="M22.7155 19.0108C20.3519 16.7556 19.6507 18.8373 18.9424 19.1047C19.5279 19.0397 20.135 18.1795 20.7928 18.259C21.3349 18.3169 22.1589 18.7506 22.7155 19.0108Z" fill="#42124A"/>
        <path d="M22.3506 17.9727C22.9144 19.2593 23.4637 20.8784 23.854 22.2445C24.36 22.2517 24.9527 22.1071 25.4008 21.7819C24.7792 22.4902 23.7384 22.4685 23.6806 22.483C23.3191 21.3771 22.7698 19.9242 22.3506 17.9727Z" fill="#501F5E"/>
        <path d="M23.3906 16.0369C23.3906 16.0369 23.6002 14.7286 24.3953 13.7672C25.1976 12.8131 27.4094 12.6758 27.4094 12.6758C27.4094 12.6758 25.3205 13.1817 24.8073 13.8467C24.3014 14.5045 24.0845 15.4586 24.0845 15.4586L23.3906 16.0369Z" fill="#501F5E"/>
        <path d="M22.191 16.9471C22.191 16.9471 21.3381 16.152 20.4273 16.0147C19.5166 15.8773 18.5986 17.0989 18.5986 17.0989C18.5986 17.0989 19.6756 16.2243 20.2828 16.3472C20.89 16.4701 21.5332 17.0049 21.5332 17.0049L22.191 16.9471Z" fill="#501F5E"/>
        <path d="M28.7039 23.3594C27.0704 24.046 26.3259 24.7472 24.1719 24.646C25.8271 25.2387 27.7643 24.5665 28.7039 23.3594Z" fill="white"/>
        <path d="M25.5666 16.786C25.7184 17.3137 26.1449 17.6534 26.5207 17.545C26.8966 17.4366 27.0701 16.9161 26.9183 16.3885C26.7665 15.8608 26.34 15.5211 25.9642 15.6295C25.5883 15.738 25.4076 16.2584 25.5666 16.786Z" fill="#501F5E"/>
        <path d="M28.7394 16.1989C25.4651 14.4063 25.0603 16.582 24.2725 16.9723C24.9591 16.806 25.5012 15.8447 26.2963 15.8086C26.9469 15.7652 28.0238 16.0399 28.7394 16.1989Z" fill="#42124A"/>
        <path opacity="0.53" d="M20.8022 5.09892C20.8022 5.09892 18.8434 6.63127 18.4097 9.40686C17.9688 12.1825 19.8192 15.2833 19.8192 17.6252C19.8192 17.7553 19.8626 18.1095 19.8626 18.1095C21.7202 18.7094 24.4307 8.36602 24.4596 4.67969C22.4502 4.68692 20.8022 5.09892 20.8022 5.09892Z" fill="#F15F5C"/>
        <path d="M19.7527 6.49182C19.7094 6.34003 21.4586 1.60562 25.7665 0.904494C30.9202 0.0660343 37.0062 3.89693 38.8638 9.09394C40.7215 14.2909 42.4056 20.2252 47.4942 21.6998C52.5828 23.1743 53.5152 30.6771 51.925 35.3826C50.3349 40.0881 45.4631 38.8882 45.4631 38.8882C45.4631 38.8882 48.4483 36.2861 47.6532 35.491C47.6532 35.491 45.3764 39.9001 42.8104 39.0255C40.2372 38.1509 39.1963 36.7198 39.1963 36.7198C39.1963 36.7198 43.6344 36.0403 40.7142 33.5755C38.6831 31.8625 37.6495 30.294 35.2353 27.3883C32.9296 24.6127 34.1367 17.1822 32.1345 11.8478C31.8815 12.0575 31.4912 12.2526 30.8696 12.3177C28.1446 12.5996 29.3878 10.6118 26.7929 7.64109C22.3476 5.1474 20.0491 6.49904 19.7527 6.49182Z" fill="#24272E"/>
        <path d="M20.4399 5.37109C16.1175 6.46254 14.4117 10.691 16.5729 13.9436C16.9415 14.493 17.4403 15.0134 18.0908 15.064V14.1316C17.8451 14.1749 17.3824 13.669 17.2379 13.4738C15.0767 10.7199 16.4139 6.72275 20.4399 5.37109Z" fill="#501F5E"/>
        <path d="M23.6194 2.42188C23.6194 2.42188 20.5836 2.43633 18.3429 4.66982C16.1022 6.91053 16.7744 15.736 18.3429 17.0516C19.9114 18.3598 14.353 19.6031 17.6779 19.6031C21.0029 19.6031 26.5902 2.73268 23.6194 2.42188Z" fill="#24272E"/>
        <path d="M37.6358 12.3828C36.9347 14.3922 36.436 17.0305 36.5299 19.0833C36.8624 25.6464 43.8303 22.2203 45.7602 22.3576C46.9529 22.4082 47.9648 23.4996 47.5311 24.9814C47.1842 26.2029 46.3891 26.5716 45.9843 27.0559C45.3627 27.8148 45.6879 28.6894 46.4108 29.0508C47.8492 29.7736 49.62 28.1401 50.1983 30.0844C50.632 31.4361 50.2127 33.0552 49.143 34.1105C50.3645 33.2142 50.9789 31.5301 50.6464 29.9688C50.2922 28.3642 49.1864 28.4437 47.654 28.5593C46.7071 28.6244 46.3601 28.169 46.4397 27.8726C46.4975 27.3016 47.813 27.0848 48.384 25.2416C48.8322 23.9189 48.319 22.4949 47.0974 21.801C43.9026 19.9579 36.7829 26.5933 37.0865 16.8353C37.1154 15.3391 37.3467 13.8573 37.6358 12.3828Z" fill="#562367"/>
        <path d="M31.6886 13.7637C31.6886 13.7637 31.5802 11.2338 32.8957 11.4507C34.2112 11.6675 35.1364 13.3878 34.4931 15.072C33.857 16.7489 31.5079 16.0044 31.6886 13.7637Z" fill="#F37575"/>
        <path d="M32.2006 14.1563C32.2006 14.1563 32.0199 12.6095 32.5981 12.4649C33.1763 12.3204 33.7835 13.5347 33.6534 14.337C33.5378 15.1321 32.2873 15.0815 32.2006 14.1563Z" fill="#F15F5C"/>
        <path d="M63.008 75.7615C63.008 75.7615 60.4492 78.2913 61.8659 78.6816C63.2899 79.0719 64.6487 78.0745 64.6487 77.2215C64.6487 76.3686 64.4608 75.1543 63.008 75.7615Z" fill="#F15F5C"/>
        <path d="M62.4422 27.4133C62.2832 27.4133 62.1531 27.2832 62.1531 27.1314C62.1531 12.892 47.6102 9.37917 47.4584 9.34303C47.3066 9.30689 47.2126 9.1551 47.2415 9.00331C47.2777 8.85152 47.4295 8.75755 47.5813 8.78646C47.7331 8.8226 62.7169 12.4294 62.7169 27.1242C62.7314 27.2832 62.6013 27.4133 62.4422 27.4133Z" fill="#464B80"/>
        <path d="M59.544 33.2279C59.5224 33.2279 59.5079 33.2279 59.4862 33.2207C59.3344 33.1917 59.2332 33.0399 59.2622 32.8882C61.698 20.398 52.6629 18.1139 52.5689 18.0922C52.4171 18.0561 52.3232 17.9043 52.3593 17.7525C52.3954 17.6007 52.5472 17.5068 52.699 17.5429C52.793 17.5646 62.3558 19.9788 59.8187 33.0038C59.7898 33.1339 59.6741 33.2279 59.544 33.2279Z" fill="#464B80"/>
    </symbol>
    <symbol id="table-platform" width="245" height="5" viewBox="0 0 245 5" >
        <path d="M0 0H245V5H0" fill="#1F160C"/>
    </symbol>
    <symbol id="table-part-1" width="4" height="98" viewBox="0 0 4 98">
        <path d="M4 0H0V98H4V0Z" fill="#856E76"/>
    </symbol>
    <symbol id="table-part-2" width="5" height="103" viewBox="0 0 5 103">
        <path d="M5 0H0V103H5V0Z" fill="#856E76"/>
    </symbol>
    <symbol id="chair-occupied" width="78" height="117" viewBox="0 0 78 117">
        <path d="M44.3872 40.5078H36.7832V77.8338H44.3872V40.5078Z" fill="#010101"/>
        <path d="M43.4901 77.8398H37.6787V103.818H43.4901V77.8398Z" fill="#51586D"/>
        <path d="M68.7319 15.9752C69.1078 16.0331 70.2498 12.1877 70.3149 11.7251C70.4956 10.3518 70.1776 9.15915 69.3029 8.03156C66.5418 4.46088 62.0243 2.58157 57.4272 1.7937C51.4423 0.774541 44.8069 0.81792 38.7064 0.629989C28.3051 0.311953 15.5548 -0.100047 7.05451 6.36911C2.93449 9.5061 3.90304 11.9853 6.11484 16.5029C-0.751858 17.8907 -1.09881 19.5387 3.91749 20.912C5.97027 21.4758 7.387 23.2034 7.387 25.1622V25.6971C7.387 37.2982 17.6726 46.7092 30.3579 46.7092H45.3129C57.9982 46.7092 68.2838 37.3054 68.2838 25.6971C68.2838 23.6081 69.874 21.83 72.1002 21.3602C75.4613 20.6591 77.3984 19.8351 77.3984 18.9605C77.3984 17.8329 74.1458 16.792 68.7319 15.9752ZM38.9521 37.2765C28.4714 37.2765 19.9711 32.3324 19.8988 26.2102H57.9982C57.9331 32.3324 49.4329 37.2765 38.9521 37.2765Z" fill="#565EA4"/>
        <path d="M71.7451 114.475C71.7235 113.167 70.791 112.126 69.6562 112.155L44.4157 102.52V101.023H37.1876V102.332L11.4483 112.74C10.3135 112.74 9.39551 113.796 9.39551 115.104V116.304H17.903V113.521L37.961 106.965H39.2837L39.8114 113.268H38.3513C37.2526 113.268 36.3636 114.294 36.3636 115.559V116.304H45.6951V115.559C45.6951 114.294 44.806 113.268 43.7073 113.268H42.1822L42.6809 106.965H43.223L63.2088 113.058L63.2521 115.841L71.7596 115.668L71.7451 114.475Z" fill="#010101"/>
        <path d="M60.8387 5.60885C53.5889 2.81157 45.2404 3.06456 37.5064 3.12961C35.4319 3.14407 33.3647 3.16574 31.2902 3.18743C22.2189 3.3103 4.92929 4.75593 6.09302 16.3354C6.10024 16.3932 6.10747 16.4438 6.1147 16.5016C6.1147 16.5016 10.6395 18.0195 14.109 21.1131C17.5785 24.2068 18.9084 32.5191 18.9446 32.6492C19.1759 33.6178 19.8553 34.4851 20.6215 35.179C24.7777 38.9738 31.7022 40.1375 37.4196 40.1014C41.3734 40.0725 45.9488 39.899 49.6568 38.663C61.1206 34.8393 57.4849 24.2068 60.9471 21.1131C64.4166 18.0195 68.739 15.9739 68.739 15.9739C68.739 15.9739 70.1413 9.19399 60.8387 5.60885ZM38.952 37.2752C28.4712 37.2752 19.971 32.3312 19.8987 26.2089H57.998C57.933 32.3312 49.4327 37.2752 38.952 37.2752Z" fill="#565EA4"/>
    </symbol>
    <symbol id="chair-vacant" width="73" height="108" viewBox="0 0 73 108">
        <path d="M44.6489 35.1211H37.0449V72.447H44.6489V35.1211Z" fill="#010101"/>
        <path d="M43.746 72.4453H37.9346V98.4231H43.746V72.4453Z" fill="#565EA4"/>
        <path d="M72.0078 106.294C71.9862 105.26 71.0537 104.436 69.9189 104.451L44.6784 96.8104V95.625H37.4503V96.6658L11.711 104.92C10.5762 104.92 9.6582 105.759 9.6582 106.792V107.747H18.1657V105.542L38.2237 100.345H39.5464L40.0741 105.34H38.614C37.5153 105.34 36.6263 106.149 36.6263 107.154V107.747H45.9577V107.154C45.9577 106.149 45.0687 105.34 43.97 105.34H42.4449L42.9436 100.345H43.4857L63.4715 105.173L63.5148 107.378L72.0223 107.241L72.0078 106.294Z" fill="#010101"/>
        <path d="M63.3988 34.1722C62.9868 32.7989 61.6063 33.4133 60.5726 33.7241L60.0305 33.8108C58.4259 18.6318 43.7022 10.2833 30.829 13.348C29.5062 6.40184 26.2174 1.2482 14.2911 0.359142C10.6626 0.0917021 7.23644 0.135063 3.61516 0.554293C2.01052 0.749452 0.788991 2.14448 0.854044 3.78526C0.919097 5.51277 2.37194 6.8572 4.09946 6.79215C3.99103 6.79938 11.8191 6.26451 18.0497 7.86192C22.6901 9.11961 23.3118 10.7387 24.302 15.9285C25.7838 23.9155 25.3501 32.77 29.34 36.0298C35.1442 40.5474 64.83 38.9789 63.3988 34.1722ZM33.2287 31.1292C33.3082 31.1436 33.2648 31.1292 33.3082 31.1653C33.2793 31.1509 33.2504 31.1436 33.2287 31.1292ZM33.3733 31.1942C32.1373 26.5393 31.8915 21.8555 31.4362 17.5909C40.0954 16.1815 49.304 19.2896 54.0384 27.0887C54.277 27.5946 55.7587 29.4306 57.0887 34.0566C49.9762 34.2879 37.4282 32.9868 33.3733 31.1942Z" fill="#565EA4"/>
    </symbol>

    <!-- Monitor0 Parts -->
    <symbol id="monitor0" width="47" height="40" viewBox="0 0 47 40">
        <path d="M0 40L47 40L47 0L0 0L0 40Z" fill="#464B80"/>
    </symbol>
    <symbol id="monitor0-part-1" width="29" height="22" viewBox="0 0 29 22">
        <path d="M0 22L29 22L29 0L0 0L0 22Z" fill="#24272E"/>
    </symbol>
    <symbol id="monitor0-part-2" width="14" height="12" viewBox="0 0 14 12" >
        <path d="M0 12L14 12L14 0L0 0L0 12Z" fill="#565EA4"/>
    </symbol>
    <symbol id="monitor0-part-3" width="6" height="30" viewBox="0 0 6 30">
        <path d="M5.42195 0V12.4253H0V30H0.556104V12.738H6V0H5.42195Z" fill="#565EA4"/>
    </symbol>
    <symbol id="monitor0-part-4" width="4" height="23" viewBox="0 0 4 23">
        <path d="M0 23H4L4 0H0L0 23Z" fill="#565EA4"/>
    </symbol>
    <symbol id="monitor0-part-5" width="30" height="4" viewBox="0 0 30 4">
        <path d="M0 4L30 4V0L0 0V4Z" fill="#565EA4"/>
    </symbol>

    <!-- Monitor1 Parts -->
    <symbol id="monitor1" width="47" height="40" viewBox="0 0 47 40">
        <path d="M0 40L47 40L47 0L0 0L0 40Z" fill="#565EA4"/>
    </symbol>
    <symbol id="monitor1-part-1" width="29" height="22" viewBox="0 0 29 22">
        <path d="M0 22L29 22L29 0L0 0L0 22Z" fill="#3D415E"/>
    </symbol>
    <symbol id="monitor1-part-2" width="14" height="12" viewBox="0 0 14 12">
        <path d="M0 12L14 12L14 0L0 0L0 12Z" fill="#252744"/>
    </symbol>
    <symbol id="monitor1-part-3" width="6" height="30" viewBox="0 0 6 30">
        <path d="M5.42857 0V12.4253H0V30H0.54945V12.738H6V0H5.42857Z" fill="#5A5F7B"/>
    </symbol>
    <symbol id="monitor1-part-4" width="6" height="19" viewBox="0 0 6 19">
        <path d="M6 0H0V19H6V0Z" fill="#252744"/>
    </symbol>
    <symbol id="monitor1-part-5" width="30" height="4" viewBox="0 0 30 4">
        <path d="M0 4L30 4V0L0 0V4Z" fill="#252744"/>
    </symbol>

    <!-- Pens -->
    <symbol id="pen-holder" width="6" height="14" viewBox="0 0 6 14">
        <path d="M6 0H0V14H6V0Z" fill="#4B4B9F"/>
    </symbol>
    <symbol id="pen-1" width="6" height="14" viewBox="0 0 6 14">
        <path d="M4 14.736L2.41379 15L0 3.1056V0L1.59388 2.84159L4 14.736Z" fill="#BE202E"/>
    </symbol>
    <symbol id="pen-2" width="2" height="11" viewBox="0 0 2 11" >
        <path d="M2 0H0V11H2V0Z" fill="#A0D3A1"/>
    </symbol>
    <symbol id="pen-2cap" width="2" height="6" viewBox="0 0 2 6">
        <path d="M2 0H0V6H2V0Z" fill="#15467A"/>
    </symbol>
    <symbol id="pen-3" width="3" height="7" viewBox="0 0 3 7">
        <path d="M0 6.57811L0.985075 7L3 0.680192C2.64926 0.50799 2.3582 0.266913 2.097 0L0 6.57811Z" fill="#F15F5D"/>
    </symbol>
    <symbol id="pen-3cap" width="4" height="6" viewBox="0 0 4 6">
        <path d="M2.72962 0L2.57445 0.355856C-0.131175 -0.620696 1.24589 3.45104 0.7901 3.67448C0.537963 3.89793 0.489475 3.76552 0.54766 3.84C0.276128 3.57517 -0.189338 3.93103 0.0821949 4.19586C0.266449 4.36137 0.53797 4.42759 0.85799 4.32L0.411909 5.3462C0.751325 5.60275 1.12952 5.83448 1.58531 6L4 0.397238L2.72962 0ZM2.19626 0.455175C2.31263 0.446899 2.4193 0.446895 2.52598 0.463446L1.59502 2.62345C1.51744 1.62207 1.27499 0.537934 2.19626 0.455175Z" fill="#5B1432"/>
    </symbol>

    <!-- woman parts -->
    <symbol id="face" width="14" height="24" viewBox="0 0 14 24">
        <path d="M9.30595 0.166161C9.30595 0.166161 12.8912 0.898336 13.3207 4.20044C13.7501 7.50255 14.3431 10.2555 13.7501 14.1068C13.1503 17.958 11.0168 23.0979 7.51331 23.9252C4.00983 24.7526 0.342789 18.5145 0.342789 15.1172C0.342789 11.7272 -0.938679 6.0382 1.45378 2.55305C3.83942 -0.93942 9.30595 0.166161 9.30595 0.166161Z" fill="#F6957E"/>
    </symbol>
    <symbol id="hair-main" width="32" height="46" viewBox="0 0 32 46">
        <path d="M24.7892 0.0313312C22.0956 0.349154 17.8378 -0.329829 15.8527 4.19192C14.6813 6.75616 12.2753 11.7113 12.2753 20.5092C12.2753 33.6122 0 39.4196 0 39.4196L5.38008 42.0995L8.59272 39.4196L6.40421 44.2303L15.2284 45.1404L15.6072 38.8635L17.4309 46L21.5554 45.1404C21.5554 45.1404 19.9281 23.6947 19.7527 15.5902C19.7808 15.6263 19.7948 15.6407 19.7948 15.6407C19.7948 15.6407 19.7597 14.6006 19.7597 13.2571V13.2499C19.7808 12.8526 19.7808 12.4553 19.7668 12.0436C19.7878 10.7578 19.8579 9.39987 20.0193 8.48975C20.4121 6.27221 21.2047 5.13816 23.1407 4.19192C25.0767 3.24567 32 5.94716 32 5.94716C31.7475 1.8227 27.4827 -0.286491 24.7892 0.0313312Z" fill="#24272E"/>
    </symbol>
    <symbol id="hair-bangs" width="16" height="22" viewBox="0 0 16 22">
        <path d="M5.87114 0.150922C9.64182 0.979889 10.784 6.79048 13.8741 9.87174C16.9642 12.9608 16.174 17.4185 14.7111 20.359C13.2404 23.2994 10.8857 21.3913 10.8857 21.3913C10.8857 21.3913 12.1139 22.0795 12.8962 19.6238C13.6785 17.176 12.3095 15.2678 8.13982 13.8914C3.978 12.5229 0.00390801 3.84999 0.00390801 3.84999C-0.105614 2.15295 2.09264 -0.685866 5.87114 0.150922Z" fill="#24272E"/>
    </symbol>
    <symbol id="hair-back" width="27" height="42" viewBox="0 0 27 42">
        <path d="M22.9865 33.0922L25.562 31.3851C25.562 31.3851 18.8442 20.5383 19.5382 11.1949C19.903 6.26328 11.6685 -1.0077 9.47933 0.116319C9.3434 0.0671434 2.16769 0.270873 1.53097 16.3794L0 35.2489L7.76231 42C7.76231 42 12.6558 33.7666 18.8728 37.3845C25.0898 41.0024 27 40.8971 27 40.8971C27 40.8971 22.9865 34.8344 22.9865 33.0922Z" fill="#24272E"/>
    </symbol>
    <symbol id="ear-inner" width="2" height="3" viewBox="0 0 2 3">
        <path d="M0.792125 0.0768089C0.792125 0.0768089 2.96883 3.33512 1.47813 2.97171C-0.0125591 2.61447 -0.606224 -0.52681 0.792125 0.0768089Z" fill="#F15F5C"/>
    </symbol>
    <symbol id="ear-outer" width="2" height="5" viewBox="0 0 2 5" fill="none" xmlns="http://www.w3.org/2000/svg">
        <path d="M1.9427 2.87228C1.9427 2.87228 1.35969 -0.738009 0.389416 0.13665C-0.58086 1.0051 0.459028 5 1.36404 5C2.26905 5 1.9427 2.87228 1.9427 2.87228Z" fill="#F6957E"/>
    </symbol>
    <svg id="" width="11" height="27" viewBox="0 0 11 27" fill="none" xmlns="http://www.w3.org/2000/svg">
        <path d="M8.79348 1.77958C9.11871 2.09659 7.81038 11.1962 9.10392 13.7179C9.10392 13.7179 12.5041 26.7297 10.1979 26.9963C8.18739 27.2341 0.655321 15.8649 0.256173 14.0637C-0.283415 11.6501 0.197028 0 0.197028 0L8.79348 1.77958Z" fill="#F6957E"/>
    </svg>


    <!-- Combined shapes and images  -->
    <symbol id="woman-on-the-table" width="245" height="201">
        <use x="30" y="80" href="#chair-occupied"/> 
        <use x="155" y="90" href="#chair-vacant"/> 
        <use x="35" y="0" href="#woman-sitting"/>
        <use x="235" y="103" href="#table-part-2"/>
        <use x="220" y="99" href="#table-part-1"/>
        <use x="0" y="98" href="#table-platform"/>
        <use x="28" y="49" href="#monitor0"/>
        <use x="34" y="60" href="#monitor0-part-1"/>
        <use x="38" y="64" href="#monitor0-part-2"/>
        <use x="46" y="64" href="#monitor0-part-3"/>
        <use x="42" y="75" href="#monitor0-part-4"/>
        <use x="38" y="94" href="#monitor0-part-5"/>
       
        <use x="113" y="71" href="#pen-1"/>
        <use x="117" y="78" href="#pen-2"/>
        <use x="117" y="75" href="#pen-2cap"/>
        <use x="119" y="79" href="#pen-3"/>
        <use x="120" y="75" href="#pen-3cap"/>
        <use x="115" y="84" href="#pen-holder"/>

        <use x="128" y="49" href="#monitor1"/>
        <use x="134" y="60" href="#monitor1-part-1"/>
        <use x="138" y="64" href="#monitor1-part-2"/>
        <use x="146" y="64" href="#monitor1-part-3"/>
        <use x="140" y="76" href="#monitor1-part-4"/>
        <use x="137" y="94" href="#monitor1-part-5"/>
    </symbol>

    <symbol id="people-standing">
        <use x="34" y="11" href="#hair-back"/>
        <use x="40" y="11" href="#face"/>
        <use x="21" y="10" href="#hair-main"/>
        <use x="44" y="11" href="#hair-bangs"/>
        <use x="40" y="22" href="#ear-outer"/>
        <use x="40" y="23" href="#ear-inner"/>
    </symbol>
    
    <use href="#woman-on-the-table"/>
</svg>