<svg width="369" height="774" viewBox="0 0 369 774" fill="none" xmlns="http://www.w3.org/2000/svg">
<path d="M251 205L251 774" stroke="#4B4AA1" stroke-width="7" stroke-miterlimit="10"/>
<path d="M246.557 247.292C180.062 247.292 126.157 193.387 126.157 126.892C126.157 60.3968 180.062 6.49219 246.557 6.49219C313.052 6.49219 366.957 60.3968 366.957 126.892C366.957 193.387 313.052 247.292 246.557 247.292Z" fill="#4B4AA1" stroke="#4B4AA1" stroke-width="4" stroke-miterlimit="10"/>
<rect width="180.6" height="253.784" transform="matrix(-1 0 0 1 246.557 0)" fill="white"/>
<path d="M246.69 214.69C198.933 214.69 160.218 175.975 160.218 128.218C160.218 80.4608 198.933 41.7461 246.69 41.7461C294.447 41.7461 333.162 80.4608 333.162 128.218C333.162 175.975 294.447 214.69 246.69 214.69Z" fill="#4B4AA1" stroke="#4B4AA1" stroke-width="4" stroke-miterlimit="10"/>
<path d="M246.361 205.412C203.91 205.412 169.497 170.999 169.497 128.548C169.497 86.0974 203.91 51.6843 246.361 51.6843C288.811 51.6843 323.225 86.0974 323.225 128.548C323.225 170.999 288.811 205.412 246.361 205.412Z" fill="white"/>
<path d="M19.0337 147.045C28.4412 147.045 36.0674 139.424 36.0674 130.023C36.0674 120.621 28.4412 113 19.0337 113C9.62626 113 2 120.621 2 130.023C2 139.424 9.62626 147.045 19.0337 147.045Z" fill="#4B4AA1" stroke="#4B4AA1" stroke-width="4" stroke-miterlimit="10"/>
<path d="M36 129L159.957 130.097" stroke="#4B4AA1" stroke-width="7" stroke-miterlimit="10"/>
<path d="M233.15 149.52L249.81 133.14C256.39 126.7 257.86 122.5 257.86 117.81C257.86 109.62 251.56 104.58 241.62 104.58C234.13 104.58 228.04 107.1 224.26 111.58L227.83 114.66C231.05 110.95 235.46 109.2 241.2 109.2C248.69 109.2 252.68 112.7 252.68 118.37C252.68 121.73 251.63 125.02 246.1 130.48L225.73 150.43V154H260.1V149.52H233.15ZM270.889 154.35C272.919 154.35 274.669 152.67 274.669 150.5C274.669 148.33 272.919 146.72 270.889 146.72C268.859 146.72 267.179 148.33 267.179 150.5C267.179 152.67 268.859 154.35 270.889 154.35Z" fill="#4B4AA1"/>
</svg>
