<svg viewBox="0 0 438 973" fill="none" xmlns="http://www.w3.org/2000/svg">
<path d="M19.034 404.05C28.441 404.05 36.067 396.42 36.067 387.02C36.067 377.62 28.441 370 19.034 370C9.626 370 2 377.62 2 387.02C2 396.42 9.626 404.05 19.034 404.05Z" fill="#4B4AA1" stroke="#4B4AA1" stroke-width="4" stroke-miterlimit="10"/>
<path d="M19 387L142.957 388.1" stroke="#4B4AA1" stroke-width="7" stroke-miterlimit="10"/>
<path d="M214 473V973" stroke="#4B4AA1" stroke-width="7" stroke-miterlimit="10"/>
<path d="M214 0V300" stroke="#4B4AA1" stroke-width="7" stroke-miterlimit="10"/>
<mask id="mask0" mask-type="alpha" maskUnits="userSpaceOnUse" x="214" y="261" width="223" height="240">
<path d="M437 261H214V501H437V261Z" fill="white"/>
</mask>
<g mask="url(#mask0)">
<path d="M220 501C283.508 501 335 449.513 335 386C335 322.487 283.508 271 220 271C156.487 271 105 322.487 105 386C105 449.513 156.487 501 220 501Z" fill="#4B4AA1" stroke="#4B4AA1" stroke-width="4" stroke-miterlimit="10"/>
</g>
<path d="M219.267 473.225C267.02 473.225 305.74 434.51 305.74 386.753C305.74 338.996 267.02 300.281 219.267 300.281C171.51 300.281 132.795 338.996 132.795 386.753C132.795 434.51 171.51 473.225 219.267 473.225Z" fill="#4B4AA1" stroke="#4B4AA1" stroke-width="4" stroke-miterlimit="10"/>
<path d="M219.596 463.947C262.05 463.947 296.46 429.533 296.46 387.083C296.46 344.632 262.05 310.219 219.596 310.219C177.146 310.219 142.732 344.632 142.732 387.083C142.732 429.533 177.146 463.947 219.596 463.947Z" fill="white"/>
<path d="M202.89 406.94L219.55 390.56C226.13 384.12 227.6 379.92 227.6 375.23C227.6 367.04 221.3 362 211.36 362C203.87 362 197.78 364.52 194 369L197.57 372.08C200.79 368.37 205.2 366.62 210.94 366.62C218.43 366.62 222.42 370.12 222.42 375.79C222.42 379.15 221.37 382.44 215.84 387.9L195.47 407.85V411.42H229.84V406.94H202.89ZM240.629 411.77C242.659 411.77 244.41 410.09 244.41 407.92C244.41 405.75 242.659 404.14 240.629 404.14C238.599 404.14 236.919 405.75 236.919 407.92C236.919 410.09 238.599 411.77 240.629 411.77Z" fill="#4B4AA1"/>
</svg>
