<svg viewBox="0 0 438 993" fill="none" xmlns="http://www.w3.org/2000/svg">
<path d="M19.034 404.05C28.441 404.05 36.067 396.42 36.067 387.02C36.067 377.62 28.441 370 19.034 370C9.626 370 2 377.62 2 387.02C2 396.42 9.626 404.05 19.034 404.05Z" fill="#4B4AA1" stroke="#4B4AA1" stroke-width="4" stroke-miterlimit="10"/>
<path d="M19 387L142.957 388.1" stroke="#4B4AA1" stroke-width="7" stroke-miterlimit="10"/>
<path d="M212.034 990.045C221.441 990.045 229.068 982.424 229.068 973.023C229.068 963.621 221.441 956 212.034 956C202.626 956 195 963.621 195 973.023C195 982.424 202.626 990.045 212.034 990.045Z" fill="#4B4AA1" stroke="#4B4AA1" stroke-width="4" stroke-miterlimit="10"/>
<path d="M214 473V973" stroke="#4B4AA1" stroke-width="7" stroke-miterlimit="10"/>
<path d="M214 0V300" stroke="#4B4AA1" stroke-width="7" stroke-miterlimit="10"/>
<mask id="mask0" mask-type="alpha" maskUnits="userSpaceOnUse" x="214" y="261" width="223" height="240">
<path d="M437 261H214V501H437V261Z" fill="white"/>
</mask>
<g mask="url(#mask0)">
<path d="M220 501C283.508 501 335 449.513 335 386C335 322.487 283.508 271 220 271C156.487 271 105 322.487 105 386C105 449.513 156.487 501 220 501Z" fill="#4B4AA1" stroke="#4B4AA1" stroke-width="4" stroke-miterlimit="10"/>
</g>
<path d="M219.267 473.225C267.02 473.225 305.74 434.51 305.74 386.753C305.74 338.996 267.02 300.281 219.267 300.281C171.51 300.281 132.795 338.996 132.795 386.753C132.795 434.51 171.51 473.225 219.267 473.225Z" fill="#4B4AA1" stroke="#4B4AA1" stroke-width="4" stroke-miterlimit="10"/>
<path d="M219.596 463.947C262.05 463.947 296.46 429.533 296.46 387.083C296.46 344.632 262.05 310.219 219.596 310.219C177.146 310.219 142.732 344.632 142.732 387.083C142.732 429.533 177.146 463.947 219.596 463.947Z" fill="white"/>
<path d="M234.49 393.64H224.69V382.3H219.79V393.64H198.51L223.57 362H217.97L192 394.48V398.12H219.65V411H224.69V398.12H234.49V393.64ZM244.27 411.35C246.3 411.35 248.05 409.67 248.05 407.5C248.05 405.33 246.3 403.72 244.27 403.72C242.236 403.72 240.556 405.33 240.556 407.5C240.556 409.67 242.236 411.35 244.27 411.35Z" fill="#4B4AA1"/>
</svg>
