<svg width="368" height="1077" viewBox="0 0 368 1077" fill="none" xmlns="http://www.w3.org/2000/svg">
<path d="M119.035 32.4648V468.014" stroke="#4B4AA1" stroke-width="7" stroke-miterlimit="10"/>
<path d="M119 508L119 1077" stroke="#4B4AA1" stroke-width="7" stroke-miterlimit="10"/>
<path d="M122.4 511.292C188.895 511.292 242.8 457.387 242.8 390.892C242.8 324.397 188.895 270.492 122.4 270.492C55.9048 270.492 2 324.397 2 390.892C2 457.387 55.9048 511.292 122.4 511.292Z" fill="#4B4AA1" stroke="#4B4AA1" stroke-width="4" stroke-miterlimit="10"/>
<rect x="122.4" y="264" width="180.6" height="253.784" fill="white"/>
<path d="M122.267 478.69C170.024 478.69 208.739 439.975 208.739 392.218C208.739 344.461 170.024 305.746 122.267 305.746C74.5098 305.746 35.7949 344.461 35.7949 392.218C35.7949 439.975 74.5098 478.69 122.267 478.69Z" fill="#4B4AA1" stroke="#4B4AA1" stroke-width="4" stroke-miterlimit="10"/>
<path d="M122.596 469.413C165.047 469.413 199.46 434.999 199.46 392.549C199.46 350.098 165.047 315.685 122.596 315.685C80.1456 315.685 45.7324 350.098 45.7324 392.549C45.7324 434.999 80.1456 469.413 122.596 469.413Z" fill="white"/>
<path d="M119.067 36.045C128.474 36.045 136.101 28.4238 136.101 19.0225C136.101 9.62124 128.474 2 119.067 2C109.659 2 102.033 9.62124 102.033 19.0225C102.033 28.4238 109.659 36.045 119.067 36.045Z" fill="#4B4AA1" stroke="#4B4AA1" stroke-width="4" stroke-miterlimit="10"/>
<path d="M348.034 408.045C357.441 408.045 365.067 400.424 365.067 391.023C365.067 381.621 357.441 374 348.034 374C338.626 374 331 381.621 331 391.023C331 400.424 338.626 408.045 348.034 408.045Z" fill="#4B4AA1" stroke="#4B4AA1" stroke-width="4" stroke-miterlimit="10"/>
<path d="M105.63 367V371.48H117.18V416H122.22V367H105.63ZM137.713 416.35C139.743 416.35 141.493 414.67 141.493 412.5C141.493 410.33 139.743 408.72 137.713 408.72C135.683 408.72 134.003 410.33 134.003 412.5C134.003 414.67 135.683 416.35 137.713 416.35Z" fill="#4B4AA1"/>
<path d="M332.957 393L209 394.097" stroke="#4B4AA1" stroke-width="7" stroke-miterlimit="10"/>
</svg>
