<svg width="353" height="1347" viewBox="0 0 353 1347" fill="none" xmlns="http://www.w3.org/2000/svg">
<path d="M119.035 0V435.55" stroke="#4B4AA1" stroke-width="7" stroke-miterlimit="10"/>
<path d="M119 475.535L119 1346.54" stroke="#4B4AA1" stroke-width="7" stroke-miterlimit="10"/>
<path d="M122.4 478.827C188.895 478.827 242.8 424.922 242.8 358.427C242.8 291.932 188.895 238.027 122.4 238.027C55.9048 238.027 2 291.932 2 358.427C2 424.922 55.9048 478.827 122.4 478.827Z" fill="#4B4AA1" stroke="#4B4AA1" stroke-width="4" stroke-miterlimit="10"/>
<rect x="122.4" y="231.535" width="180.6" height="253.784" fill="white"/>
<path d="M122.267 446.225C170.024 446.225 208.739 407.51 208.739 359.753C208.739 311.996 170.024 273.281 122.267 273.281C74.5098 273.281 35.7949 311.996 35.7949 359.753C35.7949 407.51 74.5098 446.225 122.267 446.225Z" fill="#4B4AA1" stroke="#4B4AA1" stroke-width="4" stroke-miterlimit="10"/>
<path d="M122.596 436.948C165.047 436.948 199.46 402.534 199.46 360.083C199.46 317.633 165.047 283.219 122.596 283.219C80.1456 283.219 45.7324 317.633 45.7324 360.083C45.7324 402.534 80.1456 436.948 122.596 436.948Z" fill="white"/>
<path d="M333.034 377.58C342.441 377.58 350.067 369.959 350.067 360.558C350.067 351.156 342.441 343.535 333.034 343.535C323.626 343.535 316 351.156 316 360.558C316 369.959 323.626 377.58 333.034 377.58Z" fill="#4B4AA1" stroke="#4B4AA1" stroke-width="4" stroke-miterlimit="10"/>
<path d="M332.957 360.535L209 361.632" stroke="#4B4AA1" stroke-width="7" stroke-miterlimit="10"/>
<path d="M125.3 355.535L139.16 338.105V334.535H107.66V339.015H132.72L119.14 356.025V359.735H122.64C131.74 359.735 135.87 363.585 135.87 369.465C135.87 375.555 131.39 379.335 123.27 379.335C116.9 379.335 111.23 376.955 108.08 373.665L105.63 377.655C109.41 381.505 116.2 383.955 123.27 383.955C135.1 383.955 141.05 377.655 141.05 369.465C141.05 361.625 135.8 356.095 125.3 355.535ZM151.932 383.885C153.962 383.885 155.712 382.205 155.712 380.035C155.712 377.865 153.962 376.255 151.932 376.255C149.902 376.255 148.222 377.865 148.222 380.035C148.222 382.205 149.902 383.885 151.932 383.885Z" fill="#4B4AA1"/>
</svg>
