<svg width="178" height="1039" viewBox="0 0 178 1039" fill="none" xmlns="http://www.w3.org/2000/svg">
<path d="M88.733 175.69C40.9758 175.69 2.26097 136.975 2.26097 89.218C2.26097 41.4608 40.9758 2.74609 88.733 2.74609C136.49 2.74609 175.205 41.4608 175.205 89.218C175.205 136.975 136.49 175.69 88.733 175.69Z" fill="#4B4AA1" stroke="#4B4AA1" stroke-width="4" stroke-miterlimit="10"/>
<path d="M88.4035 166.412C45.9527 166.412 11.5395 131.998 11.5395 89.5475C11.5395 47.0967 45.9527 12.6836 88.4035 12.6836C130.854 12.6836 165.268 47.0967 165.268 89.5475C165.268 131.998 130.854 166.412 88.4035 166.412Z" fill="white"/>
<path d="M90 176L90 1039" stroke="#4B4AA1" stroke-width="7" stroke-miterlimit="10"/>
<path d="M106.29 105.64H96.49V94.3H91.59V105.64H70.31L95.37 74H89.77L63.8 106.48V110.12H91.45V123H96.49V110.12H106.29V105.64ZM116.066 123.35C118.096 123.35 119.846 121.67 119.846 119.5C119.846 117.33 118.096 115.72 116.066 115.72C114.036 115.72 112.356 117.33 112.356 119.5C112.356 121.67 114.036 123.35 116.066 123.35Z" fill="#4B4AA1"/>
</svg>
