<svg xmlns="http://www.w3.org/2000/svg" fill="none" width="500" height="1100" style=""><rect id="backgroundrect" width="100%" height="100%" x="0" y="0" fill="none" stroke="none" class="" style=""/>
    
    
    
    
    
    
    
    
    
    
    
    
    
    
    
    
    
    
    
    
    
    
<g class="currentLayer" style=""><title>Layer 1</title><path stroke="#4B4AA1" stroke-miterlimit="10" stroke-width="7" d="M251.035,45.32214340209961 v435.549 " id="svg_1" class=""/><path fill="#4B4AA1" stroke="#4B4AA1" stroke-miterlimit="10" stroke-width="4" d="M246.6 3407.29c-66.495 0-120.4-53.9-120.4-120.4 0-66.49 53.905-120.4 120.4-120.4S367 3220.4 367 3286.89c0 66.5-53.905 120.4-120.4 120.4z" id="svg_2" class=""/><path fill="#fff" d="M247.387 3163.937H123.48v245.123h123.907z" id="svg_3" class=""/><path fill="#4B4AA1" stroke="#4B4AA1" stroke-miterlimit="10" stroke-width="4" d="M246.733 3374.69c-47.757 0-86.472-38.71-86.472-86.47s38.715-86.47 86.472-86.47c47.757 0 86.472 38.71 86.472 86.47s-38.715 86.47-86.472 86.47z" id="svg_4" class=""/><path fill="#fff" d="M246.404 3365.41c-42.451 0-76.864-34.41-76.864-76.86s34.413-76.87 76.864-76.87c42.45 0 76.864 34.42 76.864 76.87s-34.414 76.86-76.864 76.86z" id="svg_5" class=""/><path stroke="#4B4AA1" stroke-miterlimit="10" stroke-width="7" d="M251.03499976158142,1906.070917316327 v455.96670803479736 M250.99999976158142,523.7142490940464 v595.672245284954 m0,1284.5156126674508 v911.8290366896822 m0,-1990.1108267321126 v595.672245284954 " id="svg_6" class=""/><path fill="#4B4AA1" stroke="#4B4AA1" stroke-miterlimit="10" stroke-width="4" d="M254.4,524.1491434020995 c66.495,0 120.4,-53.905 120.4,-120.4 s-53.905,-120.4 -120.4,-120.4 S134,337.2541434020996 134,403.7491434020996 s53.905,120.4 120.4,120.4 z" id="svg_7" class=""/><path fill="#fff" d="M254.4,280.7941434020996 h124.574 v249.847 H254.4 z" id="svg_8" class=""/><path fill="#4B4AA1" stroke="#4B4AA1" stroke-miterlimit="10" stroke-width="4" d="M254.267,491.5471434020996 c47.757,0 86.472,-38.715 86.472,-86.472 c0,-47.757 -38.715,-86.472 -86.472,-86.472 c-47.757,0 -86.472,38.715 -86.472,86.472 c0,47.757 38.715,86.472 86.472,86.472 z" id="svg_9" class=""/><path fill="#fff" d="M254.596,482.2691434020996 c42.451,0 76.864,-34.414 76.864,-76.864 c0,-42.451 -34.413,-76.864 -76.864,-76.864 c-42.45,0 -76.864,34.413 -76.864,76.864 c0,42.45 34.414,76.864 76.864,76.864 z" id="svg_10" class=""/><path fill="#4B4AA1" stroke="#4B4AA1" stroke-miterlimit="10" stroke-width="4" d="M254.4 2307.29c66.495 0 120.4-53.9 120.4-120.4 0-66.49-53.905-120.4-120.4-120.4S134 2120.4 134 2186.89c0 66.5 53.905 120.4 120.4 120.4z" id="svg_11" class=""/><path fill="#fff" d="M254.4 2063.937h124.694v246.697H254.4z" id="svg_12" class=""/><path fill="#4B4AA1" stroke="#4B4AA1" stroke-miterlimit="10" stroke-width="4" d="M254.267 2274.69c47.757 0 86.472-38.71 86.472-86.47s-38.715-86.47-86.472-86.47c-47.757 0-86.472 38.71-86.472 86.47s38.715 86.47 86.472 86.47z" id="svg_13" class=""/><path fill="#fff" d="M254.596 2265.41c42.451 0 76.864-34.41 76.864-76.86s-34.413-76.87-76.864-76.87c-42.45 0-76.864 34.42-76.864 76.87s34.414 76.86 76.864 76.86z" id="svg_14" class=""/><path fill="#4B4AA1" stroke="#4B4AA1" stroke-miterlimit="10" stroke-width="4" d="M246.557,1426.2899923706054 c-66.495,0 -120.4,-53.9 -120.4,-120.4 c0,-66.49 53.905,-120.4 120.4,-120.4 s120.4,53.91 120.4,120.4 c0,66.5 -53.905,120.4 -120.4,120.4 z" id="svg_15" class=""/><path fill="#fff" d="M247.344,1182.9369923706054 H123.437 v249.06 h123.907 z" id="svg_16" class=""/><path fill="#4B4AA1" stroke="#4B4AA1" stroke-miterlimit="10" stroke-width="4" d="M246.69,1393.6899923706055 c-47.757,0 -86.472,-38.71 -86.472,-86.47 s38.715,-86.47 86.472,-86.47 c47.757,0 86.472,38.71 86.472,86.47 s-38.715,86.47 -86.472,86.47 z" id="svg_17" class=""/><path fill="#fff" d="M246.361,1384.4099923706056 c-42.451,0 -76.864,-34.41 -76.864,-76.86 s34.413,-76.87 76.864,-76.87 c42.45,0 76.864,34.42 76.864,76.87 s-34.414,76.86 -76.864,76.86 z" id="svg_18" class=""/><path fill="#4B4AA1" stroke="#4B4AA1" stroke-miterlimit="10" stroke-width="4" d="M251.067,43.1695616242599 c9.407,0 17.034,-7.83005355334282 17.034,-17.48996216225624 c0,-9.657853746414185 -7.627,-17.48893473100662 -17.034,-17.48893473100662 c-9.408,0 -17.034,7.83005355334282 -17.034,17.48996216225624 c0,9.657853746414185 7.626,17.48893473100662 17.034,17.48893473100662 zm228.967,382.20442485809326 c9.407,0 17.033,-7.83005355334282 17.033,-17.48893473100662 c0,-9.65990860891342 -7.626,-17.48996216225624 -17.033,-17.48996216225624 c-9.408,0 -17.034,7.83005355334282 -17.034,17.48996216225624 c0,9.658881177663803 7.626,17.48893473100662 17.034,17.48893473100662 zm-461,830.1695868480206 c9.407,0 17.033,-7.8393004345893855 17.033,-17.497154181003573 c0,-9.657853746414185 -7.626,-17.486879868507383 -17.033,-17.486879868507383 C9.626,1220.5595392808627 2,1228.388565402956 2,1238.0464191493702 c0,9.657853746414185 7.626,17.497154181003573 17.034,17.497154181003573 zm446,1017.156937122345 c9.407,0 17.033,-7.8393004345893855 17.033,-17.497154181003573 c0,-9.657853746414185 -7.626,-17.486879868507383 -17.033,-17.486879868507383 c-9.408,0 -17.034,7.829026122093201 -17.034,17.486879868507383 c0,9.657853746414185 7.626,17.497154181003573 17.034,17.497154181003573 zm-428,1139.42125582695 c9.407,0 17.033,-7.8393004345893855 17.033,-17.497154181003573 c0,-9.657853746414185 -7.626,-17.486879868507383 -17.033,-17.486879868507383 c-9.408,0 -17.034,7.829026122093201 -17.034,17.486879868507383 c0,9.657853746414185 7.626,17.497154181003573 17.034,17.497154181003573 zm209,965.7853746414185 c9.407,0 17.033,-7.8393004345893855 17.033,-17.497154181003573 c0,-9.657853746414185 -7.626,-17.486879868507383 -17.033,-17.486879868507383 c-9.408,0 -17.034,7.829026122093201 -17.034,17.486879868507383 c0,9.657853746414185 7.626,17.497154181003573 17.034,17.497154181003573 z" id="svg_19" class=""/><path stroke="#4B4AA1" stroke-miterlimit="10" stroke-width="7" d="M464.957,2298.9999923706055 L341,2300.0999923706054 M248,3484.9999923706055 v863 M36,1307.9999923706055 l123.957,1.1 M37,3406.9999923706055 l123.957,1.1 " id="svg_20" class=""/><path fill="#4B4AA1" d="M237.63,362.35718452429865 v4.673276519775391 h11.55 V413.471146459342 h5.04 v-51.113961935043335 h-16.59 zm32.083,51.47906166315079 c2.03,0 3.7800000000000002,-1.7524786949157716 3.7800000000000002,-4.016097009181976 s-1.75,-3.9430770635604864 -3.7800000000000002,-3.9430770635604864 s-3.71,1.6794587492942812 -3.71,3.9430770635604864 s1.6800000000000006,4.016097009181976 3.71,4.016097009181976 zM257.3,2257.74634444213 l13.86,-18.18196645975113 V2235.840360755683 h-31.5 v4.673276519775391 h25.06 l-13.58,17.74384678602219 v3.8700571179389955 h3.5 c9.1,0 13.23,4.016097009181976 13.23,10.149772441387176 c0,6.3527352690696715 -4.48,10.295812332630158 -12.6,10.295812332630158 c-6.37,0 -12.04,-2.4826781511306764 -15.19,-5.914615595340729 l-2.45,4.162136900424957 c3.7800000000000002,4.016097009181976 10.57,6.571795105934143 17.64,6.571795105934143 c11.83,0 17.78,-6.571795105934143 17.78,-15.11512874364853 c0,-8.178233909606934 -5.25,-13.94680961370468 -15.75,-14.530969178676605 zm26.632,29.573077976703644 c2.03,0 3.7800000000000002,-1.7524786949157716 3.7800000000000002,-4.016097009181976 s-1.75,-3.9430770635604864 -3.7800000000000002,-3.9430770635604864 s-3.71,1.6794587492942812 -3.71,3.9430770635604864 s1.6800000000000006,4.016097009181976 3.71,4.016097009181976 zm-50.782,-1036.7058936715127 l16.66,-17.08666727542877 c6.58,-6.717834997177125 8.05,-11.099031734466553 8.05,-15.991368091106414 c0,-8.543333637714385 -6.3,-13.8007697224617 -16.24,-13.8007697224617 c-7.49,0 -13.58,2.628718042373657 -17.36,7.301994562149048 l3.5700000000000003,3.212877607345581 c3.22,-3.8700571179389955 7.63,-5.6955557584762575 13.37,-5.6955557584762575 c7.49,0 11.48,3.650997281074524 11.48,9.565612876415253 c0,3.5049573898315423 -1.05,6.9368948340415955 -6.58,12.632450592517852 l-20.37,20.810684502124786 v3.7240172266960148 h34.37 v-4.673276519775391 h-26.95 zm37.739,5.038376247882843 c2.03,0 3.7800000000000002,-1.7524786949157716 3.7800000000000002,-4.016097009181976 s-1.75,-3.9430770635604864 -3.7800000000000002,-3.9430770635604864 s-3.71,1.6794587492942812 -3.71,3.9430770635604864 s1.6800000000000006,4.016097009181976 3.71,4.016097009181976 zm-6.599,2171.0811803221704 h-9.8 v-11.829231190681458 h-4.9 v11.829231190681458 h-21.28 l25.06,-33.00501542091369 h-5.6 l-25.97,33.881254768371576 v3.797037172317505 h27.65 V3444.842031831504 h5.04 v-13.43566999435425 h9.8 v-4.673276519775391 zm9.776,18.47404624223709 c2.03,0 3.7800000000000002,-1.7524786949157716 3.7800000000000002,-4.016097009181976 s-1.75,-3.9430770635604864 -3.7800000000000002,-3.9430770635604864 s-3.71,1.6794587492942812 -3.71,3.9430770635604864 s1.6800000000000006,4.016097009181976 3.71,4.016097009181976 z" id="svg_21" class=""/><path stroke="#4B4AA1" stroke-miterlimit="10" stroke-width="7" d="M464.957,405.8571434020996 L341,406.9541434020996 " id="svg_22" class=""/></g></svg>