<svg viewBox="0 0 438 1009" fill="none" xmlns="http://www.w3.org/2000/svg">
<path d="M212.034 36.045C221.441 36.045 229.068 28.424 229.068 19.023C229.068 9.62101 221.441 2 212.034 2C202.626 2 195 9.62101 195 19.023C195 28.424 202.626 36.045 212.034 36.045Z" fill="#4B4AA1" stroke="#4B4AA1" stroke-width="4" stroke-miterlimit="10"/>
<path d="M418.034 439.05C427.441 439.05 435.067 431.42 435.067 422.02C435.067 412.62 427.441 405 418.034 405C408.626 405 401 412.62 401 422.02C401 431.42 408.626 439.05 418.034 439.05Z" fill="#4B4AA1" stroke="#4B4AA1" stroke-width="4" stroke-miterlimit="10"/>
<path d="M294 422L417.957 423.1" stroke="#4B4AA1" stroke-width="7" stroke-miterlimit="10"/>
<path d="M212 509V1009" stroke="#4B4AA1" stroke-width="7" stroke-miterlimit="10"/>
<path d="M212 36V336" stroke="#4B4AA1" stroke-width="7" stroke-miterlimit="10"/>
<mask id="mask0" mask-type="alpha" maskUnits="userSpaceOnUse" x="0" y="303" width="213" height="240">
<path d="M213 303H0V543H213V303Z" fill="white"/>
</mask>
<g mask="url(#mask0)">
<path d="M216 537C279.508 537 331 485.513 331 422C331 358.487 279.508 307 216 307C152.487 307 101 358.487 101 422C101 485.513 152.487 537 216 537Z" fill="#4B4AA1" stroke="#4B4AA1" stroke-width="4" stroke-miterlimit="10"/>
</g>
<path d="M217.267 509.225C265.02 509.225 303.74 470.51 303.74 422.753C303.74 374.996 265.02 336.281 217.267 336.281C169.51 336.281 130.795 374.996 130.795 422.753C130.795 470.51 169.51 509.225 217.267 509.225Z" fill="#4B4AA1" stroke="#4B4AA1" stroke-width="4" stroke-miterlimit="10"/>
<path d="M217.596 499.947C260.05 499.947 294.46 465.533 294.46 423.083C294.46 380.632 260.05 346.219 217.596 346.219C175.146 346.219 140.732 380.632 140.732 423.083C140.732 465.533 175.146 499.947 217.596 499.947Z" fill="white"/>
<path d="M200 398V402.48H211.55V447H216.59V398H200ZM232.083 447.35C234.113 447.35 235.863 445.67 235.863 443.5C235.863 441.33 234.113 439.72 232.083 439.72C230.053 439.72 228.373 441.33 228.373 443.5C228.373 445.67 230.053 447.35 232.083 447.35Z" fill="#4B4AA1"/>
</svg>
