<svg width="178" height="1317" viewBox="0 0 178 1317" fill="none" xmlns="http://www.w3.org/2000/svg">
<path d="M86.0352 0V435.55" stroke="#4B4AA1" stroke-width="7" stroke-miterlimit="10"/>
<path d="M89 446L89 1317" stroke="#4B4AA1" stroke-width="7" stroke-miterlimit="10"/>
<path d="M89.267 446.225C137.024 446.225 175.739 407.51 175.739 359.753C175.739 311.996 137.024 273.281 89.267 273.281C41.5098 273.281 2.79492 311.996 2.79492 359.753C2.79492 407.51 41.5098 446.225 89.267 446.225Z" fill="#4B4AA1" stroke="#4B4AA1" stroke-width="4" stroke-miterlimit="10"/>
<path d="M89.5965 436.947C132.047 436.947 166.46 402.534 166.46 360.083C166.46 317.632 132.047 283.219 89.5965 283.219C47.1456 283.219 12.7324 317.632 12.7324 360.083C12.7324 402.534 47.1456 436.947 89.5965 436.947Z" fill="white"/>
<path d="M92.3 355.535L106.16 338.105V334.535H74.66V339.015H99.72L86.14 356.025V359.735H89.64C98.74 359.735 102.87 363.585 102.87 369.465C102.87 375.555 98.39 379.335 90.27 379.335C83.9 379.335 78.23 376.955 75.08 373.665L72.63 377.655C76.41 381.505 83.2 383.955 90.27 383.955C102.1 383.955 108.05 377.655 108.05 369.465C108.05 361.625 102.8 356.095 92.3 355.535ZM118.932 383.885C120.962 383.885 122.712 382.205 122.712 380.035C122.712 377.865 120.962 376.255 118.932 376.255C116.902 376.255 115.222 377.865 115.222 380.035C115.222 382.205 116.902 383.885 118.932 383.885Z" fill="#4B4AA1"/>
</svg>
