<svg xmlns="http://www.w3.org/2000/svg" fill="none" width="500" height="995" style=""><rect id="backgroundrect" width="100%" height="100%" x="0" y="0" fill="none" stroke="none" class="" style=""/>
    
    
    
    
    
    
    
    
    
    
    
    
    
    
    
    
    
    
    
    
    
    
<g class="currentLayer" style=""><title>Layer 1</title><path stroke="#4B4AA1" stroke-miterlimit="10" stroke-width="7" d="M251.16487005710601,-1037.7547110652922 v435.549 " id="svg_1" class="selected"/><path fill="#4B4AA1" stroke="#4B4AA1" stroke-miterlimit="10" stroke-width="4" d="M246.729870057106,2337.0702889347076 c-66.495,0 -120.4,-53.9 -120.4,-120.4 c0,-66.49 53.905,-120.4 120.4,-120.4 S367.129870057106,2150.1802889347077 367.129870057106,2216.6702889347075 c0,66.5 -53.905,120.4 -120.4,120.4 z" id="svg_2" class="selected"/><path fill="#fff" d="M247.51687005710602,2093.7172889347075 H123.60987005710602 v245.123 h123.907 z" id="svg_3" class="selected"/><path fill="#4B4AA1" stroke="#4B4AA1" stroke-miterlimit="10" stroke-width="4" d="M246.86287005710602,2304.4702889347077 c-47.757,0 -86.472,-38.71 -86.472,-86.47 s38.715,-86.47 86.472,-86.47 c47.757,0 86.472,38.71 86.472,86.47 s-38.715,86.47 -86.472,86.47 z" id="svg_4" class="selected"/><path fill="#fff" d="M246.53387005710601,2295.1902889347075 c-42.451,0 -76.864,-34.41 -76.864,-76.86 s34.413,-76.87 76.864,-76.87 c42.45,0 76.864,34.42 76.864,76.87 s-34.414,76.86 -76.864,76.86 z" id="svg_5" class="selected"/><path stroke="#4B4AA1" stroke-miterlimit="10" stroke-width="7" d="M251.16487005710601,762.1382889347076 v436.836 M251.12987005710602,-562.2197110652924 v570.68 m0,1230.622 v873.572 m0,-1906.613 v570.68 " id="svg_6" class="selected"/><path fill="#4B4AA1" stroke="#4B4AA1" stroke-miterlimit="10" stroke-width="4" d="M254.529870057106,-558.9277110652924 c66.495,0 120.4,-53.905 120.4,-120.4 s-53.905,-120.4 -120.4,-120.4 S134.12987005710602,-745.8227110652924 134.12987005710602,-679.3277110652923 s53.905,120.4 120.4,120.4 z" id="svg_7" class="selected"/><path fill="#fff" d="M254.529870057106,-802.2827110652923 h124.574 v249.847 H254.529870057106 z" id="svg_8" class="selected"/><path fill="#4B4AA1" stroke="#4B4AA1" stroke-miterlimit="10" stroke-width="4" d="M254.396870057106,-591.5297110652923 c47.757,0 86.472,-38.715 86.472,-86.472 c0,-47.757 -38.715,-86.472 -86.472,-86.472 c-47.757,0 -86.472,38.715 -86.472,86.472 c0,47.757 38.715,86.472 86.472,86.472 z" id="svg_9" class="selected"/><path fill="#fff" d="M254.72587005710602,-600.8077110652923 c42.451,0 76.864,-34.414 76.864,-76.864 c0,-42.451 -34.413,-76.864 -76.864,-76.864 c-42.45,0 -76.864,34.413 -76.864,76.864 c0,42.45 34.414,76.864 76.864,76.864 z" id="svg_10" class="selected"/><path fill="#4B4AA1" stroke="#4B4AA1" stroke-miterlimit="10" stroke-width="4" d="M254.529870057106,1237.0702889347076 c66.495,0 120.4,-53.9 120.4,-120.4 c0,-66.49 -53.905,-120.4 -120.4,-120.4 S134.12987005710602,1050.1802889347077 134.12987005710602,1116.6702889347075 c0,66.5 53.905,120.4 120.4,120.4 z" id="svg_11" class="selected"/><path fill="#fff" d="M254.529870057106,993.7172889347075 h124.694 v246.697 H254.529870057106 z" id="svg_12" class="selected"/><path fill="#4B4AA1" stroke="#4B4AA1" stroke-miterlimit="10" stroke-width="4" d="M254.396870057106,1204.4702889347077 c47.757,0 86.472,-38.71 86.472,-86.47 s-38.715,-86.47 -86.472,-86.47 c-47.757,0 -86.472,38.71 -86.472,86.47 s38.715,86.47 86.472,86.47 z" id="svg_13" class="selected"/><path fill="#fff" d="M254.72587005710602,1195.1902889347075 c42.451,0 76.864,-34.41 76.864,-76.86 s-34.413,-76.87 -76.864,-76.87 c-42.45,0 -76.864,34.42 -76.864,76.87 s34.414,76.86 76.864,76.86 z" id="svg_14" class="selected"/><path fill="#4B4AA1" stroke="#4B4AA1" stroke-miterlimit="10" stroke-width="4" d="M246.686870057106,246.0702889347076 c-66.495,0 -120.4,-53.9 -120.4,-120.4 c0,-66.49 53.905,-120.4 120.4,-120.4 s120.4,53.91 120.4,120.4 c0,66.5 -53.905,120.4 -120.4,120.4 z" id="svg_15" class="selected"/><path fill="#fff" d="M247.473870057106,2.7172889347075397 H123.56687005710602 v249.06 h123.907 z" id="svg_16" class="selected"/><path fill="#4B4AA1" stroke="#4B4AA1" stroke-miterlimit="10" stroke-width="4" d="M246.81987005710602,213.4702889347077 c-47.757,0 -86.472,-38.71 -86.472,-86.47 s38.715,-86.47 86.472,-86.47 c47.757,0 86.472,38.71 86.472,86.47 s-38.715,86.47 -86.472,86.47 z" id="svg_17" class="selected"/><path fill="#fff" d="M246.490870057106,204.19028893470772 c-42.451,0 -76.864,-34.41 -76.864,-76.86 s34.413,-76.87 76.864,-76.87 c42.45,0 76.864,34.42 76.864,76.87 s-34.414,76.86 -76.864,76.86 z" id="svg_18" class="selected"/><path fill="#4B4AA1" stroke="#4B4AA1" stroke-miterlimit="10" stroke-width="4" d="M251.19687005710603,-1034.1747110652923 c9.407,0 17.034,-7.621 17.034,-17.023 c0,-9.4 -7.627,-17.022 -17.034,-17.022 c-9.408,0 -17.034,7.621 -17.034,17.023 c0,9.4 7.626,17.022 17.034,17.022 zm228.967,372 c9.407,0 17.033,-7.621 17.033,-17.022 c0,-9.402 -7.626,-17.023 -17.033,-17.023 c-9.408,0 -17.034,7.621 -17.034,17.023 c0,9.401 7.626,17.022 17.034,17.022 zm-461,808.005 c9.407,0 17.033,-7.63 17.033,-17.03 c0,-9.4 -7.626,-17.02 -17.033,-17.02 C9.755870057106018,111.78028893470764 2.1298700571060185,119.40028893470753 2.1298700571060185,128.80028893470762 c0,9.4 7.626,17.03 17.034,17.03 zm446,990 c9.407,0 17.033,-7.63 17.033,-17.03 c0,-9.4 -7.626,-17.02 -17.033,-17.02 c-9.408,0 -17.034,7.62 -17.034,17.02 c0,9.4 7.626,17.03 17.034,17.03 zm-428,1109 c9.407,0 17.033,-7.63 17.033,-17.03 c0,-9.4 -7.626,-17.02 -17.033,-17.02 c-9.408,0 -17.034,7.62 -17.034,17.02 c0,9.4 7.626,17.03 17.034,17.03 zm209,940 c9.407,0 17.033,-7.63 17.033,-17.03 c0,-9.4 -7.626,-17.02 -17.033,-17.02 c-9.408,0 -17.034,7.62 -17.034,17.02 c0,9.4 7.626,17.03 17.034,17.03 z" id="svg_19" class="selected"/><path stroke="#4B4AA1" stroke-miterlimit="10" stroke-width="7" d="M465.086870057106,1118.7802889347076 L341.129870057106,1119.8802889347076 M248.12987005710602,2304.7802889347076 v863 M36.12987005710602,127.78028893470764 l123.957,1.1 M37.12987005710602,2226.7802889347076 l123.957,1.1 " id="svg_20" class="selected"/><path fill="#4B4AA1" d="M237.759870057106,-703.2197110652924 v4.48 h11.55 V-654.2197110652924 h5.04 v-49 h-16.59 zm32.083,49.35 c2.03,0 3.7800000000000002,-1.6800000000000006 3.7800000000000002,-3.85 s-1.75,-3.7800000000000002 -3.7800000000000002,-3.7800000000000002 s-3.71,1.61 -3.71,3.7800000000000002 s1.6800000000000006,3.85 3.71,3.85 zM257.42987005710603,1113.7802889347076 l13.86,-17.43 V1092.7802889347076 h-31.5 v4.48 h25.06 l-13.58,17.01 v3.71 h3.5 c9.1,0 13.23,3.85 13.23,9.73 c0,6.09 -4.48,9.870000000000001 -12.6,9.870000000000001 c-6.37,0 -12.04,-2.38 -15.19,-5.67 l-2.45,3.99 c3.7800000000000002,3.85 10.57,6.3 17.64,6.3 c11.83,0 17.78,-6.3 17.78,-14.49 c0,-7.84 -5.25,-13.37 -15.75,-13.93 zm26.632,28.35 c2.03,0 3.7800000000000002,-1.6800000000000006 3.7800000000000002,-3.85 s-1.75,-3.7800000000000002 -3.7800000000000002,-3.7800000000000002 s-3.71,1.61 -3.71,3.7800000000000002 s1.6800000000000006,3.85 3.71,3.85 zm-50.782,-993.83 l16.66,-16.38 c6.58,-6.44 8.05,-10.64 8.05,-15.33 c0,-8.19 -6.3,-13.23 -16.24,-13.23 c-7.49,0 -13.58,2.52 -17.36,7 l3.5700000000000003,3.08 c3.22,-3.71 7.63,-5.46 13.37,-5.46 c7.49,0 11.48,3.5 11.48,9.17 c0,3.36 -1.05,6.65 -6.58,12.11 l-20.37,19.95 v3.5700000000000003 h34.37 v-4.48 h-26.95 zm37.739,4.83 c2.03,0 3.7800000000000002,-1.6800000000000006 3.7800000000000002,-3.85 s-1.75,-3.7800000000000002 -3.7800000000000002,-3.7800000000000002 s-3.71,1.61 -3.71,3.7800000000000002 s1.6800000000000006,3.85 3.71,3.85 zm-6.599,2081.29 h-9.8 v-11.34 h-4.9 v11.34 h-21.28 l25.06,-31.64 h-5.6 l-25.97,32.48 v3.64 h27.65 V2251.7802889347076 h5.04 v-12.88 h9.8 v-4.48 zm9.776,17.71 c2.03,0 3.7800000000000002,-1.6800000000000006 3.7800000000000002,-3.85 s-1.75,-3.7800000000000002 -3.7800000000000002,-3.7800000000000002 s-3.71,1.61 -3.71,3.7800000000000002 s1.6800000000000006,3.85 3.71,3.85 z" id="svg_21" class="selected"/><path stroke="#4B4AA1" stroke-miterlimit="10" stroke-width="7" d="M465.086870057106,-677.2197110652924 L341.129870057106,-676.1227110652924 " id="svg_22" class="selected"/></g></svg>