<svg width="351" height="1098" viewBox="0 0 351 1098" fill="none" xmlns="http://www.w3.org/2000/svg">
<path d="M228.6 247.292C162.105 247.292 108.2 193.387 108.2 126.892C108.2 60.3967 162.105 6.49207 228.6 6.49207C295.095 6.49207 349 60.3967 349 126.892C349 193.387 295.095 247.292 228.6 247.292Z" fill="#4B4AA1" stroke="#4B4AA1" stroke-width="4" stroke-miterlimit="10"/>
<rect width="180.6" height="253.784" transform="matrix(-1 0 0 1 228.6 0.00012207)" fill="white"/>
<path d="M228.733 214.69C180.976 214.69 142.261 175.975 142.261 128.218C142.261 80.4608 180.976 41.7461 228.733 41.7461C276.49 41.7461 315.205 80.4608 315.205 128.218C315.205 175.975 276.49 214.69 228.733 214.69Z" fill="#4B4AA1" stroke="#4B4AA1" stroke-width="4" stroke-miterlimit="10"/>
<path d="M228.404 205.412C185.953 205.412 151.54 170.999 151.54 128.548C151.54 86.0974 185.953 51.6843 228.404 51.6843C270.854 51.6843 305.268 86.0974 305.268 128.548C305.268 170.999 270.854 205.412 228.404 205.412Z" fill="white"/>
<path d="M19.0337 155.045C28.4412 155.045 36.0674 147.424 36.0674 138.023C36.0674 128.621 28.4412 121 19.0337 121C9.62626 121 2 128.621 2 138.023C2 147.424 9.62626 155.045 19.0337 155.045Z" fill="#4B4AA1" stroke="#4B4AA1" stroke-width="4" stroke-miterlimit="10"/>
<path d="M228.034 1095.05C237.441 1095.05 245.067 1087.42 245.067 1078.02C245.067 1068.62 237.441 1061 228.034 1061C218.626 1061 211 1068.62 211 1078.02C211 1087.42 218.626 1095.05 228.034 1095.05Z" fill="#4B4AA1" stroke="#4B4AA1" stroke-width="4" stroke-miterlimit="10"/>
<path d="M230 215L230 1078" stroke="#4B4AA1" stroke-width="7" stroke-miterlimit="10"/>
<path d="M19 137L142.957 138.097" stroke="#4B4AA1" stroke-width="7" stroke-miterlimit="10"/>
<path d="M246.29 144.64H236.49V133.3H231.59V144.64H210.31L235.37 113H229.77L203.8 145.48V149.12H231.45V162H236.49V149.12H246.29V144.64ZM256.066 162.35C258.096 162.35 259.846 160.67 259.846 158.5C259.846 156.33 258.096 154.72 256.066 154.72C254.036 154.72 252.356 156.33 252.356 158.5C252.356 160.67 254.036 162.35 256.066 162.35Z" fill="#4B4AA1"/>
</svg>
