<svg viewBox="0 0 438 973" fill="none" xmlns="http://www.w3.org/2000/svg">
<path d="M418.034 403.05C427.441 403.05 435.067 395.42 435.067 386.02C435.067 376.62 427.441 369 418.034 369C408.626 369 401 376.62 401 386.02C401 395.42 408.626 403.05 418.034 403.05Z" fill="#4B4AA1" stroke="#4B4AA1" stroke-width="4" stroke-miterlimit="10"/>
<path d="M294 386L417.957 387.1" stroke="#4B4AA1" stroke-width="7" stroke-miterlimit="10"/>
<path d="M212 473V973" stroke="#4B4AA1" stroke-width="7" stroke-miterlimit="10"/>
<path d="M212 0V300" stroke="#4B4AA1" stroke-width="7" stroke-miterlimit="10"/>
<mask id="mask0" mask-type="alpha" maskUnits="userSpaceOnUse" x="0" y="267" width="213" height="240">
<path d="M213 267H0V507H213V267Z" fill="white"/>
</mask>
<g mask="url(#mask0)">
<path d="M216 501C279.508 501 331 449.513 331 386C331 322.487 279.508 271 216 271C152.487 271 101 322.487 101 386C101 449.513 152.487 501 216 501Z" fill="#4B4AA1" stroke="#4B4AA1" stroke-width="4" stroke-miterlimit="10"/>
</g>
<path d="M217.267 473.225C265.02 473.225 303.74 434.51 303.74 386.753C303.74 338.996 265.02 300.281 217.267 300.281C169.51 300.281 130.795 338.996 130.795 386.753C130.795 434.51 169.51 473.225 217.267 473.225Z" fill="#4B4AA1" stroke="#4B4AA1" stroke-width="4" stroke-miterlimit="10"/>
<path d="M217.596 463.947C260.05 463.947 294.46 429.533 294.46 387.083C294.46 344.632 260.05 310.219 217.596 310.219C175.146 310.219 140.732 344.632 140.732 387.083C140.732 429.533 175.146 463.947 217.596 463.947Z" fill="white"/>
<path d="M212.67 383L226.53 365.57V362H195.03V366.48H220.09L206.51 383.49V387.2H210.01C219.11 387.2 223.24 391.05 223.24 396.93C223.24 403.02 218.76 406.8 210.64 406.8C204.27 406.8 198.6 404.42 195.45 401.13L193 405.12C196.78 408.97 203.57 411.42 210.64 411.42C222.47 411.42 228.42 405.12 228.42 396.93C228.42 389.09 223.17 383.56 212.67 383ZM239.3 411.35C241.33 411.35 243.08 409.67 243.08 407.5C243.08 405.33 241.33 403.72 239.3 403.72C237.27 403.72 235.59 405.33 235.59 407.5C235.59 409.67 237.27 411.35 239.3 411.35Z" fill="#4B4AA1"/>
</svg>
