<svg width="1920" height="2575" viewBox="0 0 1920 2575" fill="none" xmlns="http://www.w3.org/2000/svg">
<path d="M2189.47 1405.51H-275.843V4160.13H2189.47V1405.51Z" fill="url(#paint0_linear)"/>
<g opacity="0.299">
<g opacity="0.299">
<g opacity="0.299">
<g opacity="0.299">
<g opacity="0.3">
<path opacity="0.3" d="M2139.11 2051.27L2139.07 2051.31L1956.51 2239.57C1956.35 2239.74 1956.17 2239.8 1955.99 2239.74C1955.81 2239.69 1955.65 2239.52 1955.52 2239.27C1955.4 2239.02 1955.31 2238.69 1955.28 2238.33C1955.26 2237.98 1955.29 2237.62 1955.37 2237.3L2042.95 1903.26C2043.01 1903.04 2043.09 1902.85 2043.19 1902.7C2043.29 1902.55 2043.41 1902.45 2043.53 1902.39C2043.65 1902.34 2043.77 1902.34 2043.9 1902.39C2044.02 1902.45 2044.13 1902.55 2044.23 1902.7L2139.2 2048.48C2139.32 2048.65 2139.4 2048.87 2139.46 2049.12C2139.52 2049.37 2139.54 2049.65 2139.53 2049.93C2139.53 2050.2 2139.48 2050.47 2139.41 2050.71C2139.33 2050.94 2139.23 2051.14 2139.11 2051.28L2139.11 2051.27ZM1958.12 2234.13L2137.11 2049.54L2043.99 1906.62L1958.12 2234.13Z" fill="white"/>
</g>
<g opacity="0.3">
<path opacity="0.3" d="M1960.44 2656.72C1960.31 2656.87 1960.17 2656.94 1960.02 2656.94C1959.87 2656.95 1959.73 2656.87 1959.6 2656.73C1959.47 2656.58 1959.36 2656.38 1959.28 2656.12C1959.21 2655.87 1959.17 2655.59 1959.16 2655.29L1955.48 2238.2C1955.48 2237.89 1955.52 2237.59 1955.6 2237.32C1955.68 2237.05 1955.79 2236.83 1955.93 2236.68C1956.07 2236.53 1956.23 2236.46 1956.38 2236.48C1956.54 2236.5 1956.69 2236.61 1956.82 2236.79L2067.2 2390.6C2067.29 2390.73 2067.37 2390.9 2067.44 2391.1C2067.5 2391.3 2067.54 2391.52 2067.55 2391.75C2067.57 2391.97 2067.56 2392.21 2067.53 2392.43C2067.5 2392.65 2067.44 2392.86 2067.37 2393.04L1960.67 2656.3C1960.61 2656.47 1960.53 2656.61 1960.44 2656.72ZM1957.21 2241.44L1960.82 2650.55L2065.48 2392.34L1957.21 2241.44Z" fill="white"/>
</g>
<g opacity="0.3">
<path opacity="0.3" d="M1960.54 2656.39C1960.4 2656.54 1960.25 2656.62 1960.09 2656.61L1670.39 2643.95C1670.21 2643.95 1670.03 2643.83 1669.89 2643.62C1669.75 2643.4 1669.64 2643.11 1669.59 2642.77C1669.54 2642.43 1669.54 2642.06 1669.6 2641.73C1669.66 2641.39 1669.77 2641.1 1669.91 2640.9L1955.94 2236.68C1956.06 2236.5 1956.21 2236.39 1956.37 2236.37C1956.52 2236.34 1956.68 2236.41 1956.81 2236.55C1956.95 2236.69 1957.07 2236.9 1957.15 2237.16C1957.23 2237.42 1957.28 2237.72 1957.28 2238.03L1960.96 2654.89C1960.97 2655.12 1960.94 2655.35 1960.9 2655.56C1960.86 2655.77 1960.79 2655.96 1960.71 2656.13C1960.66 2656.23 1960.6 2656.32 1960.54 2656.39ZM1672.98 2640.69L1959.25 2653.19L1955.61 2241.27L1672.98 2640.69Z" fill="white"/>
</g>
<g opacity="0.3">
<path opacity="0.3" d="M1921.14 2845.7C1921.02 2845.83 1920.9 2845.91 1920.77 2845.92C1920.64 2845.94 1920.51 2845.9 1920.39 2845.81L1670.12 2643.87C1669.94 2643.72 1669.79 2643.45 1669.69 2643.1C1669.6 2642.75 1669.57 2642.35 1669.61 2641.97C1669.65 2641.58 1669.76 2641.23 1669.92 2640.99C1670.07 2640.74 1670.27 2640.61 1670.46 2640.62L1960.25 2653.27C1960.39 2653.27 1960.53 2653.34 1960.65 2653.48C1960.77 2653.61 1960.87 2653.8 1960.95 2654.03C1961.02 2654.26 1961.07 2654.52 1961.08 2654.79C1961.09 2655.06 1961.07 2655.34 1961.02 2655.59L1921.5 2844.88C1921.43 2845.22 1921.3 2845.51 1921.14 2845.7ZM1675.05 2644.2L1920.25 2842.04L1958.97 2656.59L1675.05 2644.2Z" fill="white"/>
</g>
<g opacity="0.3">
<path opacity="0.3" d="M1670.6 2643.34C1670.5 2643.45 1670.39 2643.53 1670.28 2643.55C1670.08 2643.6 1669.89 2643.52 1669.72 2643.31C1669.55 2643.11 1669.43 2642.79 1669.37 2642.42L1550.81 1944.71C1550.74 1944.29 1550.75 1943.84 1550.85 1943.44C1550.94 1943.04 1551.11 1942.73 1551.32 1942.58L1699.82 1831.95C1699.95 1831.85 1700.1 1831.82 1700.24 1831.86C1700.38 1831.9 1700.51 1832.01 1700.63 1832.18C1700.74 1832.35 1700.83 1832.57 1700.89 1832.83C1700.95 1833.09 1700.98 1833.37 1700.97 1833.65L1671.02 2642C1671.01 2642.27 1670.97 2642.54 1670.89 2642.78C1670.82 2643.01 1670.72 2643.2 1670.6 2643.34ZM1552.69 1945.17L1669.63 2633.42L1699.17 1836.04L1552.69 1945.17Z" fill="white"/>
</g>
<g opacity="0.3">
<path opacity="0.3" d="M1670.56 2643.34C1670.42 2643.49 1670.27 2643.57 1670.12 2643.56C1669.96 2643.56 1669.81 2643.47 1669.68 2643.31C1669.55 2643.15 1669.44 2642.92 1669.37 2642.64C1669.3 2642.37 1669.27 2642.06 1669.29 2641.76L1699.22 1833.66C1699.23 1833.36 1699.29 1833.06 1699.37 1832.81C1699.46 1832.56 1699.59 1832.36 1699.73 1832.24C1699.87 1832.11 1700.02 1832.07 1700.18 1832.11C1700.33 1832.15 1700.48 1832.27 1700.6 1832.46L1956.79 2236.16C1956.89 2236.32 1956.97 2236.53 1957.03 2236.77C1957.08 2237.01 1957.11 2237.26 1957.11 2237.53C1957.1 2237.79 1957.07 2238.04 1957.01 2238.27C1956.95 2238.5 1956.86 2238.7 1956.75 2238.85L1670.62 2643.25C1670.6 2643.28 1670.58 2643.31 1670.56 2643.34ZM1700.8 1837.09L1671.12 2638.42L1954.85 2237.41L1700.8 1837.09Z" fill="white"/>
</g>
<g opacity="0.3">
<path opacity="0.3" d="M1700.25 1834.81C1700.09 1835 1699.89 1835.07 1699.7 1835.02L1505.6 1776.51C1505.42 1776.45 1505.25 1776.28 1505.12 1776.01C1504.99 1775.75 1504.91 1775.41 1504.89 1775.04C1504.87 1774.68 1504.9 1774.31 1505 1773.99C1505.09 1773.67 1505.24 1773.42 1505.41 1773.28L1701.4 1610.84C1701.53 1610.73 1701.67 1610.69 1701.81 1610.72C1701.95 1610.75 1702.09 1610.84 1702.2 1611C1702.32 1611.16 1702.42 1611.37 1702.48 1611.62C1702.54 1611.86 1702.58 1612.14 1702.57 1612.42L1700.68 1833.37C1700.68 1833.61 1700.65 1833.85 1700.6 1834.07C1700.54 1834.29 1700.47 1834.48 1700.38 1834.64C1700.34 1834.7 1700.3 1834.76 1700.25 1834.81ZM1508.86 1774.07L1699 1831.38L1700.85 1614.95L1508.86 1774.07Z" fill="white"/>
</g>
<g opacity="0.3">
<path opacity="0.3" d="M1700.29 1834.77C1700.25 1834.82 1700.21 1834.86 1700.16 1834.89L1551.73 1945.47C1551.54 1945.62 1551.33 1945.62 1551.13 1945.47C1550.94 1945.33 1550.78 1945.05 1550.69 1944.69L1504.99 1775.59C1504.91 1775.32 1504.88 1775.01 1504.89 1774.69C1504.9 1774.38 1504.95 1774.08 1505.04 1773.82C1505.13 1773.56 1505.26 1773.36 1505.4 1773.24C1505.55 1773.11 1505.71 1773.07 1505.87 1773.12L1699.82 1831.58C1699.98 1831.55 1700.14 1831.61 1700.29 1831.76C1700.44 1831.9 1700.56 1832.13 1700.64 1832.41C1700.7 1832.6 1700.74 1832.82 1700.75 1833.04C1700.77 1833.27 1700.76 1833.5 1700.73 1833.72C1700.7 1833.93 1700.65 1834.14 1700.57 1834.31C1700.5 1834.49 1700.41 1834.63 1700.31 1834.74L1700.29 1834.77ZM1551.84 1941.79L1696.51 1834L1507.29 1776.97L1551.84 1941.79Z" fill="white"/>
</g>
<g opacity="0.3">
<path opacity="0.3" d="M1846.15 1783.15C1846.06 1783.25 1845.97 1783.32 1845.88 1783.35L1699.92 1835.32C1699.8 1835.36 1699.68 1835.35 1699.55 1835.28C1699.43 1835.22 1699.32 1835.1 1699.23 1834.94C1699.13 1834.78 1699.05 1834.58 1699 1834.35C1698.95 1834.12 1698.93 1833.88 1698.93 1833.63L1700.82 1612.6C1700.83 1612.3 1700.87 1612.01 1700.95 1611.76C1701.02 1611.51 1701.13 1611.3 1701.26 1611.15C1701.39 1611 1701.54 1610.93 1701.68 1610.93C1701.83 1610.94 1701.98 1611.02 1702.11 1611.17L1846.16 1780.23C1846.29 1780.38 1846.39 1780.6 1846.47 1780.85C1846.54 1781.11 1846.58 1781.4 1846.58 1781.7C1846.58 1781.99 1846.54 1782.28 1846.46 1782.54C1846.39 1782.79 1846.28 1783 1846.15 1783.15ZM1700.64 1831.64L1843.32 1780.83L1702.5 1615.55L1700.64 1831.64Z" fill="white"/>
</g>
<g opacity="0.3">
<path opacity="0.3" d="M2043.95 1905.21C2043.85 1905.32 2043.74 1905.4 2043.62 1905.42C2043.51 1905.45 2043.39 1905.43 2043.28 1905.36L1845.44 1783.88C1845.29 1783.79 1845.16 1783.62 1845.06 1783.39C1844.95 1783.16 1844.89 1782.88 1844.86 1782.58C1844.83 1782.28 1844.84 1781.97 1844.9 1781.69C1844.95 1781.4 1845.04 1781.15 1845.16 1780.96L2044.19 1466.89C2044.31 1466.69 2044.47 1466.57 2044.63 1466.53C2044.78 1466.49 2044.95 1466.55 2045.09 1466.69C2045.23 1466.83 2045.36 1467.04 2045.44 1467.31C2045.53 1467.58 2045.57 1467.89 2045.57 1468.21L2044.38 1903.75C2044.38 1904.02 2044.34 1904.28 2044.28 1904.51C2044.22 1904.75 2044.13 1904.95 2044.03 1905.11C2044 1905.14 2043.98 1905.18 2043.95 1905.21ZM1847.48 1781.6L2042.68 1901.46L2043.86 1471.71L1847.48 1781.6Z" fill="white"/>
</g>
<g opacity="0.3">
<path opacity="0.3" d="M1956.46 2239.51C1956.36 2239.63 1956.25 2239.7 1956.13 2239.73C1956.02 2239.76 1955.9 2239.74 1955.79 2239.67C1955.67 2239.6 1955.57 2239.49 1955.48 2239.33C1955.39 2239.18 1955.32 2239 1955.27 2238.79L1844.98 1782.96C1844.91 1782.67 1844.88 1782.34 1844.91 1782.01C1844.93 1781.68 1845 1781.38 1845.11 1781.13C1845.22 1780.88 1845.36 1780.7 1845.52 1780.61C1845.68 1780.52 1845.84 1780.52 1846 1780.62L2043.94 1902.15C2044.06 1902.23 2044.17 1902.35 2044.26 1902.52C2044.35 1902.68 2044.42 1902.89 2044.47 1903.11C2044.52 1903.34 2044.54 1903.59 2044.54 1903.84C2044.53 1904.08 2044.5 1904.32 2044.44 1904.54L1956.79 2238.82C1956.72 2239.11 1956.6 2239.35 1956.46 2239.51ZM1847.37 1785L1956.07 2234.28L2042.46 1904.79L1847.37 1785Z" fill="white"/>
</g>
<g opacity="0.3">
<path opacity="0.3" d="M1956.63 2239.24C1956.48 2239.41 1956.31 2239.49 1956.14 2239.47C1955.97 2239.44 1955.81 2239.32 1955.67 2239.11L1699.34 1835.2C1699.21 1835 1699.11 1834.73 1699.06 1834.42C1699.01 1834.11 1699 1833.78 1699.04 1833.47C1699.08 1833.15 1699.17 1832.87 1699.29 1832.64C1699.41 1832.42 1699.56 1832.27 1699.72 1832.21L1845.74 1780.23C1845.92 1780.17 1846.11 1780.22 1846.28 1780.39C1846.44 1780.56 1846.58 1780.83 1846.66 1781.16L1956.98 2237.06C1957.06 2237.4 1957.08 2237.79 1957.04 2238.17C1956.99 2238.54 1956.89 2238.87 1956.74 2239.11C1956.7 2239.16 1956.67 2239.2 1956.63 2239.24ZM1701.87 1834.88L1953.83 2231.89L1845.4 1783.79L1701.87 1834.88Z" fill="white"/>
</g>
</g>
<g opacity="0.8">
<g opacity="0.8">
<path opacity="0.8" d="M1690.83 2423.02C1691 2422.82 1691.2 2422.71 1691.4 2422.72C1691.6 2422.72 1691.8 2422.83 1691.97 2423.03C1692.14 2423.24 1692.28 2423.53 1692.37 2423.88C1692.47 2424.23 1692.51 2424.62 1692.5 2425.02L1686.56 2731.41C1686.55 2731.97 1686.43 2732.51 1686.23 2732.91C1686.02 2733.31 1685.75 2733.54 1685.46 2733.55L1624.7 2735.8C1624.51 2735.81 1624.33 2735.72 1624.16 2735.55C1624 2735.38 1623.86 2735.13 1623.75 2734.82C1623.65 2734.52 1623.59 2734.16 1623.57 2733.79C1623.55 2733.43 1623.58 2733.05 1623.66 2732.71L1690.36 2424.05C1690.46 2423.62 1690.62 2423.26 1690.83 2423.02ZM1684.36 2729.15L1690.04 2436.8L1626.38 2731.32L1684.36 2729.15Z" fill="white"/>
</g>
<g opacity="0.8">
<path opacity="0.8" d="M1553.51 2286.32C1553.67 2286.14 1553.85 2286.03 1554.04 2286.02C1554.22 2286.01 1554.41 2286.09 1554.57 2286.26L1691.84 2422.79C1692.1 2423.05 1692.29 2423.48 1692.39 2424.02C1692.49 2424.55 1692.48 2425.13 1692.37 2425.65L1625.64 2734.42C1625.55 2734.84 1625.4 2735.19 1625.2 2735.43C1625.01 2735.67 1624.78 2735.79 1624.55 2735.76C1624.33 2735.74 1624.11 2735.58 1623.93 2735.31C1623.75 2735.03 1623.61 2734.65 1623.54 2734.22L1553 2288.92C1552.94 2288.5 1552.94 2288.06 1553 2287.64C1553.06 2287.22 1553.18 2286.84 1553.35 2286.56C1553.4 2286.47 1553.45 2286.39 1553.51 2286.32ZM1689.9 2425.83L1555.93 2292.57L1624.78 2727.17L1689.9 2425.83Z" fill="white"/>
</g>
<g opacity="0.8">
<path opacity="0.8" d="M1553.69 2286.14C1553.84 2285.97 1554 2285.87 1554.17 2285.84C1554.33 2285.82 1554.5 2285.87 1554.66 2285.99C1554.81 2286.11 1554.95 2286.29 1555.07 2286.54C1555.18 2286.78 1555.27 2287.07 1555.32 2287.39L1625.81 2732.39C1625.89 2732.88 1625.88 2733.42 1625.78 2733.9C1625.68 2734.38 1625.5 2734.78 1625.27 2735.01L1330.56 3047.61C1330.34 3047.84 1330.1 3047.92 1329.86 3047.85C1329.62 3047.77 1329.39 3047.54 1329.23 3047.19C1329.06 3046.84 1328.95 3046.4 1328.92 3045.92C1328.9 3045.44 1328.95 3044.95 1329.07 3044.53L1553.29 2286.94C1553.38 2286.61 1553.52 2286.33 1553.69 2286.14ZM1623.4 2731.97L1553.94 2293.48L1333.01 3039.99L1623.4 2731.97Z" fill="white"/>
</g>
<g opacity="0.8">
<path opacity="0.8" d="M1553.7 2286.14C1553.91 2285.89 1554.16 2285.79 1554.41 2285.86C1554.65 2285.92 1554.88 2286.14 1555.05 2286.49C1555.22 2286.84 1555.34 2287.29 1555.37 2287.78C1555.4 2288.26 1555.35 2288.76 1555.22 2289.18L1331.06 3046.54C1330.95 3046.93 1330.77 3047.24 1330.57 3047.43C1330.36 3047.62 1330.13 3047.68 1329.91 3047.6L1094.3 2966.71C1094.08 2966.63 1093.88 2966.44 1093.73 2966.14C1093.57 2965.84 1093.45 2965.46 1093.4 2965.04C1093.35 2964.61 1093.37 2964.17 1093.44 2963.76C1093.52 2963.36 1093.65 2963 1093.83 2962.74L1553.6 2286.28C1553.63 2286.23 1553.66 2286.18 1553.7 2286.14ZM1329.52 3042.98L1550.51 2296.32L1097.24 2963.22L1329.52 3042.98Z" fill="white"/>
</g>
<g opacity="0.8">
<path opacity="0.8" d="M936.854 2414.88C936.99 2414.72 937.142 2414.63 937.299 2414.6L1553.96 2285.23C1554.21 2285.18 1554.45 2285.29 1554.66 2285.54C1554.87 2285.79 1555.03 2286.17 1555.12 2286.63C1555.21 2287.08 1555.22 2287.58 1555.15 2288.04C1555.08 2288.51 1554.94 2288.92 1554.74 2289.21L1094.89 2965.86C1094.76 2966.05 1094.62 2966.18 1094.46 2966.24C1094.31 2966.31 1094.15 2966.31 1093.99 2966.25C1093.84 2966.18 1093.69 2966.06 1093.56 2965.87C1093.44 2965.69 1093.33 2965.45 1093.25 2965.18L936.442 2417.9C936.297 2417.39 936.259 2416.79 936.336 2416.22C936.413 2415.66 936.6 2415.17 936.855 2414.88L936.854 2414.88ZM1550.12 2290.49L939.229 2418.65L1094.57 2960.8L1550.12 2290.49Z" fill="white"/>
</g>
<g opacity="0.8">
<path opacity="0.8" d="M1553.45 2286.31C1553.53 2286.22 1553.61 2286.16 1553.69 2286.11L1587.66 2266.14C1587.83 2266.04 1588 2266.02 1588.18 2266.08C1588.35 2266.14 1588.51 2266.29 1588.65 2266.5L1691.95 2423C1692.17 2423.33 1692.32 2423.82 1692.37 2424.36C1692.41 2424.91 1692.36 2425.47 1692.21 2425.94C1692.06 2426.4 1691.83 2426.75 1691.57 2426.9C1691.3 2427.05 1691.01 2427 1690.76 2426.75L1553.5 2290.22C1553.32 2290.04 1553.17 2289.77 1553.06 2289.43C1552.95 2289.09 1552.89 2288.7 1552.89 2288.3C1552.88 2287.9 1552.93 2287.5 1553.03 2287.16C1553.13 2286.81 1553.27 2286.51 1553.45 2286.31L1553.45 2286.31ZM1587.75 2270.7L1557.05 2288.76L1681.13 2412.18L1587.75 2270.7Z" fill="white"/>
</g>
<g opacity="0.8">
<path opacity="0.8" d="M887.227 2368.75C887.383 2368.57 887.557 2368.47 887.736 2368.45C887.915 2368.44 888.093 2368.5 888.256 2368.65L937.881 2413.93C938.094 2414.13 938.27 2414.45 938.385 2414.85C938.5 2415.26 938.548 2415.73 938.522 2416.19C938.496 2416.65 938.397 2417.09 938.24 2417.43C938.083 2417.78 937.875 2418.02 937.646 2418.12L904.311 2432.53C904.075 2432.62 903.829 2432.57 903.61 2432.37C903.391 2432.17 903.211 2431.83 903.097 2431.41L886.802 2371.73C886.691 2371.32 886.648 2370.85 886.679 2370.39C886.709 2369.92 886.812 2369.49 886.972 2369.15C887.047 2368.99 887.133 2368.86 887.227 2368.75ZM933.906 2415.2L890.371 2375.47L904.662 2427.84L933.906 2415.2Z" fill="white"/>
</g>
<g opacity="0.8">
<path opacity="0.8" d="M903.566 2428.5C903.667 2428.38 903.777 2428.3 903.892 2428.25L937.254 2413.84C937.519 2413.73 937.795 2413.81 938.032 2414.07C938.268 2414.33 938.449 2414.75 938.54 2415.25L1023.73 2884.72C1023.83 2885.25 1023.82 2885.83 1023.71 2886.35C1023.6 2886.87 1023.39 2887.28 1023.13 2887.51C1022.87 2887.74 1022.58 2887.76 1022.31 2887.57C1022.04 2887.38 1021.82 2887 1021.69 2886.49L903.13 2431.44C903.05 2431.13 903.007 2430.8 903.004 2430.46C903 2430.12 903.037 2429.78 903.11 2429.47C903.209 2429.06 903.368 2428.73 903.566 2428.5ZM936.766 2418.59L905.79 2431.98L1015.86 2854.47L936.766 2418.59Z" fill="white"/>
</g>
<g opacity="0.8">
<path opacity="0.8" d="M936.935 2414.09C936.965 2414.06 936.993 2414.03 937.023 2413.99C937.277 2413.76 937.566 2413.72 937.833 2413.89C938.1 2414.06 938.324 2414.42 938.463 2414.9L1095.53 2962.86C1095.65 2963.28 1095.7 2963.76 1095.67 2964.24C1095.63 2964.72 1095.52 2965.17 1095.35 2965.51C1095.18 2965.86 1094.96 2966.08 1094.72 2966.16C1094.48 2966.23 1094.23 2966.14 1094.02 2965.91L1022.16 2887.44C1021.92 2887.18 1021.74 2886.76 1021.64 2886.26L936.442 2416.77C936.353 2416.28 936.353 2415.75 936.443 2415.26C936.534 2414.77 936.708 2414.36 936.935 2414.09ZM1091.62 2958.23L942.956 2439.59L1023.6 2883.96L1091.62 2958.23Z" fill="white"/>
</g>
</g>
<g opacity="0.299">
<g opacity="0.3">
<path opacity="0.3" d="M700.127 1643.8C700.264 1643.65 700.416 1643.55 700.573 1643.52C700.73 1643.48 700.888 1643.52 701.038 1643.62L794.715 1705.34C794.912 1705.46 795.087 1705.7 795.22 1706.01C795.354 1706.33 795.44 1706.71 795.468 1707.12C795.498 1707.52 795.471 1707.94 795.39 1708.31C795.309 1708.69 795.177 1709.01 795.009 1709.25L729.933 1800.92C729.791 1801.11 729.63 1801.24 729.461 1801.29C729.292 1801.35 729.119 1801.32 728.955 1801.23C728.791 1801.13 728.642 1800.96 728.517 1800.72C728.393 1800.49 728.298 1800.2 728.238 1799.89L699.636 1646.5C699.564 1646.11 699.548 1645.68 699.592 1645.27C699.635 1644.86 699.736 1644.49 699.883 1644.19C699.955 1644.04 700.037 1643.91 700.127 1643.8ZM791.916 1708.17L702.541 1649.28L729.829 1795.62L791.916 1708.17Z" fill="white"/>
</g>
<g opacity="0.3">
<path opacity="0.3" d="M700.115 1643.88C700.246 1643.73 700.391 1643.63 700.541 1643.6L862.661 1605.23C862.907 1605.17 863.156 1605.27 863.368 1605.52C863.58 1605.77 863.744 1606.15 863.835 1606.61C863.925 1607.07 863.936 1607.57 863.867 1608.04C863.799 1608.51 863.654 1608.92 863.455 1609.21L794.974 1709.27C794.83 1709.48 794.663 1709.62 794.486 1709.68C794.309 1709.74 794.128 1709.71 793.958 1709.6L700.321 1647.9C700.079 1647.75 699.872 1647.43 699.734 1647.01C699.596 1646.58 699.535 1646.08 699.56 1645.58C699.579 1645.23 699.639 1644.89 699.735 1644.6C699.832 1644.3 699.962 1644.05 700.115 1643.88ZM858.723 1610.62L705.777 1646.82L794.118 1705.02L858.723 1610.62Z" fill="white"/>
</g>
<g opacity="0.3">
<path opacity="0.3" d="M862.253 1605.79C862.403 1605.62 862.571 1605.52 862.744 1605.5L998.695 1588.58C998.97 1588.54 999.241 1588.71 999.457 1589.04C999.673 1589.38 999.819 1589.87 999.865 1590.4C999.913 1590.94 999.857 1591.5 999.71 1591.96C999.563 1592.43 999.335 1592.77 999.069 1592.92L794.649 1709.86C794.397 1710.01 794.129 1709.97 793.889 1709.76C793.65 1709.55 793.456 1709.18 793.34 1708.72C793.226 1708.25 793.197 1707.72 793.26 1707.21C793.323 1706.71 793.472 1706.26 793.683 1705.95L862.149 1605.93C862.182 1605.88 862.217 1605.83 862.253 1605.79ZM988.651 1594.27L863.205 1609.88L800.031 1702.18L988.651 1594.27Z" fill="white"/>
</g>
<g opacity="0.3">
<path opacity="0.3" d="M793.798 1706.13C793.877 1706.04 793.961 1705.97 794.048 1705.92L998.616 1588.85C998.822 1588.74 999.04 1588.74 999.245 1588.86C999.45 1588.98 999.633 1589.21 999.773 1589.53L1158.4 1956.21C1158.56 1956.58 1158.65 1957.05 1158.67 1957.54C1158.68 1958.02 1158.61 1958.51 1158.48 1958.91C1158.34 1959.31 1158.13 1959.61 1157.9 1959.77C1157.67 1959.92 1157.42 1959.92 1157.18 1959.76L793.994 1710.16C793.769 1710.01 793.575 1709.72 793.44 1709.33C793.305 1708.95 793.237 1708.48 793.244 1708.01C793.247 1707.63 793.3 1707.26 793.397 1706.93C793.494 1706.6 793.632 1706.33 793.798 1706.13ZM998.542 1593.5L798.055 1708.24L1154 1952.86L998.542 1593.5Z" fill="white"/>
</g>
<g opacity="0.3">
<path opacity="0.3" d="M1071.05 1495.71C1071.19 1495.56 1071.34 1495.46 1071.5 1495.43C1071.65 1495.4 1071.81 1495.43 1071.96 1495.53C1072.12 1495.63 1072.27 1495.81 1072.39 1496.04C1072.51 1496.27 1072.6 1496.56 1072.66 1496.87L1158.54 1957.26C1158.63 1957.74 1158.63 1958.28 1158.54 1958.77C1158.45 1959.26 1158.28 1959.68 1158.05 1959.94C1157.82 1960.18 1157.56 1960.26 1157.31 1960.18C1157.05 1960.1 1156.82 1959.85 1156.64 1959.48L997.908 1592.62C997.803 1592.38 997.726 1592.1 997.682 1591.8C997.638 1591.49 997.628 1591.17 997.652 1590.86C997.674 1590.54 997.729 1590.24 997.816 1589.97C997.902 1589.71 998.016 1589.48 998.151 1589.31L1071 1495.76C1071.02 1495.75 1071.03 1495.73 1071.05 1495.71ZM1154.27 1947.18L1071.05 1501.02L1000.45 1591.67L1154.27 1947.18Z" fill="white"/>
</g>
<g opacity="0.3">
<path opacity="0.3" d="M500.021 1767.21C500.093 1767.13 500.17 1767.06 500.25 1767.02L700.432 1643.38C700.706 1643.21 701.002 1643.26 701.259 1643.51C701.516 1643.76 701.714 1644.2 701.811 1644.74L730.4 1798.06C730.465 1798.4 730.485 1798.78 730.458 1799.14C730.431 1799.51 730.358 1799.85 730.246 1800.15C730.134 1800.45 729.986 1800.68 729.817 1800.84C729.648 1800.99 729.462 1801.06 729.276 1801.04L500.718 1771.37C500.493 1771.45 500.26 1771.39 500.054 1771.19C499.847 1771 499.675 1770.69 499.561 1770.29C499.487 1770.04 499.44 1769.76 499.421 1769.48C499.402 1769.19 499.412 1768.89 499.45 1768.61C499.488 1768.33 499.554 1768.07 499.643 1767.83C499.733 1767.6 499.844 1767.41 499.972 1767.26C499.989 1767.25 500.005 1767.23 500.021 1767.21ZM700.077 1648.24L506.658 1767.7L727.704 1796.39L700.077 1648.24Z" fill="white"/>
</g>
<g opacity="0.3">
<path opacity="0.3" d="M500.091 1767.16C500.282 1766.94 500.502 1766.84 500.721 1766.87L729.475 1796.57C729.703 1796.6 729.92 1796.77 730.098 1797.05C730.276 1797.33 730.407 1797.71 730.473 1798.15C730.537 1798.58 730.532 1799.04 730.46 1799.47C730.388 1799.9 730.251 1800.28 730.068 1800.55L474.589 2181.19C474.413 2181.46 474.203 2181.61 473.983 2181.64C473.764 2181.66 473.546 2181.56 473.356 2181.34C473.166 2181.12 473.013 2180.79 472.916 2180.4C472.82 2180.01 472.783 2179.57 472.813 2179.14L499.541 1768.81C499.563 1768.47 499.624 1768.15 499.719 1767.86C499.814 1767.58 499.942 1767.34 500.091 1767.16ZM726.32 1800.6L501.62 1771.43L475.369 2174.49L726.32 1800.6Z" fill="white"/>
</g>
<g opacity="0.3">
<path opacity="0.3" d="M729.085 1797.43C729.291 1797.19 729.529 1797.09 729.765 1797.14C730.001 1797.2 730.222 1797.39 730.398 1797.71L1063.69 2405.15C1063.86 2405.48 1063.98 2405.92 1064.03 2406.39C1064.07 2406.87 1064.04 2407.36 1063.93 2407.79C1063.82 2408.22 1063.64 2408.57 1063.42 2408.78C1063.2 2408.99 1062.95 2409.06 1062.71 2408.97L473.847 2182.33C473.635 2182.24 473.44 2182.04 473.285 2181.74C473.13 2181.45 473.022 2181.07 472.973 2180.65C472.926 2180.23 472.94 2179.8 473.015 2179.39C473.089 2178.99 473.221 2178.64 473.393 2178.38L728.967 1797.58C729.004 1797.52 729.044 1797.47 729.085 1797.43ZM1059.26 2403.11L729.565 1802.23L476.749 2178.92L1059.26 2403.11Z" fill="white"/>
</g>
<g opacity="0.3">
<path opacity="0.3" d="M793.924 1705.79C794.16 1705.52 794.437 1705.43 794.703 1705.53C794.97 1705.64 795.207 1705.93 795.371 1706.36L1063.81 2405.93C1063.98 2406.37 1064.06 2406.92 1064.04 2407.47C1064.01 2408.03 1063.88 2408.54 1063.68 2408.91C1063.47 2409.29 1063.2 2409.5 1062.92 2409.5C1062.64 2409.5 1062.37 2409.29 1062.17 2408.91L728.602 1801.06C728.478 1800.83 728.382 1800.56 728.319 1800.26C728.256 1799.95 728.228 1799.62 728.238 1799.29C728.249 1798.96 728.297 1798.64 728.379 1798.35C728.461 1798.06 728.574 1797.81 728.71 1797.62L793.835 1705.9C793.864 1705.86 793.894 1705.82 793.924 1705.79ZM1054.4 2388.71L794.25 1710.76L731.135 1799.64L1054.4 2388.71Z" fill="white"/>
</g>
<g opacity="0.3">
<path opacity="0.3" d="M793.794 1706.2C793.933 1706.04 794.087 1705.94 794.247 1705.91C794.407 1705.88 794.568 1705.91 794.72 1706.02L1158.02 1955.68C1158.16 1955.78 1158.29 1955.94 1158.4 1956.14C1158.52 1956.34 1158.61 1956.59 1158.67 1956.87C1158.73 1957.14 1158.76 1957.44 1158.76 1957.74C1158.76 1958.04 1158.74 1958.34 1158.68 1958.62L1063.71 2408.33C1063.64 2408.69 1063.51 2409.01 1063.36 2409.24C1063.2 2409.48 1063.02 2409.63 1062.82 2409.68C1062.63 2409.73 1062.43 2409.68 1062.25 2409.53C1062.07 2409.38 1061.91 2409.14 1061.79 2408.83L793.676 1710.01C793.539 1709.82 793.426 1709.58 793.344 1709.29C793.268 1709.04 793.22 1708.75 793.201 1708.46C793.182 1708.16 793.193 1707.87 793.233 1707.58C793.274 1707.3 793.343 1707.03 793.436 1706.8C793.53 1706.57 793.645 1706.37 793.777 1706.23L793.794 1706.2ZM1156.16 1959.11L797.486 1712.62L1062.4 2403.09L1156.16 1959.11Z" fill="white"/>
</g>
<g opacity="0.3">
<path opacity="0.3" d="M1062.37 2406.05C1062.38 2406.03 1062.39 2406.01 1062.41 2405.99L1302.27 2158.64C1302.48 2158.43 1302.72 2158.35 1302.95 2158.42C1303.18 2158.49 1303.4 2158.71 1303.57 2159.04C1303.73 2159.37 1303.84 2159.8 1303.88 2160.27C1303.92 2160.73 1303.88 2161.21 1303.77 2161.63L1188.7 2600.51C1188.62 2600.8 1188.51 2601.05 1188.38 2601.25C1188.25 2601.45 1188.11 2601.59 1187.95 2601.67C1187.79 2601.74 1187.62 2601.74 1187.46 2601.67C1187.3 2601.6 1187.15 2601.46 1187.02 2601.26L1062.24 2409.73C1062.1 2409.51 1061.98 2409.22 1061.91 2408.89C1061.83 2408.56 1061.8 2408.2 1061.81 2407.84C1061.82 2407.48 1061.88 2407.12 1061.97 2406.82C1062.07 2406.51 1062.2 2406.25 1062.36 2406.06L1062.37 2406.05ZM1300.16 2165.82L1064.99 2408.34L1187.33 2596.12L1300.16 2165.82Z" fill="white"/>
</g>
<g opacity="0.3">
<path opacity="0.3" d="M1157.11 1956.33C1157.19 1956.23 1157.27 1956.16 1157.36 1956.12C1157.52 1956.02 1157.69 1956 1157.86 1956.06C1158.02 1956.11 1158.18 1956.24 1158.32 1956.42L1303.28 2158.45C1303.44 2158.66 1303.56 2158.96 1303.64 2159.3C1303.73 2159.65 1303.76 2160.03 1303.75 2160.41C1303.75 2160.79 1303.69 2161.17 1303.58 2161.49C1303.47 2161.81 1303.32 2162.07 1303.15 2162.23L1063.28 2409.59C1063.07 2409.8 1062.84 2409.88 1062.62 2409.82C1062.39 2409.76 1062.18 2409.56 1062.01 2409.25C1061.84 2408.95 1061.72 2408.54 1061.67 2408.1C1061.62 2407.65 1061.65 2407.19 1061.74 2406.77L1156.64 1957.39C1156.74 1956.94 1156.9 1956.57 1157.11 1956.33ZM1300.49 2159.99L1158.16 1961.66L1064.99 2402.84L1300.49 2159.99Z" fill="white"/>
</g>
<g opacity="0.3">
<path opacity="0.3" d="M473.49 2178.49L473.538 2178.44C473.771 2178.17 474.046 2178.08 474.31 2178.18L1063.37 2404.89C1063.59 2404.98 1063.8 2405.2 1063.96 2405.52C1064.12 2405.84 1064.22 2406.26 1064.26 2406.7L1117.35 3042.54C1117.38 3042.97 1117.35 3043.41 1117.26 3043.81C1117.18 3044.2 1117.03 3044.54 1116.84 3044.78C1116.66 3045.01 1116.45 3045.14 1116.23 3045.13C1116.01 3045.13 1115.79 3044.99 1115.62 3044.75L473.726 2182.53C473.454 2182.37 473.224 2182.01 473.084 2181.52C472.936 2181.01 472.896 2180.41 472.972 2179.84C473.049 2179.28 473.235 2178.79 473.49 2178.49ZM1062.18 2408.97L479.259 2184.62L1114.72 3038.17L1062.18 2408.97Z" fill="white"/>
</g>
<g opacity="0.3">
<path opacity="0.3" d="M1062.51 2405.81C1062.7 2405.59 1062.92 2405.48 1063.14 2405.51C1063.36 2405.54 1063.58 2405.7 1063.75 2405.97L1188.63 2597.64C1188.81 2597.92 1188.94 2598.3 1189.01 2598.74C1189.08 2599.17 1189.07 2599.64 1189 2600.07L1117.23 3044.29C1117.15 3044.76 1117 3045.17 1116.79 3045.45C1116.58 3045.73 1116.33 3045.87 1116.08 3045.83C1115.83 3045.8 1115.59 3045.59 1115.41 3045.26C1115.22 3044.92 1115.1 3044.47 1115.06 3043.98L1061.96 2408.1C1061.93 2407.66 1061.96 2407.21 1062.05 2406.8C1062.15 2406.4 1062.3 2406.06 1062.49 2405.83L1062.51 2405.81ZM1186.64 2600.21L1064.63 2412.95L1116.51 3034.2L1186.64 2600.21Z" fill="white"/>
</g>
<g opacity="0.3">
<path opacity="0.3" d="M700.114 1643.88C700.13 1643.86 700.147 1643.84 700.164 1643.82L877.437 1464.72C877.625 1464.52 877.836 1464.44 878.046 1464.48C878.256 1464.52 878.456 1464.68 878.623 1464.93C878.791 1465.19 878.919 1465.53 878.992 1465.92C879.065 1466.32 879.08 1466.74 879.036 1467.15L863.853 1607.9C863.805 1608.36 863.686 1608.77 863.513 1609.08C863.341 1609.39 863.123 1609.59 862.891 1609.65L700.799 1648C700.538 1648.06 700.275 1647.94 700.056 1647.65C699.837 1647.36 699.676 1646.93 699.602 1646.43C699.531 1645.96 699.542 1645.44 699.635 1644.98C699.728 1644.52 699.897 1644.13 700.114 1643.88ZM876.362 1470.78L706.767 1642.13L861.839 1605.43L876.362 1470.78Z" fill="white"/>
</g>
<g opacity="0.3">
<path opacity="0.3" d="M877.367 1464.95C877.392 1464.91 877.419 1464.88 877.447 1464.86C877.603 1464.71 877.773 1464.64 877.945 1464.65C878.117 1464.65 878.286 1464.74 878.439 1464.89L999.276 1588.79C999.493 1589.02 999.667 1589.37 999.771 1589.81C999.876 1590.25 999.905 1590.74 999.855 1591.22C999.805 1591.7 999.678 1592.13 999.493 1592.45C999.307 1592.76 999.075 1592.95 998.83 1592.98L862.802 1609.93C862.63 1609.96 862.458 1609.9 862.299 1609.77C862.139 1609.63 861.998 1609.43 861.885 1609.17C861.773 1608.91 861.692 1608.61 861.65 1608.27C861.607 1607.94 861.603 1607.6 861.639 1607.26L876.833 1466.41C876.866 1466.11 876.93 1465.82 877.022 1465.57C877.114 1465.32 877.231 1465.1 877.367 1464.95ZM994.657 1589.06L878.709 1470.17L864.133 1605.32L994.657 1589.06Z" fill="white"/>
</g>
<g opacity="0.3">
<path opacity="0.3" d="M877.324 1465.07C877.52 1464.84 877.747 1464.74 877.973 1464.78L1071.58 1495.18C1071.81 1495.22 1072.03 1495.4 1072.21 1495.7C1072.38 1496 1072.51 1496.4 1072.57 1496.85C1072.62 1497.3 1072.61 1497.77 1072.52 1498.2C1072.44 1498.63 1072.29 1499 1072.09 1499.25L999.305 1592.73C999.138 1592.93 998.948 1593.05 998.752 1593.07C998.556 1593.09 998.362 1593.01 998.186 1592.83L877.369 1468.96C877.139 1468.72 876.958 1468.34 876.856 1467.87C876.754 1467.4 876.737 1466.87 876.808 1466.38C876.888 1465.83 877.073 1465.36 877.324 1465.07ZM1068.11 1499.08L883.322 1470.07L998.638 1588.31L1068.11 1499.08Z" fill="white"/>
</g>
<g opacity="0.3">
<path opacity="0.3" d="M1070.96 1496.03C1071.21 1495.74 1071.51 1495.66 1071.8 1495.81L1297.81 1610.09C1297.99 1610.18 1298.16 1610.36 1298.29 1610.61C1298.43 1610.87 1298.53 1611.19 1298.59 1611.54C1298.65 1611.89 1298.66 1612.27 1298.63 1612.63C1298.6 1613 1298.52 1613.34 1298.4 1613.63L1158.21 1959.52C1158.09 1959.82 1157.93 1960.06 1157.74 1960.2C1157.56 1960.34 1157.36 1960.38 1157.16 1960.32C1156.97 1960.26 1156.79 1960.09 1156.63 1959.84C1156.48 1959.59 1156.36 1959.27 1156.3 1958.9L1070.48 1498.72C1070.4 1498.34 1070.39 1497.93 1070.43 1497.53C1070.47 1497.13 1070.56 1496.76 1070.7 1496.46C1070.77 1496.29 1070.86 1496.15 1070.96 1496.03ZM1295.56 1613.55L1073.31 1501.14L1157.7 1953.69L1295.56 1613.55Z" fill="white"/>
</g>
<g opacity="0.3">
<path opacity="0.3" d="M1174.93 1334.08C1175.16 1333.82 1175.42 1333.73 1175.67 1333.81C1175.93 1333.89 1176.16 1334.15 1176.33 1334.53L1298.3 1610.73C1298.45 1611.09 1298.55 1611.54 1298.57 1612.01C1298.59 1612.48 1298.53 1612.96 1298.41 1613.36C1298.28 1613.77 1298.1 1614.08 1297.88 1614.26C1297.65 1614.44 1297.41 1614.47 1297.18 1614.35L1071.18 1500.08C1070.98 1499.97 1070.79 1499.76 1070.65 1499.46C1070.51 1499.16 1070.41 1498.79 1070.37 1498.39C1070.32 1497.98 1070.34 1497.56 1070.41 1497.17C1070.48 1496.79 1070.6 1496.44 1070.77 1496.19L1174.79 1334.28C1174.84 1334.2 1174.89 1334.14 1174.93 1334.08ZM1294.24 1608.28L1175.34 1339.04L1073.94 1496.87L1294.24 1608.28Z" fill="white"/>
</g>
<g opacity="0.3">
<path opacity="0.3" d="M1297.11 1610.6C1297.25 1610.44 1297.4 1610.34 1297.56 1610.31C1297.72 1610.28 1297.88 1610.32 1298.03 1610.42C1298.25 1610.57 1298.44 1610.84 1298.57 1611.21C1298.71 1611.58 1298.78 1612.02 1298.78 1612.48L1303.62 2160.46C1303.62 2160.87 1303.56 2161.27 1303.46 2161.63C1303.36 2161.98 1303.21 2162.27 1303.03 2162.47C1302.84 2162.66 1302.64 2162.75 1302.43 2162.72C1302.22 2162.7 1302.03 2162.56 1301.86 2162.33L1156.84 1960.22C1156.71 1960.04 1156.6 1959.82 1156.52 1959.56C1156.44 1959.31 1156.39 1959.02 1156.37 1958.72C1156.35 1958.42 1156.36 1958.11 1156.4 1957.82C1156.44 1957.53 1156.51 1957.25 1156.61 1957.02L1296.79 1611.13C1296.88 1610.92 1296.99 1610.74 1297.11 1610.6ZM1301.35 2156.18L1296.61 1618.67L1159.1 1957.94L1301.35 2156.18Z" fill="white"/>
</g>
<g opacity="0.3">
<path opacity="0.3" d="M1199.2 1282.54C1199.41 1282.3 1199.65 1282.2 1199.89 1282.25C1200.06 1282.29 1200.22 1282.41 1200.37 1282.6C1200.52 1282.78 1200.64 1283.03 1200.73 1283.33L1298.42 1611.29C1298.56 1611.77 1298.61 1612.33 1298.55 1612.88C1298.5 1613.42 1298.34 1613.9 1298.11 1614.22C1297.89 1614.55 1297.61 1614.69 1297.33 1614.63C1297.05 1614.56 1296.8 1614.3 1296.61 1613.88L1174.52 1337.48C1174.34 1337.06 1174.24 1336.53 1174.25 1335.98C1174.25 1335.43 1174.36 1334.9 1174.55 1334.5L1198.94 1282.96C1199.02 1282.79 1199.11 1282.65 1199.2 1282.54ZM1290.38 1593.03L1199.56 1288.14L1176.88 1336.07L1290.38 1593.03Z" fill="white"/>
</g>
<g opacity="0.3">
<path opacity="0.3" d="M1199.14 1282.77C1199.4 1282.47 1199.71 1282.39 1199.99 1282.54L1349.56 1361.57C1349.71 1361.65 1349.86 1361.8 1349.98 1362C1350.1 1362.2 1350.2 1362.45 1350.27 1362.73C1350.34 1363.02 1350.38 1363.33 1350.39 1363.64C1350.39 1363.96 1350.36 1364.27 1350.3 1364.56L1298.36 1613.36C1298.28 1613.74 1298.15 1614.07 1297.98 1614.31C1297.81 1614.55 1297.61 1614.7 1297.4 1614.73C1297.2 1614.76 1296.99 1614.67 1296.81 1614.48C1296.62 1614.29 1296.47 1614 1296.36 1613.64L1198.92 1286.42C1198.82 1286.26 1198.75 1286.07 1198.68 1285.86C1198.6 1285.61 1198.55 1285.32 1198.53 1285.03C1198.5 1284.73 1198.51 1284.43 1198.56 1284.14C1198.6 1283.85 1198.67 1283.58 1198.77 1283.35C1198.86 1283.12 1198.98 1282.93 1199.12 1282.8L1199.14 1282.77ZM1347.75 1365.21L1202.05 1288.23L1297.15 1607.55L1347.75 1365.21Z" fill="white"/>
</g>
<g opacity="0.3">
<path opacity="0.3" d="M1296.97 1611.04C1297.15 1610.83 1297.35 1610.73 1297.56 1610.74L1678.18 1627.36C1678.42 1627.37 1678.65 1627.52 1678.83 1627.8C1679.02 1628.08 1679.16 1628.47 1679.23 1628.92C1679.3 1629.37 1679.29 1629.84 1679.22 1630.28C1679.14 1630.73 1679 1631.11 1678.81 1631.38L1303.02 2162.46C1302.85 2162.7 1302.66 2162.84 1302.45 2162.87C1302.25 2162.9 1302.05 2162.82 1301.87 2162.63C1301.68 2162.45 1301.53 2162.18 1301.42 2161.83C1301.31 2161.49 1301.26 2161.1 1301.25 2160.69L1296.41 1613C1296.41 1612.7 1296.44 1612.4 1296.5 1612.12C1296.55 1611.85 1296.64 1611.59 1296.74 1611.38C1296.81 1611.25 1296.89 1611.13 1296.97 1611.04ZM1674.76 1631.65L1298.67 1615.22L1303.45 2156.41L1674.76 1631.65Z" fill="white"/>
</g>
<g opacity="0.3">
<path opacity="0.3" d="M1348.74 1362.31C1348.89 1362.14 1349.05 1362.04 1349.23 1362.01C1349.4 1361.99 1349.57 1362.04 1349.72 1362.17L1678.53 1627.48C1678.77 1627.67 1678.97 1628.03 1679.1 1628.49C1679.22 1628.94 1679.26 1629.47 1679.2 1629.98C1679.15 1630.49 1679.01 1630.94 1678.8 1631.27C1678.6 1631.59 1678.34 1631.76 1678.08 1631.75L1297.35 1615.13C1297.17 1615.12 1296.99 1615.02 1296.83 1614.85C1296.67 1614.67 1296.54 1614.42 1296.44 1614.11C1296.34 1613.81 1296.28 1613.47 1296.26 1613.11C1296.25 1612.75 1296.27 1612.39 1296.34 1612.06L1348.26 1363.37C1348.36 1362.92 1348.53 1362.55 1348.74 1362.31ZM1672.07 1627.05L1349.91 1367.11L1299.04 1610.76L1672.07 1627.05Z" fill="white"/>
</g>
<g opacity="0.3">
<path opacity="0.3" d="M473.634 2178.24C473.816 2178.03 474.023 2177.93 474.233 2177.94C474.443 2177.96 474.647 2178.09 474.821 2178.32L1117.1 3041.02C1117.23 3041.2 1117.34 3041.43 1117.42 3041.7C1117.5 3041.96 1117.55 3042.26 1117.57 3042.57C1117.59 3042.88 1117.58 3043.2 1117.53 3043.5C1117.49 3043.8 1117.41 3044.08 1117.31 3044.31L834.166 3691.15C834.044 3691.43 833.89 3691.65 833.716 3691.78C833.542 3691.91 833.354 3691.95 833.17 3691.9C832.986 3691.85 832.811 3691.71 832.661 3691.49C832.512 3691.27 832.393 3690.98 832.314 3690.65L473.187 2181.1C473.082 2180.66 473.053 2180.17 473.105 2179.69C473.156 2179.21 473.285 2178.78 473.472 2178.47C473.523 2178.39 473.577 2178.31 473.634 2178.24ZM1114.8 3043.3L476.948 2186.55L833.602 3685.69L1114.8 3043.3Z" fill="white"/>
</g>
<g opacity="0.3">
<path opacity="0.3" d="M500.156 1766.91C500.4 1766.63 500.687 1766.54 500.96 1766.66C501.232 1766.79 501.47 1767.1 501.629 1767.56C501.788 1768.01 501.856 1768.56 501.82 1769.11L475.074 2179.68C475.046 2180.13 474.952 2180.54 474.803 2180.88C474.653 2181.21 474.457 2181.45 474.239 2181.55C474.021 2181.67 473.793 2181.64 473.582 2181.49C473.371 2181.34 473.189 2181.07 473.058 2180.71L445.014 2103.45C444.912 2103.17 444.844 2102.84 444.817 2102.5C444.79 2102.15 444.803 2101.8 444.857 2101.47L499.65 1768.15C499.735 1767.62 499.916 1767.18 500.156 1766.91ZM473.227 2173.55L498.08 1792.02L447.166 2101.77L473.227 2173.55Z" fill="white"/>
</g>
<g opacity="0.3">
<path opacity="0.3" d="M1677.91 1628.15C1678.03 1628 1678.18 1627.91 1678.32 1627.87C1678.58 1627.81 1678.84 1627.92 1679.06 1628.19C1679.28 1628.46 1679.44 1628.87 1679.52 1629.36L1835.28 2546.04C1835.38 2546.59 1835.36 2547.19 1835.24 2547.71C1835.11 2548.23 1834.89 2548.64 1834.61 2548.84L1639.51 2694.18C1639.33 2694.31 1639.14 2694.36 1638.96 2694.3C1638.77 2694.25 1638.59 2694.1 1638.44 2693.88C1638.29 2693.66 1638.18 2693.36 1638.1 2693.03C1638.02 2692.69 1637.99 2692.32 1638 2691.95L1677.35 1629.92C1677.36 1629.56 1677.42 1629.21 1677.52 1628.9C1677.61 1628.59 1677.75 1628.33 1677.91 1628.15ZM1832.82 2545.43L1679.17 1641.19L1640.37 2688.82L1832.82 2545.43Z" fill="white"/>
</g>
<g opacity="0.3">
<path opacity="0.3" d="M1677.96 1628.16C1678.13 1627.96 1678.33 1627.85 1678.54 1627.86C1678.74 1627.87 1678.94 1627.98 1679.11 1628.2C1679.28 1628.41 1679.42 1628.71 1679.51 1629.07C1679.6 1629.43 1679.64 1629.83 1679.63 1630.23L1640.3 2691.95C1640.29 2692.35 1640.22 2692.73 1640.1 2693.06C1639.98 2693.39 1639.82 2693.65 1639.64 2693.82C1639.45 2693.98 1639.25 2694.04 1639.05 2693.99C1638.84 2693.94 1638.65 2693.78 1638.49 2693.53L1301.9 2163.13C1301.76 2162.92 1301.65 2162.65 1301.58 2162.34C1301.5 2162.02 1301.47 2161.68 1301.47 2161.34C1301.48 2161 1301.52 2160.66 1301.6 2160.35C1301.69 2160.05 1301.8 2159.79 1301.94 2159.59L1677.87 1628.28C1677.9 1628.23 1677.93 1628.19 1677.96 1628.16ZM1638.23 2687.44L1677.23 1634.62L1304.45 2161.49L1638.23 2687.44Z" fill="white"/>
</g>
<g opacity="0.3">
<path opacity="0.3" d="M1638.94 2690.44C1639.16 2690.19 1639.42 2690.09 1639.67 2690.17L1894.68 2767.03C1894.93 2767.11 1895.15 2767.34 1895.32 2767.68C1895.49 2768.03 1895.59 2768.48 1895.62 2768.96C1895.65 2769.44 1895.6 2769.93 1895.48 2770.35C1895.35 2770.76 1895.17 2771.09 1894.94 2771.28L1637.44 2984.69C1637.27 2984.84 1637.08 2984.89 1636.9 2984.85C1636.71 2984.82 1636.54 2984.69 1636.39 2984.48C1636.23 2984.28 1636.11 2984 1636.02 2983.67C1635.94 2983.35 1635.89 2982.98 1635.9 2982.62L1638.38 2692.33C1638.38 2692.01 1638.42 2691.7 1638.49 2691.41C1638.56 2691.13 1638.66 2690.87 1638.78 2690.67C1638.83 2690.58 1638.89 2690.51 1638.94 2690.44ZM1890.4 2770.24L1640.6 2694.94L1638.16 2979.3L1890.4 2770.24Z" fill="white"/>
</g>
<g opacity="0.3">
<path opacity="0.3" d="M1638.9 2690.49C1638.95 2690.43 1639.01 2690.38 1639.07 2690.33L1834.08 2545.05C1834.33 2544.86 1834.61 2544.86 1834.86 2545.05C1835.12 2545.24 1835.33 2545.6 1835.45 2546.07L1895.5 2768.24C1895.6 2768.6 1895.64 2769.01 1895.63 2769.43C1895.62 2769.84 1895.55 2770.23 1895.43 2770.57C1895.31 2770.91 1895.14 2771.18 1894.95 2771.34C1894.76 2771.5 1894.55 2771.55 1894.34 2771.49L1639.52 2694.67C1639.3 2694.72 1639.09 2694.64 1638.9 2694.44C1638.71 2694.25 1638.55 2693.95 1638.44 2693.58C1638.36 2693.32 1638.31 2693.04 1638.29 2692.75C1638.27 2692.45 1638.28 2692.15 1638.32 2691.86C1638.36 2691.57 1638.43 2691.31 1638.53 2691.08C1638.62 2690.85 1638.74 2690.66 1638.87 2690.52L1638.9 2690.49ZM1833.94 2549.88L1643.87 2691.49L1892.47 2766.43L1833.94 2549.88Z" fill="white"/>
</g>
<g opacity="0.3">
<path opacity="0.3" d="M1187.38 2597.95C1187.51 2597.8 1187.66 2597.7 1187.81 2597.67C1187.97 2597.63 1188.12 2597.66 1188.27 2597.75L1448.2 2757.35C1448.39 2757.47 1448.57 2757.69 1448.7 2757.99C1448.84 2758.3 1448.93 2758.66 1448.96 2759.06C1449 2759.46 1448.98 2759.87 1448.91 2760.24C1448.84 2760.62 1448.72 2760.95 1448.56 2761.2L1187.07 3173.84C1186.91 3174.1 1186.71 3174.26 1186.5 3174.31C1186.29 3174.36 1186.08 3174.29 1185.89 3174.1C1185.7 3173.92 1185.54 3173.64 1185.43 3173.28C1185.31 3172.93 1185.26 3172.51 1185.26 3172.1L1186.82 2599.86C1186.82 2599.51 1186.86 2599.17 1186.94 2598.86C1187.02 2598.55 1187.14 2598.29 1187.28 2598.08C1187.31 2598.03 1187.34 2597.99 1187.38 2597.95ZM1445.51 2760.35L1189.05 2602.88L1187.51 3167.49L1445.51 2760.35Z" fill="white"/>
</g>
<g opacity="0.3">
<path opacity="0.3" d="M1302.33 2158.74C1302.46 2158.59 1302.61 2158.49 1302.77 2158.46C1302.92 2158.42 1303.07 2158.45 1303.22 2158.54C1303.37 2158.63 1303.5 2158.78 1303.62 2158.98C1303.74 2159.18 1303.83 2159.42 1303.9 2159.7L1448.8 2758.55C1448.89 2758.94 1448.93 2759.38 1448.9 2759.81C1448.87 2760.24 1448.78 2760.64 1448.63 2760.97C1448.49 2761.3 1448.3 2761.53 1448.1 2761.65C1447.89 2761.77 1447.66 2761.77 1447.46 2761.64L1187.39 2601.95C1187.24 2601.86 1187.09 2601.7 1186.97 2601.48C1186.85 2601.26 1186.76 2600.99 1186.7 2600.69C1186.63 2600.39 1186.6 2600.07 1186.61 2599.74C1186.62 2599.42 1186.66 2599.1 1186.74 2598.81L1301.89 2159.63C1301.99 2159.26 1302.15 2158.95 1302.33 2158.74ZM1445.67 2755.89L1302.84 2165.61L1189.34 2598.5L1445.67 2755.89Z" fill="white"/>
</g>
<g opacity="0.3">
<path opacity="0.3" d="M1302.12 2159.09C1302.31 2158.87 1302.53 2158.77 1302.76 2158.8C1302.98 2158.83 1303.2 2159 1303.37 2159.28L1640.16 2689.94C1640.33 2690.2 1640.45 2690.56 1640.52 2690.96C1640.59 2691.37 1640.6 2691.8 1640.55 2692.21C1640.49 2692.63 1640.38 2693 1640.23 2693.3C1640.07 2693.59 1639.87 2693.78 1639.66 2693.86L1447.81 2762.15C1447.57 2762.23 1447.32 2762.16 1447.1 2761.94C1446.89 2761.72 1446.71 2761.36 1446.61 2760.93L1301.67 2161.97C1301.56 2161.52 1301.53 2161 1301.58 2160.51C1301.64 2160.02 1301.78 2159.58 1301.98 2159.26C1302.02 2159.2 1302.07 2159.14 1302.12 2159.09ZM1636.82 2690.36L1305.78 2168.77L1448.25 2757.49L1636.82 2690.36Z" fill="white"/>
</g>
</g>
</g>
</g>
</g>
<path opacity="0.3" d="M-349.999 1294.16L-343.429 2090.49C-151.721 2088.9 18.4765 2161.24 158.693 2174.83C298.91 2188.42 424.258 2187.39 828.397 2014.45C1232.54 1841.52 1822.47 1844.03 2080.72 1864.02C2287.32 1880.01 2903.62 1800.7 3185.94 1759.04L3181.87 1265.02L-349.999 1294.16Z" fill="white" fill-opacity="0.24"/>
<path opacity="0.3" d="M-1045 2240.57C-1045 2240.57 -753.755 2225.81 -524.252 2309.48C-294.749 2393.16 395.815 2078.64 440.294 2064.55C484.774 2050.45 786.242 1973.39 1159.6 1992.72C1532.96 2012.05 2456.27 1927.65 2541.35 1890.68C2538.68 1889.69 2541.35 1391.06 2541.35 1391.06H-1045V2240.57Z" fill="white"/>
<path d="M596.076 2240.02H597.26V2228.82H596.076V2240.02ZM603.449 2229.03C603.929 2229.03 604.377 2229.17 604.697 2229.44L605.081 2228.6C604.665 2228.24 604.025 2228.07 603.401 2228.07C601.753 2228.07 600.857 2229.06 600.857 2230.56V2231.6H599.353V2232.56H600.857V2240.02H601.993V2232.56H604.553V2231.6H601.961V2230.61C601.961 2229.57 602.473 2229.03 603.449 2229.03ZM616.226 2231.6L613.058 2238.76L609.89 2231.6H608.706L612.466 2240L612.098 2240.82C611.618 2241.88 611.106 2242.23 610.354 2242.23C609.746 2242.23 609.234 2242 608.818 2241.59L608.29 2242.44C608.802 2242.95 609.554 2243.2 610.338 2243.2C611.538 2243.2 612.434 2242.68 613.138 2241.03L617.346 2231.6H616.226ZM622.151 2240.1C624.615 2240.1 626.423 2238.31 626.423 2235.81C626.423 2233.32 624.615 2231.54 622.151 2231.54C619.687 2231.54 617.863 2233.32 617.863 2235.81C617.863 2238.31 619.687 2240.1 622.151 2240.1ZM622.151 2239.09C620.359 2239.09 619.015 2237.78 619.015 2235.81C619.015 2233.84 620.359 2232.53 622.151 2232.53C623.943 2232.53 625.271 2233.84 625.271 2235.81C625.271 2237.78 623.943 2239.09 622.151 2239.09ZM635.191 2231.6V2236.02C635.191 2237.94 634.087 2239.08 632.327 2239.08C630.727 2239.08 629.799 2238.16 629.799 2236.37V2231.6H628.663V2236.48C628.663 2238.9 630.071 2240.1 632.215 2240.1C633.559 2240.1 634.647 2239.51 635.239 2238.48V2240.02H636.327V2231.6H635.191ZM646.64 2231.54C645.312 2231.54 644.064 2231.96 643.216 2232.68L643.728 2233.52C644.416 2232.92 645.44 2232.53 646.528 2232.53C648.096 2232.53 648.912 2233.32 648.912 2234.76V2235.27H646.24C643.824 2235.27 642.992 2236.36 642.992 2237.65C642.992 2239.11 644.16 2240.1 646.064 2240.1C647.456 2240.1 648.448 2239.57 648.96 2238.71V2240.02H650.048V2234.8C650.048 2232.63 648.816 2231.54 646.64 2231.54ZM646.24 2239.2C644.896 2239.2 644.112 2238.6 644.112 2237.62C644.112 2236.76 644.64 2236.12 646.272 2236.12H648.912V2237.49C648.464 2238.6 647.52 2239.2 646.24 2239.2ZM654.221 2233.25V2231.6H653.133V2240.02H654.269V2235.73C654.269 2233.75 655.341 2232.63 657.101 2232.63C657.181 2232.63 657.277 2232.64 657.373 2232.64V2231.54C655.821 2231.54 654.749 2232.13 654.221 2233.25ZM666.696 2235.81C666.696 2233.28 664.984 2231.54 662.616 2231.54C660.248 2231.54 658.504 2233.32 658.504 2235.81C658.504 2238.31 660.296 2240.1 662.92 2240.1C664.248 2240.1 665.416 2239.62 666.168 2238.72L665.528 2237.99C664.888 2238.72 663.976 2239.09 662.952 2239.09C661.112 2239.09 659.768 2237.92 659.64 2236.16H666.68C666.68 2236.04 666.696 2235.91 666.696 2235.81ZM662.616 2232.52C664.264 2232.52 665.464 2233.67 665.608 2235.32H659.64C659.784 2233.67 660.984 2232.52 662.616 2232.52ZM677.484 2231.54C676.028 2231.54 674.892 2232.13 674.284 2233.16V2231.6H673.196V2240.02H674.332V2235.6C674.332 2233.68 675.468 2232.56 677.276 2232.56C678.876 2232.56 679.804 2233.48 679.804 2235.25V2240.02H680.94V2235.14C680.94 2232.72 679.532 2231.54 677.484 2231.54ZM687.495 2240.1C689.959 2240.1 691.767 2238.31 691.767 2235.81C691.767 2233.32 689.959 2231.54 687.495 2231.54C685.031 2231.54 683.207 2233.32 683.207 2235.81C683.207 2238.31 685.031 2240.1 687.495 2240.1ZM687.495 2239.09C685.703 2239.09 684.359 2237.78 684.359 2235.81C684.359 2233.84 685.703 2232.53 687.495 2232.53C689.287 2232.53 690.615 2233.84 690.615 2235.81C690.615 2237.78 689.287 2239.09 687.495 2239.09ZM698.118 2238.69C697.798 2238.98 697.334 2239.12 696.87 2239.12C695.926 2239.12 695.414 2238.58 695.414 2237.59V2232.56H697.974V2231.6H695.414V2229.76H694.278V2231.6H692.774V2232.56H694.278V2237.65C694.278 2239.2 695.158 2240.1 696.742 2240.1C697.398 2240.1 698.07 2239.91 698.518 2239.51L698.118 2238.69ZM705.862 2233.25V2231.6H704.774V2240.02H705.91V2235.73C705.91 2233.75 706.982 2232.63 708.742 2232.63C708.822 2232.63 708.918 2232.64 709.014 2232.64V2231.54C707.462 2231.54 706.39 2232.13 705.862 2233.25ZM718.337 2235.81C718.337 2233.28 716.625 2231.54 714.257 2231.54C711.889 2231.54 710.145 2233.32 710.145 2235.81C710.145 2238.31 711.937 2240.1 714.561 2240.1C715.889 2240.1 717.057 2239.62 717.809 2238.72L717.169 2237.99C716.529 2238.72 715.617 2239.09 714.593 2239.09C712.753 2239.09 711.409 2237.92 711.281 2236.16H718.321C718.321 2236.04 718.337 2235.91 718.337 2235.81ZM714.257 2232.52C715.905 2232.52 717.105 2233.67 717.249 2235.32H711.281C711.425 2233.67 712.625 2232.52 714.257 2232.52ZM723.359 2231.54C722.031 2231.54 720.783 2231.96 719.935 2232.68L720.447 2233.52C721.135 2232.92 722.159 2232.53 723.247 2232.53C724.815 2232.53 725.631 2233.32 725.631 2234.76V2235.27H722.959C720.543 2235.27 719.711 2236.36 719.711 2237.65C719.711 2239.11 720.879 2240.1 722.783 2240.1C724.175 2240.1 725.167 2239.57 725.679 2238.71V2240.02H726.767V2234.8C726.767 2232.63 725.535 2231.54 723.359 2231.54ZM722.959 2239.2C721.615 2239.2 720.831 2238.6 720.831 2237.62C720.831 2236.76 721.359 2236.12 722.991 2236.12H725.631V2237.49C725.183 2238.6 724.239 2239.2 722.959 2239.2ZM736.427 2228.15V2233.2C735.723 2232.12 734.571 2231.54 733.227 2231.54C730.827 2231.54 729.035 2233.27 729.035 2235.81C729.035 2238.36 730.827 2240.1 733.227 2240.1C734.619 2240.1 735.787 2239.49 736.475 2238.36V2240.02H737.563V2228.15H736.427ZM733.323 2239.09C731.531 2239.09 730.187 2237.78 730.187 2235.81C730.187 2233.84 731.531 2232.53 733.323 2232.53C735.099 2232.53 736.443 2233.84 736.443 2235.81C736.443 2237.78 735.099 2239.09 733.323 2239.09ZM746.679 2231.6L743.511 2238.76L740.343 2231.6H739.159L742.919 2240L742.551 2240.82C742.071 2241.88 741.559 2242.23 740.807 2242.23C740.199 2242.23 739.687 2242 739.271 2241.59L738.743 2242.44C739.255 2242.95 740.007 2243.2 740.791 2243.2C741.991 2243.2 742.887 2242.68 743.591 2241.03L747.799 2231.6H746.679ZM757.618 2238.69C757.298 2238.98 756.834 2239.12 756.37 2239.12C755.426 2239.12 754.914 2238.58 754.914 2237.59V2232.56H757.474V2231.6H754.914V2229.76H753.778V2231.6H752.274V2232.56H753.778V2237.65C753.778 2239.2 754.658 2240.1 756.242 2240.1C756.898 2240.1 757.57 2239.91 758.018 2239.51L757.618 2238.69ZM763.23 2240.1C765.694 2240.1 767.502 2238.31 767.502 2235.81C767.502 2233.32 765.694 2231.54 763.23 2231.54C760.766 2231.54 758.942 2233.32 758.942 2235.81C758.942 2238.31 760.766 2240.1 763.23 2240.1ZM763.23 2239.09C761.438 2239.09 760.094 2237.78 760.094 2235.81C760.094 2233.84 761.438 2232.53 763.23 2232.53C765.022 2232.53 766.35 2233.84 766.35 2235.81C766.35 2237.78 765.022 2239.09 763.23 2239.09ZM781.352 2235.81C781.352 2233.28 779.64 2231.54 777.272 2231.54C774.904 2231.54 773.16 2233.32 773.16 2235.81C773.16 2238.31 774.952 2240.1 777.576 2240.1C778.904 2240.1 780.072 2239.62 780.824 2238.72L780.184 2237.99C779.544 2238.72 778.632 2239.09 777.608 2239.09C775.768 2239.09 774.424 2237.92 774.296 2236.16H781.336C781.336 2236.04 781.352 2235.91 781.352 2235.81ZM777.272 2232.52C778.92 2232.52 780.12 2233.67 780.264 2235.32H774.296C774.44 2233.67 775.64 2232.52 777.272 2232.52ZM787.953 2231.54C786.497 2231.54 785.361 2232.13 784.753 2233.16V2231.6H783.665V2240.02H784.801V2235.6C784.801 2233.68 785.937 2232.56 787.745 2232.56C789.345 2232.56 790.273 2233.48 790.273 2235.25V2240.02H791.409V2235.14C791.409 2232.72 790.001 2231.54 787.953 2231.54ZM801.228 2231.6V2233.22C800.524 2232.12 799.308 2231.54 797.9 2231.54C795.5 2231.54 793.676 2233.19 793.676 2235.6C793.676 2238.02 795.5 2239.7 797.9 2239.7C799.276 2239.7 800.476 2239.14 801.18 2238.07V2239.14C801.18 2241.22 800.204 2242.2 798.076 2242.2C796.78 2242.2 795.564 2241.76 794.764 2241.04L794.188 2241.91C795.068 2242.74 796.572 2243.2 798.108 2243.2C800.892 2243.2 802.316 2241.89 802.316 2239V2231.6H801.228ZM798.012 2238.69C796.156 2238.69 794.828 2237.43 794.828 2235.6C794.828 2233.78 796.156 2232.53 798.012 2232.53C799.868 2232.53 801.212 2233.78 801.212 2235.6C801.212 2237.43 799.868 2238.69 798.012 2238.69ZM808.437 2231.54C807.109 2231.54 805.861 2231.96 805.013 2232.68L805.525 2233.52C806.213 2232.92 807.237 2232.53 808.325 2232.53C809.893 2232.53 810.709 2233.32 810.709 2234.76V2235.27H808.037C805.621 2235.27 804.789 2236.36 804.789 2237.65C804.789 2239.11 805.957 2240.1 807.861 2240.1C809.253 2240.1 810.245 2239.57 810.757 2238.71V2240.02H811.845V2234.8C811.845 2232.63 810.613 2231.54 808.437 2231.54ZM808.037 2239.2C806.693 2239.2 805.909 2238.6 805.909 2237.62C805.909 2236.76 806.437 2236.12 808.069 2236.12H810.709V2237.49C810.261 2238.6 809.317 2239.2 808.037 2239.2ZM821.665 2231.6V2233.22C820.961 2232.12 819.745 2231.54 818.337 2231.54C815.937 2231.54 814.113 2233.19 814.113 2235.6C814.113 2238.02 815.937 2239.7 818.337 2239.7C819.713 2239.7 820.913 2239.14 821.617 2238.07V2239.14C821.617 2241.22 820.641 2242.2 818.513 2242.2C817.217 2242.2 816.001 2241.76 815.201 2241.04L814.625 2241.91C815.505 2242.74 817.009 2243.2 818.545 2243.2C821.329 2243.2 822.753 2241.89 822.753 2239V2231.6H821.665ZM818.449 2238.69C816.593 2238.69 815.265 2237.43 815.265 2235.6C815.265 2233.78 816.593 2232.53 818.449 2232.53C820.305 2232.53 821.649 2233.78 821.649 2235.6C821.649 2237.43 820.305 2238.69 818.449 2238.69ZM833.274 2235.81C833.274 2233.28 831.562 2231.54 829.194 2231.54C826.826 2231.54 825.082 2233.32 825.082 2235.81C825.082 2238.31 826.874 2240.1 829.498 2240.1C830.826 2240.1 831.994 2239.62 832.746 2238.72L832.106 2237.99C831.466 2238.72 830.554 2239.09 829.53 2239.09C827.69 2239.09 826.346 2237.92 826.218 2236.16H833.258C833.258 2236.04 833.274 2235.91 833.274 2235.81ZM829.194 2232.52C830.842 2232.52 832.042 2233.67 832.186 2235.32H826.218C826.362 2233.67 827.562 2232.52 829.194 2232.52ZM851.086 2231.6L848.414 2238.76L845.726 2231.6H844.75L842.046 2238.76L839.406 2231.6H838.318L841.486 2240.02H842.558L845.214 2233.12L847.87 2240.02H848.942L852.126 2231.6H851.086ZM854.412 2229.76C854.892 2229.76 855.244 2229.4 855.244 2228.93C855.244 2228.5 854.876 2228.15 854.412 2228.15C853.948 2228.15 853.58 2228.52 853.58 2228.95C853.58 2229.4 853.948 2229.76 854.412 2229.76ZM853.836 2240.02H854.972V2231.6H853.836V2240.02ZM862.165 2238.69C861.845 2238.98 861.381 2239.12 860.917 2239.12C859.973 2239.12 859.461 2238.58 859.461 2237.59V2232.56H862.021V2231.6H859.461V2229.76H858.325V2231.6H856.821V2232.56H858.325V2237.65C858.325 2239.2 859.205 2240.1 860.789 2240.1C861.445 2240.1 862.117 2239.91 862.565 2239.51L862.165 2238.69ZM868.921 2231.54C867.497 2231.54 866.393 2232.1 865.769 2233.08V2228.15H864.633V2240.02H865.769V2235.6C865.769 2233.68 866.905 2232.56 868.713 2232.56C870.313 2232.56 871.241 2233.48 871.241 2235.25V2240.02H872.377V2235.14C872.377 2232.72 870.969 2231.54 868.921 2231.54ZM886.097 2231.6V2236.02C886.097 2237.94 884.993 2239.08 883.233 2239.08C881.633 2239.08 880.705 2238.16 880.705 2236.37V2231.6H879.569V2236.48C879.569 2238.9 880.977 2240.1 883.121 2240.1C884.465 2240.1 885.553 2239.51 886.145 2238.48V2240.02H887.233V2231.6H886.097ZM892.671 2240.1C894.863 2240.1 896.143 2239.16 896.143 2237.7C896.143 2234.47 890.687 2236.18 890.687 2233.91C890.687 2233.11 891.359 2232.52 892.879 2232.52C893.743 2232.52 894.623 2232.72 895.359 2233.24L895.855 2232.32C895.151 2231.84 893.967 2231.54 892.879 2231.54C890.735 2231.54 889.551 2232.56 889.551 2233.94C889.551 2237.27 895.007 2235.54 895.007 2237.73C895.007 2238.56 894.351 2239.11 892.751 2239.11C891.567 2239.11 890.431 2238.69 889.759 2238.16L889.247 2239.06C889.935 2239.65 891.279 2240.1 892.671 2240.1ZM908.382 2231.6L905.214 2238.76L902.046 2231.6H900.862L904.622 2240L904.254 2240.82C903.774 2241.88 903.262 2242.23 902.51 2242.23C901.902 2242.23 901.39 2242 900.974 2241.59L900.446 2242.44C900.958 2242.95 901.71 2243.2 902.494 2243.2C903.694 2243.2 904.59 2242.68 905.294 2241.03L909.502 2231.6H908.382ZM918.212 2235.81C918.212 2233.28 916.5 2231.54 914.132 2231.54C911.764 2231.54 910.02 2233.32 910.02 2235.81C910.02 2238.31 911.812 2240.1 914.436 2240.1C915.764 2240.1 916.932 2239.62 917.684 2238.72L917.044 2237.99C916.404 2238.72 915.492 2239.09 914.468 2239.09C912.628 2239.09 911.284 2237.92 911.156 2236.16H918.196C918.196 2236.04 918.212 2235.91 918.212 2235.81ZM914.132 2232.52C915.78 2232.52 916.98 2233.67 917.124 2235.32H911.156C911.3 2233.67 912.5 2232.52 914.132 2232.52ZM924.556 2238.69C924.236 2238.98 923.772 2239.12 923.308 2239.12C922.364 2239.12 921.852 2238.58 921.852 2237.59V2232.56H924.412V2231.6H921.852V2229.76H920.716V2231.6H919.212V2232.56H920.716V2237.65C920.716 2239.2 921.596 2240.1 923.18 2240.1C923.836 2240.1 924.508 2239.91 924.956 2239.51L924.556 2238.69ZM934.155 2231.54C932.827 2231.54 931.579 2231.96 930.731 2232.68L931.243 2233.52C931.931 2232.92 932.955 2232.53 934.043 2232.53C935.611 2232.53 936.427 2233.32 936.427 2234.76V2235.27H933.755C931.339 2235.27 930.507 2236.36 930.507 2237.65C930.507 2239.11 931.675 2240.1 933.579 2240.1C934.971 2240.1 935.963 2239.57 936.475 2238.71V2240.02H937.563V2234.8C937.563 2232.63 936.331 2231.54 934.155 2231.54ZM933.755 2239.2C932.411 2239.2 931.627 2238.6 931.627 2237.62C931.627 2236.76 932.155 2236.12 933.787 2236.12H936.427V2237.49C935.979 2238.6 935.035 2239.2 933.755 2239.2ZM944.937 2231.54C943.481 2231.54 942.345 2232.13 941.737 2233.16V2231.6H940.649V2240.02H941.785V2235.6C941.785 2233.68 942.921 2232.56 944.729 2232.56C946.329 2232.56 947.257 2233.48 947.257 2235.25V2240.02H948.393V2235.14C948.393 2232.72 946.985 2231.54 944.937 2231.54ZM958.052 2228.15V2233.2C957.348 2232.12 956.196 2231.54 954.852 2231.54C952.452 2231.54 950.66 2233.27 950.66 2235.81C950.66 2238.36 952.452 2240.1 954.852 2240.1C956.244 2240.1 957.412 2239.49 958.1 2238.36V2240.02H959.188V2228.15H958.052ZM954.948 2239.09C953.156 2239.09 951.812 2237.78 951.812 2235.81C951.812 2233.84 953.156 2232.53 954.948 2232.53C956.724 2232.53 958.068 2233.84 958.068 2235.81C958.068 2237.78 956.724 2239.09 954.948 2239.09ZM970.828 2231.54C969.404 2231.54 968.3 2232.1 967.676 2233.08V2228.15H966.54V2240.02H967.676V2235.6C967.676 2233.68 968.812 2232.56 970.62 2232.56C972.22 2232.56 973.148 2233.48 973.148 2235.25V2240.02H974.284V2235.14C974.284 2232.72 972.876 2231.54 970.828 2231.54ZM980.312 2231.54C978.984 2231.54 977.736 2231.96 976.888 2232.68L977.4 2233.52C978.088 2232.92 979.112 2232.53 980.2 2232.53C981.768 2232.53 982.584 2233.32 982.584 2234.76V2235.27H979.912C977.496 2235.27 976.664 2236.36 976.664 2237.65C976.664 2239.11 977.832 2240.1 979.736 2240.1C981.128 2240.1 982.12 2239.57 982.632 2238.71V2240.02H983.72V2234.8C983.72 2232.63 982.488 2231.54 980.312 2231.54ZM979.912 2239.2C978.568 2239.2 977.784 2238.6 977.784 2237.62C977.784 2236.76 978.312 2236.12 979.944 2236.12H982.584V2237.49C982.136 2238.6 981.192 2239.2 979.912 2239.2ZM992.601 2231.6L989.417 2238.77L986.265 2231.6H985.081L988.809 2240.02H989.977L993.721 2231.6H992.601ZM1002.43 2235.81C1002.43 2233.28 1000.72 2231.54 998.35 2231.54C995.982 2231.54 994.238 2233.32 994.238 2235.81C994.238 2238.31 996.03 2240.1 998.654 2240.1C999.982 2240.1 1001.15 2239.62 1001.9 2238.72L1001.26 2237.99C1000.62 2238.72 999.71 2239.09 998.686 2239.09C996.846 2239.09 995.502 2237.92 995.374 2236.16H1002.41C1002.41 2236.04 1002.43 2235.91 1002.43 2235.81ZM998.35 2232.52C999.998 2232.52 1001.2 2233.67 1001.34 2235.32H995.374C995.518 2233.67 996.718 2232.52 998.35 2232.52ZM1015.52 2231.6V2233.27C1014.83 2232.15 1013.67 2231.54 1012.27 2231.54C1009.87 2231.54 1008.08 2233.27 1008.08 2235.81C1008.08 2238.37 1009.87 2240.1 1012.27 2240.1C1013.62 2240.1 1014.77 2239.52 1015.47 2238.44V2243.12H1016.61V2231.6H1015.52ZM1012.37 2239.09C1010.58 2239.09 1009.23 2237.78 1009.23 2235.81C1009.23 2233.86 1010.58 2232.53 1012.37 2232.53C1014.15 2232.53 1015.49 2233.86 1015.49 2235.81C1015.49 2237.78 1014.15 2239.09 1012.37 2239.09ZM1026.22 2231.6V2236.02C1026.22 2237.94 1025.12 2239.08 1023.36 2239.08C1021.76 2239.08 1020.83 2238.16 1020.83 2236.37V2231.6H1019.69V2236.48C1019.69 2238.9 1021.1 2240.1 1023.25 2240.1C1024.59 2240.1 1025.68 2239.51 1026.27 2238.48V2240.02H1027.36V2231.6H1026.22ZM1037.88 2235.81C1037.88 2233.28 1036.17 2231.54 1033.8 2231.54C1031.44 2231.54 1029.69 2233.32 1029.69 2235.81C1029.69 2238.31 1031.48 2240.1 1034.11 2240.1C1035.44 2240.1 1036.6 2239.62 1037.36 2238.72L1036.72 2237.99C1036.08 2238.72 1035.16 2239.09 1034.14 2239.09C1032.3 2239.09 1030.96 2237.92 1030.83 2236.16H1037.87C1037.87 2236.04 1037.88 2235.91 1037.88 2235.81ZM1033.8 2232.52C1035.45 2232.52 1036.65 2233.67 1036.8 2235.32H1030.83C1030.97 2233.67 1032.17 2232.52 1033.8 2232.52ZM1042.45 2240.1C1044.64 2240.1 1045.92 2239.16 1045.92 2237.7C1045.92 2234.47 1040.47 2236.18 1040.47 2233.91C1040.47 2233.11 1041.14 2232.52 1042.66 2232.52C1043.52 2232.52 1044.4 2232.72 1045.14 2233.24L1045.64 2232.32C1044.93 2231.84 1043.75 2231.54 1042.66 2231.54C1040.52 2231.54 1039.33 2232.56 1039.33 2233.94C1039.33 2237.27 1044.79 2235.54 1044.79 2237.73C1044.79 2238.56 1044.13 2239.11 1042.53 2239.11C1041.35 2239.11 1040.21 2238.69 1039.54 2238.16L1039.03 2239.06C1039.72 2239.65 1041.06 2240.1 1042.45 2240.1ZM1052.06 2238.69C1051.74 2238.98 1051.27 2239.12 1050.81 2239.12C1049.86 2239.12 1049.35 2238.58 1049.35 2237.59V2232.56H1051.91V2231.6H1049.35V2229.76H1048.22V2231.6H1046.71V2232.56H1048.22V2237.65C1048.22 2239.2 1049.1 2240.1 1050.68 2240.1C1051.34 2240.1 1052.01 2239.91 1052.46 2239.51L1052.06 2238.69ZM1055.1 2229.76C1055.58 2229.76 1055.93 2229.4 1055.93 2228.93C1055.93 2228.5 1055.56 2228.15 1055.1 2228.15C1054.64 2228.15 1054.27 2228.52 1054.27 2228.95C1054.27 2229.4 1054.64 2229.76 1055.1 2229.76ZM1054.52 2240.02H1055.66V2231.6H1054.52V2240.02ZM1062.26 2240.1C1064.72 2240.1 1066.53 2238.31 1066.53 2235.81C1066.53 2233.32 1064.72 2231.54 1062.26 2231.54C1059.8 2231.54 1057.97 2233.32 1057.97 2235.81C1057.97 2238.31 1059.8 2240.1 1062.26 2240.1ZM1062.26 2239.09C1060.47 2239.09 1059.12 2237.78 1059.12 2235.81C1059.12 2233.84 1060.47 2232.53 1062.26 2232.53C1064.05 2232.53 1065.38 2233.84 1065.38 2235.81C1065.38 2237.78 1064.05 2239.09 1062.26 2239.09ZM1073.14 2231.54C1071.68 2231.54 1070.55 2232.13 1069.94 2233.16V2231.6H1068.85V2240.02H1069.99V2235.6C1069.99 2233.68 1071.12 2232.56 1072.93 2232.56C1074.53 2232.56 1075.46 2233.48 1075.46 2235.25V2240.02H1076.6V2235.14C1076.6 2232.72 1075.19 2231.54 1073.14 2231.54ZM1081.94 2240.1C1084.13 2240.1 1085.41 2239.16 1085.41 2237.7C1085.41 2234.47 1079.95 2236.18 1079.95 2233.91C1079.95 2233.11 1080.62 2232.52 1082.14 2232.52C1083.01 2232.52 1083.89 2232.72 1084.62 2233.24L1085.12 2232.32C1084.42 2231.84 1083.23 2231.54 1082.14 2231.54C1080 2231.54 1078.82 2232.56 1078.82 2233.94C1078.82 2237.27 1084.27 2235.54 1084.27 2237.73C1084.27 2238.56 1083.62 2239.11 1082.02 2239.11C1080.83 2239.11 1079.7 2238.69 1079.02 2238.16L1078.51 2239.06C1079.2 2239.65 1080.54 2240.1 1081.94 2240.1ZM1095.14 2240.1C1097.6 2240.1 1099.41 2238.31 1099.41 2235.81C1099.41 2233.32 1097.6 2231.54 1095.14 2231.54C1092.67 2231.54 1090.85 2233.32 1090.85 2235.81C1090.85 2238.31 1092.67 2240.1 1095.14 2240.1ZM1095.14 2239.09C1093.34 2239.09 1092 2237.78 1092 2235.81C1092 2233.84 1093.34 2232.53 1095.14 2232.53C1096.93 2232.53 1098.26 2233.84 1098.26 2235.81C1098.26 2237.78 1096.93 2239.09 1095.14 2239.09ZM1102.82 2233.25V2231.6H1101.73V2240.02H1102.86V2235.73C1102.86 2233.75 1103.94 2232.63 1105.7 2232.63C1105.78 2232.63 1105.87 2232.64 1105.97 2232.64V2231.54C1104.42 2231.54 1103.34 2232.13 1102.82 2233.25ZM1116.62 2231.54C1115.17 2231.54 1114.03 2232.13 1113.42 2233.16V2231.6H1112.34V2240.02H1113.47V2235.6C1113.47 2233.68 1114.61 2232.56 1116.42 2232.56C1118.02 2232.56 1118.94 2233.48 1118.94 2235.25V2240.02H1120.08V2235.14C1120.08 2232.72 1118.67 2231.54 1116.62 2231.54ZM1130.54 2235.81C1130.54 2233.28 1128.83 2231.54 1126.46 2231.54C1124.09 2231.54 1122.35 2233.32 1122.35 2235.81C1122.35 2238.31 1124.14 2240.1 1126.76 2240.1C1128.09 2240.1 1129.26 2239.62 1130.01 2238.72L1129.37 2237.99C1128.73 2238.72 1127.82 2239.09 1126.8 2239.09C1124.96 2239.09 1123.61 2237.92 1123.48 2236.16H1130.52C1130.52 2236.04 1130.54 2235.91 1130.54 2235.81ZM1126.46 2232.52C1128.11 2232.52 1129.31 2233.67 1129.45 2235.32H1123.48C1123.63 2233.67 1124.83 2232.52 1126.46 2232.52ZM1140.2 2235.81C1140.2 2233.28 1138.48 2231.54 1136.12 2231.54C1133.75 2231.54 1132 2233.32 1132 2235.81C1132 2238.31 1133.8 2240.1 1136.42 2240.1C1137.75 2240.1 1138.92 2239.62 1139.67 2238.72L1139.03 2237.99C1138.39 2238.72 1137.48 2239.09 1136.45 2239.09C1134.61 2239.09 1133.27 2237.92 1133.14 2236.16H1140.18C1140.18 2236.04 1140.2 2235.91 1140.2 2235.81ZM1136.12 2232.52C1137.76 2232.52 1138.96 2233.67 1139.11 2235.32H1133.14C1133.28 2233.67 1134.48 2232.52 1136.12 2232.52ZM1149.05 2228.15V2233.2C1148.35 2232.12 1147.2 2231.54 1145.85 2231.54C1143.45 2231.54 1141.66 2233.27 1141.66 2235.81C1141.66 2238.36 1143.45 2240.1 1145.85 2240.1C1147.24 2240.1 1148.41 2239.49 1149.1 2238.36V2240.02H1150.19V2228.15H1149.05ZM1145.95 2239.09C1144.16 2239.09 1142.81 2237.78 1142.81 2235.81C1142.81 2233.84 1144.16 2232.53 1145.95 2232.53C1147.72 2232.53 1149.07 2233.84 1149.07 2235.81C1149.07 2237.78 1147.72 2239.09 1145.95 2239.09ZM1168.04 2231.54C1166.52 2231.54 1165.32 2232.23 1164.71 2233.32C1164.2 2232.13 1163.11 2231.54 1161.72 2231.54C1160.31 2231.54 1159.22 2232.13 1158.63 2233.14V2231.6H1157.54V2240.02H1158.68V2235.6C1158.68 2233.68 1159.78 2232.56 1161.49 2232.56C1163.03 2232.56 1163.92 2233.48 1163.92 2235.25V2240.02H1165.06V2235.6C1165.06 2233.68 1166.15 2232.56 1167.88 2232.56C1169.4 2232.56 1170.29 2233.48 1170.29 2235.25V2240.02H1171.43V2235.14C1171.43 2232.72 1170.08 2231.54 1168.04 2231.54ZM1177.98 2240.1C1180.44 2240.1 1182.25 2238.31 1182.25 2235.81C1182.25 2233.32 1180.44 2231.54 1177.98 2231.54C1175.52 2231.54 1173.69 2233.32 1173.69 2235.81C1173.69 2238.31 1175.52 2240.1 1177.98 2240.1ZM1177.98 2239.09C1176.19 2239.09 1174.84 2237.78 1174.84 2235.81C1174.84 2233.84 1176.19 2232.53 1177.98 2232.53C1179.77 2232.53 1181.1 2233.84 1181.1 2235.81C1181.1 2237.78 1179.77 2239.09 1177.98 2239.09ZM1185.66 2233.25V2231.6H1184.57V2240.02H1185.71V2235.73C1185.71 2233.75 1186.78 2232.63 1188.54 2232.63C1188.62 2232.63 1188.71 2232.64 1188.81 2232.64V2231.54C1187.26 2231.54 1186.19 2232.13 1185.66 2233.25ZM1198.13 2235.81C1198.13 2233.28 1196.42 2231.54 1194.05 2231.54C1191.69 2231.54 1189.94 2233.32 1189.94 2235.81C1189.94 2238.31 1191.73 2240.1 1194.36 2240.1C1195.69 2240.1 1196.85 2239.62 1197.61 2238.72L1196.97 2237.99C1196.33 2238.72 1195.41 2239.09 1194.39 2239.09C1192.55 2239.09 1191.21 2237.92 1191.08 2236.16H1198.12C1198.12 2236.04 1198.13 2235.91 1198.13 2235.81ZM1194.05 2232.52C1195.7 2232.52 1196.9 2233.67 1197.05 2235.32H1191.08C1191.22 2233.67 1192.42 2232.52 1194.05 2232.52ZM1208.12 2240.1C1209.55 2240.1 1210.75 2239.52 1211.42 2238.44L1210.57 2237.86C1209.99 2238.71 1209.1 2239.09 1208.12 2239.09C1206.28 2239.09 1204.94 2237.8 1204.94 2235.81C1204.94 2233.84 1206.28 2232.53 1208.12 2232.53C1209.1 2232.53 1209.99 2232.93 1210.57 2233.78L1211.42 2233.2C1210.75 2232.1 1209.55 2231.54 1208.12 2231.54C1205.61 2231.54 1203.79 2233.3 1203.79 2235.81C1203.79 2238.32 1205.61 2240.1 1208.12 2240.1ZM1216.95 2240.1C1219.41 2240.1 1221.22 2238.31 1221.22 2235.81C1221.22 2233.32 1219.41 2231.54 1216.95 2231.54C1214.48 2231.54 1212.66 2233.32 1212.66 2235.81C1212.66 2238.31 1214.48 2240.1 1216.95 2240.1ZM1216.95 2239.09C1215.16 2239.09 1213.81 2237.78 1213.81 2235.81C1213.81 2233.84 1215.16 2232.53 1216.95 2232.53C1218.74 2232.53 1220.07 2233.84 1220.07 2235.81C1220.07 2237.78 1218.74 2239.09 1216.95 2239.09ZM1227.83 2231.54C1226.37 2231.54 1225.24 2232.13 1224.63 2233.16V2231.6H1223.54V2240.02H1224.68V2235.6C1224.68 2233.68 1225.81 2232.56 1227.62 2232.56C1229.22 2232.56 1230.15 2233.48 1230.15 2235.25V2240.02H1231.28V2235.14C1231.28 2232.72 1229.88 2231.54 1227.83 2231.54ZM1240.16 2231.6L1236.98 2238.77L1233.83 2231.6H1232.64L1236.37 2240.02H1237.54L1241.28 2231.6H1240.16ZM1243.46 2229.76C1243.94 2229.76 1244.29 2229.4 1244.29 2228.93C1244.29 2228.5 1243.92 2228.15 1243.46 2228.15C1243 2228.15 1242.63 2228.52 1242.63 2228.95C1242.63 2229.4 1243 2229.76 1243.46 2229.76ZM1242.88 2240.02H1244.02V2231.6H1242.88V2240.02ZM1251.47 2231.54C1250.01 2231.54 1248.88 2232.13 1248.27 2233.16V2231.6H1247.18V2240.02H1248.32V2235.6C1248.32 2233.68 1249.45 2232.56 1251.26 2232.56C1252.86 2232.56 1253.79 2233.48 1253.79 2235.25V2240.02H1254.92V2235.14C1254.92 2232.72 1253.52 2231.54 1251.47 2231.54ZM1261.53 2240.1C1262.95 2240.1 1264.15 2239.52 1264.82 2238.44L1263.98 2237.86C1263.4 2238.71 1262.5 2239.09 1261.53 2239.09C1259.69 2239.09 1258.34 2237.8 1258.34 2235.81C1258.34 2233.84 1259.69 2232.53 1261.53 2232.53C1262.5 2232.53 1263.4 2232.93 1263.98 2233.78L1264.82 2233.2C1264.15 2232.1 1262.95 2231.54 1261.53 2231.54C1259.02 2231.54 1257.19 2233.3 1257.19 2235.81C1257.19 2238.32 1259.02 2240.1 1261.53 2240.1ZM1267.63 2229.76C1268.11 2229.76 1268.46 2229.4 1268.46 2228.93C1268.46 2228.5 1268.1 2228.15 1267.63 2228.15C1267.17 2228.15 1266.8 2228.52 1266.8 2228.95C1266.8 2229.4 1267.17 2229.76 1267.63 2229.76ZM1267.06 2240.02H1268.19V2231.6H1267.06V2240.02ZM1275.64 2231.54C1274.18 2231.54 1273.05 2232.13 1272.44 2233.16V2231.6H1271.35V2240.02H1272.49V2235.6C1272.49 2233.68 1273.62 2232.56 1275.43 2232.56C1277.03 2232.56 1277.96 2233.48 1277.96 2235.25V2240.02H1279.1V2235.14C1279.1 2232.72 1277.69 2231.54 1275.64 2231.54ZM1288.92 2231.6V2233.22C1288.21 2232.12 1287 2231.54 1285.59 2231.54C1283.19 2231.54 1281.36 2233.19 1281.36 2235.6C1281.36 2238.02 1283.19 2239.7 1285.59 2239.7C1286.96 2239.7 1288.16 2239.14 1288.87 2238.07V2239.14C1288.87 2241.22 1287.89 2242.2 1285.76 2242.2C1284.47 2242.2 1283.25 2241.76 1282.45 2241.04L1281.88 2241.91C1282.76 2242.74 1284.26 2243.2 1285.8 2243.2C1288.58 2243.2 1290 2241.89 1290 2239V2231.6H1288.92ZM1285.7 2238.69C1283.84 2238.69 1282.52 2237.43 1282.52 2235.6C1282.52 2233.78 1283.84 2232.53 1285.7 2232.53C1287.56 2232.53 1288.9 2233.78 1288.9 2235.6C1288.9 2237.43 1287.56 2238.69 1285.7 2238.69ZM1293.31 2238.36C1292.83 2238.36 1292.46 2238.72 1292.46 2239.22C1292.46 2239.64 1292.7 2239.94 1293.04 2240.04L1292.49 2242.36H1293.26L1293.93 2240.15C1294.09 2239.7 1294.16 2239.49 1294.16 2239.22C1294.16 2238.74 1293.8 2238.36 1293.31 2238.36ZM1301.33 2229.76C1301.81 2229.76 1302.17 2229.4 1302.17 2228.93C1302.17 2228.5 1301.8 2228.15 1301.33 2228.15C1300.87 2228.15 1300.5 2228.52 1300.5 2228.95C1300.5 2229.4 1300.87 2229.76 1301.33 2229.76ZM1300.76 2240.02H1301.89V2231.6H1300.76V2240.02ZM1309.34 2231.54C1307.89 2231.54 1306.75 2232.13 1306.14 2233.16V2231.6H1305.06V2240.02H1306.19V2235.6C1306.19 2233.68 1307.33 2232.56 1309.14 2232.56C1310.74 2232.56 1311.66 2233.48 1311.66 2235.25V2240.02H1312.8V2235.14C1312.8 2232.72 1311.39 2231.54 1309.34 2231.54ZM1321.68 2231.6L1318.5 2238.77L1315.34 2231.6H1314.16L1317.89 2240.02H1319.06L1322.8 2231.6H1321.68ZM1324.97 2229.76C1325.45 2229.76 1325.81 2229.4 1325.81 2228.93C1325.81 2228.5 1325.44 2228.15 1324.97 2228.15C1324.51 2228.15 1324.14 2228.52 1324.14 2228.95C1324.14 2229.4 1324.51 2229.76 1324.97 2229.76ZM1324.4 2240.02H1325.53V2231.6H1324.4V2240.02ZM1332.73 2238.69C1332.41 2238.98 1331.94 2239.12 1331.48 2239.12C1330.54 2239.12 1330.02 2238.58 1330.02 2237.59V2232.56H1332.58V2231.6H1330.02V2229.76H1328.89V2231.6H1327.38V2232.56H1328.89V2237.65C1328.89 2239.2 1329.77 2240.1 1331.35 2240.1C1332.01 2240.1 1332.68 2239.91 1333.13 2239.51L1332.73 2238.69ZM1342.24 2235.81C1342.24 2233.28 1340.53 2231.54 1338.16 2231.54C1335.79 2231.54 1334.05 2233.32 1334.05 2235.81C1334.05 2238.31 1335.84 2240.1 1338.47 2240.1C1339.79 2240.1 1340.96 2239.62 1341.71 2238.72L1341.07 2237.99C1340.43 2238.72 1339.52 2239.09 1338.5 2239.09C1336.66 2239.09 1335.31 2237.92 1335.19 2236.16H1342.23C1342.23 2236.04 1342.24 2235.91 1342.24 2235.81ZM1338.16 2232.52C1339.81 2232.52 1341.01 2233.67 1341.15 2235.32H1335.19C1335.33 2233.67 1336.53 2232.52 1338.16 2232.52ZM1355.19 2231.6V2236.02C1355.19 2237.94 1354.09 2239.08 1352.33 2239.08C1350.73 2239.08 1349.8 2238.16 1349.8 2236.37V2231.6H1348.66V2236.48C1348.66 2238.9 1350.07 2240.1 1352.21 2240.1C1353.56 2240.1 1354.65 2239.51 1355.24 2238.48V2240.02H1356.33V2231.6H1355.19ZM1361.76 2240.1C1363.96 2240.1 1365.24 2239.16 1365.24 2237.7C1365.24 2234.47 1359.78 2236.18 1359.78 2233.91C1359.78 2233.11 1360.45 2232.52 1361.97 2232.52C1362.84 2232.52 1363.72 2232.72 1364.45 2233.24L1364.95 2232.32C1364.24 2231.84 1363.06 2231.54 1361.97 2231.54C1359.83 2231.54 1358.64 2232.56 1358.64 2233.94C1358.64 2237.27 1364.1 2235.54 1364.1 2237.73C1364.1 2238.56 1363.44 2239.11 1361.84 2239.11C1360.66 2239.11 1359.52 2238.69 1358.85 2238.16L1358.34 2239.06C1359.03 2239.65 1360.37 2240.1 1361.76 2240.1ZM870.454 2273.69C870.134 2273.98 869.67 2274.12 869.206 2274.12C868.262 2274.12 867.75 2273.58 867.75 2272.59V2267.56H870.31V2266.6H867.75V2264.76H866.614V2266.6H865.11V2267.56H866.614V2272.65C866.614 2274.2 867.494 2275.1 869.078 2275.1C869.734 2275.1 870.406 2274.91 870.854 2274.51L870.454 2273.69ZM876.066 2275.1C878.53 2275.1 880.338 2273.31 880.338 2270.81C880.338 2268.32 878.53 2266.54 876.066 2266.54C873.602 2266.54 871.778 2268.32 871.778 2270.81C871.778 2273.31 873.602 2275.1 876.066 2275.1ZM876.066 2274.09C874.274 2274.09 872.93 2272.78 872.93 2270.81C872.93 2268.84 874.274 2267.53 876.066 2267.53C877.858 2267.53 879.186 2268.84 879.186 2270.81C879.186 2272.78 877.858 2274.09 876.066 2274.09ZM891.18 2266.54C889.788 2266.54 888.62 2267.15 887.932 2268.27V2266.6H886.844V2278.12H887.98V2273.44C888.684 2274.52 889.836 2275.1 891.18 2275.1C893.58 2275.1 895.372 2273.37 895.372 2270.81C895.372 2268.27 893.58 2266.54 891.18 2266.54ZM891.1 2274.09C889.308 2274.09 887.964 2272.78 887.964 2270.81C887.964 2268.86 889.308 2267.53 891.1 2267.53C892.876 2267.53 894.236 2268.86 894.236 2270.81C894.236 2272.78 892.876 2274.09 891.1 2274.09ZM898.264 2264.76C898.744 2264.76 899.096 2264.4 899.096 2263.93C899.096 2263.5 898.728 2263.15 898.264 2263.15C897.8 2263.15 897.432 2263.52 897.432 2263.95C897.432 2264.4 897.8 2264.76 898.264 2264.76ZM897.688 2275.02H898.824V2266.6H897.688V2275.02ZM906.017 2273.69C905.697 2273.98 905.233 2274.12 904.769 2274.12C903.825 2274.12 903.313 2273.58 903.313 2272.59V2267.56H905.873V2266.6H903.313V2264.76H902.177V2266.6H900.673V2267.56H902.177V2272.65C902.177 2274.2 903.057 2275.1 904.641 2275.1C905.297 2275.1 905.969 2274.91 906.417 2274.51L906.017 2273.69ZM911.676 2275.1C913.1 2275.1 914.3 2274.52 914.972 2273.44L914.124 2272.86C913.548 2273.71 912.652 2274.09 911.676 2274.09C909.836 2274.09 908.492 2272.8 908.492 2270.81C908.492 2268.84 909.836 2267.53 911.676 2267.53C912.652 2267.53 913.548 2267.93 914.124 2268.78L914.972 2268.2C914.3 2267.1 913.1 2266.54 911.676 2266.54C909.164 2266.54 907.34 2268.3 907.34 2270.81C907.34 2273.32 909.164 2275.1 911.676 2275.1ZM921.367 2266.54C919.943 2266.54 918.839 2267.1 918.215 2268.08V2263.15H917.079V2275.02H918.215V2270.6C918.215 2268.68 919.351 2267.56 921.159 2267.56C922.759 2267.56 923.687 2268.48 923.687 2270.25V2275.02H924.823V2270.14C924.823 2267.72 923.415 2266.54 921.367 2266.54ZM936.126 2273.69C935.806 2273.98 935.342 2274.12 934.878 2274.12C933.934 2274.12 933.422 2273.58 933.422 2272.59V2267.56H935.982V2266.6H933.422V2264.76H932.286V2266.6H930.782V2267.56H932.286V2272.65C932.286 2274.2 933.166 2275.1 934.75 2275.1C935.406 2275.1 936.078 2274.91 936.526 2274.51L936.126 2273.69ZM941.737 2275.1C944.201 2275.1 946.009 2273.31 946.009 2270.81C946.009 2268.32 944.201 2266.54 941.737 2266.54C939.273 2266.54 937.449 2268.32 937.449 2270.81C937.449 2273.31 939.273 2275.1 941.737 2275.1ZM941.737 2274.09C939.945 2274.09 938.601 2272.78 938.601 2270.81C938.601 2268.84 939.945 2267.53 941.737 2267.53C943.529 2267.53 944.857 2268.84 944.857 2270.81C944.857 2272.78 943.529 2274.09 941.737 2274.09ZM958.468 2266.6L955.3 2273.76L952.132 2266.6H950.948L954.708 2275L954.34 2275.82C953.86 2276.88 953.348 2277.23 952.596 2277.23C951.988 2277.23 951.476 2277 951.06 2276.59L950.532 2277.44C951.044 2277.95 951.796 2278.2 952.58 2278.2C953.78 2278.2 954.676 2277.68 955.38 2276.03L959.588 2266.6H958.468ZM964.394 2275.1C966.858 2275.1 968.666 2273.31 968.666 2270.81C968.666 2268.32 966.858 2266.54 964.394 2266.54C961.93 2266.54 960.106 2268.32 960.106 2270.81C960.106 2273.31 961.93 2275.1 964.394 2275.1ZM964.394 2274.09C962.602 2274.09 961.258 2272.78 961.258 2270.81C961.258 2268.84 962.602 2267.53 964.394 2267.53C966.186 2267.53 967.514 2268.84 967.514 2270.81C967.514 2272.78 966.186 2274.09 964.394 2274.09ZM977.433 2266.6V2271.02C977.433 2272.94 976.329 2274.08 974.569 2274.08C972.969 2274.08 972.041 2273.16 972.041 2271.37V2266.6H970.905V2271.48C970.905 2273.9 972.313 2275.1 974.457 2275.1C975.801 2275.1 976.889 2274.51 977.481 2273.48V2275.02H978.569V2266.6H977.433ZM981.863 2275.1C982.327 2275.1 982.727 2274.72 982.727 2274.22C982.727 2273.72 982.327 2273.36 981.863 2273.36C981.399 2273.36 981.015 2273.72 981.015 2274.22C981.015 2274.72 981.399 2275.1 981.863 2275.1ZM989.073 2275.02H997.281V2272.91H991.665V2263.82H989.073V2275.02ZM1006.92 2270.75C1006.92 2267.98 1004.97 2266.28 1002.44 2266.28C999.818 2266.28 997.85 2268.14 997.85 2270.72C997.85 2273.28 999.786 2275.15 1002.76 2275.15C1004.31 2275.15 1005.51 2274.67 1006.31 2273.76L1004.99 2272.32C1004.39 2272.88 1003.74 2273.15 1002.83 2273.15C1001.51 2273.15 1000.6 2272.49 1000.36 2271.42H1006.87C1006.89 2271.21 1006.92 2270.94 1006.92 2270.75ZM1002.46 2268.17C1003.58 2268.17 1004.39 2268.88 1004.57 2269.96H1000.33C1000.51 2268.86 1001.32 2268.17 1002.46 2268.17ZM1013.46 2272.84C1013.19 2273.05 1012.82 2273.16 1012.46 2273.16C1011.78 2273.16 1011.38 2272.76 1011.38 2272.03V2268.52H1013.53V2266.6H1011.38V2264.51H1008.89V2266.6H1007.56V2268.52H1008.89V2272.06C1008.89 2274.11 1010.07 2275.15 1012.1 2275.15C1012.87 2275.15 1013.62 2274.97 1014.14 2274.6L1013.46 2272.84ZM1026.24 2266.41V2270.67C1026.24 2272.25 1025.41 2272.99 1024.26 2272.99C1023.16 2272.99 1022.52 2272.35 1022.52 2270.91V2266.41H1020.02V2271.28C1020.02 2273.93 1021.54 2275.15 1023.7 2275.15C1024.76 2275.15 1025.72 2274.75 1026.37 2274V2275.02H1028.74V2266.41H1026.24ZM1033.95 2275.15C1036.52 2275.15 1038.01 2274.01 1038.01 2272.41C1038.01 2269.02 1032.81 2270.44 1032.81 2268.97C1032.81 2268.52 1033.29 2268.17 1034.41 2268.17C1035.2 2268.17 1036.04 2268.33 1036.89 2268.81L1037.72 2267.04C1036.91 2266.56 1035.6 2266.28 1034.41 2266.28C1031.9 2266.28 1030.43 2267.44 1030.43 2269.07C1030.43 2272.51 1035.63 2271.07 1035.63 2272.48C1035.63 2272.96 1035.2 2273.26 1034.04 2273.26C1032.99 2273.26 1031.82 2272.92 1031.05 2272.43L1030.22 2274.22C1031.02 2274.75 1032.49 2275.15 1033.95 2275.15ZM1049.11 2263.82H1044.26V2275.02H1046.85V2271.93H1049.11C1052.1 2271.93 1053.97 2270.38 1053.97 2267.88C1053.97 2265.37 1052.1 2263.82 1049.11 2263.82ZM1048.96 2269.82H1046.85V2265.93H1048.96C1050.55 2265.93 1051.35 2266.65 1051.35 2267.88C1051.35 2269.1 1050.55 2269.82 1048.96 2269.82ZM1056.89 2265.21C1057.82 2265.21 1058.45 2264.6 1058.45 2263.77C1058.45 2263 1057.82 2262.43 1056.89 2262.43C1055.97 2262.43 1055.34 2263.04 1055.34 2263.82C1055.34 2264.6 1055.97 2265.21 1056.89 2265.21ZM1055.65 2275.02H1058.14V2266.41H1055.65V2275.02ZM1065.34 2272.84C1065.07 2273.05 1064.7 2273.16 1064.33 2273.16C1063.66 2273.16 1063.26 2272.76 1063.26 2272.03V2268.52H1065.4V2266.6H1063.26V2264.51H1060.76V2266.6H1059.44V2268.52H1060.76V2272.06C1060.76 2274.11 1061.95 2275.15 1063.98 2275.15C1064.75 2275.15 1065.5 2274.97 1066.01 2274.6L1065.34 2272.84ZM1071.31 2275.15C1073.11 2275.15 1074.54 2274.35 1075.16 2272.97L1073.23 2271.92C1072.76 2272.75 1072.07 2273.1 1071.29 2273.1C1070.03 2273.1 1069.03 2272.22 1069.03 2270.72C1069.03 2269.21 1070.03 2268.33 1071.29 2268.33C1072.07 2268.33 1072.76 2268.7 1073.23 2269.52L1075.16 2268.48C1074.54 2267.07 1073.11 2266.28 1071.31 2266.28C1068.51 2266.28 1066.51 2268.12 1066.51 2270.72C1066.51 2273.31 1068.51 2275.15 1071.31 2275.15ZM1081.77 2266.28C1080.67 2266.28 1079.71 2266.64 1079.03 2267.31V2263.15H1076.54V2275.02H1079.03V2270.76C1079.03 2269.18 1079.9 2268.44 1081.1 2268.44C1082.2 2268.44 1082.84 2269.08 1082.84 2270.48V2275.02H1085.34V2270.09C1085.34 2267.47 1083.8 2266.28 1081.77 2266.28ZM1089.22 2271.13H1091.63C1091.63 2269.44 1094.32 2269.15 1094.32 2266.59C1094.32 2264.7 1092.66 2263.63 1090.26 2263.63C1088.1 2263.63 1086.59 2264.46 1085.73 2265.77L1087.66 2266.91C1088.18 2266.17 1088.96 2265.72 1089.98 2265.72C1091.02 2265.72 1091.71 2266.22 1091.71 2267C1091.71 2268.4 1089.22 2268.89 1089.22 2271.13ZM1090.43 2275.15C1091.33 2275.15 1091.97 2274.49 1091.97 2273.69C1091.97 2272.88 1091.33 2272.27 1090.43 2272.27C1089.54 2272.27 1088.9 2272.88 1088.9 2273.69C1088.9 2274.49 1089.54 2275.15 1090.43 2275.15Z" fill="white"/>
<path d="M-95.6709 2034.57C-95.6709 2034.57 214.785 2121.24 458.615 1945.15C702.445 1769.05 942.154 1782.93 1128.83 1811.55C1315.5 1840.17 1701.21 1866.48 2143.35 1599.76C2180.58 1575.85 2582.41 1521.86 2732.02 1545.51C2732.29 1546.11 2732.02 1315.2 2732.02 1315.2H-95.6709V2034.57Z" fill="white"/>
<g filter="url(#filter0_d)">
<rect x="-94" y="2356" width="2142" height="219" fill="#25272E"/>
</g>
<path d="M1267.05 2433.8H1262.68V2445H1264.28V2441.61H1267.05C1269.96 2441.61 1271.72 2440.14 1271.72 2437.7C1271.72 2435.27 1269.96 2433.8 1267.05 2433.8ZM1267 2440.22H1264.28V2435.19H1267C1269.05 2435.19 1270.12 2436.1 1270.12 2437.7C1270.12 2439.3 1269.05 2440.22 1267 2440.22ZM1281.48 2440.81C1281.48 2438.2 1279.74 2436.44 1277.29 2436.44C1274.84 2436.44 1273.03 2438.25 1273.03 2440.76C1273.03 2443.29 1274.86 2445.1 1277.59 2445.1C1279 2445.1 1280.17 2444.62 1280.94 2443.72L1280.09 2442.73C1279.46 2443.42 1278.63 2443.75 1277.64 2443.75C1275.96 2443.75 1274.76 2442.76 1274.57 2441.27H1281.45C1281.46 2441.13 1281.48 2440.94 1281.48 2440.81ZM1277.29 2437.74C1278.78 2437.74 1279.85 2438.74 1280.01 2440.17H1274.57C1274.73 2438.73 1275.82 2437.74 1277.29 2437.74ZM1287.24 2445.1C1289.79 2445.1 1291.64 2443.29 1291.64 2440.76C1291.64 2438.23 1289.79 2436.44 1287.24 2436.44C1284.7 2436.44 1282.83 2438.23 1282.83 2440.76C1282.83 2443.29 1284.7 2445.1 1287.24 2445.1ZM1287.24 2443.75C1285.61 2443.75 1284.38 2442.57 1284.38 2440.76C1284.38 2438.95 1285.61 2437.78 1287.24 2437.78C1288.88 2437.78 1290.09 2438.95 1290.09 2440.76C1290.09 2442.57 1288.88 2443.75 1287.24 2443.75ZM1298.26 2436.44C1297.02 2436.44 1295.93 2436.92 1295.24 2437.86V2436.52H1293.77V2448.1H1295.3V2443.72C1296.01 2444.63 1297.06 2445.1 1298.26 2445.1C1300.74 2445.1 1302.55 2443.37 1302.55 2440.76C1302.55 2438.17 1300.74 2436.44 1298.26 2436.44ZM1298.14 2443.75C1296.52 2443.75 1295.29 2442.57 1295.29 2440.76C1295.29 2438.97 1296.52 2437.78 1298.14 2437.78C1299.77 2437.78 1301 2438.97 1301 2440.76C1301 2442.57 1299.77 2443.75 1298.14 2443.75ZM1304.67 2445H1306.21V2433.13H1304.67V2445ZM1316.81 2440.81C1316.81 2438.2 1315.06 2436.44 1312.62 2436.44C1310.17 2436.44 1308.36 2438.25 1308.36 2440.76C1308.36 2443.29 1310.18 2445.1 1312.92 2445.1C1314.33 2445.1 1315.5 2444.62 1316.26 2443.72L1315.42 2442.73C1314.79 2443.42 1313.96 2443.75 1312.97 2443.75C1311.29 2443.75 1310.09 2442.76 1309.9 2441.27H1316.78C1316.79 2441.13 1316.81 2440.94 1316.81 2440.81ZM1312.62 2437.74C1314.1 2437.74 1315.18 2438.74 1315.34 2440.17H1309.9C1310.06 2438.73 1311.14 2437.74 1312.62 2437.74Z" fill="white"/>
<path d="M1374.69 2445.13C1376.43 2445.13 1377.94 2444.52 1378.96 2443.37L1377.92 2442.36C1377.06 2443.27 1376 2443.7 1374.77 2443.7C1372.24 2443.7 1370.37 2441.88 1370.37 2439.4C1370.37 2436.92 1372.24 2435.1 1374.77 2435.1C1376 2435.1 1377.06 2435.51 1377.92 2436.42L1378.96 2435.42C1377.94 2434.26 1376.43 2433.67 1374.7 2433.67C1371.3 2433.67 1368.77 2436.09 1368.77 2439.4C1368.77 2442.71 1371.3 2445.13 1374.69 2445.13ZM1381.02 2445H1382.55V2433.13H1381.02V2445ZM1386.26 2434.89C1386.86 2434.89 1387.3 2434.44 1387.3 2433.86C1387.3 2433.32 1386.85 2432.89 1386.26 2432.89C1385.66 2432.89 1385.22 2433.34 1385.22 2433.9C1385.22 2434.46 1385.66 2434.89 1386.26 2434.89ZM1385.49 2445H1387.02V2436.52H1385.49V2445ZM1397.62 2440.81C1397.62 2438.2 1395.88 2436.44 1393.43 2436.44C1390.98 2436.44 1389.17 2438.25 1389.17 2440.76C1389.17 2443.29 1391 2445.1 1393.73 2445.1C1395.14 2445.1 1396.31 2444.62 1397.08 2443.72L1396.23 2442.73C1395.6 2443.42 1394.77 2443.75 1393.78 2443.75C1392.1 2443.75 1390.9 2442.76 1390.71 2441.27H1397.59C1397.6 2441.13 1397.62 2440.94 1397.62 2440.81ZM1393.43 2437.74C1394.92 2437.74 1395.99 2438.74 1396.15 2440.17H1390.71C1390.87 2438.73 1391.96 2437.74 1393.43 2437.74ZM1404.28 2436.44C1402.94 2436.44 1401.85 2436.94 1401.22 2437.8V2436.52H1399.75V2445H1401.29V2440.63C1401.29 2438.79 1402.34 2437.82 1403.98 2437.82C1405.43 2437.82 1406.26 2438.63 1406.26 2440.3V2445H1407.8V2440.12C1407.8 2437.62 1406.34 2436.44 1404.28 2436.44ZM1414.93 2443.4C1414.61 2443.66 1414.18 2443.8 1413.73 2443.8C1412.88 2443.8 1412.4 2443.29 1412.4 2442.38V2437.78H1414.84V2436.52H1412.4V2434.66H1410.87V2436.52H1409.43V2437.78H1410.87V2442.44C1410.87 2444.15 1411.84 2445.1 1413.56 2445.1C1414.24 2445.1 1414.95 2444.9 1415.41 2444.5L1414.93 2443.4Z" fill="white"/>
<path d="M1461.81 2433.8L1457.74 2443L1453.71 2433.8H1451.98L1456.91 2445H1458.5L1463.41 2433.8H1461.81ZM1467.06 2436.44C1465.7 2436.44 1464.44 2436.82 1463.56 2437.53L1464.2 2438.68C1464.85 2438.12 1465.88 2437.77 1466.88 2437.77C1468.4 2437.77 1469.16 2438.52 1469.16 2439.82V2440.12H1466.72C1464.2 2440.12 1463.32 2441.24 1463.32 2442.6C1463.32 2444.07 1464.53 2445.1 1466.45 2445.1C1467.78 2445.1 1468.72 2444.65 1469.24 2443.88V2445H1470.69V2439.88C1470.69 2437.56 1469.38 2436.44 1467.06 2436.44ZM1466.71 2443.91C1465.54 2443.91 1464.84 2443.38 1464.84 2442.54C1464.84 2441.82 1465.27 2441.22 1466.79 2441.22H1469.16V2442.41C1468.77 2443.38 1467.86 2443.91 1466.71 2443.91ZM1473.53 2445H1475.07V2433.13H1473.53V2445ZM1484.37 2436.52V2440.9C1484.37 2442.73 1483.35 2443.72 1481.75 2443.72C1480.29 2443.72 1479.46 2442.89 1479.46 2441.22V2436.52H1477.92V2441.4C1477.92 2443.9 1479.38 2445.1 1481.57 2445.1C1482.77 2445.1 1483.83 2444.6 1484.45 2443.72V2445H1485.91V2436.52H1484.37ZM1496.5 2440.81C1496.5 2438.2 1494.75 2436.44 1492.3 2436.44C1489.86 2436.44 1488.05 2438.25 1488.05 2440.76C1488.05 2443.29 1489.87 2445.1 1492.61 2445.1C1494.02 2445.1 1495.18 2444.62 1495.95 2443.72L1495.1 2442.73C1494.48 2443.42 1493.65 2443.75 1492.66 2443.75C1490.98 2443.75 1489.78 2442.76 1489.58 2441.27H1496.46C1496.48 2441.13 1496.5 2440.94 1496.5 2440.81ZM1492.3 2437.74C1493.79 2437.74 1494.86 2438.74 1495.02 2440.17H1489.58C1489.74 2438.73 1490.83 2437.74 1492.3 2437.74ZM1501.06 2445.1C1503.32 2445.1 1504.72 2444.12 1504.72 2442.58C1504.72 2439.29 1499.35 2440.92 1499.35 2438.92C1499.35 2438.25 1500 2437.75 1501.35 2437.75C1502.18 2437.75 1503.03 2437.93 1503.8 2438.42L1504.45 2437.21C1503.72 2436.73 1502.47 2436.44 1501.36 2436.44C1499.19 2436.44 1497.83 2437.46 1497.83 2438.98C1497.83 2442.36 1503.19 2440.71 1503.19 2442.62C1503.19 2443.34 1502.6 2443.77 1501.17 2443.77C1500.07 2443.77 1498.92 2443.4 1498.2 2442.89L1497.56 2444.1C1498.26 2444.66 1499.65 2445.1 1501.06 2445.1Z" fill="white"/>
<path d="M1558.05 2433.8H1553.68V2445H1555.28V2441.61H1558.05C1560.96 2441.61 1562.72 2440.14 1562.72 2437.7C1562.72 2435.27 1560.96 2433.8 1558.05 2433.8ZM1558 2440.22H1555.28V2435.19H1558C1560.05 2435.19 1561.12 2436.1 1561.12 2437.7C1561.12 2439.3 1560.05 2440.22 1558 2440.22ZM1566.18 2437.94V2436.52H1564.71V2445H1566.24V2440.78C1566.24 2438.92 1567.27 2437.91 1568.91 2437.91C1569.03 2437.91 1569.14 2437.91 1569.27 2437.93V2436.44C1567.78 2436.44 1566.72 2436.95 1566.18 2437.94ZM1574.71 2445.1C1577.26 2445.1 1579.11 2443.29 1579.11 2440.76C1579.11 2438.23 1577.26 2436.44 1574.71 2436.44C1572.17 2436.44 1570.3 2438.23 1570.3 2440.76C1570.3 2443.29 1572.17 2445.1 1574.71 2445.1ZM1574.71 2443.75C1573.08 2443.75 1571.85 2442.57 1571.85 2440.76C1571.85 2438.95 1573.08 2437.78 1574.71 2437.78C1576.35 2437.78 1577.56 2438.95 1577.56 2440.76C1577.56 2442.57 1576.35 2443.75 1574.71 2443.75ZM1584.93 2445.1C1586.45 2445.1 1587.72 2444.46 1588.39 2443.27L1587.22 2442.54C1586.68 2443.37 1585.85 2443.75 1584.92 2443.75C1583.25 2443.75 1582.01 2442.6 1582.01 2440.76C1582.01 2438.95 1583.25 2437.78 1584.92 2437.78C1585.85 2437.78 1586.68 2438.17 1587.22 2439L1588.39 2438.25C1587.72 2437.06 1586.45 2436.44 1584.93 2436.44C1582.33 2436.44 1580.45 2438.23 1580.45 2440.76C1580.45 2443.29 1582.33 2445.1 1584.93 2445.1ZM1597.92 2440.81C1597.92 2438.2 1596.17 2436.44 1593.72 2436.44C1591.28 2436.44 1589.47 2438.25 1589.47 2440.76C1589.47 2443.29 1591.29 2445.1 1594.03 2445.1C1595.44 2445.1 1596.6 2444.62 1597.37 2443.72L1596.52 2442.73C1595.9 2443.42 1595.07 2443.75 1594.08 2443.75C1592.4 2443.75 1591.2 2442.76 1591 2441.27H1597.88C1597.9 2441.13 1597.92 2440.94 1597.92 2440.81ZM1593.72 2437.74C1595.21 2437.74 1596.28 2438.74 1596.44 2440.17H1591C1591.16 2438.73 1592.25 2437.74 1593.72 2437.74ZM1602.48 2445.1C1604.74 2445.1 1606.15 2444.12 1606.15 2442.58C1606.15 2439.29 1600.77 2440.92 1600.77 2438.92C1600.77 2438.25 1601.43 2437.75 1602.77 2437.75C1603.6 2437.75 1604.45 2437.93 1605.22 2438.42L1605.87 2437.21C1605.14 2436.73 1603.89 2436.44 1602.79 2436.44C1600.61 2436.44 1599.25 2437.46 1599.25 2438.98C1599.25 2442.36 1604.61 2440.71 1604.61 2442.62C1604.61 2443.34 1604.02 2443.77 1602.59 2443.77C1601.49 2443.77 1600.34 2443.4 1599.62 2442.89L1598.98 2444.1C1599.68 2444.66 1601.07 2445.1 1602.48 2445.1ZM1610.5 2445.1C1612.75 2445.1 1614.16 2444.12 1614.16 2442.58C1614.16 2439.29 1608.79 2440.92 1608.79 2438.92C1608.79 2438.25 1609.44 2437.75 1610.79 2437.75C1611.62 2437.75 1612.47 2437.93 1613.23 2438.42L1613.89 2437.21C1613.15 2436.73 1611.91 2436.44 1610.8 2436.44C1608.63 2436.44 1607.27 2437.46 1607.27 2438.98C1607.27 2442.36 1612.63 2440.71 1612.63 2442.62C1612.63 2443.34 1612.03 2443.77 1610.61 2443.77C1609.51 2443.77 1608.35 2443.4 1607.63 2442.89L1606.99 2444.1C1607.7 2444.66 1609.09 2445.1 1610.5 2445.1Z" fill="white"/>
<path d="M1668.9 2445H1670.49V2435.19H1674.33V2433.8H1665.06V2435.19H1668.9V2445ZM1678.6 2445.1C1681.15 2445.1 1683 2443.29 1683 2440.76C1683 2438.23 1681.15 2436.44 1678.6 2436.44C1676.06 2436.44 1674.19 2438.23 1674.19 2440.76C1674.19 2443.29 1676.06 2445.1 1678.6 2445.1ZM1678.6 2443.75C1676.97 2443.75 1675.74 2442.57 1675.74 2440.76C1675.74 2438.95 1676.97 2437.78 1678.6 2437.78C1680.24 2437.78 1681.45 2438.95 1681.45 2440.76C1681.45 2442.57 1680.24 2443.75 1678.6 2443.75ZM1688.76 2445.1C1691.3 2445.1 1693.16 2443.29 1693.16 2440.76C1693.16 2438.23 1691.3 2436.44 1688.76 2436.44C1686.22 2436.44 1684.34 2438.23 1684.34 2440.76C1684.34 2443.29 1686.22 2445.1 1688.76 2445.1ZM1688.76 2443.75C1687.13 2443.75 1685.9 2442.57 1685.9 2440.76C1685.9 2438.95 1687.13 2437.78 1688.76 2437.78C1690.39 2437.78 1691.61 2438.95 1691.61 2440.76C1691.61 2442.57 1690.39 2443.75 1688.76 2443.75ZM1695.28 2445H1696.82V2433.13H1695.28V2445Z" fill="white"/>
<defs>
<filter id="filter0_d" x="-98" y="2356" width="2150" height="227" filterUnits="userSpaceOnUse" color-interpolation-filters="sRGB">
<feFlood flood-opacity="0" result="BackgroundImageFix"/>
<feColorMatrix in="SourceAlpha" type="matrix" values="0 0 0 0 0 0 0 0 0 0 0 0 0 0 0 0 0 0 127 0"/>
<feOffset dy="4"/>
<feGaussianBlur stdDeviation="2"/>
<feColorMatrix type="matrix" values="0 0 0 0 0 0 0 0 0 0 0 0 0 0 0 0 0 0 0.25 0"/>
<feBlend mode="normal" in2="BackgroundImageFix" result="effect1_dropShadow"/>
<feBlend mode="normal" in="SourceGraphic" in2="effect1_dropShadow" result="shape"/>
</filter>
<linearGradient id="paint0_linear" x1="-2642.55" y1="1289.82" x2="2379.54" y2="3640.86" gradientUnits="userSpaceOnUse">
<stop stop-color="#D623E9"/>
<stop offset="1" stop-color="#7021E9"/>
</linearGradient>
</defs>
</svg>
