<svg xmlns="http://www.w3.org/2000/svg" fill="none" viewBox="0 0 1920 980">
  <defs>
    <linearGradient id="a" x1="-.96" x2="1.077" y1="-.042" y2=".811">
      <stop stop-color="#D623E9"/>
      <stop offset="1" stop-color="#7021E9"/>
    </linearGradient>
  </defs>
  <!-- <g class="currentLayer"> -->
    <path fill="url(#a)" d="M2207.803-71.99H-257.51v2754.62h2465.313V-71.99z"/>
    <path fill="#fff" fill-opacity=".24" d="M-341.666-103.34l6.57 796.33c191.708-1.59 361.905 70.75 502.122 84.34 140.217 13.59 265.565 12.56 669.704-160.38 404.143-172.93 994.073-170.42 1252.323-150.43 206.6 15.99 822.9-63.32 1105.22-104.98l-4.07-494.02-3531.869 29.14z" opacity=".3"/>
    <path fill="#fff" d="M-1036.667 843.07s291.245-14.76 520.748 68.91c229.503 83.68 920.067-230.84 964.546-244.93 44.48-14.1 345.948-91.16 719.306-71.83 373.36 19.33 1296.67-65.07 1381.75-102.04-2.67-.99 0-499.62 0-499.62h-3586.35v849.51z" opacity=".3"/>
    <path fill="#fff" d="M-87.337 637.07s310.455 86.67 554.285-89.42c243.83-176.1 483.54-162.22 670.215-133.6 186.67 28.62 572.38 54.93 1014.52-211.79 37.23-23.91 439.06-77.9 588.67-54.25.27.6 0-230.31 0-230.31H-87.337v719.37z"/>
  <!-- </g> -->
</svg>