<svg xmlns="http://www.w3.org/2000/svg" width="1920" height="980" fill="none" style=""><rect id="backgroundrect" width="100%" height="100%" x="0" y="0" fill="none" stroke="none" class="" style=""/><defs><linearGradient id="paint0_linear" x1="-0.9600026607513428" y1="-0.04199855774641037" x2="1.077097773551941" y2="0.8114913105964661"><stop stop-color="#D623E9"/><stop offset="1" stop-color="#7021E9"/></linearGradient><filter id="filter0_d" x="-98" y="2356" width="2150" height="227" filterUnits="userSpaceOnUse" color-interpolation-filters="sRGB"><feFlood flood-opacity="0" result="BackgroundImageFix"/><feColorMatrix in="SourceAlpha" values="0 0 0 0 0 0 0 0 0 0 0 0 0 0 0 0 0 0 127 0"/><feOffset dy="4"/><feGaussianBlur stdDeviation="2"/><feColorMatrix values="0 0 0 0 0 0 0 0 0 0 0 0 0 0 0 0 0 0 0.25 0"/><feBlend in2="BackgroundImageFix" result="effect1_dropShadow"/><feBlend in="SourceGraphic" in2="effect1_dropShadow" result="shape"/></filter></defs><g class="currentLayer" style=""><title>Layer 1</title><path d="M2207.8033280086515,-71.98993658065797 H-257.5096719913483 v2754.62 H2207.8033280086515 V-71.98993658065797 z" fill="url(#paint0_linear)" id="svg_1" class=""/><g opacity=".299" id="svg_2" class=""><g opacity=".8" id="svg_3"/></g><path opacity=".3" d="M-341.6656717529297,-103.33993896484367 l6.57,796.33 c191.708,-1.59 361.905,70.75 502.122,84.34 c140.217,13.59 265.565,12.56 669.704,-160.38 c404.143,-172.93 994.073,-170.42 1252.323,-150.43 c206.6,15.99 822.9,-63.32 1105.22,-104.98 l-4.07,-494.02 l-3531.869,29.14 z" fill="#fff" fill-opacity=".24" id="svg_4" class=""/><path opacity=".3" d="M-1036.6666717529297,843.0700610351564 s291.245,-14.76 520.748,68.91 c229.503,83.68 920.067,-230.84 964.546,-244.93 c44.48,-14.1 345.948,-91.16 719.306,-71.83 c373.36,19.33 1296.67,-65.07 1381.75,-102.04 c-2.67,-0.99 0,-499.62 0,-499.62 H-1036.6666717529297 v849.51 z" fill="#fff" id="svg_5" class=""/><path d="M-87.3366717529297,637.0700610351562 s310.455,86.67 554.285,-89.42 c243.83,-176.1 483.539,-162.22 670.215,-133.6 c186.67,28.62 572.38,54.93 1014.52,-211.79 c37.23,-23.91 439.06,-77.9 588.67,-54.25 c0.27,0.6000000000000003 0,-230.31 0,-230.31 H-87.3366717529297 v719.37 z" fill="#fff" id="svg_6" class=""/></g></svg>