<svg xmlns="http://www.w3.org/2000/svg" width="1920" height="2575" viewBox="0 0 1920 2575" fill="none">
<path d="M2189.47 1405.51H-275.843V4160.13H2189.47V1405.51Z" fill="url(#paint0_linear)"/>
<g opacity="0.299">
<g opacity="0.299">
<g opacity="0.299">
<g opacity="0.299">
<g opacity="0.3">
<path opacity="0.3" d="M2139.11 2051.27L2139.07 2051.31L1956.51 2239.57C1956.35 2239.74 1956.17 2239.8 1955.99 2239.74C1955.81 2239.69 1955.65 2239.52 1955.52 2239.27C1955.4 2239.02 1955.31 2238.69 1955.28 2238.33C1955.26 2237.98 1955.29 2237.62 1955.37 2237.3L2042.95 1903.26C2043.01 1903.04 2043.09 1902.85 2043.19 1902.7C2043.29 1902.55 2043.41 1902.45 2043.53 1902.39C2043.65 1902.34 2043.77 1902.34 2043.9 1902.39C2044.02 1902.45 2044.13 1902.55 2044.23 1902.7L2139.2 2048.48C2139.32 2048.65 2139.4 2048.87 2139.46 2049.12C2139.52 2049.37 2139.54 2049.65 2139.53 2049.93C2139.53 2050.2 2139.48 2050.47 2139.41 2050.71C2139.33 2050.94 2139.23 2051.14 2139.11 2051.28L2139.11 2051.27ZM1958.12 2234.13L2137.11 2049.54L2043.99 1906.62L1958.12 2234.13Z" fill="white"/>
</g>
<g opacity="0.3">
<path opacity="0.3" d="M1960.44 2656.72C1960.31 2656.87 1960.17 2656.94 1960.02 2656.94C1959.87 2656.95 1959.73 2656.87 1959.6 2656.73C1959.47 2656.58 1959.36 2656.38 1959.28 2656.12C1959.21 2655.87 1959.17 2655.59 1959.16 2655.29L1955.48 2238.2C1955.48 2237.89 1955.52 2237.59 1955.6 2237.32C1955.68 2237.05 1955.79 2236.83 1955.93 2236.68C1956.07 2236.53 1956.23 2236.46 1956.38 2236.48C1956.54 2236.5 1956.69 2236.61 1956.82 2236.79L2067.2 2390.6C2067.29 2390.73 2067.37 2390.9 2067.44 2391.1C2067.5 2391.3 2067.54 2391.52 2067.55 2391.75C2067.57 2391.97 2067.56 2392.21 2067.53 2392.43C2067.5 2392.65 2067.44 2392.86 2067.37 2393.04L1960.67 2656.3C1960.61 2656.47 1960.53 2656.61 1960.44 2656.72ZM1957.21 2241.44L1960.82 2650.55L2065.48 2392.34L1957.21 2241.44Z" fill="white"/>
</g>
<g opacity="0.3">
<path opacity="0.3" d="M1960.54 2656.39C1960.4 2656.54 1960.25 2656.62 1960.09 2656.61L1670.39 2643.95C1670.21 2643.95 1670.03 2643.83 1669.89 2643.62C1669.75 2643.4 1669.64 2643.11 1669.59 2642.77C1669.54 2642.43 1669.54 2642.06 1669.6 2641.73C1669.66 2641.39 1669.77 2641.1 1669.91 2640.9L1955.94 2236.68C1956.06 2236.5 1956.21 2236.39 1956.37 2236.37C1956.52 2236.34 1956.68 2236.41 1956.81 2236.55C1956.95 2236.69 1957.07 2236.9 1957.15 2237.16C1957.23 2237.42 1957.28 2237.72 1957.28 2238.03L1960.96 2654.89C1960.97 2655.12 1960.94 2655.35 1960.9 2655.56C1960.86 2655.77 1960.79 2655.96 1960.71 2656.13C1960.66 2656.23 1960.6 2656.32 1960.54 2656.39ZM1672.98 2640.69L1959.25 2653.19L1955.61 2241.27L1672.98 2640.69Z" fill="white"/>
</g>
<g opacity="0.3">
<path opacity="0.3" d="M1921.14 2845.7C1921.02 2845.83 1920.9 2845.91 1920.77 2845.92C1920.64 2845.94 1920.51 2845.9 1920.39 2845.81L1670.12 2643.87C1669.94 2643.72 1669.79 2643.45 1669.69 2643.1C1669.6 2642.75 1669.57 2642.35 1669.61 2641.97C1669.65 2641.58 1669.76 2641.23 1669.92 2640.99C1670.07 2640.74 1670.27 2640.61 1670.46 2640.62L1960.25 2653.27C1960.39 2653.27 1960.53 2653.34 1960.65 2653.48C1960.77 2653.61 1960.87 2653.8 1960.95 2654.03C1961.02 2654.26 1961.07 2654.52 1961.08 2654.79C1961.09 2655.06 1961.07 2655.34 1961.02 2655.59L1921.5 2844.88C1921.43 2845.22 1921.3 2845.51 1921.14 2845.7ZM1675.05 2644.2L1920.25 2842.04L1958.97 2656.59L1675.05 2644.2Z" fill="white"/>
</g>
<g opacity="0.3">
<path opacity="0.3" d="M1670.6 2643.34C1670.5 2643.45 1670.39 2643.53 1670.28 2643.55C1670.08 2643.6 1669.89 2643.52 1669.72 2643.31C1669.55 2643.11 1669.43 2642.79 1669.37 2642.42L1550.81 1944.71C1550.74 1944.29 1550.75 1943.84 1550.85 1943.44C1550.94 1943.04 1551.11 1942.73 1551.32 1942.58L1699.82 1831.95C1699.95 1831.85 1700.1 1831.82 1700.24 1831.86C1700.38 1831.9 1700.51 1832.01 1700.63 1832.18C1700.74 1832.35 1700.83 1832.57 1700.89 1832.83C1700.95 1833.09 1700.98 1833.37 1700.97 1833.65L1671.02 2642C1671.01 2642.27 1670.97 2642.54 1670.89 2642.78C1670.82 2643.01 1670.72 2643.2 1670.6 2643.34ZM1552.69 1945.17L1669.63 2633.42L1699.17 1836.04L1552.69 1945.17Z" fill="white"/>
</g>
<g opacity="0.3">
<path opacity="0.3" d="M1670.56 2643.34C1670.42 2643.49 1670.27 2643.57 1670.12 2643.56C1669.96 2643.56 1669.81 2643.47 1669.68 2643.31C1669.55 2643.15 1669.44 2642.92 1669.37 2642.64C1669.3 2642.37 1669.27 2642.06 1669.29 2641.76L1699.22 1833.66C1699.23 1833.36 1699.29 1833.06 1699.37 1832.81C1699.46 1832.56 1699.59 1832.36 1699.73 1832.24C1699.87 1832.11 1700.02 1832.07 1700.18 1832.11C1700.33 1832.15 1700.48 1832.27 1700.6 1832.46L1956.79 2236.16C1956.89 2236.32 1956.97 2236.53 1957.03 2236.77C1957.08 2237.01 1957.11 2237.26 1957.11 2237.53C1957.1 2237.79 1957.07 2238.04 1957.01 2238.27C1956.95 2238.5 1956.86 2238.7 1956.75 2238.85L1670.62 2643.25C1670.6 2643.28 1670.58 2643.31 1670.56 2643.34ZM1700.8 1837.09L1671.12 2638.42L1954.85 2237.41L1700.8 1837.09Z" fill="white"/>
</g>
<g opacity="0.3">
<path opacity="0.3" d="M1700.25 1834.81C1700.09 1835 1699.89 1835.07 1699.7 1835.02L1505.6 1776.51C1505.42 1776.45 1505.25 1776.28 1505.12 1776.01C1504.99 1775.75 1504.91 1775.41 1504.89 1775.04C1504.87 1774.68 1504.9 1774.31 1505 1773.99C1505.09 1773.67 1505.24 1773.42 1505.41 1773.28L1701.4 1610.84C1701.53 1610.73 1701.67 1610.69 1701.81 1610.72C1701.95 1610.75 1702.09 1610.84 1702.2 1611C1702.32 1611.16 1702.42 1611.37 1702.48 1611.62C1702.54 1611.86 1702.58 1612.14 1702.57 1612.42L1700.68 1833.37C1700.68 1833.61 1700.65 1833.85 1700.6 1834.07C1700.54 1834.29 1700.47 1834.48 1700.38 1834.64C1700.34 1834.7 1700.3 1834.76 1700.25 1834.81ZM1508.86 1774.07L1699 1831.38L1700.85 1614.95L1508.86 1774.07Z" fill="white"/>
</g>
<g opacity="0.3">
<path opacity="0.3" d="M1700.29 1834.77C1700.25 1834.82 1700.21 1834.86 1700.16 1834.89L1551.73 1945.47C1551.54 1945.62 1551.33 1945.62 1551.13 1945.47C1550.94 1945.33 1550.78 1945.05 1550.69 1944.69L1504.99 1775.59C1504.91 1775.32 1504.88 1775.01 1504.89 1774.69C1504.9 1774.38 1504.95 1774.08 1505.04 1773.82C1505.13 1773.56 1505.26 1773.36 1505.4 1773.24C1505.55 1773.11 1505.71 1773.07 1505.87 1773.12L1699.82 1831.58C1699.98 1831.55 1700.14 1831.61 1700.29 1831.76C1700.44 1831.9 1700.56 1832.13 1700.64 1832.41C1700.7 1832.6 1700.74 1832.82 1700.75 1833.04C1700.77 1833.27 1700.76 1833.5 1700.73 1833.72C1700.7 1833.93 1700.65 1834.14 1700.57 1834.31C1700.5 1834.49 1700.41 1834.63 1700.31 1834.74L1700.29 1834.77ZM1551.84 1941.79L1696.51 1834L1507.29 1776.97L1551.84 1941.79Z" fill="white"/>
</g>
<g opacity="0.3">
<path opacity="0.3" d="M1846.15 1783.15C1846.06 1783.25 1845.97 1783.32 1845.88 1783.35L1699.92 1835.32C1699.8 1835.36 1699.68 1835.35 1699.55 1835.28C1699.43 1835.22 1699.32 1835.1 1699.23 1834.94C1699.13 1834.78 1699.05 1834.58 1699 1834.35C1698.95 1834.12 1698.93 1833.88 1698.93 1833.63L1700.82 1612.6C1700.83 1612.3 1700.87 1612.01 1700.95 1611.76C1701.02 1611.51 1701.13 1611.3 1701.26 1611.15C1701.39 1611 1701.54 1610.93 1701.68 1610.93C1701.83 1610.94 1701.98 1611.02 1702.11 1611.17L1846.16 1780.23C1846.29 1780.38 1846.39 1780.6 1846.47 1780.85C1846.54 1781.11 1846.58 1781.4 1846.58 1781.7C1846.58 1781.99 1846.54 1782.28 1846.46 1782.54C1846.39 1782.79 1846.28 1783 1846.15 1783.15ZM1700.64 1831.64L1843.32 1780.83L1702.5 1615.55L1700.64 1831.64Z" fill="white"/>
</g>
<g opacity="0.3">
<path opacity="0.3" d="M2043.95 1905.21C2043.85 1905.32 2043.74 1905.4 2043.62 1905.42C2043.51 1905.45 2043.39 1905.43 2043.28 1905.36L1845.44 1783.88C1845.29 1783.79 1845.16 1783.62 1845.06 1783.39C1844.95 1783.16 1844.89 1782.88 1844.86 1782.58C1844.83 1782.28 1844.84 1781.97 1844.9 1781.69C1844.95 1781.4 1845.04 1781.15 1845.16 1780.96L2044.19 1466.89C2044.31 1466.69 2044.47 1466.57 2044.63 1466.53C2044.78 1466.49 2044.95 1466.55 2045.09 1466.69C2045.23 1466.83 2045.36 1467.04 2045.44 1467.31C2045.53 1467.58 2045.57 1467.89 2045.57 1468.21L2044.38 1903.75C2044.38 1904.02 2044.34 1904.28 2044.28 1904.51C2044.22 1904.75 2044.13 1904.95 2044.03 1905.11C2044 1905.14 2043.98 1905.18 2043.95 1905.21ZM1847.48 1781.6L2042.68 1901.46L2043.86 1471.71L1847.48 1781.6Z" fill="white"/>
</g>
<g opacity="0.3">
<path opacity="0.3" d="M1956.46 2239.51C1956.36 2239.63 1956.25 2239.7 1956.13 2239.73C1956.02 2239.76 1955.9 2239.74 1955.79 2239.67C1955.67 2239.6 1955.57 2239.49 1955.48 2239.33C1955.39 2239.18 1955.32 2239 1955.27 2238.79L1844.98 1782.96C1844.91 1782.67 1844.88 1782.34 1844.91 1782.01C1844.93 1781.68 1845 1781.38 1845.11 1781.13C1845.22 1780.88 1845.36 1780.7 1845.52 1780.61C1845.68 1780.52 1845.84 1780.52 1846 1780.62L2043.94 1902.15C2044.06 1902.23 2044.17 1902.35 2044.26 1902.52C2044.35 1902.68 2044.42 1902.89 2044.47 1903.11C2044.52 1903.34 2044.54 1903.59 2044.54 1903.84C2044.53 1904.08 2044.5 1904.32 2044.44 1904.54L1956.79 2238.82C1956.72 2239.11 1956.6 2239.35 1956.46 2239.51ZM1847.37 1785L1956.07 2234.28L2042.46 1904.79L1847.37 1785Z" fill="white"/>
</g>
<g opacity="0.3">
<path opacity="0.3" d="M1956.63 2239.24C1956.48 2239.41 1956.31 2239.49 1956.14 2239.47C1955.97 2239.44 1955.81 2239.32 1955.67 2239.11L1699.34 1835.2C1699.21 1835 1699.11 1834.73 1699.06 1834.42C1699.01 1834.11 1699 1833.78 1699.04 1833.47C1699.08 1833.15 1699.17 1832.87 1699.29 1832.64C1699.41 1832.42 1699.56 1832.27 1699.72 1832.21L1845.74 1780.23C1845.92 1780.17 1846.11 1780.22 1846.28 1780.39C1846.44 1780.56 1846.58 1780.83 1846.66 1781.16L1956.98 2237.06C1957.06 2237.4 1957.08 2237.79 1957.04 2238.17C1956.99 2238.54 1956.89 2238.87 1956.74 2239.11C1956.7 2239.16 1956.67 2239.2 1956.63 2239.24ZM1701.87 1834.88L1953.83 2231.89L1845.4 1783.79L1701.87 1834.88Z" fill="white"/>
</g>
</g>
<g opacity="0.8">
<g opacity="0.8">
<path opacity="0.8" d="M1690.83 2423.02C1691 2422.82 1691.2 2422.71 1691.4 2422.72C1691.6 2422.72 1691.8 2422.83 1691.97 2423.03C1692.14 2423.24 1692.28 2423.53 1692.37 2423.88C1692.47 2424.23 1692.51 2424.62 1692.5 2425.02L1686.56 2731.41C1686.55 2731.97 1686.43 2732.51 1686.23 2732.91C1686.02 2733.31 1685.75 2733.54 1685.46 2733.55L1624.7 2735.8C1624.51 2735.81 1624.33 2735.72 1624.16 2735.55C1624 2735.38 1623.86 2735.13 1623.75 2734.82C1623.65 2734.52 1623.59 2734.16 1623.57 2733.79C1623.55 2733.43 1623.58 2733.05 1623.66 2732.71L1690.36 2424.05C1690.46 2423.62 1690.62 2423.26 1690.83 2423.02ZM1684.36 2729.15L1690.04 2436.8L1626.38 2731.32L1684.36 2729.15Z" fill="white"/>
</g>
<g opacity="0.8">
<path opacity="0.8" d="M1553.51 2286.32C1553.67 2286.14 1553.85 2286.03 1554.04 2286.02C1554.22 2286.01 1554.41 2286.09 1554.57 2286.26L1691.84 2422.79C1692.1 2423.05 1692.29 2423.48 1692.39 2424.02C1692.49 2424.55 1692.48 2425.13 1692.37 2425.65L1625.64 2734.42C1625.55 2734.84 1625.4 2735.19 1625.2 2735.43C1625.01 2735.67 1624.78 2735.79 1624.55 2735.76C1624.33 2735.74 1624.11 2735.58 1623.93 2735.31C1623.75 2735.03 1623.61 2734.65 1623.54 2734.22L1553 2288.92C1552.94 2288.5 1552.94 2288.06 1553 2287.64C1553.06 2287.22 1553.18 2286.84 1553.35 2286.56C1553.4 2286.47 1553.45 2286.39 1553.51 2286.32ZM1689.9 2425.83L1555.93 2292.57L1624.78 2727.17L1689.9 2425.83Z" fill="white"/>
</g>
<g opacity="0.8">
<path opacity="0.8" d="M1553.69 2286.14C1553.84 2285.97 1554 2285.87 1554.17 2285.84C1554.33 2285.82 1554.5 2285.87 1554.66 2285.99C1554.81 2286.11 1554.95 2286.29 1555.07 2286.54C1555.18 2286.78 1555.27 2287.07 1555.32 2287.39L1625.81 2732.39C1625.89 2732.88 1625.88 2733.42 1625.78 2733.9C1625.68 2734.38 1625.5 2734.78 1625.27 2735.01L1330.56 3047.61C1330.34 3047.84 1330.1 3047.92 1329.86 3047.85C1329.62 3047.77 1329.39 3047.54 1329.23 3047.19C1329.06 3046.84 1328.95 3046.4 1328.92 3045.92C1328.9 3045.44 1328.95 3044.95 1329.07 3044.53L1553.29 2286.94C1553.38 2286.61 1553.52 2286.33 1553.69 2286.14ZM1623.4 2731.97L1553.94 2293.48L1333.01 3039.99L1623.4 2731.97Z" fill="white"/>
</g>
<g opacity="0.8">
<path opacity="0.8" d="M1553.7 2286.14C1553.91 2285.89 1554.16 2285.79 1554.41 2285.86C1554.65 2285.92 1554.88 2286.14 1555.05 2286.49C1555.22 2286.84 1555.34 2287.29 1555.37 2287.78C1555.4 2288.26 1555.35 2288.76 1555.22 2289.18L1331.06 3046.54C1330.95 3046.93 1330.77 3047.24 1330.57 3047.43C1330.36 3047.62 1330.13 3047.68 1329.91 3047.6L1094.3 2966.71C1094.08 2966.63 1093.88 2966.44 1093.73 2966.14C1093.57 2965.84 1093.45 2965.46 1093.4 2965.04C1093.35 2964.61 1093.37 2964.17 1093.44 2963.76C1093.52 2963.36 1093.65 2963 1093.83 2962.74L1553.6 2286.28C1553.63 2286.23 1553.66 2286.18 1553.7 2286.14ZM1329.52 3042.98L1550.51 2296.32L1097.24 2963.22L1329.52 3042.98Z" fill="white"/>
</g>
<g opacity="0.8">
<path opacity="0.8" d="M936.854 2414.88C936.99 2414.72 937.142 2414.63 937.299 2414.6L1553.96 2285.23C1554.21 2285.18 1554.45 2285.29 1554.66 2285.54C1554.87 2285.79 1555.03 2286.17 1555.12 2286.63C1555.21 2287.08 1555.22 2287.58 1555.15 2288.04C1555.08 2288.51 1554.94 2288.92 1554.74 2289.21L1094.89 2965.86C1094.76 2966.05 1094.62 2966.18 1094.46 2966.24C1094.31 2966.31 1094.15 2966.31 1093.99 2966.25C1093.84 2966.18 1093.69 2966.06 1093.56 2965.87C1093.44 2965.69 1093.33 2965.45 1093.25 2965.18L936.442 2417.9C936.297 2417.39 936.259 2416.79 936.336 2416.22C936.413 2415.66 936.6 2415.17 936.855 2414.88L936.854 2414.88ZM1550.12 2290.49L939.229 2418.65L1094.57 2960.8L1550.12 2290.49Z" fill="white"/>
</g>
<g opacity="0.8">
<path opacity="0.8" d="M1553.45 2286.31C1553.53 2286.22 1553.61 2286.16 1553.69 2286.11L1587.66 2266.14C1587.83 2266.04 1588 2266.02 1588.18 2266.08C1588.35 2266.14 1588.51 2266.29 1588.65 2266.5L1691.95 2423C1692.17 2423.33 1692.32 2423.82 1692.37 2424.36C1692.41 2424.91 1692.36 2425.47 1692.21 2425.94C1692.06 2426.4 1691.83 2426.75 1691.57 2426.9C1691.3 2427.05 1691.01 2427 1690.76 2426.75L1553.5 2290.22C1553.32 2290.04 1553.17 2289.77 1553.06 2289.43C1552.95 2289.09 1552.89 2288.7 1552.89 2288.3C1552.88 2287.9 1552.93 2287.5 1553.03 2287.16C1553.13 2286.81 1553.27 2286.51 1553.45 2286.31L1553.45 2286.31ZM1587.75 2270.7L1557.05 2288.76L1681.13 2412.18L1587.75 2270.7Z" fill="white"/>
</g>
<g opacity="0.8">
<path opacity="0.8" d="M887.227 2368.75C887.383 2368.57 887.557 2368.47 887.736 2368.45C887.915 2368.44 888.093 2368.5 888.256 2368.65L937.881 2413.93C938.094 2414.13 938.27 2414.45 938.385 2414.85C938.5 2415.26 938.548 2415.73 938.522 2416.19C938.496 2416.65 938.397 2417.09 938.24 2417.43C938.083 2417.78 937.875 2418.02 937.646 2418.12L904.311 2432.53C904.075 2432.62 903.829 2432.57 903.61 2432.37C903.391 2432.17 903.211 2431.83 903.097 2431.41L886.802 2371.73C886.691 2371.32 886.648 2370.85 886.679 2370.39C886.709 2369.92 886.812 2369.49 886.972 2369.15C887.047 2368.99 887.133 2368.86 887.227 2368.75ZM933.906 2415.2L890.371 2375.47L904.662 2427.84L933.906 2415.2Z" fill="white"/>
</g>
<g opacity="0.8">
<path opacity="0.8" d="M903.566 2428.5C903.667 2428.38 903.777 2428.3 903.892 2428.25L937.254 2413.84C937.519 2413.73 937.795 2413.81 938.032 2414.07C938.268 2414.33 938.449 2414.75 938.54 2415.25L1023.73 2884.72C1023.83 2885.25 1023.82 2885.83 1023.71 2886.35C1023.6 2886.87 1023.39 2887.28 1023.13 2887.51C1022.87 2887.74 1022.58 2887.76 1022.31 2887.57C1022.04 2887.38 1021.82 2887 1021.69 2886.49L903.13 2431.44C903.05 2431.13 903.007 2430.8 903.004 2430.46C903 2430.12 903.037 2429.78 903.11 2429.47C903.209 2429.06 903.368 2428.73 903.566 2428.5ZM936.766 2418.59L905.79 2431.98L1015.86 2854.47L936.766 2418.59Z" fill="white"/>
</g>
<g opacity="0.8">
<path opacity="0.8" d="M936.935 2414.09C936.965 2414.06 936.993 2414.03 937.023 2413.99C937.277 2413.76 937.566 2413.72 937.833 2413.89C938.1 2414.06 938.324 2414.42 938.463 2414.9L1095.53 2962.86C1095.65 2963.28 1095.7 2963.76 1095.67 2964.24C1095.63 2964.72 1095.52 2965.17 1095.35 2965.51C1095.18 2965.86 1094.96 2966.08 1094.72 2966.16C1094.48 2966.23 1094.23 2966.14 1094.02 2965.91L1022.16 2887.44C1021.92 2887.18 1021.74 2886.76 1021.64 2886.26L936.442 2416.77C936.353 2416.28 936.353 2415.75 936.443 2415.26C936.534 2414.77 936.708 2414.36 936.935 2414.09ZM1091.62 2958.23L942.956 2439.59L1023.6 2883.96L1091.62 2958.23Z" fill="white"/>
</g>
</g>
<g opacity="0.299">
<g opacity="0.3">
<path opacity="0.3" d="M700.127 1643.8C700.264 1643.65 700.416 1643.55 700.573 1643.52C700.73 1643.48 700.888 1643.52 701.038 1643.62L794.715 1705.34C794.912 1705.46 795.087 1705.7 795.22 1706.01C795.354 1706.33 795.44 1706.71 795.468 1707.12C795.498 1707.52 795.471 1707.94 795.39 1708.31C795.309 1708.69 795.177 1709.01 795.009 1709.25L729.933 1800.92C729.791 1801.11 729.63 1801.24 729.461 1801.29C729.292 1801.35 729.119 1801.32 728.955 1801.23C728.791 1801.13 728.642 1800.96 728.517 1800.72C728.393 1800.49 728.298 1800.2 728.238 1799.89L699.636 1646.5C699.564 1646.11 699.548 1645.68 699.592 1645.27C699.635 1644.86 699.736 1644.49 699.883 1644.19C699.955 1644.04 700.037 1643.91 700.127 1643.8ZM791.916 1708.17L702.541 1649.28L729.829 1795.62L791.916 1708.17Z" fill="white"/>
</g>
<g opacity="0.3">
<path opacity="0.3" d="M700.115 1643.88C700.246 1643.73 700.391 1643.63 700.541 1643.6L862.661 1605.23C862.907 1605.17 863.156 1605.27 863.368 1605.52C863.58 1605.77 863.744 1606.15 863.835 1606.61C863.925 1607.07 863.936 1607.57 863.867 1608.04C863.799 1608.51 863.654 1608.92 863.455 1609.21L794.974 1709.27C794.83 1709.48 794.663 1709.62 794.486 1709.68C794.309 1709.74 794.128 1709.71 793.958 1709.6L700.321 1647.9C700.079 1647.75 699.872 1647.43 699.734 1647.01C699.596 1646.58 699.535 1646.08 699.56 1645.58C699.579 1645.23 699.639 1644.89 699.735 1644.6C699.832 1644.3 699.962 1644.05 700.115 1643.88ZM858.723 1610.62L705.777 1646.82L794.118 1705.02L858.723 1610.62Z" fill="white"/>
</g>
<g opacity="0.3">
<path opacity="0.3" d="M862.253 1605.79C862.403 1605.62 862.571 1605.52 862.744 1605.5L998.695 1588.58C998.97 1588.54 999.241 1588.71 999.457 1589.04C999.673 1589.38 999.819 1589.87 999.865 1590.4C999.913 1590.94 999.857 1591.5 999.71 1591.96C999.563 1592.43 999.335 1592.77 999.069 1592.92L794.649 1709.86C794.397 1710.01 794.129 1709.97 793.889 1709.76C793.65 1709.55 793.456 1709.18 793.34 1708.72C793.226 1708.25 793.197 1707.72 793.26 1707.21C793.323 1706.71 793.472 1706.26 793.683 1705.95L862.149 1605.93C862.182 1605.88 862.217 1605.83 862.253 1605.79ZM988.651 1594.27L863.205 1609.88L800.031 1702.18L988.651 1594.27Z" fill="white"/>
</g>
<g opacity="0.3">
<path opacity="0.3" d="M793.798 1706.13C793.877 1706.04 793.961 1705.97 794.048 1705.92L998.616 1588.85C998.822 1588.74 999.04 1588.74 999.245 1588.86C999.45 1588.98 999.633 1589.21 999.773 1589.53L1158.4 1956.21C1158.56 1956.58 1158.65 1957.05 1158.67 1957.54C1158.68 1958.02 1158.61 1958.51 1158.48 1958.91C1158.34 1959.31 1158.13 1959.61 1157.9 1959.77C1157.67 1959.92 1157.42 1959.92 1157.18 1959.76L793.994 1710.16C793.769 1710.01 793.575 1709.72 793.44 1709.33C793.305 1708.95 793.237 1708.48 793.244 1708.01C793.247 1707.63 793.3 1707.26 793.397 1706.93C793.494 1706.6 793.632 1706.33 793.798 1706.13ZM998.542 1593.5L798.055 1708.24L1154 1952.86L998.542 1593.5Z" fill="white"/>
</g>
<g opacity="0.3">
<path opacity="0.3" d="M1071.05 1495.71C1071.19 1495.56 1071.34 1495.46 1071.5 1495.43C1071.65 1495.4 1071.81 1495.43 1071.96 1495.53C1072.12 1495.63 1072.27 1495.81 1072.39 1496.04C1072.51 1496.27 1072.6 1496.56 1072.66 1496.87L1158.54 1957.26C1158.63 1957.74 1158.63 1958.28 1158.54 1958.77C1158.45 1959.26 1158.28 1959.68 1158.05 1959.94C1157.82 1960.18 1157.56 1960.26 1157.31 1960.18C1157.05 1960.1 1156.82 1959.85 1156.64 1959.48L997.908 1592.62C997.803 1592.38 997.726 1592.1 997.682 1591.8C997.638 1591.49 997.628 1591.17 997.652 1590.86C997.674 1590.54 997.729 1590.24 997.816 1589.97C997.902 1589.71 998.016 1589.48 998.151 1589.31L1071 1495.76C1071.02 1495.75 1071.03 1495.73 1071.05 1495.71ZM1154.27 1947.18L1071.05 1501.02L1000.45 1591.67L1154.27 1947.18Z" fill="white"/>
</g>
<g opacity="0.3">
<path opacity="0.3" d="M500.021 1767.21C500.093 1767.13 500.17 1767.06 500.25 1767.02L700.432 1643.38C700.706 1643.21 701.002 1643.26 701.259 1643.51C701.516 1643.76 701.714 1644.2 701.811 1644.74L730.4 1798.06C730.465 1798.4 730.485 1798.78 730.458 1799.14C730.431 1799.51 730.358 1799.85 730.246 1800.15C730.134 1800.45 729.986 1800.68 729.817 1800.84C729.648 1800.99 729.462 1801.06 729.276 1801.04L500.718 1771.37C500.493 1771.45 500.26 1771.39 500.054 1771.19C499.847 1771 499.675 1770.69 499.561 1770.29C499.487 1770.04 499.44 1769.76 499.421 1769.48C499.402 1769.19 499.412 1768.89 499.45 1768.61C499.488 1768.33 499.554 1768.07 499.643 1767.83C499.733 1767.6 499.844 1767.41 499.972 1767.26C499.989 1767.25 500.005 1767.23 500.021 1767.21ZM700.077 1648.24L506.658 1767.7L727.704 1796.39L700.077 1648.24Z" fill="white"/>
</g>
<g opacity="0.3">
<path opacity="0.3" d="M500.091 1767.16C500.282 1766.94 500.502 1766.84 500.721 1766.87L729.475 1796.57C729.703 1796.6 729.92 1796.77 730.098 1797.05C730.276 1797.33 730.407 1797.71 730.473 1798.15C730.537 1798.58 730.532 1799.04 730.46 1799.47C730.388 1799.9 730.251 1800.28 730.068 1800.55L474.589 2181.19C474.413 2181.46 474.203 2181.61 473.983 2181.64C473.764 2181.66 473.546 2181.56 473.356 2181.34C473.166 2181.12 473.013 2180.79 472.916 2180.4C472.82 2180.01 472.783 2179.57 472.813 2179.14L499.541 1768.81C499.563 1768.47 499.624 1768.15 499.719 1767.86C499.814 1767.58 499.942 1767.34 500.091 1767.16ZM726.32 1800.6L501.62 1771.43L475.369 2174.49L726.32 1800.6Z" fill="white"/>
</g>
<g opacity="0.3">
<path opacity="0.3" d="M729.085 1797.43C729.291 1797.19 729.529 1797.09 729.765 1797.14C730.001 1797.2 730.222 1797.39 730.398 1797.71L1063.69 2405.15C1063.86 2405.48 1063.98 2405.92 1064.03 2406.39C1064.07 2406.87 1064.04 2407.36 1063.93 2407.79C1063.82 2408.22 1063.64 2408.57 1063.42 2408.78C1063.2 2408.99 1062.95 2409.06 1062.71 2408.97L473.847 2182.33C473.635 2182.24 473.44 2182.04 473.285 2181.74C473.13 2181.45 473.022 2181.07 472.973 2180.65C472.926 2180.23 472.94 2179.8 473.015 2179.39C473.089 2178.99 473.221 2178.64 473.393 2178.38L728.967 1797.58C729.004 1797.52 729.044 1797.47 729.085 1797.43ZM1059.26 2403.11L729.565 1802.23L476.749 2178.92L1059.26 2403.11Z" fill="white"/>
</g>
<g opacity="0.3">
<path opacity="0.3" d="M793.924 1705.79C794.16 1705.52 794.437 1705.43 794.703 1705.53C794.97 1705.64 795.207 1705.93 795.371 1706.36L1063.81 2405.93C1063.98 2406.37 1064.06 2406.92 1064.04 2407.47C1064.01 2408.03 1063.88 2408.54 1063.68 2408.91C1063.47 2409.29 1063.2 2409.5 1062.92 2409.5C1062.64 2409.5 1062.37 2409.29 1062.17 2408.91L728.602 1801.06C728.478 1800.83 728.382 1800.56 728.319 1800.26C728.256 1799.95 728.228 1799.62 728.238 1799.29C728.249 1798.96 728.297 1798.64 728.379 1798.35C728.461 1798.06 728.574 1797.81 728.71 1797.62L793.835 1705.9C793.864 1705.86 793.894 1705.82 793.924 1705.79ZM1054.4 2388.71L794.25 1710.76L731.135 1799.64L1054.4 2388.71Z" fill="white"/>
</g>
<g opacity="0.3">
<path opacity="0.3" d="M793.794 1706.2C793.933 1706.04 794.087 1705.94 794.247 1705.91C794.407 1705.88 794.568 1705.91 794.72 1706.02L1158.02 1955.68C1158.16 1955.78 1158.29 1955.94 1158.4 1956.14C1158.52 1956.34 1158.61 1956.59 1158.67 1956.87C1158.73 1957.14 1158.76 1957.44 1158.76 1957.74C1158.76 1958.04 1158.74 1958.34 1158.68 1958.62L1063.71 2408.33C1063.64 2408.69 1063.51 2409.01 1063.36 2409.24C1063.2 2409.48 1063.02 2409.63 1062.82 2409.68C1062.63 2409.73 1062.43 2409.68 1062.25 2409.53C1062.07 2409.38 1061.91 2409.14 1061.79 2408.83L793.676 1710.01C793.539 1709.82 793.426 1709.58 793.344 1709.29C793.268 1709.04 793.22 1708.75 793.201 1708.46C793.182 1708.16 793.193 1707.87 793.233 1707.58C793.274 1707.3 793.343 1707.03 793.436 1706.8C793.53 1706.57 793.645 1706.37 793.777 1706.23L793.794 1706.2ZM1156.16 1959.11L797.486 1712.62L1062.4 2403.09L1156.16 1959.11Z" fill="white"/>
</g>
<g opacity="0.3">
<path opacity="0.3" d="M1062.37 2406.05C1062.38 2406.03 1062.39 2406.01 1062.41 2405.99L1302.27 2158.64C1302.48 2158.43 1302.72 2158.35 1302.95 2158.42C1303.18 2158.49 1303.4 2158.71 1303.57 2159.04C1303.73 2159.37 1303.84 2159.8 1303.88 2160.27C1303.92 2160.73 1303.88 2161.21 1303.77 2161.63L1188.7 2600.51C1188.62 2600.8 1188.51 2601.05 1188.38 2601.25C1188.25 2601.45 1188.11 2601.59 1187.95 2601.67C1187.79 2601.74 1187.62 2601.74 1187.46 2601.67C1187.3 2601.6 1187.15 2601.46 1187.02 2601.26L1062.24 2409.73C1062.1 2409.51 1061.98 2409.22 1061.91 2408.89C1061.83 2408.56 1061.8 2408.2 1061.81 2407.84C1061.82 2407.48 1061.88 2407.12 1061.97 2406.82C1062.07 2406.51 1062.2 2406.25 1062.36 2406.06L1062.37 2406.05ZM1300.16 2165.82L1064.99 2408.34L1187.33 2596.12L1300.16 2165.82Z" fill="white"/>
</g>
<g opacity="0.3">
<path opacity="0.3" d="M1157.11 1956.33C1157.19 1956.23 1157.27 1956.16 1157.36 1956.12C1157.52 1956.02 1157.69 1956 1157.86 1956.06C1158.02 1956.11 1158.18 1956.24 1158.32 1956.42L1303.28 2158.45C1303.44 2158.66 1303.56 2158.96 1303.64 2159.3C1303.73 2159.65 1303.76 2160.03 1303.75 2160.41C1303.75 2160.79 1303.69 2161.17 1303.58 2161.49C1303.47 2161.81 1303.32 2162.07 1303.15 2162.23L1063.28 2409.59C1063.07 2409.8 1062.84 2409.88 1062.62 2409.82C1062.39 2409.76 1062.18 2409.56 1062.01 2409.25C1061.84 2408.95 1061.72 2408.54 1061.67 2408.1C1061.62 2407.65 1061.65 2407.19 1061.74 2406.77L1156.64 1957.39C1156.74 1956.94 1156.9 1956.57 1157.11 1956.33ZM1300.49 2159.99L1158.16 1961.66L1064.99 2402.84L1300.49 2159.99Z" fill="white"/>
</g>
<g opacity="0.3">
<path opacity="0.3" d="M473.49 2178.49L473.538 2178.44C473.771 2178.17 474.046 2178.08 474.31 2178.18L1063.37 2404.89C1063.59 2404.98 1063.8 2405.2 1063.96 2405.52C1064.12 2405.84 1064.22 2406.26 1064.26 2406.7L1117.35 3042.54C1117.38 3042.97 1117.35 3043.41 1117.26 3043.81C1117.18 3044.2 1117.03 3044.54 1116.84 3044.78C1116.66 3045.01 1116.45 3045.14 1116.23 3045.13C1116.01 3045.13 1115.79 3044.99 1115.62 3044.75L473.726 2182.53C473.454 2182.37 473.224 2182.01 473.084 2181.52C472.936 2181.01 472.896 2180.41 472.972 2179.84C473.049 2179.28 473.235 2178.79 473.49 2178.49ZM1062.18 2408.97L479.259 2184.62L1114.72 3038.17L1062.18 2408.97Z" fill="white"/>
</g>
<g opacity="0.3">
<path opacity="0.3" d="M1062.51 2405.81C1062.7 2405.59 1062.92 2405.48 1063.14 2405.51C1063.36 2405.54 1063.58 2405.7 1063.75 2405.97L1188.63 2597.64C1188.81 2597.92 1188.94 2598.3 1189.01 2598.74C1189.08 2599.17 1189.07 2599.64 1189 2600.07L1117.23 3044.29C1117.15 3044.76 1117 3045.17 1116.79 3045.45C1116.58 3045.73 1116.33 3045.87 1116.08 3045.83C1115.83 3045.8 1115.59 3045.59 1115.41 3045.26C1115.22 3044.92 1115.1 3044.47 1115.06 3043.98L1061.96 2408.1C1061.93 2407.66 1061.96 2407.21 1062.05 2406.8C1062.15 2406.4 1062.3 2406.06 1062.49 2405.83L1062.51 2405.81ZM1186.64 2600.21L1064.63 2412.95L1116.51 3034.2L1186.64 2600.21Z" fill="white"/>
</g>
<g opacity="0.3">
<path opacity="0.3" d="M700.114 1643.88C700.13 1643.86 700.147 1643.84 700.164 1643.82L877.437 1464.72C877.625 1464.52 877.836 1464.44 878.046 1464.48C878.256 1464.52 878.456 1464.68 878.623 1464.93C878.791 1465.19 878.919 1465.53 878.992 1465.92C879.065 1466.32 879.08 1466.74 879.036 1467.15L863.853 1607.9C863.805 1608.36 863.686 1608.77 863.513 1609.08C863.341 1609.39 863.123 1609.59 862.891 1609.65L700.799 1648C700.538 1648.06 700.275 1647.94 700.056 1647.65C699.837 1647.36 699.676 1646.93 699.602 1646.43C699.531 1645.96 699.542 1645.44 699.635 1644.98C699.728 1644.52 699.897 1644.13 700.114 1643.88ZM876.362 1470.78L706.767 1642.13L861.839 1605.43L876.362 1470.78Z" fill="white"/>
</g>
<g opacity="0.3">
<path opacity="0.3" d="M877.367 1464.95C877.392 1464.91 877.419 1464.88 877.447 1464.86C877.603 1464.71 877.773 1464.64 877.945 1464.65C878.117 1464.65 878.286 1464.74 878.439 1464.89L999.276 1588.79C999.493 1589.02 999.667 1589.37 999.771 1589.81C999.876 1590.25 999.905 1590.74 999.855 1591.22C999.805 1591.7 999.678 1592.13 999.493 1592.45C999.307 1592.76 999.075 1592.95 998.83 1592.98L862.802 1609.93C862.63 1609.96 862.458 1609.9 862.299 1609.77C862.139 1609.63 861.998 1609.43 861.885 1609.17C861.773 1608.91 861.692 1608.61 861.65 1608.27C861.607 1607.94 861.603 1607.6 861.639 1607.26L876.833 1466.41C876.866 1466.11 876.93 1465.82 877.022 1465.57C877.114 1465.32 877.231 1465.1 877.367 1464.95ZM994.657 1589.06L878.709 1470.17L864.133 1605.32L994.657 1589.06Z" fill="white"/>
</g>
<g opacity="0.3">
<path opacity="0.3" d="M877.324 1465.07C877.52 1464.84 877.747 1464.74 877.973 1464.78L1071.58 1495.18C1071.81 1495.22 1072.03 1495.4 1072.21 1495.7C1072.38 1496 1072.51 1496.4 1072.57 1496.85C1072.62 1497.3 1072.61 1497.77 1072.52 1498.2C1072.44 1498.63 1072.29 1499 1072.09 1499.25L999.305 1592.73C999.138 1592.93 998.948 1593.05 998.752 1593.07C998.556 1593.09 998.362 1593.01 998.186 1592.83L877.369 1468.96C877.139 1468.72 876.958 1468.34 876.856 1467.87C876.754 1467.4 876.737 1466.87 876.808 1466.38C876.888 1465.83 877.073 1465.36 877.324 1465.07ZM1068.11 1499.08L883.322 1470.07L998.638 1588.31L1068.11 1499.08Z" fill="white"/>
</g>
<g opacity="0.3">
<path opacity="0.3" d="M1070.96 1496.03C1071.21 1495.74 1071.51 1495.66 1071.8 1495.81L1297.81 1610.09C1297.99 1610.18 1298.16 1610.36 1298.29 1610.61C1298.43 1610.87 1298.53 1611.19 1298.59 1611.54C1298.65 1611.89 1298.66 1612.27 1298.63 1612.63C1298.6 1613 1298.52 1613.34 1298.4 1613.63L1158.21 1959.52C1158.09 1959.82 1157.93 1960.06 1157.74 1960.2C1157.56 1960.34 1157.36 1960.38 1157.16 1960.32C1156.97 1960.26 1156.79 1960.09 1156.63 1959.84C1156.48 1959.59 1156.36 1959.27 1156.3 1958.9L1070.48 1498.72C1070.4 1498.34 1070.39 1497.93 1070.43 1497.53C1070.47 1497.13 1070.56 1496.76 1070.7 1496.46C1070.77 1496.29 1070.86 1496.15 1070.96 1496.03ZM1295.56 1613.55L1073.31 1501.14L1157.7 1953.69L1295.56 1613.55Z" fill="white"/>
</g>
<g opacity="0.3">
<path opacity="0.3" d="M1174.93 1334.08C1175.16 1333.82 1175.42 1333.73 1175.67 1333.81C1175.93 1333.89 1176.16 1334.15 1176.33 1334.53L1298.3 1610.73C1298.45 1611.09 1298.55 1611.54 1298.57 1612.01C1298.59 1612.48 1298.53 1612.96 1298.41 1613.36C1298.28 1613.77 1298.1 1614.08 1297.88 1614.26C1297.65 1614.44 1297.41 1614.47 1297.18 1614.35L1071.18 1500.08C1070.98 1499.97 1070.79 1499.76 1070.65 1499.46C1070.51 1499.16 1070.41 1498.79 1070.37 1498.39C1070.32 1497.98 1070.34 1497.56 1070.41 1497.17C1070.48 1496.79 1070.6 1496.44 1070.77 1496.19L1174.79 1334.28C1174.84 1334.2 1174.89 1334.14 1174.93 1334.08ZM1294.24 1608.28L1175.34 1339.04L1073.94 1496.87L1294.24 1608.28Z" fill="white"/>
</g>
<g opacity="0.3">
<path opacity="0.3" d="M1297.11 1610.6C1297.25 1610.44 1297.4 1610.34 1297.56 1610.31C1297.72 1610.28 1297.88 1610.32 1298.03 1610.42C1298.25 1610.57 1298.44 1610.84 1298.57 1611.21C1298.71 1611.58 1298.78 1612.02 1298.78 1612.48L1303.62 2160.46C1303.62 2160.87 1303.56 2161.27 1303.46 2161.63C1303.36 2161.98 1303.21 2162.27 1303.03 2162.47C1302.84 2162.66 1302.64 2162.75 1302.43 2162.72C1302.22 2162.7 1302.03 2162.56 1301.86 2162.33L1156.84 1960.22C1156.71 1960.04 1156.6 1959.82 1156.52 1959.56C1156.44 1959.31 1156.39 1959.02 1156.37 1958.72C1156.35 1958.42 1156.36 1958.11 1156.4 1957.82C1156.44 1957.53 1156.51 1957.25 1156.61 1957.02L1296.79 1611.13C1296.88 1610.92 1296.99 1610.74 1297.11 1610.6ZM1301.35 2156.18L1296.61 1618.67L1159.1 1957.94L1301.35 2156.18Z" fill="white"/>
</g>
<g opacity="0.3">
<path opacity="0.3" d="M1199.2 1282.54C1199.41 1282.3 1199.65 1282.2 1199.89 1282.25C1200.06 1282.29 1200.22 1282.41 1200.37 1282.6C1200.52 1282.78 1200.64 1283.03 1200.73 1283.33L1298.42 1611.29C1298.56 1611.77 1298.61 1612.33 1298.55 1612.88C1298.5 1613.42 1298.34 1613.9 1298.11 1614.22C1297.89 1614.55 1297.61 1614.69 1297.33 1614.63C1297.05 1614.56 1296.8 1614.3 1296.61 1613.88L1174.52 1337.48C1174.34 1337.06 1174.24 1336.53 1174.25 1335.98C1174.25 1335.43 1174.36 1334.9 1174.55 1334.5L1198.94 1282.96C1199.02 1282.79 1199.11 1282.65 1199.2 1282.54ZM1290.38 1593.03L1199.56 1288.14L1176.88 1336.07L1290.38 1593.03Z" fill="white"/>
</g>
<g opacity="0.3">
<path opacity="0.3" d="M1199.14 1282.77C1199.4 1282.47 1199.71 1282.39 1199.99 1282.54L1349.56 1361.57C1349.71 1361.65 1349.86 1361.8 1349.98 1362C1350.1 1362.2 1350.2 1362.45 1350.27 1362.73C1350.34 1363.02 1350.38 1363.33 1350.39 1363.64C1350.39 1363.96 1350.36 1364.27 1350.3 1364.56L1298.36 1613.36C1298.28 1613.74 1298.15 1614.07 1297.98 1614.31C1297.81 1614.55 1297.61 1614.7 1297.4 1614.73C1297.2 1614.76 1296.99 1614.67 1296.81 1614.48C1296.62 1614.29 1296.47 1614 1296.36 1613.64L1198.92 1286.42C1198.82 1286.26 1198.75 1286.07 1198.68 1285.86C1198.6 1285.61 1198.55 1285.32 1198.53 1285.03C1198.5 1284.73 1198.51 1284.43 1198.56 1284.14C1198.6 1283.85 1198.67 1283.58 1198.77 1283.35C1198.86 1283.12 1198.98 1282.93 1199.12 1282.8L1199.14 1282.77ZM1347.75 1365.21L1202.05 1288.23L1297.15 1607.55L1347.75 1365.21Z" fill="white"/>
</g>
<g opacity="0.3">
<path opacity="0.3" d="M1296.97 1611.04C1297.15 1610.83 1297.35 1610.73 1297.56 1610.74L1678.18 1627.36C1678.42 1627.37 1678.65 1627.52 1678.83 1627.8C1679.02 1628.08 1679.16 1628.47 1679.23 1628.92C1679.3 1629.37 1679.29 1629.84 1679.22 1630.28C1679.14 1630.73 1679 1631.11 1678.81 1631.38L1303.02 2162.46C1302.85 2162.7 1302.66 2162.84 1302.45 2162.87C1302.25 2162.9 1302.05 2162.82 1301.87 2162.63C1301.68 2162.45 1301.53 2162.18 1301.42 2161.83C1301.31 2161.49 1301.26 2161.1 1301.25 2160.69L1296.41 1613C1296.41 1612.7 1296.44 1612.4 1296.5 1612.12C1296.55 1611.85 1296.64 1611.59 1296.74 1611.38C1296.81 1611.25 1296.89 1611.13 1296.97 1611.04ZM1674.76 1631.65L1298.67 1615.22L1303.45 2156.41L1674.76 1631.65Z" fill="white"/>
</g>
<g opacity="0.3">
<path opacity="0.3" d="M1348.74 1362.31C1348.89 1362.14 1349.05 1362.04 1349.23 1362.01C1349.4 1361.99 1349.57 1362.04 1349.72 1362.17L1678.53 1627.48C1678.77 1627.67 1678.97 1628.03 1679.1 1628.49C1679.22 1628.94 1679.26 1629.47 1679.2 1629.98C1679.15 1630.49 1679.01 1630.94 1678.8 1631.27C1678.6 1631.59 1678.34 1631.76 1678.08 1631.75L1297.35 1615.13C1297.17 1615.12 1296.99 1615.02 1296.83 1614.85C1296.67 1614.67 1296.54 1614.42 1296.44 1614.11C1296.34 1613.81 1296.28 1613.47 1296.26 1613.11C1296.25 1612.75 1296.27 1612.39 1296.34 1612.06L1348.26 1363.37C1348.36 1362.92 1348.53 1362.55 1348.74 1362.31ZM1672.07 1627.05L1349.91 1367.11L1299.04 1610.76L1672.07 1627.05Z" fill="white"/>
</g>
<g opacity="0.3">
<path opacity="0.3" d="M473.634 2178.24C473.816 2178.03 474.023 2177.93 474.233 2177.94C474.443 2177.96 474.647 2178.09 474.821 2178.32L1117.1 3041.02C1117.23 3041.2 1117.34 3041.43 1117.42 3041.7C1117.5 3041.96 1117.55 3042.26 1117.57 3042.57C1117.59 3042.88 1117.58 3043.2 1117.53 3043.5C1117.49 3043.8 1117.41 3044.08 1117.31 3044.31L834.166 3691.15C834.044 3691.43 833.89 3691.65 833.716 3691.78C833.542 3691.91 833.354 3691.95 833.17 3691.9C832.986 3691.85 832.811 3691.71 832.661 3691.49C832.512 3691.27 832.393 3690.98 832.314 3690.65L473.187 2181.1C473.082 2180.66 473.053 2180.17 473.105 2179.69C473.156 2179.21 473.285 2178.78 473.472 2178.47C473.523 2178.39 473.577 2178.31 473.634 2178.24ZM1114.8 3043.3L476.948 2186.55L833.602 3685.69L1114.8 3043.3Z" fill="white"/>
</g>
<g opacity="0.3">
<path opacity="0.3" d="M500.156 1766.91C500.4 1766.63 500.687 1766.54 500.96 1766.66C501.232 1766.79 501.47 1767.1 501.629 1767.56C501.788 1768.01 501.856 1768.56 501.82 1769.11L475.074 2179.68C475.046 2180.13 474.952 2180.54 474.803 2180.88C474.653 2181.21 474.457 2181.45 474.239 2181.55C474.021 2181.67 473.793 2181.64 473.582 2181.49C473.371 2181.34 473.189 2181.07 473.058 2180.71L445.014 2103.45C444.912 2103.17 444.844 2102.84 444.817 2102.5C444.79 2102.15 444.803 2101.8 444.857 2101.47L499.65 1768.15C499.735 1767.62 499.916 1767.18 500.156 1766.91ZM473.227 2173.55L498.08 1792.02L447.166 2101.77L473.227 2173.55Z" fill="white"/>
</g>
<g opacity="0.3">
<path opacity="0.3" d="M1677.91 1628.15C1678.03 1628 1678.18 1627.91 1678.32 1627.87C1678.58 1627.81 1678.84 1627.92 1679.06 1628.19C1679.28 1628.46 1679.44 1628.87 1679.52 1629.36L1835.28 2546.04C1835.38 2546.59 1835.36 2547.19 1835.24 2547.71C1835.11 2548.23 1834.89 2548.64 1834.61 2548.84L1639.51 2694.18C1639.33 2694.31 1639.14 2694.36 1638.96 2694.3C1638.77 2694.25 1638.59 2694.1 1638.44 2693.88C1638.29 2693.66 1638.18 2693.36 1638.1 2693.03C1638.02 2692.69 1637.99 2692.32 1638 2691.95L1677.35 1629.92C1677.36 1629.56 1677.42 1629.21 1677.52 1628.9C1677.61 1628.59 1677.75 1628.33 1677.91 1628.15ZM1832.82 2545.43L1679.17 1641.19L1640.37 2688.82L1832.82 2545.43Z" fill="white"/>
</g>
<g opacity="0.3">
<path opacity="0.3" d="M1677.96 1628.16C1678.13 1627.96 1678.33 1627.85 1678.54 1627.86C1678.74 1627.87 1678.94 1627.98 1679.11 1628.2C1679.28 1628.41 1679.42 1628.71 1679.51 1629.07C1679.6 1629.43 1679.64 1629.83 1679.63 1630.23L1640.3 2691.95C1640.29 2692.35 1640.22 2692.73 1640.1 2693.06C1639.98 2693.39 1639.82 2693.65 1639.64 2693.82C1639.45 2693.98 1639.25 2694.04 1639.05 2693.99C1638.84 2693.94 1638.65 2693.78 1638.49 2693.53L1301.9 2163.13C1301.76 2162.92 1301.65 2162.65 1301.58 2162.34C1301.5 2162.02 1301.47 2161.68 1301.47 2161.34C1301.48 2161 1301.52 2160.66 1301.6 2160.35C1301.69 2160.05 1301.8 2159.79 1301.94 2159.59L1677.87 1628.28C1677.9 1628.23 1677.93 1628.19 1677.96 1628.16ZM1638.23 2687.44L1677.23 1634.62L1304.45 2161.49L1638.23 2687.44Z" fill="white"/>
</g>
<g opacity="0.3">
<path opacity="0.3" d="M1638.94 2690.44C1639.16 2690.19 1639.42 2690.09 1639.67 2690.17L1894.68 2767.03C1894.93 2767.11 1895.15 2767.34 1895.32 2767.68C1895.49 2768.03 1895.59 2768.48 1895.62 2768.96C1895.65 2769.44 1895.6 2769.93 1895.48 2770.35C1895.35 2770.76 1895.17 2771.09 1894.94 2771.28L1637.44 2984.69C1637.27 2984.84 1637.08 2984.89 1636.9 2984.85C1636.71 2984.82 1636.54 2984.69 1636.39 2984.48C1636.23 2984.28 1636.11 2984 1636.02 2983.67C1635.94 2983.35 1635.89 2982.98 1635.9 2982.62L1638.38 2692.33C1638.38 2692.01 1638.42 2691.7 1638.49 2691.41C1638.56 2691.13 1638.66 2690.87 1638.78 2690.67C1638.83 2690.58 1638.89 2690.51 1638.94 2690.44ZM1890.4 2770.24L1640.6 2694.94L1638.16 2979.3L1890.4 2770.24Z" fill="white"/>
</g>
<g opacity="0.3">
<path opacity="0.3" d="M1638.9 2690.49C1638.95 2690.43 1639.01 2690.38 1639.07 2690.33L1834.08 2545.05C1834.33 2544.86 1834.61 2544.86 1834.86 2545.05C1835.12 2545.24 1835.33 2545.6 1835.45 2546.07L1895.5 2768.24C1895.6 2768.6 1895.64 2769.01 1895.63 2769.43C1895.62 2769.84 1895.55 2770.23 1895.43 2770.57C1895.31 2770.91 1895.14 2771.18 1894.95 2771.34C1894.76 2771.5 1894.55 2771.55 1894.34 2771.49L1639.52 2694.67C1639.3 2694.72 1639.09 2694.64 1638.9 2694.44C1638.71 2694.25 1638.55 2693.95 1638.44 2693.58C1638.36 2693.32 1638.31 2693.04 1638.29 2692.75C1638.27 2692.45 1638.28 2692.15 1638.32 2691.86C1638.36 2691.57 1638.43 2691.31 1638.53 2691.08C1638.62 2690.85 1638.74 2690.66 1638.87 2690.52L1638.9 2690.49ZM1833.94 2549.88L1643.87 2691.49L1892.47 2766.43L1833.94 2549.88Z" fill="white"/>
</g>
<g opacity="0.3">
<path opacity="0.3" d="M1187.38 2597.95C1187.51 2597.8 1187.66 2597.7 1187.81 2597.67C1187.97 2597.63 1188.12 2597.66 1188.27 2597.75L1448.2 2757.35C1448.39 2757.47 1448.57 2757.69 1448.7 2757.99C1448.84 2758.3 1448.93 2758.66 1448.96 2759.06C1449 2759.46 1448.98 2759.87 1448.91 2760.24C1448.84 2760.62 1448.72 2760.95 1448.56 2761.2L1187.07 3173.84C1186.91 3174.1 1186.71 3174.26 1186.5 3174.31C1186.29 3174.36 1186.08 3174.29 1185.89 3174.1C1185.7 3173.92 1185.54 3173.64 1185.43 3173.28C1185.31 3172.93 1185.26 3172.51 1185.26 3172.1L1186.82 2599.86C1186.82 2599.51 1186.86 2599.17 1186.94 2598.86C1187.02 2598.55 1187.14 2598.29 1187.28 2598.08C1187.31 2598.03 1187.34 2597.99 1187.38 2597.95ZM1445.51 2760.35L1189.05 2602.88L1187.51 3167.49L1445.51 2760.35Z" fill="white"/>
</g>
<g opacity="0.3">
<path opacity="0.3" d="M1302.33 2158.74C1302.46 2158.59 1302.61 2158.49 1302.77 2158.46C1302.92 2158.42 1303.07 2158.45 1303.22 2158.54C1303.37 2158.63 1303.5 2158.78 1303.62 2158.98C1303.74 2159.18 1303.83 2159.42 1303.9 2159.7L1448.8 2758.55C1448.89 2758.94 1448.93 2759.38 1448.9 2759.81C1448.87 2760.24 1448.78 2760.64 1448.63 2760.97C1448.49 2761.3 1448.3 2761.53 1448.1 2761.65C1447.89 2761.77 1447.66 2761.77 1447.46 2761.64L1187.39 2601.95C1187.24 2601.86 1187.09 2601.7 1186.97 2601.48C1186.85 2601.26 1186.76 2600.99 1186.7 2600.69C1186.63 2600.39 1186.6 2600.07 1186.61 2599.74C1186.62 2599.42 1186.66 2599.1 1186.74 2598.81L1301.89 2159.63C1301.99 2159.26 1302.15 2158.95 1302.33 2158.74ZM1445.67 2755.89L1302.84 2165.61L1189.34 2598.5L1445.67 2755.89Z" fill="white"/>
</g>
<g opacity="0.3">
<path opacity="0.3" d="M1302.12 2159.09C1302.31 2158.87 1302.53 2158.77 1302.76 2158.8C1302.98 2158.83 1303.2 2159 1303.37 2159.28L1640.16 2689.94C1640.33 2690.2 1640.45 2690.56 1640.52 2690.96C1640.59 2691.37 1640.6 2691.8 1640.55 2692.21C1640.49 2692.63 1640.38 2693 1640.23 2693.3C1640.07 2693.59 1639.87 2693.78 1639.66 2693.86L1447.81 2762.15C1447.57 2762.23 1447.32 2762.16 1447.1 2761.94C1446.89 2761.72 1446.71 2761.36 1446.61 2760.93L1301.67 2161.97C1301.56 2161.52 1301.53 2161 1301.58 2160.51C1301.64 2160.02 1301.78 2159.58 1301.98 2159.26C1302.02 2159.2 1302.07 2159.14 1302.12 2159.09ZM1636.82 2690.36L1305.78 2168.77L1448.25 2757.49L1636.82 2690.36Z" fill="white"/>
</g>
</g>
</g>
</g>
</g>
<path opacity="0.3" d="M-349.999 1294.16L-343.429 2090.49C-151.721 2088.9 18.4765 2161.24 158.693 2174.83C298.91 2188.42 424.258 2187.39 828.397 2014.45C1232.54 1841.52 1822.47 1844.03 2080.72 1864.02C2287.32 1880.01 2903.62 1800.7 3185.94 1759.04L3181.87 1265.02L-349.999 1294.16Z" fill="white" fill-opacity="0.24"/>
<path opacity="0.3" d="M-1045 2240.57C-1045 2240.57 -753.755 2225.81 -524.252 2309.48C-294.749 2393.16 395.815 2078.64 440.294 2064.55C484.774 2050.45 786.242 1973.39 1159.6 1992.72C1532.96 2012.05 2456.27 1927.65 2541.35 1890.68C2538.68 1889.69 2541.35 1391.06 2541.35 1391.06H-1045V2240.57Z" fill="white"/>

<path d="M-95.6709 2034.57C-95.6709 2034.57 214.785 2121.24 458.615 1945.15C702.445 1769.05 942.154 1782.93 1128.83 1811.55C1315.5 1840.17 1701.21 1866.48 2143.35 1599.76C2180.58 1575.85 2582.41 1521.86 2732.02 1545.51C2732.29 1546.11 2732.02 1315.2 2732.02 1315.2H-95.6709V2034.57Z" fill="white"/>






<defs>
<filter id="filter0_d" x="-98" y="2356" width="2150" height="227" filterUnits="userSpaceOnUse" color-interpolation-filters="sRGB">
<feFlood flood-opacity="0" result="BackgroundImageFix"/>
<feColorMatrix in="SourceAlpha" type="matrix" values="0 0 0 0 0 0 0 0 0 0 0 0 0 0 0 0 0 0 127 0"/>
<feOffset dy="4"/>
<feGaussianBlur stdDeviation="2"/>
<feColorMatrix type="matrix" values="0 0 0 0 0 0 0 0 0 0 0 0 0 0 0 0 0 0 0.25 0"/>
<feBlend mode="normal" in2="BackgroundImageFix" result="effect1_dropShadow"/>
<feBlend mode="normal" in="SourceGraphic" in2="effect1_dropShadow" result="shape"/>
</filter>
<linearGradient id="paint0_linear" x1="-2642.55" y1="1289.82" x2="2379.54" y2="3640.86" gradientUnits="userSpaceOnUse">
<stop stop-color="#D623E9"/>
<stop offset="1" stop-color="#7021E9"/>
</linearGradient>
</defs>
</svg>