<svg xmlns="http://www.w3.org/2000/svg" width="1920" height="1500">
  <defs/>
  <symbol id="b" viewBox="0 0 1919 503">
    <path fill="#fff" d="M1919 44.798s-155.84 7.961-278.64-37.173c-122.81-45.134-492.32 124.511-516.12 132.114-23.8 7.603-185.108 49.168-384.888 38.74C539.573 168.051 45.525 213.578 0 233.518 1.429 234.053 0 503 0 503h1919V44.798z" opacity=".24"/>
  </symbol>
  <symbol id="a" viewBox="0 0 1920 536">
    <path fill="#fff" d="M1919.78 15.431s-210.77-62.711-376.3 64.708c-165.54 127.42-328.27 117.376-455 96.667-126.734-20.709-388.591-39.744-688.753 153.251-25.28 17.298-298.075 56.368-399.647 39.252-.18-.429 0 166.65 0 166.65h1919.7V15.431z" opacity=".123"/>
  </symbol>
  <symbol id="c" viewBox="0 0 1920 988">
    <path fill="#25272E" d="M-106 349.614s98.592-17.179 256.937-118.052c94.781-62.434 248.413-88.993 355.889-57.478 136.827 22.51 203.066 49.923 358.452 0C1020.66 124.161 1649.56-28.356 1954.51 4.624c.31 1.556 0 961.932 0 961.932H-106V349.614z"/>
    <path fill="#fff" d="M2161.59 889.934s-104.13-18.129-271.39-124.576c-100.11-65.884-262.39-93.911-375.91-60.654-144.53 23.754-214.49 52.681-378.62 0C971.539 652.022 307.256 491.077-14.855 525.88c-.326 1.641 0 462.06 0 462.06H2161.59v-98.006z"/>
  </symbol>
  <symbol id="d">
    <use y="-300" href="#a"/>
    <use y="-250" href="#b"/>
    <use y="100" href="#c"/>
  </symbol>
  <use href="#d"/>
</svg>