<svg xmlns="http://www.w3.org/2000/svg" xmlns:xlink="http://www.w3.org/1999/xlink" width="1916.3636364424528" height="509.36363817640563" style=""><rect id="backgroundrect" width="100%" height="100%" x="0" y="0" fill="none" stroke="none"/>
  <defs>
    <linearGradient id="linear-gradient" x1="-0.9599999785423279" y1="-0.041999999433755875" x2="0.9900000095367432" y2="0.9779999852180481" gradientUnits="objectBoundingBox">
      <stop offset="0" stop-color="#d623e9"/>
      <stop offset="1" stop-color="#6621e9"/>
    </linearGradient>
  </defs>
  
<g class="currentLayer" style=""><title>Layer 1</title><g id="Group_231" data-name="Group 231" class="">
    <path id="Path_799" data-name="Path 799" d="M1919,114.86868497467037 s-155.839,7.854 -278.641,-36.674 s-492.307,122.839 -516.107,130.34 s-185.109,48.508 -384.886,38.22 s-693.819,34.628 -739.344,54.3 c1.429,0.528 0,265.865 0,265.865 H1919 z" fill="#fff" opacity="0.24"/>
    <path id="Path_800" data-name="Path 800" d="M1920,15.354684974670363 s-210.766,-62.4 -376.3,64.386 s-328.27,116.792 -455,96.186 s-388.587,-39.546 -688.749,152.489 c-25.28,17.212 -298.075,56.088 -399.647,39.057 c-0.1790000000000001,-0.4270000000000002 0,165.821 0,165.821 H1920 z" fill="#fff" opacity="0.123"/>
    <path id="Path_801" data-name="Path 801" d="M0,506.99468497467046 s91.865,-15.917 239.4,-109.377 c88.313,-57.846000000000004 231.458,-82.453 331.6,-53.254 c127.491,20.856 189.205,46.254 333.985,0 S1635.7340000000004,156.8006849746704 1919.8720000000003,187.3576849746704 c0.2870000000000002,1.441 0,405.686 0,405.686 H0 z" fill="#fff"/>
  </g></g></svg>