<svg xmlns="http://www.w3.org/2000/svg" xmlns:xlink="http://www.w3.org/1999/xlink" width="1921" height="1080.065" viewBox="0 0 1921 1080.065">
  <defs>
    <linearGradient id="linear-gradient" x1="-0.96" y1="-0.042" x2="0.99" y2="0.978" gradientUnits="objectBoundingBox">
      <stop offset="0" stop-color="#d623e9"/>
      <stop offset="1" stop-color="#6621e9"/>
    </linearGradient>
  </defs>
  <g id="Group_231" data-name="Group 231" transform="translate(-7146 -1265)">
    <rect id="Rectangle_31" data-name="Rectangle 31" width="1920" height="1080" transform="translate(7146 1265)" fill="url(#linear-gradient)"/>
    <path id="Path_799" data-name="Path 799" d="M-80,649.891s-155.839,7.854-278.641-36.674-492.307,122.839-516.107,130.34-185.109,48.508-384.886,38.22-693.819,34.628-739.344,54.3c1.429.528,0,265.865,0,265.865H-80Z" transform="translate(9146 1217)" fill="#fff" opacity="0.24"/>
    <path id="Path_800" data-name="Path 800" d="M-80,550.377s-210.766-62.4-376.3,64.386-328.27,116.792-455,96.186-388.587-39.546-688.749,152.489c-25.28,17.212-298.075,56.088-399.647,39.057-.179-.427,0,165.821,0,165.821H-80Z" transform="translate(9147 1217)" fill="#fff" opacity="0.123"/>
    <path id="Path_801" data-name="Path 801" d="M-1999,1042.017s91.865-15.917,239.4-109.377c88.313-57.846,231.458-82.453,331.6-53.254,127.491,20.856,189.205,46.254,333.985,0S-363.266,691.823-79.128,722.38c.287,1.441,0,405.686,0,405.686H-1999Z" transform="translate(9146 1217)" fill="#fff"/>
  </g>
</svg>
