<svg xmlns="http://www.w3.org/2000/svg" width="1916.364" height="509.364">
  <defs/>
  <rect width="100%" height="100%" fill="none"/>
  <g class="currentLayer">
    <g fill="#fff" data-name="Group 231">
      <path d="M1919 114.869s-155.839 7.854-278.641-36.674-492.307 122.839-516.107 130.34-185.109 48.508-384.886 38.22S45.547 281.383.022 301.055c1.429.528 0 265.865 0 265.865H1919z" data-name="Path 799" opacity=".24"/>
      <path d="M1920 15.355s-210.766-62.4-376.3 64.386-328.27 116.792-455 96.186-388.587-39.546-688.749 152.489c-25.28 17.212-298.075 56.088-399.647 39.057-.179-.427 0 165.82 0 165.82H1920z" data-name="Path 800" opacity=".123"/>
      <path d="M0 506.995s91.865-15.917 239.4-109.377c88.313-57.846 231.458-82.453 331.6-53.254 127.491 20.856 189.205 46.254 333.985 0S1635.734 156.8 1919.872 187.358c.287 1.44 0 405.686 0 405.686H0z" data-name="Path 801"/>
    </g>
  </g>
  <g>
  <path fill="#25272E" d="M-106 349.614s98.592-17.179 256.937-118.052c94.781-62.434 248.413-88.993 355.889-57.478 136.827 22.51 203.066 49.923 358.452 0C1020.66 124.161 1649.56-28.356 1954.51 4.624c.31 1.556 0 961.932 0 961.932H-106V349.614z"/>
  <path fill="#fff" d="M2161.59 889.934s-104.13-18.129-271.39-124.576c-100.11-65.884-262.39-93.911-375.91-60.654-144.53 23.754-214.49 52.681-378.62 0C971.539 652.022 307.256 491.077-14.855 525.88c-.326 1.641 0 462.06 0 462.06H2161.59v-98.006z"/>
    </g>
</svg>