<svg xmlns="http://www.w3.org/2000/svg" width="461" height="333">
    <!-- Individual shapes and images -->
    <symbol id="box-bg" width="461" height="333" viewBox="0 0 461 333">
        <g filter="url(#box-bg_d)">
        <path d="M435.176 15.9688H25.1758C19.6529 15.9688 15.1758 20.4683 15.1758 26.0187V307.418C15.1758 312.968 19.6529 317.468 25.1758 317.468H435.176C440.699 317.468 445.176 312.968 445.176 307.418V26.0187C445.176 20.4683 440.699 15.9688 435.176 15.9688Z" fill="#1E2024"/>
        </g>
        <defs>
        <filter id="box-bg_d" x="0.175781" y="0.96875" width="460" height="331.499" filterUnits="userSpaceOnUse" color-interpolation-filters="sRGB">
        <feFlood flood-opacity="0" result="BackgroundImageFix"/>
        <feColorMatrix in="SourceAlpha" type="matrix" values="0 0 0 0 0 0 0 0 0 0 0 0 0 0 0 0 0 0 127 0"/>
        <feOffset/>
        <feGaussianBlur stdDeviation="7.5"/>
        <feColorMatrix type="matrix" values="0 0 0 0 0 0 0 0 0 0 0 0 0 0 0 0 0 0 0.051 0"/>
        <feBlend mode="normal" in2="BackgroundImageFix" result="effect1_dropShadow"/>
        <feBlend mode="normal" in="SourceGraphic" in2="effect1_dropShadow" result="shape"/>
        </filter>
        </defs>
    </symbol>
    <symbol id="ecllipse" width="343" height="56" viewBox="0 0 343 56">
        <rect x="0.5" y="0.5" width="342" height="55" rx="27.5" stroke="#A063FC"/>
    </symbol>
    <symbol id="text-1" width="231" height="17" viewBox="0 0 231 17">
        <path d="M2.28 11.608V7.992H7.896V6.632H2.28V3.192H8.584V1.8H0.68V13H8.808V11.608H2.28ZM13.4974 13.096C15.7534 13.096 17.1614 12.12 17.1614 10.584C17.1614 7.288 11.7854 8.92 11.7854 6.92C11.7854 6.248 12.4414 5.752 13.7854 5.752C14.6174 5.752 15.4654 5.928 16.2334 6.424L16.8894 5.208C16.1534 4.728 14.9054 4.44 13.8014 4.44C11.6254 4.44 10.2654 5.464 10.2654 6.984C10.2654 10.36 15.6254 8.712 15.6254 10.616C15.6254 11.336 15.0334 11.768 13.6094 11.768C12.5054 11.768 11.3534 11.4 10.6334 10.888L9.99338 12.104C10.6974 12.664 12.0894 13.096 13.4974 13.096ZM23.369 11.4C23.049 11.656 22.617 11.8 22.169 11.8C21.321 11.8 20.841 11.288 20.841 10.376V5.784H23.273V4.52H20.841V2.664H19.305V4.52H17.865V5.784H19.305V10.44C19.305 12.152 20.281 13.096 21.993 13.096C22.681 13.096 23.385 12.904 23.849 12.504L23.369 11.4ZM28.794 4.44C27.434 4.44 26.17 4.824 25.29 5.528L25.93 6.68C26.586 6.12 27.61 5.768 28.618 5.768C30.138 5.768 30.89 6.52 30.89 7.816V8.12H28.458C25.93 8.12 25.05 9.24 25.05 10.6C25.05 12.072 26.266 13.096 28.186 13.096C29.514 13.096 30.458 12.648 30.97 11.88V13H32.426V7.88C32.426 5.56 31.114 4.44 28.794 4.44ZM28.442 11.912C27.274 11.912 26.57 11.384 26.57 10.536C26.57 9.816 27.002 9.224 28.522 9.224H30.89V10.408C30.506 11.384 29.594 11.912 28.442 11.912ZM39.7645 4.44C38.5645 4.44 37.5085 4.888 36.8045 5.8V1.128H35.2685V13H36.7405V11.656C37.4285 12.616 38.5165 13.096 39.7645 13.096C42.2445 13.096 44.0525 11.352 44.0525 8.76C44.0525 6.168 42.2445 4.44 39.7645 4.44ZM39.6365 11.752C38.0205 11.752 36.7885 10.568 36.7885 8.76C36.7885 6.952 38.0205 5.784 39.6365 5.784C41.2685 5.784 42.5005 6.952 42.5005 8.76C42.5005 10.568 41.2685 11.752 39.6365 11.752ZM46.1748 13H47.7108V1.128H46.1748V13ZM51.4115 2.888C52.0195 2.888 52.4515 2.44 52.4515 1.864C52.4515 1.32 52.0035 0.888 51.4115 0.888C50.8195 0.888 50.3715 1.336 50.3715 1.896C50.3715 2.456 50.8195 2.888 51.4115 2.888ZM50.6435 13H52.1795V4.52H50.6435V13ZM57.5443 13.096C59.8003 13.096 61.2083 12.12 61.2083 10.584C61.2083 7.288 55.8323 8.92 55.8323 6.92C55.8323 6.248 56.4883 5.752 57.8323 5.752C58.6643 5.752 59.5123 5.928 60.2803 6.424L60.9363 5.208C60.2003 4.728 58.9523 4.44 57.8483 4.44C55.6723 4.44 54.3123 5.464 54.3123 6.984C54.3123 10.36 59.6723 8.712 59.6723 10.616C59.6723 11.336 59.0803 11.768 57.6562 11.768C56.5523 11.768 55.4003 11.4 54.6803 10.888L54.0403 12.104C54.7443 12.664 56.1363 13.096 57.5443 13.096ZM67.6559 4.44C66.3599 4.44 65.3039 4.904 64.6639 5.72V1.128H63.1279V13H64.6639V8.632C64.6639 6.792 65.7199 5.816 67.3519 5.816C68.8079 5.816 69.6399 6.632 69.6399 8.296V13H71.1759V8.12C71.1759 5.624 69.7199 4.44 67.6559 4.44ZM86.4434 3.192V1.8H78.5394V13H80.1394V8.472H85.7554V7.096H80.1394V3.192H86.4434ZM89.0834 2.888C89.6914 2.888 90.1234 2.44 90.1234 1.864C90.1234 1.32 89.6754 0.888 89.0834 0.888C88.4914 0.888 88.0434 1.336 88.0434 1.896C88.0434 2.456 88.4914 2.888 89.0834 2.888ZM88.3154 13H89.8514V4.52H88.3154V13ZM97.0721 11.4C96.7521 11.656 96.3201 11.8 95.8721 11.8C95.0241 11.8 94.5441 11.288 94.5441 10.376V5.784H96.9761V4.52H94.5441V2.664H93.0081V4.52H91.5681V5.784H93.0081V10.44C93.0081 12.152 93.9841 13.096 95.6961 13.096C96.3841 13.096 97.0881 12.904 97.5521 12.504L97.0721 11.4ZM112.986 12.152L111.482 10.648C111.93 9.944 112.266 9.08 112.458 8.088L111.226 7.688C111.082 8.472 110.842 9.144 110.538 9.72L107.77 6.968C109.482 5.992 110.154 5.176 110.154 4.04C110.154 2.584 109.066 1.704 107.37 1.704C105.53 1.704 104.346 2.712 104.346 4.216C104.346 5.048 104.682 5.768 105.69 6.776C103.754 7.88 102.97 8.84 102.97 10.216C102.97 11.928 104.618 13.128 106.89 13.128C108.378 13.128 109.658 12.632 110.634 11.688L112.122 13.176L112.986 12.152ZM107.37 2.824C108.33 2.824 108.858 3.32 108.858 4.056C108.858 4.76 108.378 5.272 106.906 6.104C105.994 5.176 105.77 4.76 105.77 4.184C105.77 3.384 106.362 2.824 107.37 2.824ZM106.986 11.848C105.482 11.848 104.474 11.128 104.474 10.056C104.474 9.16 104.97 8.504 106.538 7.624L109.722 10.792C109.002 11.496 108.058 11.848 106.986 11.848ZM127.564 13H129.244L124.156 1.8H122.572L117.5 13H119.148L120.38 10.2H126.332L127.564 13ZM120.94 8.92L123.356 3.432L125.772 8.92H120.94ZM137.268 4.52V5.832C136.548 4.904 135.396 4.44 134.132 4.44C131.684 4.44 129.828 6.088 129.828 8.536C129.828 10.984 131.684 12.648 134.132 12.648C135.348 12.648 136.452 12.216 137.188 11.336V12.008C137.188 13.928 136.276 14.856 134.276 14.856C133.028 14.856 131.796 14.424 131.012 13.752L130.276 14.936C131.204 15.768 132.772 16.2 134.324 16.2C137.204 16.2 138.724 14.84 138.724 11.848V4.52H137.268ZM134.308 11.304C132.596 11.304 131.38 10.168 131.38 8.536C131.38 6.888 132.596 5.784 134.308 5.784C136.004 5.784 137.22 6.888 137.22 8.536C137.22 10.168 136.004 11.304 134.308 11.304ZM143.131 5.944V4.52H141.659V13H143.195V8.776C143.195 6.92 144.219 5.912 145.867 5.912C145.979 5.912 146.091 5.912 146.219 5.928V4.44C144.731 4.44 143.675 4.952 143.131 5.944ZM155.698 8.808C155.698 6.2 153.954 4.44 151.506 4.44C149.058 4.44 147.25 6.248 147.25 8.76C147.25 11.288 149.074 13.096 151.81 13.096C153.218 13.096 154.386 12.616 155.154 11.72L154.306 10.728C153.682 11.416 152.85 11.752 151.858 11.752C150.178 11.752 148.978 10.76 148.786 9.272H155.666C155.682 9.128 155.698 8.936 155.698 8.808ZM151.506 5.736C152.994 5.736 154.066 6.744 154.226 8.168H148.786C148.946 6.728 150.034 5.736 151.506 5.736ZM165.495 8.808C165.495 6.2 163.751 4.44 161.303 4.44C158.855 4.44 157.047 6.248 157.047 8.76C157.047 11.288 158.871 13.096 161.607 13.096C163.015 13.096 164.183 12.616 164.951 11.72L164.103 10.728C163.479 11.416 162.647 11.752 161.655 11.752C159.975 11.752 158.775 10.76 158.583 9.272H165.463C165.479 9.128 165.495 8.936 165.495 8.808ZM161.303 5.736C162.791 5.736 163.863 6.744 164.023 8.168H158.583C158.743 6.728 159.831 5.736 161.303 5.736ZM184.069 13L184.053 1.8H182.741L178.133 9.672L173.461 1.8H172.149V13H173.685V4.888L177.733 11.64H178.469L182.517 4.84L182.533 13H184.069ZM187.974 2.888C188.582 2.888 189.014 2.44 189.014 1.864C189.014 1.32 188.566 0.888 187.974 0.888C187.382 0.888 186.934 1.336 186.934 1.896C186.934 2.456 187.382 2.888 187.974 2.888ZM187.206 13H188.742V4.52H187.206V13ZM194.107 13.096C196.363 13.096 197.771 12.12 197.771 10.584C197.771 7.288 192.395 8.92 192.395 6.92C192.395 6.248 193.051 5.752 194.395 5.752C195.227 5.752 196.075 5.928 196.843 6.424L197.499 5.208C196.763 4.728 195.515 4.44 194.411 4.44C192.235 4.44 190.875 5.464 190.875 6.984C190.875 10.36 196.235 8.712 196.235 10.616C196.235 11.336 195.643 11.768 194.219 11.768C193.115 11.768 191.963 11.4 191.243 10.888L190.603 12.104C191.307 12.664 192.699 13.096 194.107 13.096ZM202.122 13.096C204.378 13.096 205.786 12.12 205.786 10.584C205.786 7.288 200.41 8.92 200.41 6.92C200.41 6.248 201.066 5.752 202.41 5.752C203.242 5.752 204.09 5.928 204.858 6.424L205.514 5.208C204.778 4.728 203.53 4.44 202.426 4.44C200.25 4.44 198.89 5.464 198.89 6.984C198.89 10.36 204.25 8.712 204.25 10.616C204.25 11.336 203.658 11.768 202.234 11.768C201.13 11.768 199.978 11.4 199.258 10.888L198.618 12.104C199.322 12.664 200.714 13.096 202.122 13.096ZM208.474 2.888C209.082 2.888 209.514 2.44 209.514 1.864C209.514 1.32 209.066 0.888 208.474 0.888C207.882 0.888 207.434 1.336 207.434 1.896C207.434 2.456 207.882 2.888 208.474 2.888ZM207.706 13H209.242V4.52H207.706V13ZM215.807 13.096C218.351 13.096 220.207 11.288 220.207 8.76C220.207 6.232 218.351 4.44 215.807 4.44C213.263 4.44 211.391 6.232 211.391 8.76C211.391 11.288 213.263 13.096 215.807 13.096ZM215.807 11.752C214.175 11.752 212.943 10.568 212.943 8.76C212.943 6.952 214.175 5.784 215.807 5.784C217.439 5.784 218.655 6.952 218.655 8.76C218.655 10.568 217.439 11.752 215.807 11.752ZM226.859 4.44C225.515 4.44 224.427 4.936 223.803 5.8V4.52H222.331V13H223.867V8.632C223.867 6.792 224.923 5.816 226.555 5.816C228.011 5.816 228.843 6.632 228.843 8.296V13H230.379V8.12C230.379 5.624 228.923 4.44 226.859 4.44Z" fill="white"/>
    </symbol>
    <symbol id="text-2" width="107" height="13" viewBox="0 0 107 13">
        <path d="M7.05578 6.74744C8.07978 6.33144 8.76778 5.48344 8.76778 4.20344C8.76778 2.37944 7.32778 1.32344 4.83178 1.32344H-0.00021863V12.5234H5.15178C7.95178 12.5234 9.35978 11.4354 9.35978 9.53144C9.35978 8.01144 8.49578 7.06744 7.05578 6.74744ZM4.75178 2.29944C6.54378 2.29944 7.58378 2.98744 7.58378 4.33144C7.58378 5.67544 6.54378 6.36344 4.75178 6.36344H1.18378V2.29944H4.75178ZM5.13578 11.5474H1.18378V7.33944H5.13578C7.10378 7.33944 8.17578 7.97944 8.17578 9.43544C8.17578 10.9074 7.10378 11.5474 5.13578 11.5474ZM11.8223 12.5234H12.9583V0.651437H11.8223V12.5234ZM23.4632 8.31544C23.4632 5.78744 21.7512 4.04344 19.3832 4.04344C17.0152 4.04344 15.2712 5.81944 15.2712 8.31544C15.2712 10.8114 17.0632 12.6034 19.6872 12.6034C21.0152 12.6034 22.1832 12.1234 22.9352 11.2274L22.2952 10.4914C21.6552 11.2274 20.7432 11.5954 19.7192 11.5954C17.8792 11.5954 16.5352 10.4274 16.4072 8.66744H23.4472C23.4472 8.53944 23.4632 8.41144 23.4632 8.31544ZM19.3832 5.01944C21.0312 5.01944 22.2312 6.17144 22.3752 7.81944H16.4072C16.5512 6.17144 17.7512 5.01944 19.3832 5.01944ZM30.0634 4.04344C28.6074 4.04344 27.4714 4.63544 26.8634 5.65944V4.10744H25.7754V12.5234H26.9114V8.10744C26.9114 6.18744 28.0474 5.06744 29.8554 5.06744C31.4554 5.06744 32.3834 5.97944 32.3834 7.75544V12.5234H33.5194V7.64344C33.5194 5.22744 32.1114 4.04344 30.0634 4.04344ZM43.1788 0.651437V5.70744C42.4748 4.61944 41.3228 4.04344 39.9788 4.04344C37.5788 4.04344 35.7868 5.77144 35.7868 8.31544C35.7868 10.8594 37.5788 12.6034 39.9788 12.6034C41.3708 12.6034 42.5388 11.9954 43.2268 10.8594V12.5234H44.3148V0.651437H43.1788ZM40.0748 11.5954C38.2828 11.5954 36.9388 10.2834 36.9388 8.31544C36.9388 6.34744 38.2828 5.03544 40.0748 5.03544C41.8508 5.03544 43.1948 6.34744 43.1948 8.31544C43.1948 10.2834 41.8508 11.5954 40.0748 11.5954ZM54.61 4.04344C53.282 4.04344 52.034 4.45944 51.186 5.17944L51.698 6.02744C52.386 5.41944 53.41 5.03544 54.498 5.03544C56.066 5.03544 56.882 5.81944 56.882 7.25944V7.77144H54.21C51.794 7.77144 50.962 8.85944 50.962 10.1554C50.962 11.6114 52.13 12.6034 54.034 12.6034C55.426 12.6034 56.418 12.0754 56.93 11.2114V12.5234H58.018V7.30744C58.018 5.13144 56.786 4.04344 54.61 4.04344ZM54.21 11.7074C52.866 11.7074 52.082 11.0994 52.082 10.1234C52.082 9.25944 52.61 8.61944 54.242 8.61944H56.882V9.99544C56.434 11.0994 55.49 11.7074 54.21 11.7074ZM67.707 12.5234H68.891V2.34744H72.827V1.32344H63.771V2.34744H67.707V12.5234ZM80.9475 8.31544C80.9475 5.78744 79.2355 4.04344 76.8675 4.04344C74.4995 4.04344 72.7555 5.81944 72.7555 8.31544C72.7555 10.8114 74.5475 12.6034 77.1715 12.6034C78.4995 12.6034 79.6675 12.1234 80.4195 11.2274L79.7795 10.4914C79.1395 11.2274 78.2275 11.5954 77.2035 11.5954C75.3635 11.5954 74.0195 10.4274 73.8915 8.66744H80.9315C80.9315 8.53944 80.9475 8.41144 80.9475 8.31544ZM76.8675 5.01944C78.5155 5.01944 79.7155 6.17144 79.8595 7.81944H73.8915C74.0355 6.17144 75.2355 5.01944 76.8675 5.01944ZM85.9694 4.04344C84.6414 4.04344 83.3934 4.45944 82.5454 5.17944L83.0574 6.02744C83.7454 5.41944 84.7694 5.03544 85.8574 5.03544C87.4254 5.03544 88.2414 5.81944 88.2414 7.25944V7.77144H85.5694C83.1534 7.77144 82.3214 8.85944 82.3214 10.1554C82.3214 11.6114 83.4894 12.6034 85.3934 12.6034C86.7854 12.6034 87.7774 12.0754 88.2894 11.2114V12.5234H89.3774V7.30744C89.3774 5.13144 88.1454 4.04344 85.9694 4.04344ZM85.5694 11.7074C84.2254 11.7074 83.4414 11.0994 83.4414 10.1234C83.4414 9.25944 83.9694 8.61944 85.6014 8.61944H88.2414V9.99544C87.7934 11.0994 86.8494 11.7074 85.5694 11.7074ZM102.959 4.04344C101.439 4.04344 100.239 4.73144 99.6309 5.81944C99.1189 4.63544 98.0309 4.04344 96.6389 4.04344C95.2309 4.04344 94.1429 4.63544 93.5509 5.64344V4.10744H92.4629V12.5234H93.5989V8.10744C93.5989 6.18744 94.7029 5.06744 96.4149 5.06744C97.9509 5.06744 98.8469 5.97944 98.8469 7.75544V12.5234H99.9829V8.10744C99.9829 6.18744 101.071 5.06744 102.799 5.06744C104.319 5.06744 105.215 5.97944 105.215 7.75544V12.5234H106.351V7.64344C106.351 5.22744 105.007 4.04344 102.959 4.04344Z" fill="#959595"/>
    </symbol>
    <symbol id="text-3"  width="62" height="12" viewBox="0 0 62 12">
        <path d="M1.18378 10.7846V6.62459H6.97578V5.61659H1.18378V1.63259H7.67978V0.608593H-0.00021863V11.8086H7.91978V10.7846H1.18378ZM16.8845 11.8086L13.5245 7.48859L16.6925 3.39259H15.4445L12.9165 6.68859L10.3885 3.39259H9.10853L12.2765 7.48859L8.94853 11.8086H10.2285L12.9165 8.28859L15.5885 11.8086H16.8845ZM25.8225 7.60059C25.8225 5.07259 24.1105 3.32859 21.7425 3.32859C19.3745 3.32859 17.6305 5.10459 17.6305 7.60059C17.6305 10.0966 19.4225 11.8886 22.0465 11.8886C23.3745 11.8886 24.5425 11.4086 25.2945 10.5126L24.6545 9.77659C24.0145 10.5126 23.1025 10.8806 22.0785 10.8806C20.2385 10.8806 18.8945 9.71259 18.7665 7.95259H25.8065C25.8065 7.82459 25.8225 7.69659 25.8225 7.60059ZM21.7425 4.30459C23.3905 4.30459 24.5905 5.45659 24.7345 7.10459H18.7665C18.9105 5.45659 20.1105 4.30459 21.7425 4.30459ZM31.6228 11.8886C33.0468 11.8886 34.2468 11.3126 34.9188 10.2246L34.0708 9.64859C33.4948 10.4966 32.5988 10.8806 31.6228 10.8806C29.7828 10.8806 28.4388 9.58459 28.4388 7.60059C28.4388 5.63259 29.7828 4.32059 31.6228 4.32059C32.5988 4.32059 33.4948 4.72059 34.0708 5.56859L34.9188 4.99259C34.2468 3.88859 33.0468 3.32859 31.6228 3.32859C29.1108 3.32859 27.2868 5.08859 27.2868 7.60059C27.2868 10.1126 29.1108 11.8886 31.6228 11.8886ZM43.5984 3.39259V7.80859C43.5984 9.72859 42.4944 10.8646 40.7344 10.8646C39.1344 10.8646 38.2064 9.95259 38.2064 8.16059V3.39259H37.0704V8.27259C37.0704 10.6886 38.4784 11.8886 40.6224 11.8886C41.9664 11.8886 43.0544 11.2966 43.6464 10.2726V11.8086H44.7344V3.39259H43.5984ZM51.948 10.4806C51.628 10.7686 51.164 10.9126 50.7 10.9126C49.756 10.9126 49.244 10.3686 49.244 9.37659V4.35259H51.804V3.39259H49.244V1.55259H48.108V3.39259H46.604V4.35259H48.108V9.44059C48.108 10.9926 48.988 11.8886 50.572 11.8886C51.228 11.8886 51.9 11.6966 52.348 11.2966L51.948 10.4806ZM61.4632 7.60059C61.4632 5.07259 59.7512 3.32859 57.3832 3.32859C55.0152 3.32859 53.2712 5.10459 53.2712 7.60059C53.2712 10.0966 55.0632 11.8886 57.6872 11.8886C59.0152 11.8886 60.1832 11.4086 60.9352 10.5126L60.2952 9.77659C59.6552 10.5126 58.7432 10.8806 57.7192 10.8806C55.8792 10.8806 54.5352 9.71259 54.4072 7.95259H61.4472C61.4472 7.82459 61.4632 7.69659 61.4632 7.60059ZM57.3832 4.30459C59.0312 4.30459 60.2312 5.45659 60.3752 7.10459H54.4072C54.5512 5.45659 55.7512 4.30459 57.3832 4.30459Z" fill="#959595"/>
    </symbol>
    <symbol id="text-4" width="63" height="16" viewBox="0 0 63 16">
        <path d="M10.3678 12.0977H11.6158L6.49578 0.897655H5.32778L0.207781 12.0977H1.43978L2.78378 9.10566H9.02378L10.3678 12.0977ZM3.21578 8.14566L5.90378 2.12966L8.59178 8.14566H3.21578ZM23.7245 3.61766C22.2045 3.61766 21.0045 4.30566 20.3965 5.39366C19.8845 4.20966 18.7965 3.61766 17.4045 3.61766C15.9965 3.61766 14.9085 4.20966 14.3165 5.21766V3.68166H13.2285V12.0977H14.3645V7.68166C14.3645 5.76166 15.4685 4.64166 17.1805 4.64166C18.7165 4.64166 19.6125 5.55366 19.6125 7.32966V12.0977H20.7485V7.68166C20.7485 5.76166 21.8365 4.64166 23.5645 4.64166C25.0845 4.64166 25.9805 5.55366 25.9805 7.32966V12.0977H27.1165V7.21766C27.1165 4.80166 25.7725 3.61766 23.7245 3.61766ZM34.5333 3.61766C33.1413 3.61766 31.9733 4.22566 31.2853 5.34566V3.68166H30.1973V15.2017H31.3333V10.5137C32.0373 11.6017 33.1893 12.1777 34.5333 12.1777C36.9333 12.1777 38.7253 10.4497 38.7253 7.88966C38.7253 5.34566 36.9333 3.61766 34.5333 3.61766ZM34.4533 11.1697C32.6613 11.1697 31.3173 9.85766 31.3173 7.88966C31.3173 5.93766 32.6613 4.60966 34.4533 4.60966C36.2293 4.60966 37.5893 5.93766 37.5893 7.88966C37.5893 9.85766 36.2293 11.1697 34.4533 11.1697ZM41.041 12.0977H42.177V0.225656H41.041V12.0977ZM45.9139 1.84166C46.3939 1.84166 46.7459 1.47366 46.7459 1.00966C46.7459 0.577656 46.3779 0.225656 45.9139 0.225656C45.4499 0.225656 45.0819 0.593656 45.0819 1.02566C45.0819 1.47366 45.4499 1.84166 45.9139 1.84166ZM45.3379 12.0977H46.4739V3.68166H45.3379V12.0977ZM52.4188 1.10566C52.8988 1.10566 53.3468 1.24966 53.6668 1.52166L54.0508 0.673656C53.6348 0.321655 52.9948 0.145656 52.3708 0.145656C50.7228 0.145656 49.8268 1.13766 49.8268 2.64166V3.68166H48.3228V4.64166H49.8268V12.0977H50.9628V4.64166H53.5228V3.68166H50.9308V2.68966C50.9308 1.64966 51.4428 1.10566 52.4188 1.10566ZM61.1649 3.68166L57.9969 10.8337L54.8289 3.68166H53.6449L57.4049 12.0817L57.0369 12.8977C56.5569 13.9537 56.0449 14.3057 55.2929 14.3057C54.6849 14.3057 54.1729 14.0817 53.7569 13.6657L53.2289 14.5137C53.7409 15.0257 54.4929 15.2817 55.2769 15.2817C56.4769 15.2817 57.3729 14.7537 58.0769 13.1057L62.2849 3.68166H61.1649Z" fill="#959595"/>
    </symbol>
    <symbol id="line" width="334" height="2" viewBox="0 0 334 2">
        <path d="M0.675781 1.22266H333.759" stroke="#292B2F"/>
    </symbol>

    <!-- Combined shapes and images  -->
    <symbol xmlns="http://www.w3.org/2000/svg" id="process-main">
        <use x="0" y="0" href="#box-bg"/>
        <use x="57" y="50" href="#ecllipse"/>
        <use x="90" y="70" href="#text-1"/>
        <use x="90" y="135" href="#text-2"/>
        <use x="70" y="170" href="#line"/>        
        <use x="90" y="190" href="#text-3"/>
        <use x="70" y="220" href="#line"/>
        <use x="90" y="240" href="#text-4"/>
     </symbol>

    <use href="#process-main"/>
</svg>