<svg xmlns="http://www.w3.org/2000/svg" width="1920" height="1550" fill="none"><defs/><rect width="100%" height="100%"/><defs><filter id="b" width="1989" height="1368" x="-13" y="462" color-interpolation-filters="sRGB" filterUnits="userSpaceOnUse"><feFlood flood-opacity="0" result="BackgroundImageFix"/><feColorMatrix in="SourceAlpha" values="0 0 0 0 0 0 0 0 0 0 0 0 0 0 0 0 0 0 127 0"/><feOffset dy="4"/><feGaussianBlur stdDeviation="2"/><feColorMatrix values="0 0 0 0 0 0 0 0 0 0 0 0 0 0 0 0 0 0 0.25 0"/><feBlend in2="BackgroundImageFix" result="effect1_dropShadow"/><feBlend in="SourceGraphic" in2="effect1_dropShadow" result="shape"/></filter></defs><g class="currentLayer"><g filter="url(#b)"><path fill="#25272E" d="M-4.333 435.333h1981v1360h-1981z"/></g><path fill="#25272E" d="M-392.333 471.892s139.134-24.498 362.59-168.346c133.756-89.033 350.563-126.906 502.234-81.965 193.089 32.1 286.567 71.191 505.848 0 219.278-71.19 1106.788-288.684 1537.138-241.653.43 2.218 0 624.405 0 624.405h-2907.81v-132.44z"/><path fill="#A66BF0" d="M2122.387 1140.523s-182.86 9.26-326.95-43.28c-144.1-52.55-577.67 144.96-605.6 153.81-27.93 8.85-217.208 57.24-451.625 45.1-234.418-12.14-814.126 40.86-867.545 64.08 1.677.62 0 313.73 0 313.73h2251.72v-533.44z" opacity=".24"/><path fill="#8C3CEC" d="M2123.487 1023.453s-247.33-73.635-441.58 75.98c-194.25 149.61-385.22 137.81-533.94 113.5-148.711-24.32-455.995-46.67-808.23 179.94-29.665 20.31-349.784 66.19-468.977 46.09-.21-.5 0 195.67 0 195.67h2252.727v-611.18z" opacity=".123"/><path fill="#fff" d="M2052.667 1816.403v-652.08c-50.31-58.19-208.02-131.96-436.34 38.51-285.41 213.08-546.11 184.84-900.126 146.33-354.012-38.51-644.906 156.6-771.143 219.5-100.99 50.32-397.006 50.92-532.391 44.93v202.81h2640z"/></g></svg>