<svg xmlns="http://www.w3.org/2000/svg" xmlns:xlink="http://www.w3.org/1999/xlink" width="1921" height="1715" viewBox="0 0 1921 1080.065">
    
    <symbol id="top-wave" width="1920" height="1080" viewBox="0 0 1920 1080" fill="none">
        <path d="M-293 498.559C-293 498.559 -153.866 474.061 69.5903 330.213C203.347 241.18 420.153 203.307 571.824 248.248C764.913 280.348 858.391 319.439 1077.67 248.248C1296.95 177.057 2184.46 -40.4364 2614.81 6.59491C2615.24 8.81281 2614.81 631 2614.81 631H-293V498.559Z" fill="#25272E"/>
    </symbol>
    <symbol id="bottom-wave">
        <g id="Group_231" data-name="Group 231" transform="translate(-7146 -1265)">
            <path id="Path_799" data-name="Path 799" d="M-80,649.891s-155.839,7.854-278.641-36.674-492.307,122.839-516.107,130.34-185.109,48.508-384.886,38.22-693.819,34.628-739.344,54.3c1.429.528,0,265.865,0,265.865H-80Z" transform="translate(9146 1217)" fill="#8C3CEC" opacity="0.24"/>
            <path id="Path_800" data-name="Path 800" d="M-80,550.377s-210.766-62.4-376.3,64.386-328.27,116.792-455,96.186-388.587-39.546-688.749,152.489c-25.28,17.212-298.075,56.088-399.647,39.057-.179-.427,0,165.821,0,165.821H-80Z" transform="translate(9147 1217)" fill="#8C3CEC" opacity="0.123"/>
            <path id="Path_801" data-name="Path 801" d="M-1999,1042.017s91.865-15.917,239.4-109.377c88.313-57.846,231.458-82.453,331.6-53.254,127.491,20.856,189.205,46.254,333.985,0S-363.266,691.823-79.128,722.38c.287,1.441,0,405.686,0,405.686H-1999Z" transform="translate(9146 1217)" fill="#fff"/>
        </g><path xmlns="http://www.w3.org/2000/svg" d="M-293 5386.56C-293 5386.56 -153.866 5362.06 69.5903 5218.21C203.347 5129.18 420.153 5091.31 571.824 5136.25C764.913 5168.35 858.391 5207.44 1077.67 5136.25C1296.95 5065.06 2184.46 4847.56 2614.81 4894.59C2615.24 4896.81 2614.81 5519 2614.81 5519H-293V5386.56Z" fill="#25272E"/>
    </symbol>

    <symbol id="all-waves">
        <use x="0" y="0" href="#top-wave"/>
        <use x="0" y="-50" href="#bottom-wave" />
    </symbol>

    <use href="#all-waves"/>

</svg>
