<svg xmlns="http://www.w3.org/2000/svg" width="651" height="387">
    <symbol id="tools-image" width="311" height="178" viewBox="0 0 311 178">
        <path d="M32.0459 166.123C32.0459 164.035 86.7576 162.34 154.244 162.34C221.734 162.34 276.443 164.035 276.443 166.123C276.443 168.215 221.734 169.906 154.244 169.906C86.7576 169.906 32.0459 168.215 32.0459 166.123Z" fill="#4B4B9F"/>
        <path d="M219.743 164.339C219.062 162.527 218.657 159.81 217.795 156.144C217.693 155.713 217.556 155.096 217.39 154.347C216.27 154.204 215.124 154.756 214.186 155.259C214.556 156.25 215.052 157.434 215.078 157.866C215.143 158.902 214.829 159.001 214.829 159.001C214.836 160.79 215.389 162.705 215.759 163.075C216.236 163.552 216.766 165.909 217.216 165.909C217.67 165.909 221.495 166.329 221.495 166.329C221.597 165.451 220.424 166.147 219.743 164.339Z" fill="#F6957E"/>
        <path d="M200.154 163.309C199.953 162.689 199.757 159.976 199.594 156.416C198.595 156.401 197.479 156.061 196.42 156.272C196.499 156.76 196.689 157.608 196.689 157.74C196.689 159.03 196.061 158.55 195.83 159.481C195.678 160.097 196.276 161.27 196.276 161.27C197.158 161.27 197.532 164.414 197.96 165.329C198.209 165.859 199.337 166.109 200.627 166.109C201.629 166.109 201.463 165.848 200.718 164.561C200.51 164.194 200.305 163.778 200.154 163.309Z" fill="#F6957E"/>
        <path d="M196.9 161.704L196.953 165.926L196.484 165.937L195.894 161.121L196.9 161.704Z" fill="#1C1B22"/>
        <path d="M196.59 158.426C196.98 160.787 198.531 165.444 199.435 165.447C200.657 165.451 200.729 165.387 200.721 164.562C201.467 165.845 202.314 166.503 201.308 166.503C200.018 166.503 198.005 166.582 197.755 166.053C197.324 165.137 197.09 161.683 196.208 161.683L196.48 165.939L196.011 165.951C196.011 165.951 195.315 160.09 195.47 159.508C195.682 158.702 196.34 158.57 196.59 158.426Z" fill="#24272E"/>
        <path d="M220.22 165.182C221.117 166.022 222.562 165.84 222.479 166.54C222.479 166.54 217.527 166.328 217.073 166.328C216.619 166.328 216.237 163.544 215.76 163.067C215.283 162.59 215.578 166.328 215.578 166.328H215.09C215.09 166.328 214.765 162.48 214.311 160.986C213.951 159.794 214.462 159.295 214.829 158.996C216.316 161.837 216.475 165.848 220.22 165.182Z" fill="#24272E"/>
        <path opacity="0.1" d="M289.941 146.944C289.635 147.596 289.33 148.239 289.026 148.873C288.551 149.858 288.082 150.824 287.619 151.771C287.414 152.191 287.208 152.603 287.007 153.014C284.738 157.593 282.619 161.644 280.82 164.974C279.187 167.992 276.762 170.521 273.8 172.295C270.838 174.07 267.447 175.025 263.982 175.06L223.967 175.49H223.545L220.115 175.527L217.18 175.558L208.183 175.655H207.818L203.238 175.704H203.098L174.864 176.006L149.662 176.267L146.731 176.298L128.524 176.494H128.503L116.695 176.619H116.568L79.2315 177.018L68.062 177.138C65.6785 177.164 63.3049 176.828 61.0247 176.142C57.0568 174.958 53.4907 172.728 50.7102 169.692C45.9132 164.471 42.4169 158.381 40.0685 151.771C39.729 150.817 39.4124 149.851 39.1186 148.873C30.9889 121.729 40.8997 86.7093 58.737 63.2741C59.4846 62.2942 60.2446 61.3386 61.0168 60.4073L61.0353 60.3864C66.5211 53.7354 72.6718 48.1789 79.2236 44.2278C90.8336 37.2145 103.697 35.239 116.349 41.1264C127.054 46.1095 137.05 48.4525 146.739 49.0885C147.718 49.151 148.697 49.1979 149.67 49.2266C171.896 49.9172 192.725 42.0073 217.186 36.9017C218.159 36.6985 219.136 36.4978 220.12 36.3075C237.569 32.8777 256.927 31.069 279.946 34.8715C282.338 35.2574 284.698 35.8149 287.007 36.5395C288.022 36.8627 289 37.2101 289.941 37.582C300.929 41.9969 306.921 50.1544 309.467 60.376C309.708 61.3247 309.917 62.2899 310.093 63.2715C314.608 87.8587 301.385 122.735 289.941 146.944Z" fill="#4B4B9F"/>
        <path d="M271.447 104.862V5.71094L174.138 5.71094V104.862L271.447 104.862Z" fill="#5A4596"/>
        <path d="M269.577 7.58203H176.006V102.991H269.577V7.58203Z" fill="#EDEDF6"/>
        <path d="M186.306 66.8516H181.732V84.1585H186.306V66.8516Z" fill="#4B4B9F"/>
        <path d="M194.586 63.7266H190.012V84.1612H194.586V63.7266Z" fill="#AA97C8"/>
        <path d="M202.867 60.5977H198.292V84.1599H202.867V60.5977Z" fill="#AA97C8"/>
        <path d="M211.151 57.4688H206.577V84.1587H211.151V57.4688Z" fill="#4B4B9F"/>
        <path d="M219.432 54.3398H214.857V84.1574H219.432V54.3398Z" fill="#4B4B9F"/>
        <path d="M227.712 51.2109H223.138V84.1562H227.712V51.2109Z" fill="#4B4B9F"/>
        <path d="M235.992 48.082H231.418V84.1549H235.992V48.082Z" fill="#4B4B9F"/>
        <path d="M244.277 44.9531H239.703V84.1537H244.277V44.9531Z" fill="#4B4B9F"/>
        <path d="M252.557 41.8281H247.982V84.1563H252.557V41.8281Z" fill="#4B4B9F"/>
        <path d="M260.837 38.6992H256.263V84.1551H260.837V38.6992Z" fill="#4B4B9F"/>
        <path d="M265.445 16.8008C265.039 16.8719 254.119 18.8221 253.722 18.8221L257.451 19.8348C256 20.3872 248.191 23.3501 246.264 24.0825C245.678 26.6395 245.264 28.4515 244.938 29.8911C243.161 29.7237 239.846 29.4141 236.974 29.1462C235.891 30.1213 227.53 37.6499 226.447 38.625C223.817 38.2902 220.556 37.8759 218.198 37.5746C215.941 39.4996 205.087 48.7525 202.93 50.598C200.773 49.8698 197.692 48.8278 195.81 48.1917C195.012 48.7483 181.165 58.361 180.346 58.9301L181.115 60.0433L196.023 49.6899C198.235 50.4348 201.132 51.414 203.227 52.1255C205.046 50.5729 216.977 40.3994 218.625 38.9933C221.246 39.3281 224.515 39.7424 226.894 40.0479C227.488 39.5122 237.058 30.8997 237.442 30.5482C238.918 30.6863 243.805 31.1424 245.996 31.3475C246.364 29.7447 247.25 25.8569 247.434 25.0618L258.049 20.1947L257.225 23.8481L265.445 16.8008Z" fill="#4B4B9F"/>
        <path d="M208.023 60.0047L209.385 59.0854C209.385 59.0854 205.832 53.2441 206.199 48.2124C206.392 45.5566 202.038 41.6409 200.88 42.2462C200.808 42.2198 197.013 42.3295 196.677 51.0044L195.867 61.1662L199.972 64.8019C199.972 64.8019 202.56 60.3679 205.847 62.3163C209.135 64.2646 210.145 64.2079 210.145 64.2079C210.145 64.2079 208.023 60.943 208.023 60.0047Z" fill="#24272E"/>
        <path d="M205.212 59.3008C205.212 59.3008 201.58 57.4924 198.682 59.4483L198.958 61.6086L201.951 67.9757L204.811 67.3326L206.196 60.6136L205.212 59.3008Z" fill="#411227"/>
        <path d="M188.857 125.76C188.857 125.76 202.004 120.626 214.22 125.609L208.605 77.4219L197.857 79.8431L188.857 125.76Z" fill="#565EA4"/>
        <path d="M93.8442 122.516H89.8643V142.052H93.8442V122.516Z" fill="#010101"/>
        <path d="M93.3757 142.059H90.334V155.656H93.3757V142.059Z" fill="#51586D"/>
        <path d="M106.587 109.676C106.784 109.707 107.381 107.694 107.415 107.452C107.51 106.733 107.343 106.109 106.886 105.519C105.44 103.65 103.076 102.666 100.67 102.254C97.5373 101.72 94.0643 101.743 90.8713 101.645C85.4272 101.478 78.7536 101.263 74.3045 104.649C72.148 106.29 72.655 107.588 73.8127 109.953C70.2186 110.679 70.037 111.542 72.6626 112.26C73.737 112.556 74.4785 113.46 74.4785 114.485V114.765C74.4785 120.837 79.8621 125.763 86.5016 125.763H94.3291C100.969 125.763 106.352 120.841 106.352 114.765C106.352 113.672 107.185 112.741 108.35 112.495C110.109 112.128 111.123 111.697 111.123 111.239C111.123 110.649 109.42 110.104 106.587 109.676ZM90.9999 120.826C85.5142 120.826 81.0651 118.238 81.0273 115.034H100.969C100.935 118.238 96.4856 120.826 90.9999 120.826Z" fill="#565EA4"/>
        <path d="M108.164 161.232C108.153 160.547 107.665 160.002 107.071 160.018L93.8596 154.975V154.191H90.0763V154.876L76.6042 160.324C76.0103 160.324 75.5298 160.876 75.5298 161.561V162.189H79.9826V160.733L90.4811 157.301H91.1735L91.4496 160.6H90.6854C90.1104 160.6 89.645 161.137 89.645 161.799V162.189H94.5292V161.799C94.5292 161.137 94.0638 160.6 93.4888 160.6H92.6905L92.9516 157.301H93.2353L103.696 160.49L103.719 161.947L108.172 161.856L108.164 161.232Z" fill="#010101"/>
        <path d="M102.455 104.25C98.6608 102.786 94.2912 102.918 90.2432 102.952C89.1574 102.96 88.0754 102.971 86.9896 102.983C82.2416 103.047 73.1921 103.804 73.8012 109.864C73.805 109.895 73.8088 109.921 73.8126 109.951C73.8126 109.951 76.1809 110.746 77.9968 112.365C79.8128 113.984 80.5089 118.335 80.5278 118.403C80.6489 118.91 81.0045 119.364 81.4055 119.727C83.5809 121.713 87.2052 122.323 90.1978 122.304C92.2672 122.288 94.662 122.198 96.6028 121.551C102.603 119.549 100.7 113.984 102.512 112.365C104.328 110.746 106.591 109.675 106.591 109.675C106.591 109.675 107.324 106.126 102.455 104.25ZM90.9998 120.824C85.5141 120.824 81.065 118.237 81.0272 115.032H100.969C100.935 118.237 96.4855 120.824 90.9998 120.824Z" fill="#565EA4"/>
        <path d="M164.119 124.93H160.139V144.466H164.119V124.93Z" fill="#010101"/>
        <path d="M163.646 144.465H160.604V158.062H163.646V144.465Z" fill="#565EA4"/>
        <path d="M178.438 162.182C178.427 161.641 177.939 161.209 177.345 161.217L164.134 157.218V156.598H160.351V157.142L146.879 161.463C146.285 161.463 145.804 161.902 145.804 162.443V162.942H150.257V161.788L160.756 159.068H161.448L161.724 161.682H160.96C160.385 161.682 159.919 162.106 159.919 162.632V162.942H164.804V162.632C164.804 162.106 164.338 161.682 163.763 161.682H162.965L163.226 159.068H163.51L173.97 161.595L173.993 162.749L178.446 162.677L178.438 162.182Z" fill="#010101"/>
        <path d="M173.932 124.434C173.717 123.715 172.994 124.037 172.453 124.2L172.169 124.245C171.33 116.3 163.623 111.931 156.885 113.535C156.193 109.899 154.471 107.202 148.229 106.736C146.33 106.596 144.537 106.619 142.641 106.838C141.801 106.941 141.162 107.671 141.196 108.529C141.23 109.434 141.991 110.137 142.895 110.103C142.838 110.107 146.935 109.827 150.196 110.663C152.625 111.322 152.951 112.169 153.469 114.885C154.244 119.066 154.017 123.7 156.106 125.406C159.144 127.771 174.681 126.95 173.932 124.434ZM158.141 122.841C158.183 122.849 158.16 122.841 158.183 122.86C158.168 122.853 158.153 122.849 158.141 122.841ZM158.217 122.876C157.57 120.439 157.441 117.988 157.203 115.755C161.735 115.018 166.555 116.645 169.033 120.727C169.158 120.991 169.934 121.952 170.63 124.374C166.907 124.495 160.339 123.814 158.217 122.876Z" fill="#565EA4"/>
        <path d="M82.9187 76.9844C82.9187 76.9844 75.6322 86.6051 73.5703 88.5535C74.2778 89.9117 76.8958 90.9559 77.4595 92.3897C80.7925 91.1904 82.5328 87.6871 83.0851 86.416C83.785 84.8081 82.9187 76.9844 82.9187 76.9844Z" fill="#24272E"/>
        <path d="M84.6934 76.1645C84.6934 76.1645 94.6849 75.9148 95.4794 77.2578C96.2738 78.6009 98.3697 75.143 96.6597 73.433C94.9497 71.7229 87.8978 61.6406 87.8978 61.6406L84.6934 76.1645Z" fill="#3C1448"/>
        <path d="M88.6806 76.1641C88.6806 76.1641 84.3753 76.5802 82.9112 76.9548C82.6767 77.0153 83.0361 84.926 83.089 86.4166C83.2555 91.0587 87.4511 100.619 84.5985 108.333C83.5657 111.129 98.3355 110.417 97.5107 108.276C97.1248 107.27 95.6456 104.538 95.5548 100.944C95.4488 96.8659 96.7768 91.8077 97.1097 89.3751C97.7642 84.5742 97.2951 78.2335 96.9621 76.8261C96.9584 76.8223 92.0061 76.1641 88.6806 76.1641Z" fill="#24272E"/>
        <path d="M82.9076 76.9531C82.8054 77.1082 82.9151 78.9545 82.9151 78.9242C82.9265 79.1209 83.4637 88.7946 83.5053 87.7959C84.3187 93.1794 87.489 101.189 84.5949 108.327C87.0275 99.3385 82.9151 92.192 82.8168 85.8702C82.7941 84.845 82.7449 83.2938 82.7373 80.9104C82.7449 80.377 82.7297 77.1801 82.9076 76.9531Z" fill="#24272E"/>
        <path d="M100.45 91.4099C101.899 93.5588 103.189 95.806 102.735 96.4113C101.877 97.5463 96.7011 98.2802 95.7931 98.4013L95.0516 98.1743C94.8019 98.1743 91.4462 96.9788 90.4436 97.3231C89.4562 97.6636 86.3539 101.742 87.1068 101.742C87.8597 101.742 89.3162 100.085 89.3162 100.085C89.3162 100.085 88.9871 101.133 89.7399 101.133C89.7399 101.133 90.1637 102.086 90.6328 102.086C91.1019 102.086 92.0439 101.882 92.0439 101.882C92.0439 101.882 94.0642 100.86 95.3807 100.86C95.6456 100.86 103.984 102.15 106.946 99.9449C108.387 98.8742 107.427 93.8803 105.437 88.8789C103.655 89.3178 102.092 90.4111 100.45 91.4099Z" fill="#F6957E"/>
        <path d="M105.433 88.8789C103.655 89.3178 102.092 90.4111 100.45 91.4099C100.779 91.8979 101.097 92.3897 101.392 92.8664C102.652 91.9963 104.748 90.6003 105.913 90.1463C105.762 89.7263 105.599 89.3026 105.433 88.8789Z" fill="#F15F5C"/>
        <path d="M96.9582 76.8203C96.9582 76.8203 96.0843 86.006 97.2117 86.9707C97.2117 86.9707 98.5926 89.7627 100.125 92.0327C101.767 91.0301 104.767 89.6568 106.541 89.218C104.438 83.9404 99.7578 77.5051 96.9582 76.8203Z" fill="#24272E"/>
        <path d="M84.784 107.562C84.784 107.562 78.7686 112.901 78.1255 115.295C77.4861 117.671 77.2856 121.61 80.5051 121.61C82.0146 121.61 85.3325 121.023 88.8396 121.277C92.812 121.56 96.9735 122.635 98.0669 121.61C100.121 119.684 101.933 116.934 101.933 114.361C101.933 111.785 97.314 107.566 97.314 107.566H84.784V107.562Z" fill="#24272E"/>
        <path d="M97.3065 107.562H84.784C84.784 107.562 82.7864 109.144 80.978 110.979C83.6149 110.097 87.262 109.549 92.2483 109.957C95.7024 110.241 98.4528 110.729 100.632 111.304C99.2624 109.348 97.3065 107.562 97.3065 107.562Z" fill="#24272E"/>
        <path d="M79.0218 156.572C78.9386 158.456 78.1289 160.616 78.1289 160.616C78.0646 160.768 79.0634 162.905 79.7709 162.863C80.7469 162.807 82.0938 160.541 82.0938 160.541C82.0938 160.541 81.3674 157.374 82.6159 152.006C82.7558 151.4 82.9412 150.576 83.1606 149.584C81.8592 148.979 80.5994 148.294 79.2374 148.094C79.1088 152.653 79.0445 156.016 79.0218 156.572Z" fill="#F37575"/>
        <path d="M86.9969 113.795C86.9969 113.795 82.9791 112.865 81.322 116.682C80.153 119.376 78.3219 137.573 78.0269 148.491C79.3888 148.692 81.9841 149.085 83.2818 149.691C84.9993 141.909 88.6502 123.753 88.7939 120.412C88.9604 116.644 88.7031 113.863 86.9969 113.795Z" fill="#24272E"/>
        <path d="M82.0901 160.539C82.0901 160.539 81.9464 163.433 79.7596 163.516C78.2199 163.573 77.9323 161.322 78.1253 160.615C78.1253 160.615 79.9412 163.195 82.0901 160.539Z" fill="#8C2E60"/>
        <path d="M87.8103 157.573C87.2996 159.396 87.398 161.685 87.398 161.685C87.4131 161.848 85.7901 163.615 85.1243 163.38C84.2125 163.059 83.6299 160.52 83.6299 160.52C83.6299 160.52 85.3134 157.69 85.8015 152.216C85.8582 151.599 85.9377 150.756 86.0398 149.749C87.4736 149.53 88.8924 149.223 90.2581 149.409C88.9491 153.805 87.9617 157.036 87.8103 157.573Z" fill="#F37575"/>
        <path d="M93.5765 114.487C93.5765 114.487 97.7078 114.706 98.0974 118.811C98.3698 121.709 94.4277 139.608 91.2952 150.125C89.9294 149.94 87.406 149.535 85.9722 149.754C86.7629 141.844 88.8853 123.548 89.7894 120.313C90.8071 116.67 91.9232 114.082 93.5765 114.487Z" fill="#24272E"/>
        <path d="M83.6301 160.52C83.6301 160.52 82.8583 163.327 84.9278 164.008C86.3805 164.488 87.3642 162.415 87.3982 161.685C87.3982 161.685 84.8559 163.656 83.6301 160.52Z" fill="#8C2E60"/>
        <path d="M83.9743 65.0586C83.9743 65.0586 84.6023 72.0841 82.6691 74.0173C80.7358 75.9505 80.4597 75.8976 79.79 75.7122C79.79 75.7122 80.2365 76.9039 81.466 76.9796C81.5492 76.9833 81.6363 76.9833 81.7271 76.9796C83.1571 76.8925 81.6135 78.0578 80.8683 78.3188C80.123 78.5799 82.3588 78.8787 83.9213 78.5042C85.4876 78.1297 90.769 78.0502 90.2507 72.3716C89.7399 66.6967 83.9743 65.0586 83.9743 65.0586Z" fill="#24272E"/>
        <path d="M88.1356 72.6221L87.5757 79.0309C87.5757 79.0309 89.9061 80.1848 92.8079 78.8342L91.6502 68.3281L88.1356 72.6221Z" fill="#F6957E"/>
        <path d="M88.1363 72.6243L87.8979 75.3785C88.159 75.3671 88.4276 75.2952 88.7038 75.1477C90.9321 73.9484 91.2612 70.6419 91.2991 68.7578L88.1363 72.6243Z" fill="#F15F5C"/>
        <path d="M84.1179 61.5878C84.1179 61.5878 83.0926 62.3899 82.8656 63.8426C82.6348 65.2954 83.6034 66.9184 83.6034 68.1442C83.6034 69.3662 85.8733 75.1885 88.6994 73.8152C91.5254 72.4419 91.2984 68.008 91.2984 67.0168C91.2984 66.0256 89.9251 62.5866 88.2416 61.7846C86.5618 60.9787 84.1179 61.5878 84.1179 61.5878Z" fill="#F6957E"/>
        <path d="M83.974 68.9583C84.0648 69.1701 84.254 69.2874 84.3977 69.2231C84.5415 69.155 84.5869 68.9318 84.4999 68.7199C84.4091 68.5081 84.2199 68.3908 84.0761 68.4551C83.9286 68.5194 83.8832 68.7464 83.974 68.9583Z" fill="#501F5E"/>
        <path d="M85.1204 68.8676C83.8832 67.6872 83.5163 68.7768 83.1455 68.9168C83.4519 68.8827 83.7697 68.4325 84.114 68.4741C84.3978 68.5044 84.829 68.7314 85.1204 68.8676Z" fill="#42124A"/>
        <path d="M84.9277 68.3242C85.2228 68.9976 85.5103 69.8451 85.7146 70.5601C85.9795 70.5639 86.2897 70.4882 86.5243 70.318C86.1989 70.6887 85.6541 70.6774 85.6238 70.685C85.4347 70.1061 85.1472 69.3457 84.9277 68.3242Z" fill="#501F5E"/>
        <path d="M85.4722 67.31C85.4722 67.31 85.5819 66.6252 85.998 66.122C86.418 65.6227 87.5756 65.5508 87.5756 65.5508C87.5756 65.5508 86.4823 65.8156 86.2137 66.1637C85.9489 66.5079 85.8354 67.0073 85.8354 67.0073L85.4722 67.31Z" fill="#501F5E"/>
        <path d="M84.8441 67.7866C84.8441 67.7866 84.3977 67.3705 83.921 67.2986C83.4443 67.2267 82.9639 67.8661 82.9639 67.8661C82.9639 67.8661 83.5276 67.4083 83.8454 67.4726C84.1632 67.537 84.4999 67.8169 84.4999 67.8169L84.8441 67.7866Z" fill="#501F5E"/>
        <path d="M88.2525 71.1406C87.3975 71.5 87.0078 71.867 85.8804 71.814C86.7467 72.1243 87.7606 71.7724 88.2525 71.1406Z" fill="white"/>
        <path d="M86.6108 67.7018C86.6903 67.978 86.9135 68.1558 87.1102 68.099C87.3069 68.0423 87.3977 67.7699 87.3183 67.4937C87.2389 67.2176 87.0156 67.0397 86.8189 67.0965C86.6222 67.1532 86.5276 67.4256 86.6108 67.7018Z" fill="#501F5E"/>
        <path d="M88.2716 67.3931C86.5578 66.4549 86.346 67.5937 85.9336 67.7979C86.293 67.7109 86.5767 67.2078 86.9929 67.1888C87.3334 67.1661 87.8971 67.3099 88.2716 67.3931Z" fill="#42124A"/>
        <path opacity="0.53" d="M84.1179 61.5866C84.1179 61.5866 83.0926 62.3887 82.8656 63.8414C82.6348 65.2942 83.6034 66.9172 83.6034 68.143C83.6034 68.2111 83.6261 68.3964 83.6261 68.3964C84.5983 68.7104 86.0171 63.2966 86.0322 61.3672C84.9805 61.371 84.1179 61.5866 84.1179 61.5866Z" fill="#F15F5C"/>
        <path d="M83.5688 62.3169C83.5461 62.2374 84.4616 59.7594 86.7164 59.3924C89.4139 58.9536 92.5993 60.9587 93.5716 63.6789C94.5439 66.399 95.4254 69.505 98.0888 70.2768C100.752 71.0486 101.24 74.9756 100.408 77.4385C99.5756 79.9014 97.0257 79.2733 97.0257 79.2733C97.0257 79.2733 98.5882 77.9114 98.1721 77.4952C98.1721 77.4952 96.9803 79.803 95.6373 79.3452C94.2904 78.8874 93.7457 78.1384 93.7457 78.1384C93.7457 78.1384 96.0686 77.7827 94.5401 76.4927C93.4771 75.596 92.936 74.7751 91.6724 73.2542C90.4656 71.8015 91.0974 67.9123 90.0494 65.1203C89.917 65.23 89.7127 65.3321 89.3874 65.3662C87.9611 65.5137 88.6118 64.4733 87.2536 62.9184C84.9269 61.6132 83.7239 62.3207 83.5688 62.3169Z" fill="#24272E"/>
        <path d="M83.9291 61.7305C81.6667 62.3017 80.7738 64.5149 81.905 66.2174C82.098 66.5049 82.359 66.7773 82.6995 66.8038V66.3157C82.5709 66.3384 82.3287 66.0736 82.2531 65.9715C81.1219 64.5301 81.8218 62.4379 83.9291 61.7305Z" fill="#501F5E"/>
        <path d="M85.5932 60.1875C85.5932 60.1875 84.0042 60.1951 82.8314 61.3641C81.6586 62.5369 82.0105 67.1562 82.8314 67.8448C83.6524 68.5295 80.7431 69.1802 82.4834 69.1802C84.2237 69.1802 87.1481 60.3502 85.5932 60.1875Z" fill="#24272E"/>
        <path d="M92.929 65.3984C92.5621 66.4502 92.301 67.8311 92.3502 68.9055C92.5242 72.3407 96.1713 70.5474 97.1814 70.6193C97.8056 70.6458 98.3353 71.217 98.1083 71.9926C97.9267 72.632 97.5105 72.8249 97.2987 73.0784C96.9733 73.4756 97.1436 73.9334 97.5219 74.1226C98.2747 74.5009 99.2016 73.6459 99.5043 74.6636C99.7313 75.371 99.5119 76.2185 98.9519 76.7708C99.5913 76.3017 99.9129 75.4202 99.7388 74.603C99.5535 73.7632 98.9746 73.8048 98.1726 73.8653C97.677 73.8994 97.4954 73.661 97.537 73.5059C97.5673 73.207 98.2558 73.0935 98.5547 72.1288C98.7893 71.4365 98.5206 70.6912 97.8813 70.328C96.2091 69.3633 92.4826 72.8363 92.6415 67.7289C92.6566 66.9458 92.7777 66.1702 92.929 65.3984Z" fill="#562367"/>
        <path d="M89.8162 66.1238C89.8162 66.1238 89.7595 64.7997 90.448 64.9132C91.1365 65.0266 91.6208 65.9271 91.2841 66.8086C90.9512 67.6863 89.7216 67.2966 89.8162 66.1238Z" fill="#F37575"/>
        <path d="M90.0843 66.329C90.0843 66.329 89.9897 65.5193 90.2924 65.4437C90.595 65.368 90.9128 66.0036 90.8447 66.4235C90.7842 66.8397 90.1297 66.8132 90.0843 66.329Z" fill="#F15F5C"/>
        <path d="M106.209 98.5701C106.209 98.5701 104.869 99.8942 105.611 100.099C106.356 100.303 107.067 99.7807 107.067 99.3343C107.067 98.8879 106.969 98.2523 106.209 98.5701Z" fill="#F15F5C"/>
        <path d="M105.913 73.2677C105.83 73.2677 105.762 73.1996 105.762 73.1202C105.762 65.6672 98.1498 63.8286 98.0703 63.8097C97.9909 63.7907 97.9417 63.7113 97.9568 63.6319C97.9757 63.5524 98.0552 63.5032 98.1346 63.5184C98.2141 63.5373 106.057 65.4251 106.057 73.1164C106.064 73.1996 105.996 73.2677 105.913 73.2677Z" fill="#464B80"/>
        <path d="M104.396 76.3113C104.385 76.3113 104.377 76.3113 104.366 76.3075C104.286 76.2924 104.233 76.213 104.248 76.1335C105.523 69.5961 100.794 68.4006 100.745 68.3892C100.666 68.3703 100.616 68.2909 100.635 68.2114C100.654 68.132 100.734 68.0828 100.813 68.1017C100.862 68.1131 105.868 69.3767 104.54 76.194C104.525 76.2621 104.464 76.3113 104.396 76.3113Z" fill="#464B80"/>
        <path d="M213.18 125.485C213.055 124.941 209.537 95.1778 208.224 84.1951L201.13 83.9492L197.211 100.187L206.537 129.586C206.219 132.303 206.34 134.493 207.202 138.208C207.914 141.273 210.823 151.518 212.567 156.201C213.505 155.698 216.377 154.696 217.394 154.344C213.426 129.768 214.512 131.232 213.18 125.485Z" fill="#24272E"/>
        <path d="M200.597 128.528L206.536 95.1558L205.821 83.7305H200.01C200.01 83.7305 194.188 90.022 192.879 97.9933C191.57 105.965 193.999 128.671 193.999 128.671C193.999 128.671 193.745 131.524 193.163 133.972C192.554 136.529 193.632 152.559 194.324 156.788C195.38 156.577 198.603 156.406 199.598 156.421C199.216 147.913 199.061 134.547 199.636 133.158C200.014 132.239 200.347 130.321 200.597 128.528Z" fill="#24272E"/>
        <path d="M208.428 85.38L198.815 85.1719L200.01 83.7305H208.428V85.38Z" fill="#391625"/>
        <path d="M220.742 60.4389C220.878 59.5574 220.818 58.9445 220.546 58.6721C220.273 58.3997 220.406 58.2371 220.148 57.9798C219.891 57.7225 219.293 57.9571 219.218 57.2837C219.142 56.6141 219.324 52.7741 218.851 52.8649C218.378 52.9557 218.325 58.0365 218.136 58.2257C217.946 58.4149 217.602 58.6229 217.481 57.8285C217.36 57.0378 217.969 56.6557 217.723 56.4135C217.481 56.1714 216.777 56.9924 216.717 57.2837C216.717 57.2837 216.108 59.9055 216.717 61.6722C217.19 63.0418 217.424 64.2146 217.489 65.3306C217.579 67.9032 217.235 70.5401 216.445 74.5579C216.27 75.4508 215.468 75.2238 214.992 74.9589L212.816 78.3298C214.333 80.1382 216.358 81.1634 217.322 81.0462C219.793 80.7435 219.471 65.6938 219.471 65.6938C219.464 65.5084 219.467 65.6181 219.456 65.3306C219.422 64.4189 219.392 63.579 219.392 63.4693C219.399 62.7996 220.602 61.3204 220.742 60.4389Z" fill="#F6957E"/>
        <path d="M219.951 57.8704C219.951 57.8704 217.693 60.076 218.124 60.5111C218.559 60.9462 220.371 58.6006 220.371 58.6006C220.371 58.6006 218.359 60.6511 218.714 61.0067C219.07 61.3623 220.81 59.6296 220.81 59.6296C220.81 59.6296 218.975 61.2072 219.304 61.3888C219.634 61.5704 220.81 60.3106 220.81 60.3106C220.81 60.3106 220.977 59.8415 220.916 59.5539C220.852 59.2702 220.958 59.1529 220.905 58.9751C220.852 58.8011 220.629 58.5362 220.53 58.4341C220.432 58.3395 220.394 57.7077 219.951 57.8704Z" fill="#F37575"/>
        <path d="M214.806 74.4529C214.992 73.9951 215.26 73.4503 214.682 73.0455C213.895 72.4969 213.921 72.8942 213.921 71.676C213.921 70.5372 213.615 70.3708 212.741 70.0908C212.711 69.9887 212.677 69.8827 212.646 69.7806C211.549 66.0314 208.193 60.3339 207.149 59.8874C206.105 59.441 205.836 62.2822 205.836 62.2822C205.836 62.2822 212.563 79.3295 212.816 79.6283L214.992 74.9598L214.825 74.4718C214.822 74.4642 214.814 74.4567 214.806 74.4529Z" fill="#4B4B9F"/>
        <path d="M206.877 60.0059C206.877 60.0059 204.743 58.3526 197.555 59.8621C197.203 59.9378 196.669 68.2041 196.669 68.2041C196.669 68.2041 199.064 81.1314 198.387 84.5553C198.387 84.5553 203.445 88.7547 209.43 85.8302C209.43 85.8302 208.689 75.0518 209.241 72.657C209.793 70.2584 210.883 68.0869 209.355 65.5899C207.826 63.093 206.877 60.0059 206.877 60.0059Z" fill="#7F72A4"/>
        <path d="M209.949 85.2015C209.949 85.2015 209.801 85.4625 209.559 85.7047C209.317 85.9468 207.267 86.6278 207.267 86.6278L208.489 85.9165C208.489 85.9165 209.949 84.9972 209.949 85.2015Z" fill="#F15F5C"/>
        <path d="M261.397 68.7188C261.397 68.7188 260.284 75.2259 256.8 79.6107C254.193 82.887 248.742 86.5378 248.742 86.5378L251.829 89.8519L260.345 82.9702L261.397 68.7188Z" fill="#363A68"/>
        <path d="M266.061 62.6328H272.89L272.667 84.6172L263.602 85.2187L266.061 62.6328Z" fill="#271010"/>
        <path d="M258.407 167.98C254.56 167.98 254.655 169.527 254.655 169.527H265.913C265.913 169.527 265.354 164.768 265.266 163.645H262.622C262.331 165.022 261.362 167.98 258.407 167.98Z" fill="#271010"/>
        <path d="M277.226 168.548C273.722 168.548 273.007 164.39 272.905 163.645H270.374C270.374 163.849 270.374 163.977 270.374 164.008C270.374 164.522 269.716 170.095 269.716 170.095C269.716 170.095 272.531 170.095 274.407 170.095C276.284 170.095 280.975 170.095 280.975 170.095C280.975 170.095 281.073 168.548 277.226 168.548Z" fill="#271010"/>
        <path d="M276.223 138.617L279.817 108.858L278.803 100.051H259.017L258.877 107.81L256.8 138.05C256.8 138.05 261.96 163.227 261.873 163.643H265.607C265.6 163.552 264.552 136.037 264.552 136.037L268.819 111.525L270.488 137.251C270.488 137.251 269.731 160.443 269.716 163.639H273.23C273.227 163.571 276.223 138.617 276.223 138.617Z" fill="#4B4B9F"/>
        <path d="M278.936 101.208L278.803 100.051H259.017L258.998 101.065L263.152 102.449C266.538 103.577 270.14 103.668 273.567 102.71L278.936 101.208Z" fill="#101010"/>
        <path d="M280.173 68.4768C278.02 66.1123 273.041 62.3328 267.552 63.2446L261.816 65.7377L260.129 77.8554L258.62 100.937L279.068 101.168L281.013 78.6991C281.02 78.7029 282.325 70.8451 280.173 68.4768Z" fill="#24272E"/>
        <path d="M266.856 57.8065C266.856 57.8065 266.795 62.5431 266.334 64.9531C266.156 65.8875 266.591 66.8409 267.401 67.1852C267.998 67.4387 268.789 67.5862 269.777 67.4046C272.349 66.9241 272.436 64.0943 272.436 64.0943L271.57 55.4609L266.856 57.8065Z" fill="#F6957E"/>
        <path d="M271.574 55.457L266.86 57.8064C266.86 57.8064 266.837 59.5543 266.716 61.4686C267.945 61.5291 269.493 60.8443 271.135 58.7863C271.381 58.4798 271.608 58.1772 271.819 57.8745L271.574 55.457Z" fill="#F15F5C"/>
        <path d="M267.162 45.6668C267.162 45.6668 265.547 47.0098 264.85 49.2646C264.154 51.5194 263.542 53.15 263.542 53.15L264.283 53.6305C264.283 53.6305 263.693 56.7781 264.151 57.8526C264.847 59.4831 267.794 60.8035 271.131 57.1337C274.467 53.464 274.751 50.2256 274.184 48.6404C273.62 47.059 268.471 44.8534 267.162 45.6668Z" fill="#F6957E"/>
        <path d="M272.179 49.1787C272.179 49.1787 270.696 47.8356 268.558 48.4107C266.421 48.9857 265.702 48.1005 266.114 47.6427C266.114 47.6427 264.238 47.6919 263.542 46.0121C262.846 44.3324 263.02 39.2477 266.334 40.2049C269.648 41.1658 268.978 43.466 268.978 43.466C268.978 43.466 270.041 42.3613 271.044 42.9364C272.046 43.5114 271.918 44.3286 271.918 44.3286C271.918 44.3286 272.833 46.2013 274.097 46.4396C275.36 46.678 275.232 49.4624 275.232 49.4624C275.232 49.4624 275.973 50.0375 275.451 52.0539C274.929 54.0704 271.842 57.1537 271.842 58.1147C271.842 58.1147 271.089 56.9003 271.702 54.933C272.311 52.9657 272.311 51.8156 271.657 51.8156C271.002 51.8194 272.179 49.1787 272.179 49.1787Z" fill="#131840"/>
        <path d="M271.237 53.1219C271.237 53.1219 271.449 51.4648 271.926 51.4648C272.399 51.4648 272.841 51.6464 272.728 52.5809C272.614 53.5154 272.123 54.5595 271.502 54.1282C270.878 53.697 271.237 53.1219 271.237 53.1219Z" fill="#F6957E"/>
        <path d="M276.81 49.3979C276.768 49.2579 276.655 49.1066 276.518 49.0423C276.076 48.8342 275.482 49.2806 275.092 49.5909L275.028 49.5039C275.293 49.205 275.569 48.9061 275.958 48.7169C276.534 48.4521 277.048 48.7207 277.264 49.2277L276.81 49.3979Z" fill="#131840"/>
        <path d="M276.863 51.5073C276.904 51.269 276.904 50.9853 276.848 50.7393C276.564 49.4947 275.187 49.6044 275.119 49.5665V49.4909C275.156 49.506 277.112 49.0899 277.392 51.0988C277.419 51.2728 277.43 51.4203 277.415 51.6322L276.863 51.5073Z" fill="#131840"/>
        <path d="M266.784 50.6674C266.784 51.076 266.621 51.4051 266.417 51.4051C266.216 51.4051 266.05 51.076 266.05 50.6674C266.05 50.2588 266.212 49.9297 266.417 49.9297C266.621 49.9297 266.784 50.2626 266.784 50.6674Z" fill="#304B9E"/>
        <path d="M267.605 49.9392C266.796 49.2128 265.922 49.6857 265.914 49.6895L265.778 49.1599C265.816 49.1372 266.75 48.6302 267.662 49.4512L267.605 49.9392Z" fill="#304B9E"/>
        <path d="M265.38 63.4688L263.856 108.274H254.371L257.167 87.9236L259.002 75.5524C259.002 75.5524 259.891 67.2331 261.824 65.7463C263.754 64.2557 265.38 63.4688 265.38 63.4688Z" fill="#565EA4"/>
        <path d="M271.55 52.453C271.55 52.453 271.826 51.8931 272.076 51.9726C272.322 52.052 272.379 53.1794 271.94 53.6561C271.497 54.129 271.127 53.3534 271.55 52.453Z" fill="#F15F5C"/>
        <path d="M272.992 63.2227L271.993 108.27H282.151C282.151 108.27 282.533 72.5635 281.41 68.8332C280.286 65.1029 272.992 63.2227 272.992 63.2227Z" fill="#565EA4"/>
        <path d="M261.692 65.1335L266.062 62.6328L264.654 84.7988L262.252 72.2687L263.099 71.7012L261.692 65.1335Z" fill="#787EB5"/>
        <path d="M272.508 85.1052L272.89 62.6328L276.783 64.3655L274.66 71.6861L275.201 72.0947L272.508 85.1052Z" fill="#787EB5"/>
        <path d="M254.655 91.242L240.57 80.6981L255.487 79.3438L266.765 91.242H254.655Z" fill="#1E3440"/>
        <path d="M262.497 86.7656C262.497 86.7656 264.026 87.1061 264.593 87.7152C265.316 88.487 267.03 89.7468 267.748 89.7468C268.467 89.7468 271.535 90.0457 271.535 90.0457L272.05 93.4203C272.05 93.4203 260.609 90.7986 260.068 90.2235C259.531 89.6484 262.751 90.651 262.751 90.3937C262.751 90.1365 258.869 89.849 259.07 89.1982C259.27 88.5513 262.652 90.0722 262.951 89.7506C263.25 89.429 258.869 88.8918 258.869 88.207C258.869 87.5223 263.231 89.1982 263.231 89.1982C263.231 89.1982 263.311 88.8502 262.13 88.294C260.95 87.7379 259.807 87.2877 260.068 87.0078C260.329 86.7278 263.348 88.5021 263.746 88.0784L262.497 86.7656Z" fill="#F6957E"/>
        <path d="M278.614 67.9638C278.614 67.9638 276.95 71.0055 277.282 75.3865C277.615 79.7675 278.183 86.4865 277.248 88.677C276.318 90.8675 269.497 88.677 269.497 88.677V93.8638C269.497 93.8638 279.386 97.8816 282.25 96.565C285.114 95.2522 284.841 83.929 284.841 78.379C284.841 72.829 280.438 63.98 278.614 67.9638Z" fill="#787EB5"/>
        <path d="M278.614 67.9609C277.793 69.7239 277.252 72.3344 277.426 75.0431C277.733 79.1215 278.705 87.9742 276.927 89.3211C275.213 90.3728 271.343 89.3249 269.497 88.6741C271.305 89.1546 276.431 90.335 277.093 88.5947C277.661 87.2025 277.57 83.8354 277.517 82.3372C277.313 75.8679 276.518 73.5828 277.884 69.6331C278.085 69.0581 278.315 68.4944 278.614 67.9609Z" fill="#24272E"/>
        <path d="M264.93 56.2288L265.063 57.0422C266.716 56.8568 267.533 55.457 267.533 55.457C266.553 56.4369 264.93 56.2288 264.93 56.2288Z" fill="#2B3378"/>
        <path d="M250.508 86.6315C250.508 86.6315 250.308 86.8736 249.994 87.6189C249.687 88.3415 250.538 89.083 250.705 89.2381C251.023 89.537 251.594 89.938 251.95 90.1423C252.305 90.3466 252.532 90.4488 252.877 90.5244C253.38 90.6342 254.507 88.8409 254.352 88.6707C254.246 88.5572 254.121 88.4664 254.004 88.5004C253.879 88.5382 252.627 89.5181 252.627 89.5181C252.627 89.5181 253.758 88.107 253.629 87.687C253.501 87.2671 253.259 87.32 253.16 87.426C253.062 87.5319 251.624 88.856 251.624 88.856C251.624 88.856 252.593 87.1725 252.51 86.8963C252.426 86.6239 252.033 86.431 251.59 87.1082C251.341 87.4903 250.686 88.1107 250.686 88.1107C250.686 88.1107 251.231 86.8396 251.106 86.4272C250.985 86.0148 250.508 86.6315 250.508 86.6315Z" fill="#F6957E"/>
        <path d="M176.006 111.469H173.758V162.947H176.006V111.469Z" fill="#856E76"/>
        <path d="M182.891 111.855H180.644V165.528H182.891V111.855Z" fill="#856E76"/>
        <path d="M57.772 110.508H186.402V113.156H57.772" fill="#1F160C"/>
        <path d="M69.2943 106.223H93.8438V85.3468H69.2943V106.223Z" fill="#464B80"/>
        <path d="M72.4369 102.371H87.9595V90.3669H72.4369V102.371Z" fill="#24272E"/>
        <path d="M74.8049 99.457H81.5693V92.6926H74.8049V99.457Z" fill="#565EA4"/>
        <path d="M76.3486 109.898H78.7661V97.9132H76.3486V109.898Z" fill="#565EA4"/>
        <path d="M74.4154 110.469H90.0742V109.027H74.4154V110.469Z" fill="#565EA4"/>
        <path d="M81.5685 92.6914V99.4558H78.7651V109.024H79.0527V99.6261H81.8674V92.6914H81.5685Z" fill="#565EA4"/>
        <path d="M126.431 106.223H150.98V85.3468H126.431V106.223Z" fill="#565EA4"/>
        <path d="M129.574 102.371H145.096V90.3669H129.574V102.371Z" fill="#3D415E"/>
        <path d="M131.942 99.457H138.707V92.6926H131.942V99.457Z" fill="#252744"/>
        <path d="M131.551 110.469H147.21V109.027H131.551V110.469Z" fill="#252744"/>
        <path d="M138.706 92.6914V99.4558H135.903V109.024H136.187V99.6261H139.001V92.6914H138.706Z" fill="#5A5F7B"/>
        <path d="M135.904 99.457H133.274V109.369H135.904V99.457Z" fill="#252744"/>
        <path d="M198.682 59.4531C198.682 59.4531 203.434 106.346 198.413 119.989C195.485 127.945 192.614 128.584 190.73 127.737C189.353 127.116 188.535 125.682 188.55 124.173C188.6 118.986 189.042 102.241 192.489 90.5929C196.673 76.4588 194.63 74.7033 194.63 72.3653C194.63 68.3172 195.258 62.4419 196.212 60.1379C196.344 59.8125 198.682 59.4531 198.682 59.4531Z" fill="#565EA4"/>
        <path d="M201.614 59.0058C202.42 58.9907 203.312 59.1988 204.818 59.3652C204.958 59.3804 205.064 59.2896 205.215 59.3047C203.664 57.8217 197.785 57.0348 197.445 59.5544C195.129 76.7416 200.797 108.941 198.413 119.988C203.88 108.899 202.749 78.7694 199.522 61.5254C199.238 60.0159 200.081 59.0323 201.614 59.0058Z" fill="#565EA4"/>
        <path d="M205.212 59.3008C208.518 63.0386 209.88 124.179 214.216 125.606C214.216 125.606 213.974 107.745 213.974 103.254C213.974 98.7637 212.003 69.0691 211.061 66.5759C210.119 64.0828 207.153 59.8834 207.153 59.8834L205.212 59.3008Z" fill="#565EA4"/>
        <path d="M205.212 59.3007C205.064 59.172 204.675 59.0207 204.709 59.1002C206.604 63.1444 207.501 99.9288 211.965 118.796C211.363 110.953 209.022 63.2579 205.212 59.3007Z" fill="#565EA4"/>
        <path d="M204.13 88.502L204.406 88.3053C204.406 88.3053 205.556 88.3166 206.04 88.0783C206.525 87.8399 207.115 87.8475 206.895 88.0783C206.676 88.3091 205.586 88.555 205.802 89.1489C206.022 89.7391 204.13 88.502 204.13 88.502Z" fill="#F37575"/>
        <path d="M208.262 88.8232C208.057 88.9518 207.618 89.001 207.161 89.1599C206.707 89.315 209.219 88.2103 209.219 87.8433C209.219 87.4801 207.115 88.5962 206.502 88.8535C205.806 89.1486 204.698 88.634 204.406 88.3049C204.406 88.3049 195.735 85.3956 193.431 83.765C193.223 83.6175 192.693 82.8684 192.754 82.3047C191.275 82.4371 189.818 82.7511 188.498 83.4586C188.513 84.3666 188.256 85.475 188.498 85.9252C190 88.6946 199.791 89.7312 201.845 89.7312C203.903 89.7312 205.92 90.223 206.491 90.223C207.062 90.223 209.726 88.7664 209.801 88.0855C209.881 87.4385 208.53 88.6567 208.262 88.8232Z" fill="#F6957E"/>
        <path d="M193.707 74.7405C195.209 73.0456 195.731 68.5322 195.731 65.3619C195.731 62.1915 195.236 60.1334 195.236 60.1334C195.236 60.1334 191.899 60.001 190.041 63.5724C188.093 67.3178 185.452 71.1729 187.953 83.2225C189.273 82.515 191.275 82.4356 192.754 82.3032C193.094 79.2652 192.44 76.1706 193.707 74.7405Z" fill="#4B4B9F"/>
        <path d="M187.696 82.3709C187.696 82.3709 187.393 83.3319 187.696 83.6459C187.994 83.9599 187.631 84.6787 187.828 85.0797C188.028 85.4808 191.297 84.4366 192.845 83.994C194.392 83.5551 193.431 83.0217 193.246 82.4466C193.06 81.8753 193.272 81.5765 192.916 81.2057C192.561 80.835 187.968 81.3192 187.696 82.3709Z" fill="#565EA4"/>
        <path d="M188.092 83.7587C189.269 83.2858 191.49 82.5215 192.738 82.7031C192.935 82.7334 192.886 83.0474 192.689 83.0058C192.659 83.0058 192.042 82.8053 190.381 83.1458C189.613 83.3009 188.849 83.5128 188.092 83.7587Z" fill="#DEADC3"/>
        <path d="M204.085 53.3446C204.251 53.5111 203.582 58.2893 204.244 59.6134C204.244 59.6134 205.984 66.4459 204.804 66.5859C203.775 66.7108 199.919 60.7408 199.715 59.795C199.439 58.5276 199.685 52.4102 199.685 52.4102L204.085 53.3446Z" fill="#F6957E"/>
        <path d="M204.016 55.3217C202.442 56.7442 200.823 55.7568 199.631 53.9749C199.658 53.0745 199.639 52.1703 199.639 52.1211L204.084 53.3469C204.152 53.4112 204.08 54.2586 204.016 55.3217Z" fill="#F15F5C"/>
        <path d="M203.59 42.6054C203.59 42.6054 205.58 42.9837 205.818 44.69C206.056 46.3962 206.385 47.8187 206.056 49.8087C205.723 51.7986 204.539 54.4545 202.595 54.882C200.65 55.3095 198.615 52.0862 198.615 50.3308C198.615 48.5791 197.903 45.6395 199.231 43.8387C200.555 42.0341 203.59 42.6054 203.59 42.6054Z" fill="#F6957E"/>
        <path d="M201.342 51.7852C202.39 52.2429 203.941 52.2543 203.941 52.2543C203.941 52.2543 203.831 52.4661 203.642 52.6969C203.188 52.6742 202.303 52.591 201.569 52.3299C201.417 52.0349 201.342 51.7852 201.342 51.7852Z" fill="white"/>
        <path d="M201.568 52.3281C202.299 52.5892 203.188 52.6686 203.642 52.6951C202.9 53.5766 202.113 53.3647 201.568 52.3281Z" fill="#2C1229"/>
        <path d="M203.714 41.8854C203.714 41.8854 205.579 42.9864 205.818 44.6926C206.033 46.2399 206.325 47.5527 206.132 49.2665C205.814 49.0471 205.367 48.8277 204.732 48.6196C202.976 48.0408 201.153 45.4909 200.937 43.342C200.699 41.0418 203.714 41.8854 203.714 41.8854Z" fill="#F15F5C"/>
        <path d="M203.608 50.6381C203.555 50.0934 203.521 49.5486 203.524 49C203.646 49.6961 203.676 50.2031 203.714 50.7062C203.422 50.7857 203.078 50.9484 202.639 50.7819C202.976 50.8462 203.305 50.7516 203.608 50.6381Z" fill="#252C64"/>
        <path d="M202.53 48.9467C202.432 48.6327 202.163 48.3339 201.796 48.2355C201.145 48.0653 200.748 49.0035 200.302 48.9921C200.623 49.1548 201.134 48.61 201.486 48.4701C201.679 48.3944 201.845 48.4474 202.034 48.5344C202.22 48.629 202.386 48.7765 202.53 48.9467Z" fill="#252C64"/>
        <path d="M201.353 48.668C201.353 48.8647 201.493 49.0274 201.671 49.0274C201.845 49.0274 201.989 48.8685 201.989 48.668C201.989 48.4713 201.849 48.3086 201.671 48.3086C201.497 48.3086 201.353 48.4675 201.353 48.668Z" fill="#252C64"/>
        <path d="M203.975 49.1522C204.088 48.8419 204.368 48.5544 204.739 48.475C205.397 48.335 205.749 49.2884 206.195 49.2997C205.87 49.4473 205.382 48.8798 205.034 48.7247C204.849 48.6376 204.674 48.683 204.485 48.7663C204.3 48.8495 204.13 48.9895 203.975 49.1522Z" fill="#252C64"/>
        <path d="M205.163 48.9257C205.155 49.1224 205.004 49.2776 204.83 49.27C204.656 49.2624 204.52 49.096 204.531 48.8992C204.539 48.7025 204.69 48.5474 204.864 48.555C205.038 48.5587 205.174 48.7252 205.163 48.9257Z" fill="#252C64"/>
        <path d="M202.76 47.431C202.832 47.3856 202.265 46.8143 201.584 46.75C200.903 46.6857 200.169 47.431 200.169 47.431C200.169 47.431 201.171 46.8333 201.595 47.0262C202.015 47.2191 202.367 47.6845 202.76 47.431Z" fill="#252C64"/>
        <path d="M201.83 41.1609C200.377 41.3274 198.081 40.9718 197.01 43.3401C196.378 44.6831 195.081 47.2784 195.081 51.8864C195.081 58.7492 188.46 61.7909 188.46 61.7909L191.362 63.1945L193.094 61.7909L191.914 64.3105L196.673 64.7872L196.878 61.4996L197.861 65.2374L200.086 64.7872C200.086 64.7872 199.208 53.5548 199.114 49.31C199.129 49.3289 199.136 49.3365 199.136 49.3365C199.136 49.3365 199.117 48.7917 199.117 48.088V48.0843C199.129 47.8762 199.129 47.6681 199.121 47.4525C199.132 46.779 199.17 46.0678 199.257 45.5911C199.469 44.4297 199.897 43.8357 200.941 43.3401C201.985 42.8445 205.719 44.2594 205.719 44.2594C205.583 42.0992 203.283 40.9945 201.83 41.1609Z" fill="#24272E"/>
        <path d="M203.774 41.5496C205.598 41.9506 206.15 44.7615 207.645 46.2521C209.139 47.7465 208.757 49.9029 208.049 51.3254C207.338 52.7479 206.199 51.8248 206.199 51.8248C206.199 51.8248 206.793 52.1578 207.172 50.9698C207.55 49.7857 206.888 48.8626 204.872 48.1967C202.859 47.5346 200.937 43.339 200.937 43.339C200.884 42.5181 201.947 41.1448 203.774 41.5496Z" fill="#24272E"/>
        <path d="M206.196 51.8217C206.888 52.2265 207.864 50.5316 207.153 49.4232C206.635 48.5681 205.5 48.2087 204.592 47.8304C203.154 47.0057 201.773 44.7282 200.937 43.3359C201.542 44.9968 202.832 47.3008 204.384 48.2201L204.758 48.3828C205.14 48.5379 206.309 48.8519 206.873 49.6123C207.327 50.2101 207.111 51.137 206.809 51.572C206.676 51.7612 206.442 51.9125 206.196 51.8217Z" fill="#043135"/>
        <path d="M199.514 49.5486C199.514 49.5486 199.007 47.3468 198.164 47.8802C197.32 48.4099 198.224 50.8463 199.011 50.8463C199.798 50.8463 199.514 49.5486 199.514 49.5486Z" fill="#F6957E"/>
        <path d="M198.694 48.3401C198.694 48.3401 199.942 50.3415 199.087 50.1183C198.232 49.8988 197.892 47.9694 198.694 48.3401Z" fill="#F15F5C"/>
        <path d="M116.87 104.883L117.369 105.068L118.39 102.291C118.213 102.215 118.065 102.109 117.933 101.992L116.87 104.883Z" fill="#F15F5D"/>
        <path d="M117.202 98.7578H116.003V104.747H117.202V98.7578Z" fill="#A0D3A1"/>
        <path d="M117.202 98.7578H116.003V101.879H117.202V98.7578Z" fill="#15467A"/>
        <path d="M116.291 104.774L115.508 104.918L114.316 98.4411V96.75L115.103 98.2973L116.291 104.774Z" fill="#BE202E"/>
        <path d="M118.58 103.98H114.99V110.465H118.58V103.98Z" fill="#4B4B9F"/>
        <path d="M116.839 99.9727H116.525V103.347H116.839V99.9727Z" fill="#15467A"/>
        <path d="M118.833 99.543L118.772 99.7056C117.717 99.2592 118.254 101.121 118.076 101.223C117.978 101.325 117.959 101.264 117.982 101.298C117.876 101.177 117.694 101.34 117.8 101.461C117.872 101.537 117.978 101.567 118.103 101.518L117.929 101.987C118.061 102.104 118.209 102.21 118.387 102.286L119.329 99.7246L118.833 99.543ZM118.625 99.751C118.67 99.7473 118.712 99.7473 118.754 99.7548L118.39 100.742C118.36 100.284 118.265 99.7889 118.625 99.751Z" fill="#5B1432"/>
        <path d="M115.885 39.6226H79.4158C78.3612 39.6226 77.5059 38.9392 77.5059 38.1019V13.884C77.5059 13.0467 78.3612 12.3633 79.4158 12.3633H115.885C116.94 12.3633 117.795 13.0467 117.795 13.884V38.1019C117.8 38.9392 116.94 39.6226 115.885 39.6226ZM79.4158 12.8159C78.6102 12.8159 77.9584 13.2956 77.9584 13.884V38.1019C77.9584 38.6902 78.6147 39.17 79.4158 39.17H115.885C116.691 39.17 117.343 38.6902 117.343 38.1019V13.884C117.343 13.2956 116.686 12.8159 115.885 12.8159H79.4158Z" fill="#243762"/>
        <path d="M102.346 28.4236C102.972 25.9287 101.456 23.3991 98.9613 22.7736C96.4664 22.1481 93.9368 23.6635 93.3113 26.1584C92.6858 28.6533 94.2012 31.1829 96.6961 31.8084C99.191 32.4339 101.721 30.9185 102.346 28.4236Z" fill="#DCD1E6"/>
        <path d="M97.8318 33.9146C94.1794 33.9146 91.2104 30.9456 91.2104 27.2932C91.2104 23.6408 94.1794 20.6719 97.8318 20.6719C101.484 20.6719 104.453 23.6408 104.453 27.2932C104.453 30.9456 101.48 33.9146 97.8318 33.9146ZM97.8318 21.1245C94.4283 21.1245 91.663 23.8898 91.663 27.2932C91.663 30.6967 94.4283 33.462 97.8318 33.462C101.235 33.462 104.001 30.6967 104.001 27.2932C104.001 23.8943 101.231 21.1245 97.8318 21.1245Z" fill="#243762"/>
        <path d="M97.2976 29.1257L95.1162 26.107C95.0438 26.0074 95.0664 25.8626 95.166 25.7901C95.2655 25.7177 95.4103 25.7404 95.4828 25.8399L97.3519 28.4287L105.58 20.2007C105.67 20.1102 105.811 20.1102 105.901 20.2007C105.992 20.2912 105.992 20.4315 105.901 20.522L97.2976 29.1257Z" fill="#243762"/>
        <path d="M117.334 17.2969H77.7324V17.7495H117.334V17.2969Z" fill="#243762"/>
        <path d="M80.6057 16.1314C80.1351 16.1314 79.7549 15.7467 79.7549 15.2805C79.7549 14.8099 80.1396 14.4297 80.6057 14.4297C81.0764 14.4297 81.4566 14.8144 81.4566 15.2805C81.4611 15.7512 81.0764 16.1314 80.6057 16.1314ZM80.6057 14.8777C80.384 14.8777 80.2075 15.0588 80.2075 15.276C80.2075 15.4933 80.3885 15.6743 80.6057 15.6743C80.8275 15.6743 81.004 15.4933 81.004 15.276C81.004 15.0588 80.8275 14.8777 80.6057 14.8777Z" fill="#243762"/>
        <path d="M82.9549 16.1314C82.4842 16.1314 82.104 15.7467 82.104 15.2805C82.104 14.8099 82.4842 14.4297 82.9549 14.4297C83.4256 14.4297 83.8057 14.8144 83.8057 15.2805C83.8103 15.7512 83.4256 16.1314 82.9549 16.1314ZM82.9549 14.8777C82.7331 14.8777 82.5566 15.0588 82.5566 15.276C82.5566 15.4933 82.7376 15.6743 82.9549 15.6743C83.1766 15.6743 83.3531 15.4933 83.3531 15.276C83.3531 15.0588 83.1766 14.8777 82.9549 14.8777Z" fill="#243762"/>
        <path d="M85.263 16.1314C84.7923 16.1314 84.4121 15.7467 84.4121 15.2805C84.4121 14.8099 84.7968 14.4297 85.263 14.4297C85.7337 14.4297 86.1138 14.8144 86.1138 15.2805C86.1138 15.7512 85.7337 16.1314 85.263 16.1314ZM85.263 14.8777C85.0412 14.8777 84.8647 15.0588 84.8647 15.276C84.8647 15.4933 85.0457 15.6743 85.263 15.6743C85.4847 15.6743 85.6612 15.4933 85.6612 15.276C85.6612 15.0588 85.4847 14.8777 85.263 14.8777Z" fill="#243762"/>
        <path d="M106.472 30.8906H136.601C137.131 30.8906 137.561 31.3206 137.561 31.8501V53.9544C137.561 54.8913 136.8 55.6516 135.863 55.6516H124.241C124.105 55.6516 123.978 55.7059 123.888 55.8055L114.225 66.034C113.913 66.3643 113.383 66.129 113.383 65.6628V56.1766C113.383 55.887 113.162 55.6561 112.89 55.6561H106.477C105.608 55.6561 104.902 54.9094 104.902 53.9861V32.5607C104.897 31.6419 105.603 30.8906 106.472 30.8906Z" fill="#565EA4"/>
        <path d="M113.605 56.1764H113.152C113.152 56.0134 113.03 55.8822 112.885 55.8822H106.472C105.477 55.8822 104.671 55.0313 104.671 53.9858V32.5604C104.671 31.5149 105.481 30.6641 106.472 30.6641H130.391V31.1166H106.472C105.725 31.1166 105.123 31.7638 105.123 32.5604V53.9813C105.123 54.7779 105.73 55.4251 106.472 55.4251H112.885C113.284 55.4296 113.605 55.7645 113.605 56.1764Z" fill="#243762"/>
        <path d="M133.03 38.3088H110.573C110.478 38.3088 110.401 38.2319 110.401 38.1368C110.401 38.0418 110.478 37.9648 110.573 37.9648H133.03C133.125 37.9648 133.202 38.0418 133.202 38.1368C133.202 38.2364 133.125 38.3088 133.03 38.3088Z" fill="white"/>
        <path d="M133.03 43.3557H122.928C122.833 43.3557 122.756 43.2787 122.756 43.1837C122.756 43.0887 122.833 43.0117 122.928 43.0117H133.03C133.125 43.0117 133.202 43.0887 133.202 43.1837C133.202 43.2787 133.125 43.3557 133.03 43.3557Z" fill="white"/>
        <path d="M120.987 43.3557H110.885C110.79 43.3557 110.713 43.2787 110.713 43.1837C110.713 43.0887 110.79 43.0117 110.885 43.0117H120.987C121.082 43.0117 121.159 43.0887 121.159 43.1837C121.155 43.2787 121.078 43.3557 120.987 43.3557Z" fill="white"/>
        <path d="M126.816 47.9221H111.695C111.6 47.9221 111.523 47.8452 111.523 47.7501C111.523 47.6551 111.6 47.5781 111.695 47.5781H126.816C126.911 47.5781 126.988 47.6551 126.988 47.7501C126.984 47.8452 126.907 47.9221 126.816 47.9221Z" fill="white"/>
        <path d="M142.171 33.7442C142.837 30.9375 141.102 28.1224 138.295 27.4564C135.488 26.7903 132.673 28.5256 132.007 31.3322C131.341 34.1389 133.076 36.954 135.883 37.62C138.69 38.286 141.505 36.5508 142.171 33.7442Z" fill="#DCD1E6"/>
        <path d="M137.153 39.5695C137.027 39.5695 136.927 39.47 136.927 39.3432C136.927 39.2165 137.027 39.117 137.153 39.117C140.81 39.117 143.788 36.1389 143.788 32.482C143.788 28.8251 140.81 25.8471 137.153 25.8471C133.497 25.8471 130.519 28.8251 130.519 32.482C130.519 32.6088 130.419 32.7083 130.292 32.7083C130.165 32.7083 130.066 32.6088 130.066 32.482C130.066 28.5717 133.248 25.3945 137.153 25.3945C141.064 25.3945 144.241 28.5762 144.241 32.482C144.241 36.3879 141.064 39.5695 137.153 39.5695Z" fill="#243762"/>
        <path d="M137.013 35.3852C136.814 35.3852 136.647 35.3264 136.52 35.2042C136.389 35.082 136.325 34.9372 136.325 34.7652C136.325 34.5841 136.393 34.4393 136.524 34.3216C136.656 34.2085 136.819 34.1497 137.018 34.1497C137.217 34.1497 137.38 34.2085 137.511 34.3262C137.638 34.4438 137.701 34.5887 137.701 34.7652C137.701 34.9462 137.638 35.0956 137.511 35.2132C137.38 35.3264 137.217 35.3852 137.013 35.3852ZM137.611 30.4339L137.502 33.1449C137.493 33.4119 137.271 33.6247 137.004 33.6247C136.737 33.6247 136.515 33.4119 136.506 33.1449L136.407 30.4339C136.398 30.1533 136.624 29.918 136.905 29.918H137.113C137.393 29.918 137.62 30.1533 137.611 30.4339Z" fill="white"/>
        <path d="M54.1869 43.7522C54.9587 42.4617 55.6019 41.1309 56.1164 39.7664C56.4346 38.9263 57.2471 38.3886 58.1475 38.402L62.1555 38.4558C63.347 38.4692 64.3219 37.5282 64.3423 36.3453L64.4777 26.6531C64.4912 25.4701 63.5434 24.5022 62.3518 24.4821L58.3371 24.4283C57.4366 24.4149 56.631 23.8503 56.3399 23.0034C55.3785 20.2342 53.9297 17.6263 52.0137 15.3142C51.445 14.6286 51.3773 13.654 51.8377 12.8877L53.889 9.46658C54.4984 8.45165 54.1599 7.14099 53.1376 6.53607L44.7493 1.57571C43.727 0.970789 42.4068 1.30686 41.7974 2.32178L39.7461 5.74295C39.2857 6.50918 38.392 6.91919 37.5119 6.75115C34.5601 6.17984 31.5541 6.15295 28.6429 6.63689C27.756 6.78476 26.8691 6.35459 26.4358 5.57491L24.4725 2.09325C23.8902 1.06489 22.5768 0.695213 21.541 1.27325L13.0173 6.00508C11.9814 6.58312 11.6091 7.88706 12.1913 8.91543L14.1479 12.3904C14.588 13.17 14.4932 14.1446 13.9042 14.8168C12.9428 15.9124 12.0694 17.102 11.2909 18.3993C10.5191 19.6898 9.87589 21.0273 9.36135 22.385C9.04315 23.2252 8.23073 23.7629 7.33029 23.7495L3.32233 23.6957C2.13077 23.6822 1.15586 24.6232 1.13555 25.8062L1.00014 35.4984C0.986603 36.6813 1.93443 37.6492 3.12599 37.6694L7.14073 37.7231C8.04116 37.7366 8.84682 38.3012 9.13794 39.1481C10.0993 41.9173 11.5481 44.5251 13.4641 46.8373C14.0328 47.5229 14.1005 48.4975 13.6401 49.2637L11.5888 52.6849C10.9794 53.6998 11.3179 55.0105 12.3402 55.6154L20.7285 60.5757C21.7508 61.1807 23.071 60.8446 23.6804 59.8297L25.7317 56.4085C26.1921 55.6423 27.0858 55.2323 27.9659 55.4003C30.9177 55.9716 33.9237 55.9985 36.8349 55.5146C37.7218 55.3667 38.6087 55.7969 39.042 56.5765L41.0053 60.0582C41.5876 61.0866 42.901 61.4562 43.9368 60.8782L52.4605 56.1464C53.4964 55.5683 53.8687 54.2644 53.2865 53.236L51.3299 49.7611C50.8898 48.9814 50.9846 48.0068 51.5736 47.3347C52.535 46.2391 53.4151 45.0427 54.1869 43.7522ZM27.4175 43.3422C19.2865 39.8202 16.7206 29.7449 22.1706 22.8017C25.8874 18.0699 32.529 16.403 38.0671 18.8025C46.1981 22.3245 48.764 32.3998 43.314 39.343C39.5903 44.0748 32.9555 45.7484 27.4175 43.3422Z" fill="#DCD1E6" stroke="#BEC8D2" stroke-miterlimit="10"/>
    </symbol>

    <use width="100%" height="100%" href="#tools-image"/>
</svg>